G04 #@! TF.GenerationSoftware,KiCad,Pcbnew,5.1.10-88a1d61d58~90~ubuntu21.04.1*
G04 #@! TF.CreationDate,2021-10-28T10:16:53+02:00*
G04 #@! TF.ProjectId,dwc-hat,6477632d-6861-4742-9e6b-696361645f70,rev?*
G04 #@! TF.SameCoordinates,Original*
G04 #@! TF.FileFunction,Paste,Top*
G04 #@! TF.FilePolarity,Positive*
%FSLAX46Y46*%
G04 Gerber Fmt 4.6, Leading zero omitted, Abs format (unit mm)*
G04 Created by KiCad (PCBNEW 5.1.10-88a1d61d58~90~ubuntu21.04.1) date 2021-10-28 10:16:53*
%MOMM*%
%LPD*%
G01*
G04 APERTURE LIST*
%ADD10R,0.640000X0.720000*%
%ADD11R,0.720000X0.800000*%
%ADD12R,0.520000X0.848000*%
%ADD13R,1.840000X0.800000*%
%ADD14R,0.520000X2.208000*%
%ADD15R,0.976000X0.728000*%
G04 APERTURE END LIST*
D10*
X143131500Y-77565500D03*
X144081500Y-79565500D03*
X142181500Y-79565500D03*
G36*
G01*
X146176000Y-78002000D02*
X145416000Y-78002000D01*
G75*
G02*
X145216000Y-77802000I0J200000D01*
G01*
X145216000Y-77402000D01*
G75*
G02*
X145416000Y-77202000I200000J0D01*
G01*
X146176000Y-77202000D01*
G75*
G02*
X146376000Y-77402000I0J-200000D01*
G01*
X146376000Y-77802000D01*
G75*
G02*
X146176000Y-78002000I-200000J0D01*
G01*
G37*
G36*
G01*
X146176000Y-79902000D02*
X145416000Y-79902000D01*
G75*
G02*
X145216000Y-79702000I0J200000D01*
G01*
X145216000Y-79302000D01*
G75*
G02*
X145416000Y-79102000I200000J0D01*
G01*
X146176000Y-79102000D01*
G75*
G02*
X146376000Y-79302000I0J-200000D01*
G01*
X146376000Y-79702000D01*
G75*
G02*
X146176000Y-79902000I-200000J0D01*
G01*
G37*
G36*
G01*
X150833499Y-82902000D02*
X151553501Y-82902000D01*
G75*
G02*
X151753500Y-83101999I0J-199999D01*
G01*
X151753500Y-83522001D01*
G75*
G02*
X151553501Y-83722000I-199999J0D01*
G01*
X150833499Y-83722000D01*
G75*
G02*
X150633500Y-83522001I0J199999D01*
G01*
X150633500Y-83101999D01*
G75*
G02*
X150833499Y-82902000I199999J0D01*
G01*
G37*
G36*
G01*
X150833499Y-81077000D02*
X151553501Y-81077000D01*
G75*
G02*
X151753500Y-81276999I0J-199999D01*
G01*
X151753500Y-81697001D01*
G75*
G02*
X151553501Y-81897000I-199999J0D01*
G01*
X150833499Y-81897000D01*
G75*
G02*
X150633500Y-81697001I0J199999D01*
G01*
X150633500Y-81276999D01*
G75*
G02*
X150833499Y-81077000I199999J0D01*
G01*
G37*
G36*
G01*
X151573500Y-78510000D02*
X150813500Y-78510000D01*
G75*
G02*
X150613500Y-78310000I0J200000D01*
G01*
X150613500Y-77910000D01*
G75*
G02*
X150813500Y-77710000I200000J0D01*
G01*
X151573500Y-77710000D01*
G75*
G02*
X151773500Y-77910000I0J-200000D01*
G01*
X151773500Y-78310000D01*
G75*
G02*
X151573500Y-78510000I-200000J0D01*
G01*
G37*
G36*
G01*
X151573500Y-80410000D02*
X150813500Y-80410000D01*
G75*
G02*
X150613500Y-80210000I0J200000D01*
G01*
X150613500Y-79810000D01*
G75*
G02*
X150813500Y-79610000I200000J0D01*
G01*
X151573500Y-79610000D01*
G75*
G02*
X151773500Y-79810000I0J-200000D01*
G01*
X151773500Y-80210000D01*
G75*
G02*
X151573500Y-80410000I-200000J0D01*
G01*
G37*
D11*
X190347000Y-88050000D03*
X190347000Y-85900000D03*
X191897000Y-85900000D03*
X191897000Y-88050000D03*
G36*
G01*
X191243000Y-90344000D02*
X191243000Y-89584000D01*
G75*
G02*
X191443000Y-89384000I200000J0D01*
G01*
X191843000Y-89384000D01*
G75*
G02*
X192043000Y-89584000I0J-200000D01*
G01*
X192043000Y-90344000D01*
G75*
G02*
X191843000Y-90544000I-200000J0D01*
G01*
X191443000Y-90544000D01*
G75*
G02*
X191243000Y-90344000I0J200000D01*
G01*
G37*
G36*
G01*
X189343000Y-90344000D02*
X189343000Y-89584000D01*
G75*
G02*
X189543000Y-89384000I200000J0D01*
G01*
X189943000Y-89384000D01*
G75*
G02*
X190143000Y-89584000I0J-200000D01*
G01*
X190143000Y-90344000D01*
G75*
G02*
X189943000Y-90544000I-200000J0D01*
G01*
X189543000Y-90544000D01*
G75*
G02*
X189343000Y-90344000I0J200000D01*
G01*
G37*
G36*
G01*
X150646000Y-84710000D02*
X150646000Y-85470000D01*
G75*
G02*
X150446000Y-85670000I-200000J0D01*
G01*
X150046000Y-85670000D01*
G75*
G02*
X149846000Y-85470000I0J200000D01*
G01*
X149846000Y-84710000D01*
G75*
G02*
X150046000Y-84510000I200000J0D01*
G01*
X150446000Y-84510000D01*
G75*
G02*
X150646000Y-84710000I0J-200000D01*
G01*
G37*
G36*
G01*
X152546000Y-84710000D02*
X152546000Y-85470000D01*
G75*
G02*
X152346000Y-85670000I-200000J0D01*
G01*
X151946000Y-85670000D01*
G75*
G02*
X151746000Y-85470000I0J200000D01*
G01*
X151746000Y-84710000D01*
G75*
G02*
X151946000Y-84510000I200000J0D01*
G01*
X152346000Y-84510000D01*
G75*
G02*
X152546000Y-84710000I0J-200000D01*
G01*
G37*
G36*
G01*
X148317000Y-85470000D02*
X148317000Y-84710000D01*
G75*
G02*
X148517000Y-84510000I200000J0D01*
G01*
X148917000Y-84510000D01*
G75*
G02*
X149117000Y-84710000I0J-200000D01*
G01*
X149117000Y-85470000D01*
G75*
G02*
X148917000Y-85670000I-200000J0D01*
G01*
X148517000Y-85670000D01*
G75*
G02*
X148317000Y-85470000I0J200000D01*
G01*
G37*
G36*
G01*
X146417000Y-85470000D02*
X146417000Y-84710000D01*
G75*
G02*
X146617000Y-84510000I200000J0D01*
G01*
X147017000Y-84510000D01*
G75*
G02*
X147217000Y-84710000I0J-200000D01*
G01*
X147217000Y-85470000D01*
G75*
G02*
X147017000Y-85670000I-200000J0D01*
G01*
X146617000Y-85670000D01*
G75*
G02*
X146417000Y-85470000I0J200000D01*
G01*
G37*
G36*
G01*
X148378000Y-83565000D02*
X148378000Y-82805000D01*
G75*
G02*
X148578000Y-82605000I200000J0D01*
G01*
X148978000Y-82605000D01*
G75*
G02*
X149178000Y-82805000I0J-200000D01*
G01*
X149178000Y-83565000D01*
G75*
G02*
X148978000Y-83765000I-200000J0D01*
G01*
X148578000Y-83765000D01*
G75*
G02*
X148378000Y-83565000I0J200000D01*
G01*
G37*
G36*
G01*
X146478000Y-83565000D02*
X146478000Y-82805000D01*
G75*
G02*
X146678000Y-82605000I200000J0D01*
G01*
X147078000Y-82605000D01*
G75*
G02*
X147278000Y-82805000I0J-200000D01*
G01*
X147278000Y-83565000D01*
G75*
G02*
X147078000Y-83765000I-200000J0D01*
G01*
X146678000Y-83765000D01*
G75*
G02*
X146478000Y-83565000I0J200000D01*
G01*
G37*
G36*
G01*
X175646500Y-91000998D02*
X175646500Y-91721002D01*
G75*
G02*
X175446502Y-91921000I-199998J0D01*
G01*
X175026498Y-91921000D01*
G75*
G02*
X174826500Y-91721002I0J199998D01*
G01*
X174826500Y-91000998D01*
G75*
G02*
X175026498Y-90801000I199998J0D01*
G01*
X175446502Y-90801000D01*
G75*
G02*
X175646500Y-91000998I0J-199998D01*
G01*
G37*
G36*
G01*
X177471500Y-91000998D02*
X177471500Y-91721002D01*
G75*
G02*
X177271502Y-91921000I-199998J0D01*
G01*
X176851498Y-91921000D01*
G75*
G02*
X176651500Y-91721002I0J199998D01*
G01*
X176651500Y-91000998D01*
G75*
G02*
X176851498Y-90801000I199998J0D01*
G01*
X177271502Y-90801000D01*
G75*
G02*
X177471500Y-91000998I0J-199998D01*
G01*
G37*
G36*
G01*
X142282000Y-60626000D02*
X142282000Y-59866000D01*
G75*
G02*
X142482000Y-59666000I200000J0D01*
G01*
X142882000Y-59666000D01*
G75*
G02*
X143082000Y-59866000I0J-200000D01*
G01*
X143082000Y-60626000D01*
G75*
G02*
X142882000Y-60826000I-200000J0D01*
G01*
X142482000Y-60826000D01*
G75*
G02*
X142282000Y-60626000I0J200000D01*
G01*
G37*
G36*
G01*
X140382000Y-60626000D02*
X140382000Y-59866000D01*
G75*
G02*
X140582000Y-59666000I200000J0D01*
G01*
X140982000Y-59666000D01*
G75*
G02*
X141182000Y-59866000I0J-200000D01*
G01*
X141182000Y-60626000D01*
G75*
G02*
X140982000Y-60826000I-200000J0D01*
G01*
X140582000Y-60826000D01*
G75*
G02*
X140382000Y-60626000I0J200000D01*
G01*
G37*
G36*
G01*
X126521000Y-59123998D02*
X126521000Y-59844002D01*
G75*
G02*
X126321002Y-60044000I-199998J0D01*
G01*
X125900998Y-60044000D01*
G75*
G02*
X125701000Y-59844002I0J199998D01*
G01*
X125701000Y-59123998D01*
G75*
G02*
X125900998Y-58924000I199998J0D01*
G01*
X126321002Y-58924000D01*
G75*
G02*
X126521000Y-59123998I0J-199998D01*
G01*
G37*
G36*
G01*
X128346000Y-59123998D02*
X128346000Y-59844002D01*
G75*
G02*
X128146002Y-60044000I-199998J0D01*
G01*
X127725998Y-60044000D01*
G75*
G02*
X127526000Y-59844002I0J199998D01*
G01*
X127526000Y-59123998D01*
G75*
G02*
X127725998Y-58924000I199998J0D01*
G01*
X128146002Y-58924000D01*
G75*
G02*
X128346000Y-59123998I0J-199998D01*
G01*
G37*
G36*
G01*
X176881000Y-61001000D02*
X176881000Y-60761000D01*
G75*
G02*
X177001000Y-60641000I120000J0D01*
G01*
X178161000Y-60641000D01*
G75*
G02*
X178281000Y-60761000I0J-120000D01*
G01*
X178281000Y-61001000D01*
G75*
G02*
X178161000Y-61121000I-120000J0D01*
G01*
X177001000Y-61121000D01*
G75*
G02*
X176881000Y-61001000I0J120000D01*
G01*
G37*
G36*
G01*
X176881000Y-62271000D02*
X176881000Y-62031000D01*
G75*
G02*
X177001000Y-61911000I120000J0D01*
G01*
X178161000Y-61911000D01*
G75*
G02*
X178281000Y-62031000I0J-120000D01*
G01*
X178281000Y-62271000D01*
G75*
G02*
X178161000Y-62391000I-120000J0D01*
G01*
X177001000Y-62391000D01*
G75*
G02*
X176881000Y-62271000I0J120000D01*
G01*
G37*
G36*
G01*
X176881000Y-63541000D02*
X176881000Y-63301000D01*
G75*
G02*
X177001000Y-63181000I120000J0D01*
G01*
X178161000Y-63181000D01*
G75*
G02*
X178281000Y-63301000I0J-120000D01*
G01*
X178281000Y-63541000D01*
G75*
G02*
X178161000Y-63661000I-120000J0D01*
G01*
X177001000Y-63661000D01*
G75*
G02*
X176881000Y-63541000I0J120000D01*
G01*
G37*
G36*
G01*
X176881000Y-64811000D02*
X176881000Y-64571000D01*
G75*
G02*
X177001000Y-64451000I120000J0D01*
G01*
X178161000Y-64451000D01*
G75*
G02*
X178281000Y-64571000I0J-120000D01*
G01*
X178281000Y-64811000D01*
G75*
G02*
X178161000Y-64931000I-120000J0D01*
G01*
X177001000Y-64931000D01*
G75*
G02*
X176881000Y-64811000I0J120000D01*
G01*
G37*
G36*
G01*
X171731000Y-64811000D02*
X171731000Y-64571000D01*
G75*
G02*
X171851000Y-64451000I120000J0D01*
G01*
X173011000Y-64451000D01*
G75*
G02*
X173131000Y-64571000I0J-120000D01*
G01*
X173131000Y-64811000D01*
G75*
G02*
X173011000Y-64931000I-120000J0D01*
G01*
X171851000Y-64931000D01*
G75*
G02*
X171731000Y-64811000I0J120000D01*
G01*
G37*
G36*
G01*
X171731000Y-63541000D02*
X171731000Y-63301000D01*
G75*
G02*
X171851000Y-63181000I120000J0D01*
G01*
X173011000Y-63181000D01*
G75*
G02*
X173131000Y-63301000I0J-120000D01*
G01*
X173131000Y-63541000D01*
G75*
G02*
X173011000Y-63661000I-120000J0D01*
G01*
X171851000Y-63661000D01*
G75*
G02*
X171731000Y-63541000I0J120000D01*
G01*
G37*
G36*
G01*
X171731000Y-62271000D02*
X171731000Y-62031000D01*
G75*
G02*
X171851000Y-61911000I120000J0D01*
G01*
X173011000Y-61911000D01*
G75*
G02*
X173131000Y-62031000I0J-120000D01*
G01*
X173131000Y-62271000D01*
G75*
G02*
X173011000Y-62391000I-120000J0D01*
G01*
X171851000Y-62391000D01*
G75*
G02*
X171731000Y-62271000I0J120000D01*
G01*
G37*
G36*
G01*
X171731000Y-61001000D02*
X171731000Y-60761000D01*
G75*
G02*
X171851000Y-60641000I120000J0D01*
G01*
X173011000Y-60641000D01*
G75*
G02*
X173131000Y-60761000I0J-120000D01*
G01*
X173131000Y-61001000D01*
G75*
G02*
X173011000Y-61121000I-120000J0D01*
G01*
X171851000Y-61121000D01*
G75*
G02*
X171731000Y-61001000I0J120000D01*
G01*
G37*
G36*
G01*
X186542002Y-58116000D02*
X185821998Y-58116000D01*
G75*
G02*
X185622000Y-57916002I0J199998D01*
G01*
X185622000Y-57495998D01*
G75*
G02*
X185821998Y-57296000I199998J0D01*
G01*
X186542002Y-57296000D01*
G75*
G02*
X186742000Y-57495998I0J-199998D01*
G01*
X186742000Y-57916002D01*
G75*
G02*
X186542002Y-58116000I-199998J0D01*
G01*
G37*
G36*
G01*
X186542002Y-59941000D02*
X185821998Y-59941000D01*
G75*
G02*
X185622000Y-59741002I0J199998D01*
G01*
X185622000Y-59320998D01*
G75*
G02*
X185821998Y-59121000I199998J0D01*
G01*
X186542002Y-59121000D01*
G75*
G02*
X186742000Y-59320998I0J-199998D01*
G01*
X186742000Y-59741002D01*
G75*
G02*
X186542002Y-59941000I-199998J0D01*
G01*
G37*
G36*
G01*
X189082002Y-58196000D02*
X188361998Y-58196000D01*
G75*
G02*
X188162000Y-57996002I0J199998D01*
G01*
X188162000Y-57575998D01*
G75*
G02*
X188361998Y-57376000I199998J0D01*
G01*
X189082002Y-57376000D01*
G75*
G02*
X189282000Y-57575998I0J-199998D01*
G01*
X189282000Y-57996002D01*
G75*
G02*
X189082002Y-58196000I-199998J0D01*
G01*
G37*
G36*
G01*
X189082002Y-60021000D02*
X188361998Y-60021000D01*
G75*
G02*
X188162000Y-59821002I0J199998D01*
G01*
X188162000Y-59400998D01*
G75*
G02*
X188361998Y-59201000I199998J0D01*
G01*
X189082002Y-59201000D01*
G75*
G02*
X189282000Y-59400998I0J-199998D01*
G01*
X189282000Y-59821002D01*
G75*
G02*
X189082002Y-60021000I-199998J0D01*
G01*
G37*
G36*
G01*
X176107000Y-66216000D02*
X176107000Y-66976000D01*
G75*
G02*
X175907000Y-67176000I-200000J0D01*
G01*
X175507000Y-67176000D01*
G75*
G02*
X175307000Y-66976000I0J200000D01*
G01*
X175307000Y-66216000D01*
G75*
G02*
X175507000Y-66016000I200000J0D01*
G01*
X175907000Y-66016000D01*
G75*
G02*
X176107000Y-66216000I0J-200000D01*
G01*
G37*
G36*
G01*
X178007000Y-66216000D02*
X178007000Y-66976000D01*
G75*
G02*
X177807000Y-67176000I-200000J0D01*
G01*
X177407000Y-67176000D01*
G75*
G02*
X177207000Y-66976000I0J200000D01*
G01*
X177207000Y-66216000D01*
G75*
G02*
X177407000Y-66016000I200000J0D01*
G01*
X177807000Y-66016000D01*
G75*
G02*
X178007000Y-66216000I0J-200000D01*
G01*
G37*
D12*
X147580000Y-77107000D03*
X149480000Y-77107000D03*
X149480000Y-79307000D03*
X148530000Y-79307000D03*
X147580000Y-79307000D03*
G36*
G01*
X143668800Y-81710800D02*
X143668800Y-80950800D01*
G75*
G02*
X143868800Y-80750800I200000J0D01*
G01*
X144268800Y-80750800D01*
G75*
G02*
X144468800Y-80950800I0J-200000D01*
G01*
X144468800Y-81710800D01*
G75*
G02*
X144268800Y-81910800I-200000J0D01*
G01*
X143868800Y-81910800D01*
G75*
G02*
X143668800Y-81710800I0J200000D01*
G01*
G37*
G36*
G01*
X141768800Y-81710800D02*
X141768800Y-80950800D01*
G75*
G02*
X141968800Y-80750800I200000J0D01*
G01*
X142368800Y-80750800D01*
G75*
G02*
X142568800Y-80950800I0J-200000D01*
G01*
X142568800Y-81710800D01*
G75*
G02*
X142368800Y-81910800I-200000J0D01*
G01*
X141968800Y-81910800D01*
G75*
G02*
X141768800Y-81710800I0J200000D01*
G01*
G37*
G36*
G01*
X148434800Y-81850801D02*
X148434800Y-80810799D01*
G75*
G02*
X148634799Y-80610800I199999J0D01*
G01*
X149154801Y-80610800D01*
G75*
G02*
X149354800Y-80810799I0J-199999D01*
G01*
X149354800Y-81850801D01*
G75*
G02*
X149154801Y-82050800I-199999J0D01*
G01*
X148634799Y-82050800D01*
G75*
G02*
X148434800Y-81850801I0J199999D01*
G01*
G37*
G36*
G01*
X145484800Y-81850801D02*
X145484800Y-80810799D01*
G75*
G02*
X145684799Y-80610800I199999J0D01*
G01*
X146204801Y-80610800D01*
G75*
G02*
X146404800Y-80810799I0J-199999D01*
G01*
X146404800Y-81850801D01*
G75*
G02*
X146204801Y-82050800I-199999J0D01*
G01*
X145684799Y-82050800D01*
G75*
G02*
X145484800Y-81850801I0J199999D01*
G01*
G37*
G36*
G01*
X181566500Y-95833498D02*
X181566500Y-96553502D01*
G75*
G02*
X181366502Y-96753500I-199998J0D01*
G01*
X180946498Y-96753500D01*
G75*
G02*
X180746500Y-96553502I0J199998D01*
G01*
X180746500Y-95833498D01*
G75*
G02*
X180946498Y-95633500I199998J0D01*
G01*
X181366502Y-95633500D01*
G75*
G02*
X181566500Y-95833498I0J-199998D01*
G01*
G37*
G36*
G01*
X183391500Y-95833498D02*
X183391500Y-96553502D01*
G75*
G02*
X183191502Y-96753500I-199998J0D01*
G01*
X182771498Y-96753500D01*
G75*
G02*
X182571500Y-96553502I0J199998D01*
G01*
X182571500Y-95833498D01*
G75*
G02*
X182771498Y-95633500I199998J0D01*
G01*
X183191502Y-95633500D01*
G75*
G02*
X183391500Y-95833498I0J-199998D01*
G01*
G37*
G36*
G01*
X185527000Y-95833498D02*
X185527000Y-96553502D01*
G75*
G02*
X185327002Y-96753500I-199998J0D01*
G01*
X184906998Y-96753500D01*
G75*
G02*
X184707000Y-96553502I0J199998D01*
G01*
X184707000Y-95833498D01*
G75*
G02*
X184906998Y-95633500I199998J0D01*
G01*
X185327002Y-95633500D01*
G75*
G02*
X185527000Y-95833498I0J-199998D01*
G01*
G37*
G36*
G01*
X187352000Y-95833498D02*
X187352000Y-96553502D01*
G75*
G02*
X187152002Y-96753500I-199998J0D01*
G01*
X186731998Y-96753500D01*
G75*
G02*
X186532000Y-96553502I0J199998D01*
G01*
X186532000Y-95833498D01*
G75*
G02*
X186731998Y-95633500I199998J0D01*
G01*
X187152002Y-95633500D01*
G75*
G02*
X187352000Y-95833498I0J-199998D01*
G01*
G37*
G36*
G01*
X186639500Y-83659000D02*
X186639500Y-83899000D01*
G75*
G02*
X186519500Y-84019000I-120000J0D01*
G01*
X185199500Y-84019000D01*
G75*
G02*
X185079500Y-83899000I0J120000D01*
G01*
X185079500Y-83659000D01*
G75*
G02*
X185199500Y-83539000I120000J0D01*
G01*
X186519500Y-83539000D01*
G75*
G02*
X186639500Y-83659000I0J-120000D01*
G01*
G37*
G36*
G01*
X186639500Y-82389000D02*
X186639500Y-82629000D01*
G75*
G02*
X186519500Y-82749000I-120000J0D01*
G01*
X185199500Y-82749000D01*
G75*
G02*
X185079500Y-82629000I0J120000D01*
G01*
X185079500Y-82389000D01*
G75*
G02*
X185199500Y-82269000I120000J0D01*
G01*
X186519500Y-82269000D01*
G75*
G02*
X186639500Y-82389000I0J-120000D01*
G01*
G37*
G36*
G01*
X186639500Y-81119000D02*
X186639500Y-81359000D01*
G75*
G02*
X186519500Y-81479000I-120000J0D01*
G01*
X185199500Y-81479000D01*
G75*
G02*
X185079500Y-81359000I0J120000D01*
G01*
X185079500Y-81119000D01*
G75*
G02*
X185199500Y-80999000I120000J0D01*
G01*
X186519500Y-80999000D01*
G75*
G02*
X186639500Y-81119000I0J-120000D01*
G01*
G37*
G36*
G01*
X186639500Y-79849000D02*
X186639500Y-80089000D01*
G75*
G02*
X186519500Y-80209000I-120000J0D01*
G01*
X185199500Y-80209000D01*
G75*
G02*
X185079500Y-80089000I0J120000D01*
G01*
X185079500Y-79849000D01*
G75*
G02*
X185199500Y-79729000I120000J0D01*
G01*
X186519500Y-79729000D01*
G75*
G02*
X186639500Y-79849000I0J-120000D01*
G01*
G37*
G36*
G01*
X186639500Y-78579000D02*
X186639500Y-78819000D01*
G75*
G02*
X186519500Y-78939000I-120000J0D01*
G01*
X185199500Y-78939000D01*
G75*
G02*
X185079500Y-78819000I0J120000D01*
G01*
X185079500Y-78579000D01*
G75*
G02*
X185199500Y-78459000I120000J0D01*
G01*
X186519500Y-78459000D01*
G75*
G02*
X186639500Y-78579000I0J-120000D01*
G01*
G37*
G36*
G01*
X186639500Y-77309000D02*
X186639500Y-77549000D01*
G75*
G02*
X186519500Y-77669000I-120000J0D01*
G01*
X185199500Y-77669000D01*
G75*
G02*
X185079500Y-77549000I0J120000D01*
G01*
X185079500Y-77309000D01*
G75*
G02*
X185199500Y-77189000I120000J0D01*
G01*
X186519500Y-77189000D01*
G75*
G02*
X186639500Y-77309000I0J-120000D01*
G01*
G37*
G36*
G01*
X186639500Y-76039000D02*
X186639500Y-76279000D01*
G75*
G02*
X186519500Y-76399000I-120000J0D01*
G01*
X185199500Y-76399000D01*
G75*
G02*
X185079500Y-76279000I0J120000D01*
G01*
X185079500Y-76039000D01*
G75*
G02*
X185199500Y-75919000I120000J0D01*
G01*
X186519500Y-75919000D01*
G75*
G02*
X186639500Y-76039000I0J-120000D01*
G01*
G37*
G36*
G01*
X191589500Y-76039000D02*
X191589500Y-76279000D01*
G75*
G02*
X191469500Y-76399000I-120000J0D01*
G01*
X190149500Y-76399000D01*
G75*
G02*
X190029500Y-76279000I0J120000D01*
G01*
X190029500Y-76039000D01*
G75*
G02*
X190149500Y-75919000I120000J0D01*
G01*
X191469500Y-75919000D01*
G75*
G02*
X191589500Y-76039000I0J-120000D01*
G01*
G37*
G36*
G01*
X191589500Y-77309000D02*
X191589500Y-77549000D01*
G75*
G02*
X191469500Y-77669000I-120000J0D01*
G01*
X190149500Y-77669000D01*
G75*
G02*
X190029500Y-77549000I0J120000D01*
G01*
X190029500Y-77309000D01*
G75*
G02*
X190149500Y-77189000I120000J0D01*
G01*
X191469500Y-77189000D01*
G75*
G02*
X191589500Y-77309000I0J-120000D01*
G01*
G37*
G36*
G01*
X191589500Y-78579000D02*
X191589500Y-78819000D01*
G75*
G02*
X191469500Y-78939000I-120000J0D01*
G01*
X190149500Y-78939000D01*
G75*
G02*
X190029500Y-78819000I0J120000D01*
G01*
X190029500Y-78579000D01*
G75*
G02*
X190149500Y-78459000I120000J0D01*
G01*
X191469500Y-78459000D01*
G75*
G02*
X191589500Y-78579000I0J-120000D01*
G01*
G37*
G36*
G01*
X191589500Y-79849000D02*
X191589500Y-80089000D01*
G75*
G02*
X191469500Y-80209000I-120000J0D01*
G01*
X190149500Y-80209000D01*
G75*
G02*
X190029500Y-80089000I0J120000D01*
G01*
X190029500Y-79849000D01*
G75*
G02*
X190149500Y-79729000I120000J0D01*
G01*
X191469500Y-79729000D01*
G75*
G02*
X191589500Y-79849000I0J-120000D01*
G01*
G37*
G36*
G01*
X191589500Y-81119000D02*
X191589500Y-81359000D01*
G75*
G02*
X191469500Y-81479000I-120000J0D01*
G01*
X190149500Y-81479000D01*
G75*
G02*
X190029500Y-81359000I0J120000D01*
G01*
X190029500Y-81119000D01*
G75*
G02*
X190149500Y-80999000I120000J0D01*
G01*
X191469500Y-80999000D01*
G75*
G02*
X191589500Y-81119000I0J-120000D01*
G01*
G37*
G36*
G01*
X191589500Y-82389000D02*
X191589500Y-82629000D01*
G75*
G02*
X191469500Y-82749000I-120000J0D01*
G01*
X190149500Y-82749000D01*
G75*
G02*
X190029500Y-82629000I0J120000D01*
G01*
X190029500Y-82389000D01*
G75*
G02*
X190149500Y-82269000I120000J0D01*
G01*
X191469500Y-82269000D01*
G75*
G02*
X191589500Y-82389000I0J-120000D01*
G01*
G37*
G36*
G01*
X191589500Y-83659000D02*
X191589500Y-83899000D01*
G75*
G02*
X191469500Y-84019000I-120000J0D01*
G01*
X190149500Y-84019000D01*
G75*
G02*
X190029500Y-83899000I0J120000D01*
G01*
X190029500Y-83659000D01*
G75*
G02*
X190149500Y-83539000I120000J0D01*
G01*
X191469500Y-83539000D01*
G75*
G02*
X191589500Y-83659000I0J-120000D01*
G01*
G37*
G36*
G01*
X179884000Y-78008998D02*
X179884000Y-78729002D01*
G75*
G02*
X179684002Y-78929000I-199998J0D01*
G01*
X179263998Y-78929000D01*
G75*
G02*
X179064000Y-78729002I0J199998D01*
G01*
X179064000Y-78008998D01*
G75*
G02*
X179263998Y-77809000I199998J0D01*
G01*
X179684002Y-77809000D01*
G75*
G02*
X179884000Y-78008998I0J-199998D01*
G01*
G37*
G36*
G01*
X181709000Y-78008998D02*
X181709000Y-78729002D01*
G75*
G02*
X181509002Y-78929000I-199998J0D01*
G01*
X181088998Y-78929000D01*
G75*
G02*
X180889000Y-78729002I0J199998D01*
G01*
X180889000Y-78008998D01*
G75*
G02*
X181088998Y-77809000I199998J0D01*
G01*
X181509002Y-77809000D01*
G75*
G02*
X181709000Y-78008998I0J-199998D01*
G01*
G37*
G36*
G01*
X179884000Y-80040998D02*
X179884000Y-80761002D01*
G75*
G02*
X179684002Y-80961000I-199998J0D01*
G01*
X179263998Y-80961000D01*
G75*
G02*
X179064000Y-80761002I0J199998D01*
G01*
X179064000Y-80040998D01*
G75*
G02*
X179263998Y-79841000I199998J0D01*
G01*
X179684002Y-79841000D01*
G75*
G02*
X179884000Y-80040998I0J-199998D01*
G01*
G37*
G36*
G01*
X181709000Y-80040998D02*
X181709000Y-80761002D01*
G75*
G02*
X181509002Y-80961000I-199998J0D01*
G01*
X181088998Y-80961000D01*
G75*
G02*
X180889000Y-80761002I0J199998D01*
G01*
X180889000Y-80040998D01*
G75*
G02*
X181088998Y-79841000I199998J0D01*
G01*
X181509002Y-79841000D01*
G75*
G02*
X181709000Y-80040998I0J-199998D01*
G01*
G37*
G36*
G01*
X179733000Y-76147500D02*
X179733000Y-76907500D01*
G75*
G02*
X179533000Y-77107500I-200000J0D01*
G01*
X179133000Y-77107500D01*
G75*
G02*
X178933000Y-76907500I0J200000D01*
G01*
X178933000Y-76147500D01*
G75*
G02*
X179133000Y-75947500I200000J0D01*
G01*
X179533000Y-75947500D01*
G75*
G02*
X179733000Y-76147500I0J-200000D01*
G01*
G37*
G36*
G01*
X181633000Y-76147500D02*
X181633000Y-76907500D01*
G75*
G02*
X181433000Y-77107500I-200000J0D01*
G01*
X181033000Y-77107500D01*
G75*
G02*
X180833000Y-76907500I0J200000D01*
G01*
X180833000Y-76147500D01*
G75*
G02*
X181033000Y-75947500I200000J0D01*
G01*
X181433000Y-75947500D01*
G75*
G02*
X181633000Y-76147500I0J-200000D01*
G01*
G37*
G36*
G01*
X183387000Y-78812000D02*
X182627000Y-78812000D01*
G75*
G02*
X182427000Y-78612000I0J200000D01*
G01*
X182427000Y-78212000D01*
G75*
G02*
X182627000Y-78012000I200000J0D01*
G01*
X183387000Y-78012000D01*
G75*
G02*
X183587000Y-78212000I0J-200000D01*
G01*
X183587000Y-78612000D01*
G75*
G02*
X183387000Y-78812000I-200000J0D01*
G01*
G37*
G36*
G01*
X183387000Y-80712000D02*
X182627000Y-80712000D01*
G75*
G02*
X182427000Y-80512000I0J200000D01*
G01*
X182427000Y-80112000D01*
G75*
G02*
X182627000Y-79912000I200000J0D01*
G01*
X183387000Y-79912000D01*
G75*
G02*
X183587000Y-80112000I0J-200000D01*
G01*
X183587000Y-80512000D01*
G75*
G02*
X183387000Y-80712000I-200000J0D01*
G01*
G37*
G36*
G01*
X180960000Y-82622500D02*
X180960000Y-81862500D01*
G75*
G02*
X181160000Y-81662500I200000J0D01*
G01*
X181560000Y-81662500D01*
G75*
G02*
X181760000Y-81862500I0J-200000D01*
G01*
X181760000Y-82622500D01*
G75*
G02*
X181560000Y-82822500I-200000J0D01*
G01*
X181160000Y-82822500D01*
G75*
G02*
X180960000Y-82622500I0J200000D01*
G01*
G37*
G36*
G01*
X179060000Y-82622500D02*
X179060000Y-81862500D01*
G75*
G02*
X179260000Y-81662500I200000J0D01*
G01*
X179660000Y-81662500D01*
G75*
G02*
X179860000Y-81862500I0J-200000D01*
G01*
X179860000Y-82622500D01*
G75*
G02*
X179660000Y-82822500I-200000J0D01*
G01*
X179260000Y-82822500D01*
G75*
G02*
X179060000Y-82622500I0J200000D01*
G01*
G37*
D13*
X119830000Y-70940000D03*
X119830000Y-63320000D03*
X110430000Y-70940000D03*
X110430000Y-65860000D03*
X110430000Y-63320000D03*
X191560000Y-70940000D03*
X191560000Y-63320000D03*
X182160000Y-70940000D03*
X182160000Y-65860000D03*
X182160000Y-63320000D03*
G36*
G01*
X163618502Y-79325000D02*
X162898498Y-79325000D01*
G75*
G02*
X162698500Y-79125002I0J199998D01*
G01*
X162698500Y-78704998D01*
G75*
G02*
X162898498Y-78505000I199998J0D01*
G01*
X163618502Y-78505000D01*
G75*
G02*
X163818500Y-78704998I0J-199998D01*
G01*
X163818500Y-79125002D01*
G75*
G02*
X163618502Y-79325000I-199998J0D01*
G01*
G37*
G36*
G01*
X163618502Y-81150000D02*
X162898498Y-81150000D01*
G75*
G02*
X162698500Y-80950002I0J199998D01*
G01*
X162698500Y-80529998D01*
G75*
G02*
X162898498Y-80330000I199998J0D01*
G01*
X163618502Y-80330000D01*
G75*
G02*
X163818500Y-80529998I0J-199998D01*
G01*
X163818500Y-80950002D01*
G75*
G02*
X163618502Y-81150000I-199998J0D01*
G01*
G37*
G36*
G01*
X163625002Y-82732500D02*
X162904998Y-82732500D01*
G75*
G02*
X162705000Y-82532502I0J199998D01*
G01*
X162705000Y-82112498D01*
G75*
G02*
X162904998Y-81912500I199998J0D01*
G01*
X163625002Y-81912500D01*
G75*
G02*
X163825000Y-82112498I0J-199998D01*
G01*
X163825000Y-82532502D01*
G75*
G02*
X163625002Y-82732500I-199998J0D01*
G01*
G37*
G36*
G01*
X163625002Y-84557500D02*
X162904998Y-84557500D01*
G75*
G02*
X162705000Y-84357502I0J199998D01*
G01*
X162705000Y-83937498D01*
G75*
G02*
X162904998Y-83737500I199998J0D01*
G01*
X163625002Y-83737500D01*
G75*
G02*
X163825000Y-83937498I0J-199998D01*
G01*
X163825000Y-84357502D01*
G75*
G02*
X163625002Y-84557500I-199998J0D01*
G01*
G37*
G36*
G01*
X118695000Y-74935000D02*
X118695000Y-74695000D01*
G75*
G02*
X118815000Y-74575000I120000J0D01*
G01*
X120135000Y-74575000D01*
G75*
G02*
X120255000Y-74695000I0J-120000D01*
G01*
X120255000Y-74935000D01*
G75*
G02*
X120135000Y-75055000I-120000J0D01*
G01*
X118815000Y-75055000D01*
G75*
G02*
X118695000Y-74935000I0J120000D01*
G01*
G37*
G36*
G01*
X118695000Y-76205000D02*
X118695000Y-75965000D01*
G75*
G02*
X118815000Y-75845000I120000J0D01*
G01*
X120135000Y-75845000D01*
G75*
G02*
X120255000Y-75965000I0J-120000D01*
G01*
X120255000Y-76205000D01*
G75*
G02*
X120135000Y-76325000I-120000J0D01*
G01*
X118815000Y-76325000D01*
G75*
G02*
X118695000Y-76205000I0J120000D01*
G01*
G37*
G36*
G01*
X118695000Y-77475000D02*
X118695000Y-77235000D01*
G75*
G02*
X118815000Y-77115000I120000J0D01*
G01*
X120135000Y-77115000D01*
G75*
G02*
X120255000Y-77235000I0J-120000D01*
G01*
X120255000Y-77475000D01*
G75*
G02*
X120135000Y-77595000I-120000J0D01*
G01*
X118815000Y-77595000D01*
G75*
G02*
X118695000Y-77475000I0J120000D01*
G01*
G37*
G36*
G01*
X118695000Y-78745000D02*
X118695000Y-78505000D01*
G75*
G02*
X118815000Y-78385000I120000J0D01*
G01*
X120135000Y-78385000D01*
G75*
G02*
X120255000Y-78505000I0J-120000D01*
G01*
X120255000Y-78745000D01*
G75*
G02*
X120135000Y-78865000I-120000J0D01*
G01*
X118815000Y-78865000D01*
G75*
G02*
X118695000Y-78745000I0J120000D01*
G01*
G37*
G36*
G01*
X113745000Y-78745000D02*
X113745000Y-78505000D01*
G75*
G02*
X113865000Y-78385000I120000J0D01*
G01*
X115185000Y-78385000D01*
G75*
G02*
X115305000Y-78505000I0J-120000D01*
G01*
X115305000Y-78745000D01*
G75*
G02*
X115185000Y-78865000I-120000J0D01*
G01*
X113865000Y-78865000D01*
G75*
G02*
X113745000Y-78745000I0J120000D01*
G01*
G37*
G36*
G01*
X113745000Y-77475000D02*
X113745000Y-77235000D01*
G75*
G02*
X113865000Y-77115000I120000J0D01*
G01*
X115185000Y-77115000D01*
G75*
G02*
X115305000Y-77235000I0J-120000D01*
G01*
X115305000Y-77475000D01*
G75*
G02*
X115185000Y-77595000I-120000J0D01*
G01*
X113865000Y-77595000D01*
G75*
G02*
X113745000Y-77475000I0J120000D01*
G01*
G37*
G36*
G01*
X113745000Y-76205000D02*
X113745000Y-75965000D01*
G75*
G02*
X113865000Y-75845000I120000J0D01*
G01*
X115185000Y-75845000D01*
G75*
G02*
X115305000Y-75965000I0J-120000D01*
G01*
X115305000Y-76205000D01*
G75*
G02*
X115185000Y-76325000I-120000J0D01*
G01*
X113865000Y-76325000D01*
G75*
G02*
X113745000Y-76205000I0J120000D01*
G01*
G37*
G36*
G01*
X113745000Y-74935000D02*
X113745000Y-74695000D01*
G75*
G02*
X113865000Y-74575000I120000J0D01*
G01*
X115185000Y-74575000D01*
G75*
G02*
X115305000Y-74695000I0J-120000D01*
G01*
X115305000Y-74935000D01*
G75*
G02*
X115185000Y-75055000I-120000J0D01*
G01*
X113865000Y-75055000D01*
G75*
G02*
X113745000Y-74935000I0J120000D01*
G01*
G37*
G36*
G01*
X176135000Y-70005000D02*
X176135000Y-69765000D01*
G75*
G02*
X176255000Y-69645000I120000J0D01*
G01*
X177575000Y-69645000D01*
G75*
G02*
X177695000Y-69765000I0J-120000D01*
G01*
X177695000Y-70005000D01*
G75*
G02*
X177575000Y-70125000I-120000J0D01*
G01*
X176255000Y-70125000D01*
G75*
G02*
X176135000Y-70005000I0J120000D01*
G01*
G37*
G36*
G01*
X176135000Y-71275000D02*
X176135000Y-71035000D01*
G75*
G02*
X176255000Y-70915000I120000J0D01*
G01*
X177575000Y-70915000D01*
G75*
G02*
X177695000Y-71035000I0J-120000D01*
G01*
X177695000Y-71275000D01*
G75*
G02*
X177575000Y-71395000I-120000J0D01*
G01*
X176255000Y-71395000D01*
G75*
G02*
X176135000Y-71275000I0J120000D01*
G01*
G37*
G36*
G01*
X176135000Y-72545000D02*
X176135000Y-72305000D01*
G75*
G02*
X176255000Y-72185000I120000J0D01*
G01*
X177575000Y-72185000D01*
G75*
G02*
X177695000Y-72305000I0J-120000D01*
G01*
X177695000Y-72545000D01*
G75*
G02*
X177575000Y-72665000I-120000J0D01*
G01*
X176255000Y-72665000D01*
G75*
G02*
X176135000Y-72545000I0J120000D01*
G01*
G37*
G36*
G01*
X176135000Y-73815000D02*
X176135000Y-73575000D01*
G75*
G02*
X176255000Y-73455000I120000J0D01*
G01*
X177575000Y-73455000D01*
G75*
G02*
X177695000Y-73575000I0J-120000D01*
G01*
X177695000Y-73815000D01*
G75*
G02*
X177575000Y-73935000I-120000J0D01*
G01*
X176255000Y-73935000D01*
G75*
G02*
X176135000Y-73815000I0J120000D01*
G01*
G37*
G36*
G01*
X171185000Y-73815000D02*
X171185000Y-73575000D01*
G75*
G02*
X171305000Y-73455000I120000J0D01*
G01*
X172625000Y-73455000D01*
G75*
G02*
X172745000Y-73575000I0J-120000D01*
G01*
X172745000Y-73815000D01*
G75*
G02*
X172625000Y-73935000I-120000J0D01*
G01*
X171305000Y-73935000D01*
G75*
G02*
X171185000Y-73815000I0J120000D01*
G01*
G37*
G36*
G01*
X171185000Y-72545000D02*
X171185000Y-72305000D01*
G75*
G02*
X171305000Y-72185000I120000J0D01*
G01*
X172625000Y-72185000D01*
G75*
G02*
X172745000Y-72305000I0J-120000D01*
G01*
X172745000Y-72545000D01*
G75*
G02*
X172625000Y-72665000I-120000J0D01*
G01*
X171305000Y-72665000D01*
G75*
G02*
X171185000Y-72545000I0J120000D01*
G01*
G37*
G36*
G01*
X171185000Y-71275000D02*
X171185000Y-71035000D01*
G75*
G02*
X171305000Y-70915000I120000J0D01*
G01*
X172625000Y-70915000D01*
G75*
G02*
X172745000Y-71035000I0J-120000D01*
G01*
X172745000Y-71275000D01*
G75*
G02*
X172625000Y-71395000I-120000J0D01*
G01*
X171305000Y-71395000D01*
G75*
G02*
X171185000Y-71275000I0J120000D01*
G01*
G37*
G36*
G01*
X171185000Y-70005000D02*
X171185000Y-69765000D01*
G75*
G02*
X171305000Y-69645000I120000J0D01*
G01*
X172625000Y-69645000D01*
G75*
G02*
X172745000Y-69765000I0J-120000D01*
G01*
X172745000Y-70005000D01*
G75*
G02*
X172625000Y-70125000I-120000J0D01*
G01*
X171305000Y-70125000D01*
G75*
G02*
X171185000Y-70005000I0J120000D01*
G01*
G37*
G36*
G01*
X125115998Y-83568500D02*
X125836002Y-83568500D01*
G75*
G02*
X126036000Y-83768498I0J-199998D01*
G01*
X126036000Y-84188502D01*
G75*
G02*
X125836002Y-84388500I-199998J0D01*
G01*
X125115998Y-84388500D01*
G75*
G02*
X124916000Y-84188502I0J199998D01*
G01*
X124916000Y-83768498D01*
G75*
G02*
X125115998Y-83568500I199998J0D01*
G01*
G37*
G36*
G01*
X125115998Y-81743500D02*
X125836002Y-81743500D01*
G75*
G02*
X126036000Y-81943498I0J-199998D01*
G01*
X126036000Y-82363502D01*
G75*
G02*
X125836002Y-82563500I-199998J0D01*
G01*
X125115998Y-82563500D01*
G75*
G02*
X124916000Y-82363502I0J199998D01*
G01*
X124916000Y-81943498D01*
G75*
G02*
X125115998Y-81743500I199998J0D01*
G01*
G37*
G36*
G01*
X123210998Y-83568500D02*
X123931002Y-83568500D01*
G75*
G02*
X124131000Y-83768498I0J-199998D01*
G01*
X124131000Y-84188502D01*
G75*
G02*
X123931002Y-84388500I-199998J0D01*
G01*
X123210998Y-84388500D01*
G75*
G02*
X123011000Y-84188502I0J199998D01*
G01*
X123011000Y-83768498D01*
G75*
G02*
X123210998Y-83568500I199998J0D01*
G01*
G37*
G36*
G01*
X123210998Y-81743500D02*
X123931002Y-81743500D01*
G75*
G02*
X124131000Y-81943498I0J-199998D01*
G01*
X124131000Y-82363502D01*
G75*
G02*
X123931002Y-82563500I-199998J0D01*
G01*
X123210998Y-82563500D01*
G75*
G02*
X123011000Y-82363502I0J199998D01*
G01*
X123011000Y-81943498D01*
G75*
G02*
X123210998Y-81743500I199998J0D01*
G01*
G37*
G36*
G01*
X177531502Y-84828000D02*
X176811498Y-84828000D01*
G75*
G02*
X176611500Y-84628002I0J199998D01*
G01*
X176611500Y-84207998D01*
G75*
G02*
X176811498Y-84008000I199998J0D01*
G01*
X177531502Y-84008000D01*
G75*
G02*
X177731500Y-84207998I0J-199998D01*
G01*
X177731500Y-84628002D01*
G75*
G02*
X177531502Y-84828000I-199998J0D01*
G01*
G37*
G36*
G01*
X177531502Y-86653000D02*
X176811498Y-86653000D01*
G75*
G02*
X176611500Y-86453002I0J199998D01*
G01*
X176611500Y-86032998D01*
G75*
G02*
X176811498Y-85833000I199998J0D01*
G01*
X177531502Y-85833000D01*
G75*
G02*
X177731500Y-86032998I0J-199998D01*
G01*
X177731500Y-86453002D01*
G75*
G02*
X177531502Y-86653000I-199998J0D01*
G01*
G37*
G36*
G01*
X166750000Y-62995500D02*
X165990000Y-62995500D01*
G75*
G02*
X165790000Y-62795500I0J200000D01*
G01*
X165790000Y-62395500D01*
G75*
G02*
X165990000Y-62195500I200000J0D01*
G01*
X166750000Y-62195500D01*
G75*
G02*
X166950000Y-62395500I0J-200000D01*
G01*
X166950000Y-62795500D01*
G75*
G02*
X166750000Y-62995500I-200000J0D01*
G01*
G37*
G36*
G01*
X166750000Y-64895500D02*
X165990000Y-64895500D01*
G75*
G02*
X165790000Y-64695500I0J200000D01*
G01*
X165790000Y-64295500D01*
G75*
G02*
X165990000Y-64095500I200000J0D01*
G01*
X166750000Y-64095500D01*
G75*
G02*
X166950000Y-64295500I0J-200000D01*
G01*
X166950000Y-64695500D01*
G75*
G02*
X166750000Y-64895500I-200000J0D01*
G01*
G37*
G36*
G01*
X133478000Y-71842500D02*
X134238000Y-71842500D01*
G75*
G02*
X134438000Y-72042500I0J-200000D01*
G01*
X134438000Y-72442500D01*
G75*
G02*
X134238000Y-72642500I-200000J0D01*
G01*
X133478000Y-72642500D01*
G75*
G02*
X133278000Y-72442500I0J200000D01*
G01*
X133278000Y-72042500D01*
G75*
G02*
X133478000Y-71842500I200000J0D01*
G01*
G37*
G36*
G01*
X133478000Y-69942500D02*
X134238000Y-69942500D01*
G75*
G02*
X134438000Y-70142500I0J-200000D01*
G01*
X134438000Y-70542500D01*
G75*
G02*
X134238000Y-70742500I-200000J0D01*
G01*
X133478000Y-70742500D01*
G75*
G02*
X133278000Y-70542500I0J200000D01*
G01*
X133278000Y-70142500D01*
G75*
G02*
X133478000Y-69942500I200000J0D01*
G01*
G37*
G36*
G01*
X121520000Y-76540000D02*
X122280000Y-76540000D01*
G75*
G02*
X122480000Y-76740000I0J-200000D01*
G01*
X122480000Y-77140000D01*
G75*
G02*
X122280000Y-77340000I-200000J0D01*
G01*
X121520000Y-77340000D01*
G75*
G02*
X121320000Y-77140000I0J200000D01*
G01*
X121320000Y-76740000D01*
G75*
G02*
X121520000Y-76540000I200000J0D01*
G01*
G37*
G36*
G01*
X121520000Y-74640000D02*
X122280000Y-74640000D01*
G75*
G02*
X122480000Y-74840000I0J-200000D01*
G01*
X122480000Y-75240000D01*
G75*
G02*
X122280000Y-75440000I-200000J0D01*
G01*
X121520000Y-75440000D01*
G75*
G02*
X121320000Y-75240000I0J200000D01*
G01*
X121320000Y-74840000D01*
G75*
G02*
X121520000Y-74640000I200000J0D01*
G01*
G37*
G36*
G01*
X111840000Y-76620000D02*
X112600000Y-76620000D01*
G75*
G02*
X112800000Y-76820000I0J-200000D01*
G01*
X112800000Y-77220000D01*
G75*
G02*
X112600000Y-77420000I-200000J0D01*
G01*
X111840000Y-77420000D01*
G75*
G02*
X111640000Y-77220000I0J200000D01*
G01*
X111640000Y-76820000D01*
G75*
G02*
X111840000Y-76620000I200000J0D01*
G01*
G37*
G36*
G01*
X111840000Y-74720000D02*
X112600000Y-74720000D01*
G75*
G02*
X112800000Y-74920000I0J-200000D01*
G01*
X112800000Y-75320000D01*
G75*
G02*
X112600000Y-75520000I-200000J0D01*
G01*
X111840000Y-75520000D01*
G75*
G02*
X111640000Y-75320000I0J200000D01*
G01*
X111640000Y-74920000D01*
G75*
G02*
X111840000Y-74720000I200000J0D01*
G01*
G37*
G36*
G01*
X134365000Y-63127500D02*
X133605000Y-63127500D01*
G75*
G02*
X133405000Y-62927500I0J200000D01*
G01*
X133405000Y-62527500D01*
G75*
G02*
X133605000Y-62327500I200000J0D01*
G01*
X134365000Y-62327500D01*
G75*
G02*
X134565000Y-62527500I0J-200000D01*
G01*
X134565000Y-62927500D01*
G75*
G02*
X134365000Y-63127500I-200000J0D01*
G01*
G37*
G36*
G01*
X134365000Y-65027500D02*
X133605000Y-65027500D01*
G75*
G02*
X133405000Y-64827500I0J200000D01*
G01*
X133405000Y-64427500D01*
G75*
G02*
X133605000Y-64227500I200000J0D01*
G01*
X134365000Y-64227500D01*
G75*
G02*
X134565000Y-64427500I0J-200000D01*
G01*
X134565000Y-64827500D01*
G75*
G02*
X134365000Y-65027500I-200000J0D01*
G01*
G37*
G36*
G01*
X165736000Y-71271000D02*
X166496000Y-71271000D01*
G75*
G02*
X166696000Y-71471000I0J-200000D01*
G01*
X166696000Y-71871000D01*
G75*
G02*
X166496000Y-72071000I-200000J0D01*
G01*
X165736000Y-72071000D01*
G75*
G02*
X165536000Y-71871000I0J200000D01*
G01*
X165536000Y-71471000D01*
G75*
G02*
X165736000Y-71271000I200000J0D01*
G01*
G37*
G36*
G01*
X165736000Y-69371000D02*
X166496000Y-69371000D01*
G75*
G02*
X166696000Y-69571000I0J-200000D01*
G01*
X166696000Y-69971000D01*
G75*
G02*
X166496000Y-70171000I-200000J0D01*
G01*
X165736000Y-70171000D01*
G75*
G02*
X165536000Y-69971000I0J200000D01*
G01*
X165536000Y-69571000D01*
G75*
G02*
X165736000Y-69371000I200000J0D01*
G01*
G37*
G36*
G01*
X127001000Y-83656000D02*
X127761000Y-83656000D01*
G75*
G02*
X127961000Y-83856000I0J-200000D01*
G01*
X127961000Y-84256000D01*
G75*
G02*
X127761000Y-84456000I-200000J0D01*
G01*
X127001000Y-84456000D01*
G75*
G02*
X126801000Y-84256000I0J200000D01*
G01*
X126801000Y-83856000D01*
G75*
G02*
X127001000Y-83656000I200000J0D01*
G01*
G37*
G36*
G01*
X127001000Y-81756000D02*
X127761000Y-81756000D01*
G75*
G02*
X127961000Y-81956000I0J-200000D01*
G01*
X127961000Y-82356000D01*
G75*
G02*
X127761000Y-82556000I-200000J0D01*
G01*
X127001000Y-82556000D01*
G75*
G02*
X126801000Y-82356000I0J200000D01*
G01*
X126801000Y-81956000D01*
G75*
G02*
X127001000Y-81756000I200000J0D01*
G01*
G37*
G36*
G01*
X125012500Y-80755500D02*
X125012500Y-79995500D01*
G75*
G02*
X125212500Y-79795500I200000J0D01*
G01*
X125612500Y-79795500D01*
G75*
G02*
X125812500Y-79995500I0J-200000D01*
G01*
X125812500Y-80755500D01*
G75*
G02*
X125612500Y-80955500I-200000J0D01*
G01*
X125212500Y-80955500D01*
G75*
G02*
X125012500Y-80755500I0J200000D01*
G01*
G37*
G36*
G01*
X123112500Y-80755500D02*
X123112500Y-79995500D01*
G75*
G02*
X123312500Y-79795500I200000J0D01*
G01*
X123712500Y-79795500D01*
G75*
G02*
X123912500Y-79995500I0J-200000D01*
G01*
X123912500Y-80755500D01*
G75*
G02*
X123712500Y-80955500I-200000J0D01*
G01*
X123312500Y-80955500D01*
G75*
G02*
X123112500Y-80755500I0J200000D01*
G01*
G37*
G36*
G01*
X122046000Y-82556000D02*
X121286000Y-82556000D01*
G75*
G02*
X121086000Y-82356000I0J200000D01*
G01*
X121086000Y-81956000D01*
G75*
G02*
X121286000Y-81756000I200000J0D01*
G01*
X122046000Y-81756000D01*
G75*
G02*
X122246000Y-81956000I0J-200000D01*
G01*
X122246000Y-82356000D01*
G75*
G02*
X122046000Y-82556000I-200000J0D01*
G01*
G37*
G36*
G01*
X122046000Y-84456000D02*
X121286000Y-84456000D01*
G75*
G02*
X121086000Y-84256000I0J200000D01*
G01*
X121086000Y-83856000D01*
G75*
G02*
X121286000Y-83656000I200000J0D01*
G01*
X122046000Y-83656000D01*
G75*
G02*
X122246000Y-83856000I0J-200000D01*
G01*
X122246000Y-84256000D01*
G75*
G02*
X122046000Y-84456000I-200000J0D01*
G01*
G37*
G36*
G01*
X129858500Y-85690500D02*
X130618500Y-85690500D01*
G75*
G02*
X130818500Y-85890500I0J-200000D01*
G01*
X130818500Y-86290500D01*
G75*
G02*
X130618500Y-86490500I-200000J0D01*
G01*
X129858500Y-86490500D01*
G75*
G02*
X129658500Y-86290500I0J200000D01*
G01*
X129658500Y-85890500D01*
G75*
G02*
X129858500Y-85690500I200000J0D01*
G01*
G37*
G36*
G01*
X129858500Y-87590500D02*
X130618500Y-87590500D01*
G75*
G02*
X130818500Y-87790500I0J-200000D01*
G01*
X130818500Y-88190500D01*
G75*
G02*
X130618500Y-88390500I-200000J0D01*
G01*
X129858500Y-88390500D01*
G75*
G02*
X129658500Y-88190500I0J200000D01*
G01*
X129658500Y-87790500D01*
G75*
G02*
X129858500Y-87590500I200000J0D01*
G01*
G37*
G36*
G01*
X169849500Y-80473000D02*
X169849500Y-80233000D01*
G75*
G02*
X169969500Y-80113000I120000J0D01*
G01*
X171289500Y-80113000D01*
G75*
G02*
X171409500Y-80233000I0J-120000D01*
G01*
X171409500Y-80473000D01*
G75*
G02*
X171289500Y-80593000I-120000J0D01*
G01*
X169969500Y-80593000D01*
G75*
G02*
X169849500Y-80473000I0J120000D01*
G01*
G37*
G36*
G01*
X169849500Y-81743000D02*
X169849500Y-81503000D01*
G75*
G02*
X169969500Y-81383000I120000J0D01*
G01*
X171289500Y-81383000D01*
G75*
G02*
X171409500Y-81503000I0J-120000D01*
G01*
X171409500Y-81743000D01*
G75*
G02*
X171289500Y-81863000I-120000J0D01*
G01*
X169969500Y-81863000D01*
G75*
G02*
X169849500Y-81743000I0J120000D01*
G01*
G37*
G36*
G01*
X169849500Y-83013000D02*
X169849500Y-82773000D01*
G75*
G02*
X169969500Y-82653000I120000J0D01*
G01*
X171289500Y-82653000D01*
G75*
G02*
X171409500Y-82773000I0J-120000D01*
G01*
X171409500Y-83013000D01*
G75*
G02*
X171289500Y-83133000I-120000J0D01*
G01*
X169969500Y-83133000D01*
G75*
G02*
X169849500Y-83013000I0J120000D01*
G01*
G37*
G36*
G01*
X169849500Y-84283000D02*
X169849500Y-84043000D01*
G75*
G02*
X169969500Y-83923000I120000J0D01*
G01*
X171289500Y-83923000D01*
G75*
G02*
X171409500Y-84043000I0J-120000D01*
G01*
X171409500Y-84283000D01*
G75*
G02*
X171289500Y-84403000I-120000J0D01*
G01*
X169969500Y-84403000D01*
G75*
G02*
X169849500Y-84283000I0J120000D01*
G01*
G37*
G36*
G01*
X169849500Y-85553000D02*
X169849500Y-85313000D01*
G75*
G02*
X169969500Y-85193000I120000J0D01*
G01*
X171289500Y-85193000D01*
G75*
G02*
X171409500Y-85313000I0J-120000D01*
G01*
X171409500Y-85553000D01*
G75*
G02*
X171289500Y-85673000I-120000J0D01*
G01*
X169969500Y-85673000D01*
G75*
G02*
X169849500Y-85553000I0J120000D01*
G01*
G37*
G36*
G01*
X169849500Y-86823000D02*
X169849500Y-86583000D01*
G75*
G02*
X169969500Y-86463000I120000J0D01*
G01*
X171289500Y-86463000D01*
G75*
G02*
X171409500Y-86583000I0J-120000D01*
G01*
X171409500Y-86823000D01*
G75*
G02*
X171289500Y-86943000I-120000J0D01*
G01*
X169969500Y-86943000D01*
G75*
G02*
X169849500Y-86823000I0J120000D01*
G01*
G37*
G36*
G01*
X169849500Y-88093000D02*
X169849500Y-87853000D01*
G75*
G02*
X169969500Y-87733000I120000J0D01*
G01*
X171289500Y-87733000D01*
G75*
G02*
X171409500Y-87853000I0J-120000D01*
G01*
X171409500Y-88093000D01*
G75*
G02*
X171289500Y-88213000I-120000J0D01*
G01*
X169969500Y-88213000D01*
G75*
G02*
X169849500Y-88093000I0J120000D01*
G01*
G37*
G36*
G01*
X164899500Y-88093000D02*
X164899500Y-87853000D01*
G75*
G02*
X165019500Y-87733000I120000J0D01*
G01*
X166339500Y-87733000D01*
G75*
G02*
X166459500Y-87853000I0J-120000D01*
G01*
X166459500Y-88093000D01*
G75*
G02*
X166339500Y-88213000I-120000J0D01*
G01*
X165019500Y-88213000D01*
G75*
G02*
X164899500Y-88093000I0J120000D01*
G01*
G37*
G36*
G01*
X164899500Y-86823000D02*
X164899500Y-86583000D01*
G75*
G02*
X165019500Y-86463000I120000J0D01*
G01*
X166339500Y-86463000D01*
G75*
G02*
X166459500Y-86583000I0J-120000D01*
G01*
X166459500Y-86823000D01*
G75*
G02*
X166339500Y-86943000I-120000J0D01*
G01*
X165019500Y-86943000D01*
G75*
G02*
X164899500Y-86823000I0J120000D01*
G01*
G37*
G36*
G01*
X164899500Y-85553000D02*
X164899500Y-85313000D01*
G75*
G02*
X165019500Y-85193000I120000J0D01*
G01*
X166339500Y-85193000D01*
G75*
G02*
X166459500Y-85313000I0J-120000D01*
G01*
X166459500Y-85553000D01*
G75*
G02*
X166339500Y-85673000I-120000J0D01*
G01*
X165019500Y-85673000D01*
G75*
G02*
X164899500Y-85553000I0J120000D01*
G01*
G37*
G36*
G01*
X164899500Y-84283000D02*
X164899500Y-84043000D01*
G75*
G02*
X165019500Y-83923000I120000J0D01*
G01*
X166339500Y-83923000D01*
G75*
G02*
X166459500Y-84043000I0J-120000D01*
G01*
X166459500Y-84283000D01*
G75*
G02*
X166339500Y-84403000I-120000J0D01*
G01*
X165019500Y-84403000D01*
G75*
G02*
X164899500Y-84283000I0J120000D01*
G01*
G37*
G36*
G01*
X164899500Y-83013000D02*
X164899500Y-82773000D01*
G75*
G02*
X165019500Y-82653000I120000J0D01*
G01*
X166339500Y-82653000D01*
G75*
G02*
X166459500Y-82773000I0J-120000D01*
G01*
X166459500Y-83013000D01*
G75*
G02*
X166339500Y-83133000I-120000J0D01*
G01*
X165019500Y-83133000D01*
G75*
G02*
X164899500Y-83013000I0J120000D01*
G01*
G37*
G36*
G01*
X164899500Y-81743000D02*
X164899500Y-81503000D01*
G75*
G02*
X165019500Y-81383000I120000J0D01*
G01*
X166339500Y-81383000D01*
G75*
G02*
X166459500Y-81503000I0J-120000D01*
G01*
X166459500Y-81743000D01*
G75*
G02*
X166339500Y-81863000I-120000J0D01*
G01*
X165019500Y-81863000D01*
G75*
G02*
X164899500Y-81743000I0J120000D01*
G01*
G37*
G36*
G01*
X164899500Y-80473000D02*
X164899500Y-80233000D01*
G75*
G02*
X165019500Y-80113000I120000J0D01*
G01*
X166339500Y-80113000D01*
G75*
G02*
X166459500Y-80233000I0J-120000D01*
G01*
X166459500Y-80473000D01*
G75*
G02*
X166339500Y-80593000I-120000J0D01*
G01*
X165019500Y-80593000D01*
G75*
G02*
X164899500Y-80473000I0J120000D01*
G01*
G37*
G36*
G01*
X164345000Y-68799000D02*
X164585000Y-68799000D01*
G75*
G02*
X164705000Y-68919000I0J-120000D01*
G01*
X164705000Y-70239000D01*
G75*
G02*
X164585000Y-70359000I-120000J0D01*
G01*
X164345000Y-70359000D01*
G75*
G02*
X164225000Y-70239000I0J120000D01*
G01*
X164225000Y-68919000D01*
G75*
G02*
X164345000Y-68799000I120000J0D01*
G01*
G37*
G36*
G01*
X163075000Y-68799000D02*
X163315000Y-68799000D01*
G75*
G02*
X163435000Y-68919000I0J-120000D01*
G01*
X163435000Y-70239000D01*
G75*
G02*
X163315000Y-70359000I-120000J0D01*
G01*
X163075000Y-70359000D01*
G75*
G02*
X162955000Y-70239000I0J120000D01*
G01*
X162955000Y-68919000D01*
G75*
G02*
X163075000Y-68799000I120000J0D01*
G01*
G37*
G36*
G01*
X161805000Y-68799000D02*
X162045000Y-68799000D01*
G75*
G02*
X162165000Y-68919000I0J-120000D01*
G01*
X162165000Y-70239000D01*
G75*
G02*
X162045000Y-70359000I-120000J0D01*
G01*
X161805000Y-70359000D01*
G75*
G02*
X161685000Y-70239000I0J120000D01*
G01*
X161685000Y-68919000D01*
G75*
G02*
X161805000Y-68799000I120000J0D01*
G01*
G37*
G36*
G01*
X160535000Y-68799000D02*
X160775000Y-68799000D01*
G75*
G02*
X160895000Y-68919000I0J-120000D01*
G01*
X160895000Y-70239000D01*
G75*
G02*
X160775000Y-70359000I-120000J0D01*
G01*
X160535000Y-70359000D01*
G75*
G02*
X160415000Y-70239000I0J120000D01*
G01*
X160415000Y-68919000D01*
G75*
G02*
X160535000Y-68799000I120000J0D01*
G01*
G37*
G36*
G01*
X160535000Y-63849000D02*
X160775000Y-63849000D01*
G75*
G02*
X160895000Y-63969000I0J-120000D01*
G01*
X160895000Y-65289000D01*
G75*
G02*
X160775000Y-65409000I-120000J0D01*
G01*
X160535000Y-65409000D01*
G75*
G02*
X160415000Y-65289000I0J120000D01*
G01*
X160415000Y-63969000D01*
G75*
G02*
X160535000Y-63849000I120000J0D01*
G01*
G37*
G36*
G01*
X161805000Y-63849000D02*
X162045000Y-63849000D01*
G75*
G02*
X162165000Y-63969000I0J-120000D01*
G01*
X162165000Y-65289000D01*
G75*
G02*
X162045000Y-65409000I-120000J0D01*
G01*
X161805000Y-65409000D01*
G75*
G02*
X161685000Y-65289000I0J120000D01*
G01*
X161685000Y-63969000D01*
G75*
G02*
X161805000Y-63849000I120000J0D01*
G01*
G37*
G36*
G01*
X163075000Y-63849000D02*
X163315000Y-63849000D01*
G75*
G02*
X163435000Y-63969000I0J-120000D01*
G01*
X163435000Y-65289000D01*
G75*
G02*
X163315000Y-65409000I-120000J0D01*
G01*
X163075000Y-65409000D01*
G75*
G02*
X162955000Y-65289000I0J120000D01*
G01*
X162955000Y-63969000D01*
G75*
G02*
X163075000Y-63849000I120000J0D01*
G01*
G37*
G36*
G01*
X164345000Y-63849000D02*
X164585000Y-63849000D01*
G75*
G02*
X164705000Y-63969000I0J-120000D01*
G01*
X164705000Y-65289000D01*
G75*
G02*
X164585000Y-65409000I-120000J0D01*
G01*
X164345000Y-65409000D01*
G75*
G02*
X164225000Y-65289000I0J120000D01*
G01*
X164225000Y-63969000D01*
G75*
G02*
X164345000Y-63849000I120000J0D01*
G01*
G37*
G36*
G01*
X122265000Y-86675500D02*
X122105000Y-86675500D01*
G75*
G02*
X122025000Y-86595500I0J80000D01*
G01*
X122025000Y-85575500D01*
G75*
G02*
X122105000Y-85495500I80000J0D01*
G01*
X122265000Y-85495500D01*
G75*
G02*
X122345000Y-85575500I0J-80000D01*
G01*
X122345000Y-86595500D01*
G75*
G02*
X122265000Y-86675500I-80000J0D01*
G01*
G37*
G36*
G01*
X122915000Y-86675500D02*
X122755000Y-86675500D01*
G75*
G02*
X122675000Y-86595500I0J80000D01*
G01*
X122675000Y-85575500D01*
G75*
G02*
X122755000Y-85495500I80000J0D01*
G01*
X122915000Y-85495500D01*
G75*
G02*
X122995000Y-85575500I0J-80000D01*
G01*
X122995000Y-86595500D01*
G75*
G02*
X122915000Y-86675500I-80000J0D01*
G01*
G37*
G36*
G01*
X123565000Y-86675500D02*
X123405000Y-86675500D01*
G75*
G02*
X123325000Y-86595500I0J80000D01*
G01*
X123325000Y-85575500D01*
G75*
G02*
X123405000Y-85495500I80000J0D01*
G01*
X123565000Y-85495500D01*
G75*
G02*
X123645000Y-85575500I0J-80000D01*
G01*
X123645000Y-86595500D01*
G75*
G02*
X123565000Y-86675500I-80000J0D01*
G01*
G37*
G36*
G01*
X124215000Y-86675500D02*
X124055000Y-86675500D01*
G75*
G02*
X123975000Y-86595500I0J80000D01*
G01*
X123975000Y-85575500D01*
G75*
G02*
X124055000Y-85495500I80000J0D01*
G01*
X124215000Y-85495500D01*
G75*
G02*
X124295000Y-85575500I0J-80000D01*
G01*
X124295000Y-86595500D01*
G75*
G02*
X124215000Y-86675500I-80000J0D01*
G01*
G37*
G36*
G01*
X124865000Y-86675500D02*
X124705000Y-86675500D01*
G75*
G02*
X124625000Y-86595500I0J80000D01*
G01*
X124625000Y-85575500D01*
G75*
G02*
X124705000Y-85495500I80000J0D01*
G01*
X124865000Y-85495500D01*
G75*
G02*
X124945000Y-85575500I0J-80000D01*
G01*
X124945000Y-86595500D01*
G75*
G02*
X124865000Y-86675500I-80000J0D01*
G01*
G37*
G36*
G01*
X125515000Y-86675500D02*
X125355000Y-86675500D01*
G75*
G02*
X125275000Y-86595500I0J80000D01*
G01*
X125275000Y-85575500D01*
G75*
G02*
X125355000Y-85495500I80000J0D01*
G01*
X125515000Y-85495500D01*
G75*
G02*
X125595000Y-85575500I0J-80000D01*
G01*
X125595000Y-86595500D01*
G75*
G02*
X125515000Y-86675500I-80000J0D01*
G01*
G37*
G36*
G01*
X126165000Y-86675500D02*
X126005000Y-86675500D01*
G75*
G02*
X125925000Y-86595500I0J80000D01*
G01*
X125925000Y-85575500D01*
G75*
G02*
X126005000Y-85495500I80000J0D01*
G01*
X126165000Y-85495500D01*
G75*
G02*
X126245000Y-85575500I0J-80000D01*
G01*
X126245000Y-86595500D01*
G75*
G02*
X126165000Y-86675500I-80000J0D01*
G01*
G37*
G36*
G01*
X126815000Y-86675500D02*
X126655000Y-86675500D01*
G75*
G02*
X126575000Y-86595500I0J80000D01*
G01*
X126575000Y-85575500D01*
G75*
G02*
X126655000Y-85495500I80000J0D01*
G01*
X126815000Y-85495500D01*
G75*
G02*
X126895000Y-85575500I0J-80000D01*
G01*
X126895000Y-86595500D01*
G75*
G02*
X126815000Y-86675500I-80000J0D01*
G01*
G37*
G36*
G01*
X126815000Y-92400500D02*
X126655000Y-92400500D01*
G75*
G02*
X126575000Y-92320500I0J80000D01*
G01*
X126575000Y-91300500D01*
G75*
G02*
X126655000Y-91220500I80000J0D01*
G01*
X126815000Y-91220500D01*
G75*
G02*
X126895000Y-91300500I0J-80000D01*
G01*
X126895000Y-92320500D01*
G75*
G02*
X126815000Y-92400500I-80000J0D01*
G01*
G37*
G36*
G01*
X126165000Y-92400500D02*
X126005000Y-92400500D01*
G75*
G02*
X125925000Y-92320500I0J80000D01*
G01*
X125925000Y-91300500D01*
G75*
G02*
X126005000Y-91220500I80000J0D01*
G01*
X126165000Y-91220500D01*
G75*
G02*
X126245000Y-91300500I0J-80000D01*
G01*
X126245000Y-92320500D01*
G75*
G02*
X126165000Y-92400500I-80000J0D01*
G01*
G37*
G36*
G01*
X125515000Y-92400500D02*
X125355000Y-92400500D01*
G75*
G02*
X125275000Y-92320500I0J80000D01*
G01*
X125275000Y-91300500D01*
G75*
G02*
X125355000Y-91220500I80000J0D01*
G01*
X125515000Y-91220500D01*
G75*
G02*
X125595000Y-91300500I0J-80000D01*
G01*
X125595000Y-92320500D01*
G75*
G02*
X125515000Y-92400500I-80000J0D01*
G01*
G37*
G36*
G01*
X124865000Y-92400500D02*
X124705000Y-92400500D01*
G75*
G02*
X124625000Y-92320500I0J80000D01*
G01*
X124625000Y-91300500D01*
G75*
G02*
X124705000Y-91220500I80000J0D01*
G01*
X124865000Y-91220500D01*
G75*
G02*
X124945000Y-91300500I0J-80000D01*
G01*
X124945000Y-92320500D01*
G75*
G02*
X124865000Y-92400500I-80000J0D01*
G01*
G37*
G36*
G01*
X124215000Y-92400500D02*
X124055000Y-92400500D01*
G75*
G02*
X123975000Y-92320500I0J80000D01*
G01*
X123975000Y-91300500D01*
G75*
G02*
X124055000Y-91220500I80000J0D01*
G01*
X124215000Y-91220500D01*
G75*
G02*
X124295000Y-91300500I0J-80000D01*
G01*
X124295000Y-92320500D01*
G75*
G02*
X124215000Y-92400500I-80000J0D01*
G01*
G37*
G36*
G01*
X123565000Y-92400500D02*
X123405000Y-92400500D01*
G75*
G02*
X123325000Y-92320500I0J80000D01*
G01*
X123325000Y-91300500D01*
G75*
G02*
X123405000Y-91220500I80000J0D01*
G01*
X123565000Y-91220500D01*
G75*
G02*
X123645000Y-91300500I0J-80000D01*
G01*
X123645000Y-92320500D01*
G75*
G02*
X123565000Y-92400500I-80000J0D01*
G01*
G37*
G36*
G01*
X122915000Y-92400500D02*
X122755000Y-92400500D01*
G75*
G02*
X122675000Y-92320500I0J80000D01*
G01*
X122675000Y-91300500D01*
G75*
G02*
X122755000Y-91220500I80000J0D01*
G01*
X122915000Y-91220500D01*
G75*
G02*
X122995000Y-91300500I0J-80000D01*
G01*
X122995000Y-92320500D01*
G75*
G02*
X122915000Y-92400500I-80000J0D01*
G01*
G37*
G36*
G01*
X122265000Y-92400500D02*
X122105000Y-92400500D01*
G75*
G02*
X122025000Y-92320500I0J80000D01*
G01*
X122025000Y-91300500D01*
G75*
G02*
X122105000Y-91220500I80000J0D01*
G01*
X122265000Y-91220500D01*
G75*
G02*
X122345000Y-91300500I0J-80000D01*
G01*
X122345000Y-92320500D01*
G75*
G02*
X122265000Y-92400500I-80000J0D01*
G01*
G37*
G36*
G01*
X132087000Y-68799000D02*
X132327000Y-68799000D01*
G75*
G02*
X132447000Y-68919000I0J-120000D01*
G01*
X132447000Y-70239000D01*
G75*
G02*
X132327000Y-70359000I-120000J0D01*
G01*
X132087000Y-70359000D01*
G75*
G02*
X131967000Y-70239000I0J120000D01*
G01*
X131967000Y-68919000D01*
G75*
G02*
X132087000Y-68799000I120000J0D01*
G01*
G37*
G36*
G01*
X130817000Y-68799000D02*
X131057000Y-68799000D01*
G75*
G02*
X131177000Y-68919000I0J-120000D01*
G01*
X131177000Y-70239000D01*
G75*
G02*
X131057000Y-70359000I-120000J0D01*
G01*
X130817000Y-70359000D01*
G75*
G02*
X130697000Y-70239000I0J120000D01*
G01*
X130697000Y-68919000D01*
G75*
G02*
X130817000Y-68799000I120000J0D01*
G01*
G37*
G36*
G01*
X129547000Y-68799000D02*
X129787000Y-68799000D01*
G75*
G02*
X129907000Y-68919000I0J-120000D01*
G01*
X129907000Y-70239000D01*
G75*
G02*
X129787000Y-70359000I-120000J0D01*
G01*
X129547000Y-70359000D01*
G75*
G02*
X129427000Y-70239000I0J120000D01*
G01*
X129427000Y-68919000D01*
G75*
G02*
X129547000Y-68799000I120000J0D01*
G01*
G37*
G36*
G01*
X128277000Y-68799000D02*
X128517000Y-68799000D01*
G75*
G02*
X128637000Y-68919000I0J-120000D01*
G01*
X128637000Y-70239000D01*
G75*
G02*
X128517000Y-70359000I-120000J0D01*
G01*
X128277000Y-70359000D01*
G75*
G02*
X128157000Y-70239000I0J120000D01*
G01*
X128157000Y-68919000D01*
G75*
G02*
X128277000Y-68799000I120000J0D01*
G01*
G37*
G36*
G01*
X128277000Y-63849000D02*
X128517000Y-63849000D01*
G75*
G02*
X128637000Y-63969000I0J-120000D01*
G01*
X128637000Y-65289000D01*
G75*
G02*
X128517000Y-65409000I-120000J0D01*
G01*
X128277000Y-65409000D01*
G75*
G02*
X128157000Y-65289000I0J120000D01*
G01*
X128157000Y-63969000D01*
G75*
G02*
X128277000Y-63849000I120000J0D01*
G01*
G37*
G36*
G01*
X129547000Y-63849000D02*
X129787000Y-63849000D01*
G75*
G02*
X129907000Y-63969000I0J-120000D01*
G01*
X129907000Y-65289000D01*
G75*
G02*
X129787000Y-65409000I-120000J0D01*
G01*
X129547000Y-65409000D01*
G75*
G02*
X129427000Y-65289000I0J120000D01*
G01*
X129427000Y-63969000D01*
G75*
G02*
X129547000Y-63849000I120000J0D01*
G01*
G37*
G36*
G01*
X130817000Y-63849000D02*
X131057000Y-63849000D01*
G75*
G02*
X131177000Y-63969000I0J-120000D01*
G01*
X131177000Y-65289000D01*
G75*
G02*
X131057000Y-65409000I-120000J0D01*
G01*
X130817000Y-65409000D01*
G75*
G02*
X130697000Y-65289000I0J120000D01*
G01*
X130697000Y-63969000D01*
G75*
G02*
X130817000Y-63849000I120000J0D01*
G01*
G37*
G36*
G01*
X132087000Y-63849000D02*
X132327000Y-63849000D01*
G75*
G02*
X132447000Y-63969000I0J-120000D01*
G01*
X132447000Y-65289000D01*
G75*
G02*
X132327000Y-65409000I-120000J0D01*
G01*
X132087000Y-65409000D01*
G75*
G02*
X131967000Y-65289000I0J120000D01*
G01*
X131967000Y-63969000D01*
G75*
G02*
X132087000Y-63849000I120000J0D01*
G01*
G37*
D12*
X124589500Y-75826000D03*
X123639500Y-75826000D03*
X125539500Y-75826000D03*
X125539500Y-78026000D03*
X124589500Y-78026000D03*
X123639500Y-78026000D03*
G36*
G01*
X183875002Y-93041000D02*
X183154998Y-93041000D01*
G75*
G02*
X182955000Y-92841002I0J199998D01*
G01*
X182955000Y-92420998D01*
G75*
G02*
X183154998Y-92221000I199998J0D01*
G01*
X183875002Y-92221000D01*
G75*
G02*
X184075000Y-92420998I0J-199998D01*
G01*
X184075000Y-92841002D01*
G75*
G02*
X183875002Y-93041000I-199998J0D01*
G01*
G37*
G36*
G01*
X183875002Y-94866000D02*
X183154998Y-94866000D01*
G75*
G02*
X182955000Y-94666002I0J199998D01*
G01*
X182955000Y-94245998D01*
G75*
G02*
X183154998Y-94046000I199998J0D01*
G01*
X183875002Y-94046000D01*
G75*
G02*
X184075000Y-94245998I0J-199998D01*
G01*
X184075000Y-94666002D01*
G75*
G02*
X183875002Y-94866000I-199998J0D01*
G01*
G37*
G36*
G01*
X178166502Y-80612500D02*
X177446498Y-80612500D01*
G75*
G02*
X177246500Y-80412502I0J199998D01*
G01*
X177246500Y-79992498D01*
G75*
G02*
X177446498Y-79792500I199998J0D01*
G01*
X178166502Y-79792500D01*
G75*
G02*
X178366500Y-79992498I0J-199998D01*
G01*
X178366500Y-80412502D01*
G75*
G02*
X178166502Y-80612500I-199998J0D01*
G01*
G37*
G36*
G01*
X178166502Y-82437500D02*
X177446498Y-82437500D01*
G75*
G02*
X177246500Y-82237502I0J199998D01*
G01*
X177246500Y-81817498D01*
G75*
G02*
X177446498Y-81617500I199998J0D01*
G01*
X178166502Y-81617500D01*
G75*
G02*
X178366500Y-81817498I0J-199998D01*
G01*
X178366500Y-82237502D01*
G75*
G02*
X178166502Y-82437500I-199998J0D01*
G01*
G37*
G36*
G01*
X178978500Y-90962998D02*
X178978500Y-91683002D01*
G75*
G02*
X178778502Y-91883000I-199998J0D01*
G01*
X178358498Y-91883000D01*
G75*
G02*
X178158500Y-91683002I0J199998D01*
G01*
X178158500Y-90962998D01*
G75*
G02*
X178358498Y-90763000I199998J0D01*
G01*
X178778502Y-90763000D01*
G75*
G02*
X178978500Y-90962998I0J-199998D01*
G01*
G37*
G36*
G01*
X180803500Y-90962998D02*
X180803500Y-91683002D01*
G75*
G02*
X180603502Y-91883000I-199998J0D01*
G01*
X180183498Y-91883000D01*
G75*
G02*
X179983500Y-91683002I0J199998D01*
G01*
X179983500Y-90962998D01*
G75*
G02*
X180183498Y-90763000I199998J0D01*
G01*
X180603502Y-90763000D01*
G75*
G02*
X180803500Y-90962998I0J-199998D01*
G01*
G37*
G36*
G01*
X163688502Y-87622000D02*
X162968498Y-87622000D01*
G75*
G02*
X162768500Y-87422002I0J199998D01*
G01*
X162768500Y-87001998D01*
G75*
G02*
X162968498Y-86802000I199998J0D01*
G01*
X163688502Y-86802000D01*
G75*
G02*
X163888500Y-87001998I0J-199998D01*
G01*
X163888500Y-87422002D01*
G75*
G02*
X163688502Y-87622000I-199998J0D01*
G01*
G37*
G36*
G01*
X163688502Y-89447000D02*
X162968498Y-89447000D01*
G75*
G02*
X162768500Y-89247002I0J199998D01*
G01*
X162768500Y-88826998D01*
G75*
G02*
X162968498Y-88627000I199998J0D01*
G01*
X163688502Y-88627000D01*
G75*
G02*
X163888500Y-88826998I0J-199998D01*
G01*
X163888500Y-89247002D01*
G75*
G02*
X163688502Y-89447000I-199998J0D01*
G01*
G37*
G36*
G01*
X174906498Y-85833000D02*
X175626502Y-85833000D01*
G75*
G02*
X175826500Y-86032998I0J-199998D01*
G01*
X175826500Y-86453002D01*
G75*
G02*
X175626502Y-86653000I-199998J0D01*
G01*
X174906498Y-86653000D01*
G75*
G02*
X174706500Y-86453002I0J199998D01*
G01*
X174706500Y-86032998D01*
G75*
G02*
X174906498Y-85833000I199998J0D01*
G01*
G37*
G36*
G01*
X174906498Y-84008000D02*
X175626502Y-84008000D01*
G75*
G02*
X175826500Y-84207998I0J-199998D01*
G01*
X175826500Y-84628002D01*
G75*
G02*
X175626502Y-84828000I-199998J0D01*
G01*
X174906498Y-84828000D01*
G75*
G02*
X174706500Y-84628002I0J199998D01*
G01*
X174706500Y-84207998D01*
G75*
G02*
X174906498Y-84008000I199998J0D01*
G01*
G37*
G36*
G01*
X165587002Y-91898000D02*
X164866998Y-91898000D01*
G75*
G02*
X164667000Y-91698002I0J199998D01*
G01*
X164667000Y-91277998D01*
G75*
G02*
X164866998Y-91078000I199998J0D01*
G01*
X165587002Y-91078000D01*
G75*
G02*
X165787000Y-91277998I0J-199998D01*
G01*
X165787000Y-91698002D01*
G75*
G02*
X165587002Y-91898000I-199998J0D01*
G01*
G37*
G36*
G01*
X165587002Y-93723000D02*
X164866998Y-93723000D01*
G75*
G02*
X164667000Y-93523002I0J199998D01*
G01*
X164667000Y-93102998D01*
G75*
G02*
X164866998Y-92903000I199998J0D01*
G01*
X165587002Y-92903000D01*
G75*
G02*
X165787000Y-93102998I0J-199998D01*
G01*
X165787000Y-93523002D01*
G75*
G02*
X165587002Y-93723000I-199998J0D01*
G01*
G37*
G36*
G01*
X167746002Y-89819000D02*
X167025998Y-89819000D01*
G75*
G02*
X166826000Y-89619002I0J199998D01*
G01*
X166826000Y-89198998D01*
G75*
G02*
X167025998Y-88999000I199998J0D01*
G01*
X167746002Y-88999000D01*
G75*
G02*
X167946000Y-89198998I0J-199998D01*
G01*
X167946000Y-89619002D01*
G75*
G02*
X167746002Y-89819000I-199998J0D01*
G01*
G37*
G36*
G01*
X167746002Y-91644000D02*
X167025998Y-91644000D01*
G75*
G02*
X166826000Y-91444002I0J199998D01*
G01*
X166826000Y-91023998D01*
G75*
G02*
X167025998Y-90824000I199998J0D01*
G01*
X167746002Y-90824000D01*
G75*
G02*
X167946000Y-91023998I0J-199998D01*
G01*
X167946000Y-91444002D01*
G75*
G02*
X167746002Y-91644000I-199998J0D01*
G01*
G37*
G36*
G01*
X164063002Y-72340000D02*
X163342998Y-72340000D01*
G75*
G02*
X163143000Y-72140002I0J199998D01*
G01*
X163143000Y-71719998D01*
G75*
G02*
X163342998Y-71520000I199998J0D01*
G01*
X164063002Y-71520000D01*
G75*
G02*
X164263000Y-71719998I0J-199998D01*
G01*
X164263000Y-72140002D01*
G75*
G02*
X164063002Y-72340000I-199998J0D01*
G01*
G37*
G36*
G01*
X164063002Y-74165000D02*
X163342998Y-74165000D01*
G75*
G02*
X163143000Y-73965002I0J199998D01*
G01*
X163143000Y-73544998D01*
G75*
G02*
X163342998Y-73345000I199998J0D01*
G01*
X164063002Y-73345000D01*
G75*
G02*
X164263000Y-73544998I0J-199998D01*
G01*
X164263000Y-73965002D01*
G75*
G02*
X164063002Y-74165000I-199998J0D01*
G01*
G37*
G36*
G01*
X162285002Y-72340000D02*
X161564998Y-72340000D01*
G75*
G02*
X161365000Y-72140002I0J199998D01*
G01*
X161365000Y-71719998D01*
G75*
G02*
X161564998Y-71520000I199998J0D01*
G01*
X162285002Y-71520000D01*
G75*
G02*
X162485000Y-71719998I0J-199998D01*
G01*
X162485000Y-72140002D01*
G75*
G02*
X162285002Y-72340000I-199998J0D01*
G01*
G37*
G36*
G01*
X162285002Y-74165000D02*
X161564998Y-74165000D01*
G75*
G02*
X161365000Y-73965002I0J199998D01*
G01*
X161365000Y-73544998D01*
G75*
G02*
X161564998Y-73345000I199998J0D01*
G01*
X162285002Y-73345000D01*
G75*
G02*
X162485000Y-73544998I0J-199998D01*
G01*
X162485000Y-73965002D01*
G75*
G02*
X162285002Y-74165000I-199998J0D01*
G01*
G37*
G36*
G01*
X170579000Y-89943002D02*
X170579000Y-89222998D01*
G75*
G02*
X170778998Y-89023000I199998J0D01*
G01*
X171199002Y-89023000D01*
G75*
G02*
X171399000Y-89222998I0J-199998D01*
G01*
X171399000Y-89943002D01*
G75*
G02*
X171199002Y-90143000I-199998J0D01*
G01*
X170778998Y-90143000D01*
G75*
G02*
X170579000Y-89943002I0J199998D01*
G01*
G37*
G36*
G01*
X168754000Y-89943002D02*
X168754000Y-89222998D01*
G75*
G02*
X168953998Y-89023000I199998J0D01*
G01*
X169374002Y-89023000D01*
G75*
G02*
X169574000Y-89222998I0J-199998D01*
G01*
X169574000Y-89943002D01*
G75*
G02*
X169374002Y-90143000I-199998J0D01*
G01*
X168953998Y-90143000D01*
G75*
G02*
X168754000Y-89943002I0J199998D01*
G01*
G37*
G36*
G01*
X131678002Y-72039000D02*
X130957998Y-72039000D01*
G75*
G02*
X130758000Y-71839002I0J199998D01*
G01*
X130758000Y-71418998D01*
G75*
G02*
X130957998Y-71219000I199998J0D01*
G01*
X131678002Y-71219000D01*
G75*
G02*
X131878000Y-71418998I0J-199998D01*
G01*
X131878000Y-71839002D01*
G75*
G02*
X131678002Y-72039000I-199998J0D01*
G01*
G37*
G36*
G01*
X131678002Y-73864000D02*
X130957998Y-73864000D01*
G75*
G02*
X130758000Y-73664002I0J199998D01*
G01*
X130758000Y-73243998D01*
G75*
G02*
X130957998Y-73044000I199998J0D01*
G01*
X131678002Y-73044000D01*
G75*
G02*
X131878000Y-73243998I0J-199998D01*
G01*
X131878000Y-73664002D01*
G75*
G02*
X131678002Y-73864000I-199998J0D01*
G01*
G37*
G36*
G01*
X129900002Y-72086000D02*
X129179998Y-72086000D01*
G75*
G02*
X128980000Y-71886002I0J199998D01*
G01*
X128980000Y-71465998D01*
G75*
G02*
X129179998Y-71266000I199998J0D01*
G01*
X129900002Y-71266000D01*
G75*
G02*
X130100000Y-71465998I0J-199998D01*
G01*
X130100000Y-71886002D01*
G75*
G02*
X129900002Y-72086000I-199998J0D01*
G01*
G37*
G36*
G01*
X129900002Y-73911000D02*
X129179998Y-73911000D01*
G75*
G02*
X128980000Y-73711002I0J199998D01*
G01*
X128980000Y-73290998D01*
G75*
G02*
X129179998Y-73091000I199998J0D01*
G01*
X129900002Y-73091000D01*
G75*
G02*
X130100000Y-73290998I0J-199998D01*
G01*
X130100000Y-73711002D01*
G75*
G02*
X129900002Y-73911000I-199998J0D01*
G01*
G37*
G36*
G01*
X186460000Y-85139000D02*
X186460000Y-85899000D01*
G75*
G02*
X186260000Y-86099000I-200000J0D01*
G01*
X185860000Y-86099000D01*
G75*
G02*
X185660000Y-85899000I0J200000D01*
G01*
X185660000Y-85139000D01*
G75*
G02*
X185860000Y-84939000I200000J0D01*
G01*
X186260000Y-84939000D01*
G75*
G02*
X186460000Y-85139000I0J-200000D01*
G01*
G37*
G36*
G01*
X188360000Y-85139000D02*
X188360000Y-85899000D01*
G75*
G02*
X188160000Y-86099000I-200000J0D01*
G01*
X187760000Y-86099000D01*
G75*
G02*
X187560000Y-85899000I0J200000D01*
G01*
X187560000Y-85139000D01*
G75*
G02*
X187760000Y-84939000I200000J0D01*
G01*
X188160000Y-84939000D01*
G75*
G02*
X188360000Y-85139000I0J-200000D01*
G01*
G37*
G36*
G01*
X176040501Y-79845000D02*
X175000499Y-79845000D01*
G75*
G02*
X174800500Y-79645001I0J199999D01*
G01*
X174800500Y-79124999D01*
G75*
G02*
X175000499Y-78925000I199999J0D01*
G01*
X176040501Y-78925000D01*
G75*
G02*
X176240500Y-79124999I0J-199999D01*
G01*
X176240500Y-79645001D01*
G75*
G02*
X176040501Y-79845000I-199999J0D01*
G01*
G37*
G36*
G01*
X176040501Y-82795000D02*
X175000499Y-82795000D01*
G75*
G02*
X174800500Y-82595001I0J199999D01*
G01*
X174800500Y-82074999D01*
G75*
G02*
X175000499Y-81875000I199999J0D01*
G01*
X176040501Y-81875000D01*
G75*
G02*
X176240500Y-82074999I0J-199999D01*
G01*
X176240500Y-82595001D01*
G75*
G02*
X176040501Y-82795000I-199999J0D01*
G01*
G37*
G36*
G01*
X178840000Y-71730000D02*
X179600000Y-71730000D01*
G75*
G02*
X179800000Y-71930000I0J-200000D01*
G01*
X179800000Y-72330000D01*
G75*
G02*
X179600000Y-72530000I-200000J0D01*
G01*
X178840000Y-72530000D01*
G75*
G02*
X178640000Y-72330000I0J200000D01*
G01*
X178640000Y-71930000D01*
G75*
G02*
X178840000Y-71730000I200000J0D01*
G01*
G37*
G36*
G01*
X178840000Y-69830000D02*
X179600000Y-69830000D01*
G75*
G02*
X179800000Y-70030000I0J-200000D01*
G01*
X179800000Y-70430000D01*
G75*
G02*
X179600000Y-70630000I-200000J0D01*
G01*
X178840000Y-70630000D01*
G75*
G02*
X178640000Y-70430000I0J200000D01*
G01*
X178640000Y-70030000D01*
G75*
G02*
X178840000Y-69830000I200000J0D01*
G01*
G37*
G36*
G01*
X169260000Y-71580000D02*
X170020000Y-71580000D01*
G75*
G02*
X170220000Y-71780000I0J-200000D01*
G01*
X170220000Y-72180000D01*
G75*
G02*
X170020000Y-72380000I-200000J0D01*
G01*
X169260000Y-72380000D01*
G75*
G02*
X169060000Y-72180000I0J200000D01*
G01*
X169060000Y-71780000D01*
G75*
G02*
X169260000Y-71580000I200000J0D01*
G01*
G37*
G36*
G01*
X169260000Y-69680000D02*
X170020000Y-69680000D01*
G75*
G02*
X170220000Y-69880000I0J-200000D01*
G01*
X170220000Y-70280000D01*
G75*
G02*
X170020000Y-70480000I-200000J0D01*
G01*
X169260000Y-70480000D01*
G75*
G02*
X169060000Y-70280000I0J200000D01*
G01*
X169060000Y-69880000D01*
G75*
G02*
X169260000Y-69680000I200000J0D01*
G01*
G37*
G36*
G01*
X179456500Y-88167000D02*
X178696500Y-88167000D01*
G75*
G02*
X178496500Y-87967000I0J200000D01*
G01*
X178496500Y-87567000D01*
G75*
G02*
X178696500Y-87367000I200000J0D01*
G01*
X179456500Y-87367000D01*
G75*
G02*
X179656500Y-87567000I0J-200000D01*
G01*
X179656500Y-87967000D01*
G75*
G02*
X179456500Y-88167000I-200000J0D01*
G01*
G37*
G36*
G01*
X179456500Y-90067000D02*
X178696500Y-90067000D01*
G75*
G02*
X178496500Y-89867000I0J200000D01*
G01*
X178496500Y-89467000D01*
G75*
G02*
X178696500Y-89267000I200000J0D01*
G01*
X179456500Y-89267000D01*
G75*
G02*
X179656500Y-89467000I0J-200000D01*
G01*
X179656500Y-89867000D01*
G75*
G02*
X179456500Y-90067000I-200000J0D01*
G01*
G37*
G36*
G01*
X177424500Y-88167000D02*
X176664500Y-88167000D01*
G75*
G02*
X176464500Y-87967000I0J200000D01*
G01*
X176464500Y-87567000D01*
G75*
G02*
X176664500Y-87367000I200000J0D01*
G01*
X177424500Y-87367000D01*
G75*
G02*
X177624500Y-87567000I0J-200000D01*
G01*
X177624500Y-87967000D01*
G75*
G02*
X177424500Y-88167000I-200000J0D01*
G01*
G37*
G36*
G01*
X177424500Y-90067000D02*
X176664500Y-90067000D01*
G75*
G02*
X176464500Y-89867000I0J200000D01*
G01*
X176464500Y-89467000D01*
G75*
G02*
X176664500Y-89267000I200000J0D01*
G01*
X177424500Y-89267000D01*
G75*
G02*
X177624500Y-89467000I0J-200000D01*
G01*
X177624500Y-89867000D01*
G75*
G02*
X177424500Y-90067000I-200000J0D01*
G01*
G37*
G36*
G01*
X175646500Y-88167000D02*
X174886500Y-88167000D01*
G75*
G02*
X174686500Y-87967000I0J200000D01*
G01*
X174686500Y-87567000D01*
G75*
G02*
X174886500Y-87367000I200000J0D01*
G01*
X175646500Y-87367000D01*
G75*
G02*
X175846500Y-87567000I0J-200000D01*
G01*
X175846500Y-87967000D01*
G75*
G02*
X175646500Y-88167000I-200000J0D01*
G01*
G37*
G36*
G01*
X175646500Y-90067000D02*
X174886500Y-90067000D01*
G75*
G02*
X174686500Y-89867000I0J200000D01*
G01*
X174686500Y-89467000D01*
G75*
G02*
X174886500Y-89267000I200000J0D01*
G01*
X175646500Y-89267000D01*
G75*
G02*
X175846500Y-89467000I0J-200000D01*
G01*
X175846500Y-89867000D01*
G75*
G02*
X175646500Y-90067000I-200000J0D01*
G01*
G37*
G36*
G01*
X161037000Y-90500000D02*
X161797000Y-90500000D01*
G75*
G02*
X161997000Y-90700000I0J-200000D01*
G01*
X161997000Y-91100000D01*
G75*
G02*
X161797000Y-91300000I-200000J0D01*
G01*
X161037000Y-91300000D01*
G75*
G02*
X160837000Y-91100000I0J200000D01*
G01*
X160837000Y-90700000D01*
G75*
G02*
X161037000Y-90500000I200000J0D01*
G01*
G37*
G36*
G01*
X161037000Y-88600000D02*
X161797000Y-88600000D01*
G75*
G02*
X161997000Y-88800000I0J-200000D01*
G01*
X161997000Y-89200000D01*
G75*
G02*
X161797000Y-89400000I-200000J0D01*
G01*
X161037000Y-89400000D01*
G75*
G02*
X160837000Y-89200000I0J200000D01*
G01*
X160837000Y-88800000D01*
G75*
G02*
X161037000Y-88600000I200000J0D01*
G01*
G37*
G36*
G01*
X162948500Y-92061000D02*
X163708500Y-92061000D01*
G75*
G02*
X163908500Y-92261000I0J-200000D01*
G01*
X163908500Y-92661000D01*
G75*
G02*
X163708500Y-92861000I-200000J0D01*
G01*
X162948500Y-92861000D01*
G75*
G02*
X162748500Y-92661000I0J200000D01*
G01*
X162748500Y-92261000D01*
G75*
G02*
X162948500Y-92061000I200000J0D01*
G01*
G37*
G36*
G01*
X162948500Y-90161000D02*
X163708500Y-90161000D01*
G75*
G02*
X163908500Y-90361000I0J-200000D01*
G01*
X163908500Y-90761000D01*
G75*
G02*
X163708500Y-90961000I-200000J0D01*
G01*
X162948500Y-90961000D01*
G75*
G02*
X162748500Y-90761000I0J200000D01*
G01*
X162748500Y-90361000D01*
G75*
G02*
X162948500Y-90161000I200000J0D01*
G01*
G37*
G36*
G01*
X185597000Y-87157999D02*
X185597000Y-88198001D01*
G75*
G02*
X185397001Y-88398000I-199999J0D01*
G01*
X184876999Y-88398000D01*
G75*
G02*
X184677000Y-88198001I0J199999D01*
G01*
X184677000Y-87157999D01*
G75*
G02*
X184876999Y-86958000I199999J0D01*
G01*
X185397001Y-86958000D01*
G75*
G02*
X185597000Y-87157999I0J-199999D01*
G01*
G37*
G36*
G01*
X188547000Y-87157999D02*
X188547000Y-88198001D01*
G75*
G02*
X188347001Y-88398000I-199999J0D01*
G01*
X187826999Y-88398000D01*
G75*
G02*
X187627000Y-88198001I0J199999D01*
G01*
X187627000Y-87157999D01*
G75*
G02*
X187826999Y-86958000I199999J0D01*
G01*
X188347001Y-86958000D01*
G75*
G02*
X188547000Y-87157999I0J-199999D01*
G01*
G37*
G36*
G01*
X127953500Y-87593000D02*
X128713500Y-87593000D01*
G75*
G02*
X128913500Y-87793000I0J-200000D01*
G01*
X128913500Y-88193000D01*
G75*
G02*
X128713500Y-88393000I-200000J0D01*
G01*
X127953500Y-88393000D01*
G75*
G02*
X127753500Y-88193000I0J200000D01*
G01*
X127753500Y-87793000D01*
G75*
G02*
X127953500Y-87593000I200000J0D01*
G01*
G37*
G36*
G01*
X127953500Y-85693000D02*
X128713500Y-85693000D01*
G75*
G02*
X128913500Y-85893000I0J-200000D01*
G01*
X128913500Y-86293000D01*
G75*
G02*
X128713500Y-86493000I-200000J0D01*
G01*
X127953500Y-86493000D01*
G75*
G02*
X127753500Y-86293000I0J200000D01*
G01*
X127753500Y-85893000D01*
G75*
G02*
X127953500Y-85693000I200000J0D01*
G01*
G37*
G36*
G01*
X109820000Y-76660000D02*
X110580000Y-76660000D01*
G75*
G02*
X110780000Y-76860000I0J-200000D01*
G01*
X110780000Y-77260000D01*
G75*
G02*
X110580000Y-77460000I-200000J0D01*
G01*
X109820000Y-77460000D01*
G75*
G02*
X109620000Y-77260000I0J200000D01*
G01*
X109620000Y-76860000D01*
G75*
G02*
X109820000Y-76660000I200000J0D01*
G01*
G37*
G36*
G01*
X109820000Y-74760000D02*
X110580000Y-74760000D01*
G75*
G02*
X110780000Y-74960000I0J-200000D01*
G01*
X110780000Y-75360000D01*
G75*
G02*
X110580000Y-75560000I-200000J0D01*
G01*
X109820000Y-75560000D01*
G75*
G02*
X109620000Y-75360000I0J200000D01*
G01*
X109620000Y-74960000D01*
G75*
G02*
X109820000Y-74760000I200000J0D01*
G01*
G37*
G36*
G01*
X126155500Y-74342000D02*
X126155500Y-73582000D01*
G75*
G02*
X126355500Y-73382000I200000J0D01*
G01*
X126755500Y-73382000D01*
G75*
G02*
X126955500Y-73582000I0J-200000D01*
G01*
X126955500Y-74342000D01*
G75*
G02*
X126755500Y-74542000I-200000J0D01*
G01*
X126355500Y-74542000D01*
G75*
G02*
X126155500Y-74342000I0J200000D01*
G01*
G37*
G36*
G01*
X124255500Y-74342000D02*
X124255500Y-73582000D01*
G75*
G02*
X124455500Y-73382000I200000J0D01*
G01*
X124855500Y-73382000D01*
G75*
G02*
X125055500Y-73582000I0J-200000D01*
G01*
X125055500Y-74342000D01*
G75*
G02*
X124855500Y-74542000I-200000J0D01*
G01*
X124455500Y-74542000D01*
G75*
G02*
X124255500Y-74342000I0J200000D01*
G01*
G37*
G36*
G01*
X126603500Y-72450001D02*
X126603500Y-71409999D01*
G75*
G02*
X126803499Y-71210000I199999J0D01*
G01*
X127323501Y-71210000D01*
G75*
G02*
X127523500Y-71409999I0J-199999D01*
G01*
X127523500Y-72450001D01*
G75*
G02*
X127323501Y-72650000I-199999J0D01*
G01*
X126803499Y-72650000D01*
G75*
G02*
X126603500Y-72450001I0J199999D01*
G01*
G37*
G36*
G01*
X123653500Y-72450001D02*
X123653500Y-71409999D01*
G75*
G02*
X123853499Y-71210000I199999J0D01*
G01*
X124373501Y-71210000D01*
G75*
G02*
X124573500Y-71409999I0J-199999D01*
G01*
X124573500Y-72450001D01*
G75*
G02*
X124373501Y-72650000I-199999J0D01*
G01*
X123853499Y-72650000D01*
G75*
G02*
X123653500Y-72450001I0J199999D01*
G01*
G37*
G36*
G01*
X120776000Y-89922000D02*
X120016000Y-89922000D01*
G75*
G02*
X119816000Y-89722000I0J200000D01*
G01*
X119816000Y-89322000D01*
G75*
G02*
X120016000Y-89122000I200000J0D01*
G01*
X120776000Y-89122000D01*
G75*
G02*
X120976000Y-89322000I0J-200000D01*
G01*
X120976000Y-89722000D01*
G75*
G02*
X120776000Y-89922000I-200000J0D01*
G01*
G37*
G36*
G01*
X120776000Y-91822000D02*
X120016000Y-91822000D01*
G75*
G02*
X119816000Y-91622000I0J200000D01*
G01*
X119816000Y-91222000D01*
G75*
G02*
X120016000Y-91022000I200000J0D01*
G01*
X120776000Y-91022000D01*
G75*
G02*
X120976000Y-91222000I0J-200000D01*
G01*
X120976000Y-91622000D01*
G75*
G02*
X120776000Y-91822000I-200000J0D01*
G01*
G37*
G36*
G01*
X118744000Y-89922000D02*
X117984000Y-89922000D01*
G75*
G02*
X117784000Y-89722000I0J200000D01*
G01*
X117784000Y-89322000D01*
G75*
G02*
X117984000Y-89122000I200000J0D01*
G01*
X118744000Y-89122000D01*
G75*
G02*
X118944000Y-89322000I0J-200000D01*
G01*
X118944000Y-89722000D01*
G75*
G02*
X118744000Y-89922000I-200000J0D01*
G01*
G37*
G36*
G01*
X118744000Y-91822000D02*
X117984000Y-91822000D01*
G75*
G02*
X117784000Y-91622000I0J200000D01*
G01*
X117784000Y-91222000D01*
G75*
G02*
X117984000Y-91022000I200000J0D01*
G01*
X118744000Y-91022000D01*
G75*
G02*
X118944000Y-91222000I0J-200000D01*
G01*
X118944000Y-91622000D01*
G75*
G02*
X118744000Y-91822000I-200000J0D01*
G01*
G37*
G36*
G01*
X116598001Y-88900000D02*
X115557999Y-88900000D01*
G75*
G02*
X115358000Y-88700001I0J199999D01*
G01*
X115358000Y-88179999D01*
G75*
G02*
X115557999Y-87980000I199999J0D01*
G01*
X116598001Y-87980000D01*
G75*
G02*
X116798000Y-88179999I0J-199999D01*
G01*
X116798000Y-88700001D01*
G75*
G02*
X116598001Y-88900000I-199999J0D01*
G01*
G37*
G36*
G01*
X116598001Y-91850000D02*
X115557999Y-91850000D01*
G75*
G02*
X115358000Y-91650001I0J199999D01*
G01*
X115358000Y-91129999D01*
G75*
G02*
X115557999Y-90930000I199999J0D01*
G01*
X116598001Y-90930000D01*
G75*
G02*
X116798000Y-91129999I0J-199999D01*
G01*
X116798000Y-91650001D01*
G75*
G02*
X116598001Y-91850000I-199999J0D01*
G01*
G37*
D14*
X181902000Y-102976000D03*
X181902000Y-98936000D03*
X183172000Y-102976000D03*
X183172000Y-98936000D03*
X184442000Y-102976000D03*
X184442000Y-98936000D03*
X185712000Y-102976000D03*
X185712000Y-98936000D03*
X186982000Y-102976000D03*
X186982000Y-98936000D03*
D15*
X173234500Y-82433000D03*
X173234500Y-79163000D03*
M02*
