G04 #@! TF.GenerationSoftware,KiCad,Pcbnew,5.1.10-88a1d61d58~90~ubuntu21.04.1*
G04 #@! TF.CreationDate,2021-10-28T10:16:53+02:00*
G04 #@! TF.ProjectId,dwc-hat,6477632d-6861-4742-9e6b-696361645f70,rev?*
G04 #@! TF.SameCoordinates,Original*
G04 #@! TF.FileFunction,Copper,L2,Inr*
G04 #@! TF.FilePolarity,Positive*
%FSLAX46Y46*%
G04 Gerber Fmt 4.6, Leading zero omitted, Abs format (unit mm)*
G04 Created by KiCad (PCBNEW 5.1.10-88a1d61d58~90~ubuntu21.04.1) date 2021-10-28 10:16:53*
%MOMM*%
%LPD*%
G01*
G04 APERTURE LIST*
G04 #@! TA.AperFunction,ComponentPad*
%ADD10C,2.000000*%
G04 #@! TD*
G04 #@! TA.AperFunction,ComponentPad*
%ADD11O,1.700000X1.700000*%
G04 #@! TD*
G04 #@! TA.AperFunction,ComponentPad*
%ADD12R,1.700000X1.700000*%
G04 #@! TD*
G04 #@! TA.AperFunction,ComponentPad*
%ADD13C,1.500000*%
G04 #@! TD*
G04 #@! TA.AperFunction,ComponentPad*
%ADD14C,3.000000*%
G04 #@! TD*
G04 #@! TA.AperFunction,ComponentPad*
%ADD15C,6.400000*%
G04 #@! TD*
G04 #@! TA.AperFunction,ViaPad*
%ADD16C,0.600000*%
G04 #@! TD*
G04 #@! TA.AperFunction,ViaPad*
%ADD17C,1.000000*%
G04 #@! TD*
G04 #@! TA.AperFunction,Conductor*
%ADD18C,0.254000*%
G04 #@! TD*
G04 #@! TA.AperFunction,Conductor*
%ADD19C,0.100000*%
G04 #@! TD*
G04 APERTURE END LIST*
D10*
X138950000Y-87210000D03*
X151640000Y-87210000D03*
X149100000Y-87200000D03*
X146560000Y-87200000D03*
X144020000Y-87200000D03*
X141480000Y-87200000D03*
D11*
X191262000Y-55547000D03*
X188722000Y-55547000D03*
X186182000Y-55547000D03*
D12*
X183642000Y-55547000D03*
D11*
X144018000Y-63040000D03*
X141478000Y-63040000D03*
D12*
X138938000Y-63040000D03*
D11*
X164997000Y-54528000D03*
X164997000Y-57068000D03*
X162457000Y-54528000D03*
X162457000Y-57068000D03*
X159917000Y-54528000D03*
X159917000Y-57068000D03*
X157377000Y-54528000D03*
X157377000Y-57068000D03*
X154837000Y-54528000D03*
X154837000Y-57068000D03*
X152297000Y-54528000D03*
X152297000Y-57068000D03*
X149757000Y-54528000D03*
X149757000Y-57068000D03*
X147217000Y-54528000D03*
X147217000Y-57068000D03*
X144677000Y-54528000D03*
X144677000Y-57068000D03*
X142137000Y-54528000D03*
X142137000Y-57068000D03*
X139597000Y-54528000D03*
X139597000Y-57068000D03*
X137057000Y-54528000D03*
X137057000Y-57068000D03*
X134517000Y-54528000D03*
X134517000Y-57068000D03*
X131977000Y-54528000D03*
X131977000Y-57068000D03*
X129437000Y-54528000D03*
X129437000Y-57068000D03*
X126897000Y-54528000D03*
X126897000Y-57068000D03*
X124357000Y-54528000D03*
X124357000Y-57068000D03*
X121817000Y-54528000D03*
X121817000Y-57068000D03*
X119277000Y-54528000D03*
X119277000Y-57068000D03*
X116737000Y-54528000D03*
D12*
X116737000Y-57068000D03*
D13*
X125300000Y-95890000D03*
X122760000Y-95890000D03*
D14*
X117680000Y-100970000D03*
X127840000Y-100970000D03*
D13*
X171380000Y-95830000D03*
X168840000Y-95830000D03*
D14*
X163760000Y-100910000D03*
X173920000Y-100910000D03*
D15*
X169850000Y-104800000D03*
X111850000Y-104800000D03*
X169850000Y-55800000D03*
X111850000Y-55800000D03*
D16*
X111950500Y-65897500D03*
X183705500Y-65453000D03*
X146878000Y-82362004D03*
X142189200Y-80314800D03*
X166433500Y-61706500D03*
X128333500Y-63357500D03*
X112014000Y-63294000D03*
X183705500Y-63230500D03*
X148530000Y-80107000D03*
X174625000Y-66088000D03*
X173736000Y-64564000D03*
X135128000Y-63167000D03*
X159893000Y-65326000D03*
X142621000Y-61135000D03*
X146177000Y-77660500D03*
X150241000Y-78295500D03*
X143103600Y-78740000D03*
X148778000Y-82283000D03*
X181102000Y-91361000D03*
X189103000Y-78788000D03*
X182372000Y-94917000D03*
X192659000Y-80058000D03*
X187579000Y-76248000D03*
X180721000Y-97457000D03*
X192151000Y-76121000D03*
X185674000Y-93647000D03*
X181864000Y-93774000D03*
X187644010Y-77518000D03*
X170688000Y-64437000D03*
X170815000Y-62405000D03*
X121793000Y-59484000D03*
X161798000Y-66850000D03*
X163322000Y-65961000D03*
X149480000Y-66978000D03*
X149479000Y-65199000D03*
X165289000Y-64629000D03*
X132905500Y-64691000D03*
X176276000Y-60881000D03*
X177581000Y-65418000D03*
X140462000Y-61389000D03*
X128197460Y-60378951D03*
D17*
X187452000Y-59611000D03*
D16*
X124587000Y-77073500D03*
X122174000Y-87233500D03*
X121539000Y-89519500D03*
X117282000Y-88440000D03*
X119316500Y-89583000D03*
X126555500Y-72882500D03*
X126555500Y-74851000D03*
X128270000Y-71104500D03*
X133794500Y-73073000D03*
X121539000Y-84757000D03*
X127508000Y-84820500D03*
X129217500Y-87990500D03*
X110426500Y-71803000D03*
X111202000Y-77060000D03*
X115987000Y-76085000D03*
X117003000Y-76085000D03*
X117955500Y-76085000D03*
X115987000Y-77355000D03*
X116876000Y-77355000D03*
X118019000Y-77355000D03*
X120749500Y-77355000D03*
X113401000Y-77020000D03*
X124206002Y-87424000D03*
X125793500Y-87297000D03*
X123253500Y-87297000D03*
X121602500Y-91551500D03*
X124714000Y-72755500D03*
X124650500Y-74787500D03*
X130429000Y-73454000D03*
X132905500Y-70533000D03*
X111197000Y-75160000D03*
X113383500Y-74815000D03*
X126841162Y-87236777D03*
X125222000Y-79359500D03*
X123634500Y-74978000D03*
X160528000Y-70914000D03*
X174314000Y-84401500D03*
X165100000Y-72057000D03*
X180970000Y-72130000D03*
X170434000Y-72438000D03*
X173304500Y-71155000D03*
X174384000Y-71155000D03*
X175463500Y-71155000D03*
X173114000Y-72425000D03*
X174320500Y-72425000D03*
X175336500Y-72425000D03*
X178235000Y-72130000D03*
X180949500Y-102988000D03*
X179541995Y-83110505D03*
X177371828Y-77366058D03*
X178440245Y-87450755D03*
X164338000Y-78724500D03*
X178377998Y-76048989D03*
X186179513Y-86690523D03*
X192174978Y-85138000D03*
X192151000Y-89075000D03*
X169354500Y-84185500D03*
X164592000Y-70914000D03*
X170497500Y-69898000D03*
X178598995Y-84307505D03*
X164185500Y-84147500D03*
X162814000Y-73708000D03*
X191135000Y-105077000D03*
X182499000Y-92250000D03*
X187960000Y-86408000D03*
X189743000Y-88841164D03*
X166884500Y-81544000D03*
X163498536Y-85433000D03*
X165989000Y-92504000D03*
X175266500Y-78369000D03*
D18*
X136633000Y-92873000D02*
X108806000Y-92873000D01*
X108806000Y-91484427D01*
X120921500Y-91484427D01*
X120921500Y-91618573D01*
X120947671Y-91750140D01*
X120999006Y-91874074D01*
X121073533Y-91985612D01*
X121168388Y-92080467D01*
X121279926Y-92154994D01*
X121403860Y-92206329D01*
X121535427Y-92232500D01*
X121669573Y-92232500D01*
X121801140Y-92206329D01*
X121925074Y-92154994D01*
X122036612Y-92080467D01*
X122131467Y-91985612D01*
X122205994Y-91874074D01*
X122257329Y-91750140D01*
X122283500Y-91618573D01*
X122283500Y-91484427D01*
X122257329Y-91352860D01*
X122205994Y-91228926D01*
X122131467Y-91117388D01*
X122036612Y-91022533D01*
X121925074Y-90948006D01*
X121801140Y-90896671D01*
X121669573Y-90870500D01*
X121535427Y-90870500D01*
X121403860Y-90896671D01*
X121279926Y-90948006D01*
X121168388Y-91022533D01*
X121073533Y-91117388D01*
X120999006Y-91228926D01*
X120947671Y-91352860D01*
X120921500Y-91484427D01*
X108806000Y-91484427D01*
X108806000Y-87229927D01*
X122572500Y-87229927D01*
X122572500Y-87364073D01*
X122598671Y-87495640D01*
X122650006Y-87619574D01*
X122724533Y-87731112D01*
X122819388Y-87825967D01*
X122930926Y-87900494D01*
X123054860Y-87951829D01*
X123186427Y-87978000D01*
X123320573Y-87978000D01*
X123452140Y-87951829D01*
X123576074Y-87900494D01*
X123687612Y-87825967D01*
X123782467Y-87731112D01*
X123856994Y-87619574D01*
X123908329Y-87495640D01*
X123934500Y-87364073D01*
X123934500Y-87229927D01*
X123922521Y-87169704D01*
X126160162Y-87169704D01*
X126160162Y-87303850D01*
X126186333Y-87435417D01*
X126237668Y-87559351D01*
X126312195Y-87670889D01*
X126407050Y-87765744D01*
X126518588Y-87840271D01*
X126642522Y-87891606D01*
X126774089Y-87917777D01*
X126908235Y-87917777D01*
X127039802Y-87891606D01*
X127163736Y-87840271D01*
X127275274Y-87765744D01*
X127370129Y-87670889D01*
X127444656Y-87559351D01*
X127495991Y-87435417D01*
X127522162Y-87303850D01*
X127522162Y-87169704D01*
X127495991Y-87038137D01*
X127444656Y-86914203D01*
X127370129Y-86802665D01*
X127275274Y-86707810D01*
X127163736Y-86633283D01*
X127039802Y-86581948D01*
X126908235Y-86555777D01*
X126774089Y-86555777D01*
X126642522Y-86581948D01*
X126518588Y-86633283D01*
X126407050Y-86707810D01*
X126312195Y-86802665D01*
X126237668Y-86914203D01*
X126186333Y-87038137D01*
X126160162Y-87169704D01*
X123922521Y-87169704D01*
X123908329Y-87098360D01*
X123856994Y-86974426D01*
X123782467Y-86862888D01*
X123687612Y-86768033D01*
X123576074Y-86693506D01*
X123452140Y-86642171D01*
X123320573Y-86616000D01*
X123186427Y-86616000D01*
X123054860Y-86642171D01*
X122930926Y-86693506D01*
X122819388Y-86768033D01*
X122724533Y-86862888D01*
X122650006Y-86974426D01*
X122598671Y-87098360D01*
X122572500Y-87229927D01*
X108806000Y-87229927D01*
X108806000Y-79292427D01*
X124541000Y-79292427D01*
X124541000Y-79426573D01*
X124567171Y-79558140D01*
X124618506Y-79682074D01*
X124693033Y-79793612D01*
X124787888Y-79888467D01*
X124899426Y-79962994D01*
X125023360Y-80014329D01*
X125154927Y-80040500D01*
X125289073Y-80040500D01*
X125420640Y-80014329D01*
X125544574Y-79962994D01*
X125656112Y-79888467D01*
X125750967Y-79793612D01*
X125825494Y-79682074D01*
X125876829Y-79558140D01*
X125903000Y-79426573D01*
X125903000Y-79292427D01*
X125876829Y-79160860D01*
X125825494Y-79036926D01*
X125750967Y-78925388D01*
X125656112Y-78830533D01*
X125544574Y-78756006D01*
X125420640Y-78704671D01*
X125289073Y-78678500D01*
X125154927Y-78678500D01*
X125023360Y-78704671D01*
X124899426Y-78756006D01*
X124787888Y-78830533D01*
X124693033Y-78925388D01*
X124618506Y-79036926D01*
X124567171Y-79160860D01*
X124541000Y-79292427D01*
X108806000Y-79292427D01*
X108806000Y-75092927D01*
X110516000Y-75092927D01*
X110516000Y-75227073D01*
X110542171Y-75358640D01*
X110593506Y-75482574D01*
X110668033Y-75594112D01*
X110762888Y-75688967D01*
X110874426Y-75763494D01*
X110998360Y-75814829D01*
X111129927Y-75841000D01*
X111264073Y-75841000D01*
X111395640Y-75814829D01*
X111519574Y-75763494D01*
X111631112Y-75688967D01*
X111725967Y-75594112D01*
X111800494Y-75482574D01*
X111851829Y-75358640D01*
X111878000Y-75227073D01*
X111878000Y-75092927D01*
X111851829Y-74961360D01*
X111800494Y-74837426D01*
X111740693Y-74747927D01*
X112702500Y-74747927D01*
X112702500Y-74882073D01*
X112728671Y-75013640D01*
X112780006Y-75137574D01*
X112854533Y-75249112D01*
X112949388Y-75343967D01*
X113060926Y-75418494D01*
X113184860Y-75469829D01*
X113316427Y-75496000D01*
X113450573Y-75496000D01*
X113582140Y-75469829D01*
X113706074Y-75418494D01*
X113817612Y-75343967D01*
X113912467Y-75249112D01*
X113986994Y-75137574D01*
X114038329Y-75013640D01*
X114058760Y-74910927D01*
X122953500Y-74910927D01*
X122953500Y-75045073D01*
X122979671Y-75176640D01*
X123031006Y-75300574D01*
X123105533Y-75412112D01*
X123200388Y-75506967D01*
X123311926Y-75581494D01*
X123435860Y-75632829D01*
X123567427Y-75659000D01*
X123701573Y-75659000D01*
X123833140Y-75632829D01*
X123957074Y-75581494D01*
X124068612Y-75506967D01*
X124163467Y-75412112D01*
X124223984Y-75321542D01*
X124327926Y-75390994D01*
X124451860Y-75442329D01*
X124583427Y-75468500D01*
X124717573Y-75468500D01*
X124849140Y-75442329D01*
X124973074Y-75390994D01*
X125084612Y-75316467D01*
X125179467Y-75221612D01*
X125253994Y-75110074D01*
X125305329Y-74986140D01*
X125331500Y-74854573D01*
X125331500Y-74720427D01*
X125305329Y-74588860D01*
X125253994Y-74464926D01*
X125179467Y-74353388D01*
X125084612Y-74258533D01*
X124973074Y-74184006D01*
X124849140Y-74132671D01*
X124717573Y-74106500D01*
X124583427Y-74106500D01*
X124451860Y-74132671D01*
X124327926Y-74184006D01*
X124216388Y-74258533D01*
X124121533Y-74353388D01*
X124061016Y-74443958D01*
X123957074Y-74374506D01*
X123833140Y-74323171D01*
X123701573Y-74297000D01*
X123567427Y-74297000D01*
X123435860Y-74323171D01*
X123311926Y-74374506D01*
X123200388Y-74449033D01*
X123105533Y-74543888D01*
X123031006Y-74655426D01*
X122979671Y-74779360D01*
X122953500Y-74910927D01*
X114058760Y-74910927D01*
X114064500Y-74882073D01*
X114064500Y-74747927D01*
X114038329Y-74616360D01*
X113986994Y-74492426D01*
X113912467Y-74380888D01*
X113817612Y-74286033D01*
X113706074Y-74211506D01*
X113582140Y-74160171D01*
X113450573Y-74134000D01*
X113316427Y-74134000D01*
X113184860Y-74160171D01*
X113060926Y-74211506D01*
X112949388Y-74286033D01*
X112854533Y-74380888D01*
X112780006Y-74492426D01*
X112728671Y-74616360D01*
X112702500Y-74747927D01*
X111740693Y-74747927D01*
X111725967Y-74725888D01*
X111631112Y-74631033D01*
X111519574Y-74556506D01*
X111395640Y-74505171D01*
X111264073Y-74479000D01*
X111129927Y-74479000D01*
X110998360Y-74505171D01*
X110874426Y-74556506D01*
X110762888Y-74631033D01*
X110668033Y-74725888D01*
X110593506Y-74837426D01*
X110542171Y-74961360D01*
X110516000Y-75092927D01*
X108806000Y-75092927D01*
X108806000Y-72688427D01*
X124033000Y-72688427D01*
X124033000Y-72822573D01*
X124059171Y-72954140D01*
X124110506Y-73078074D01*
X124185033Y-73189612D01*
X124279888Y-73284467D01*
X124391426Y-73358994D01*
X124515360Y-73410329D01*
X124646927Y-73436500D01*
X124781073Y-73436500D01*
X124912640Y-73410329D01*
X124969137Y-73386927D01*
X129748000Y-73386927D01*
X129748000Y-73521073D01*
X129774171Y-73652640D01*
X129825506Y-73776574D01*
X129900033Y-73888112D01*
X129994888Y-73982967D01*
X130106426Y-74057494D01*
X130230360Y-74108829D01*
X130361927Y-74135000D01*
X130496073Y-74135000D01*
X130627640Y-74108829D01*
X130751574Y-74057494D01*
X130863112Y-73982967D01*
X130957967Y-73888112D01*
X131032494Y-73776574D01*
X131083829Y-73652640D01*
X131110000Y-73521073D01*
X131110000Y-73386927D01*
X131083829Y-73255360D01*
X131032494Y-73131426D01*
X130957967Y-73019888D01*
X130863112Y-72925033D01*
X130751574Y-72850506D01*
X130627640Y-72799171D01*
X130496073Y-72773000D01*
X130361927Y-72773000D01*
X130230360Y-72799171D01*
X130106426Y-72850506D01*
X129994888Y-72925033D01*
X129900033Y-73019888D01*
X129825506Y-73131426D01*
X129774171Y-73255360D01*
X129748000Y-73386927D01*
X124969137Y-73386927D01*
X125036574Y-73358994D01*
X125148112Y-73284467D01*
X125242967Y-73189612D01*
X125317494Y-73078074D01*
X125368829Y-72954140D01*
X125395000Y-72822573D01*
X125395000Y-72688427D01*
X125368829Y-72556860D01*
X125317494Y-72432926D01*
X125242967Y-72321388D01*
X125148112Y-72226533D01*
X125036574Y-72152006D01*
X124912640Y-72100671D01*
X124781073Y-72074500D01*
X124646927Y-72074500D01*
X124515360Y-72100671D01*
X124391426Y-72152006D01*
X124279888Y-72226533D01*
X124185033Y-72321388D01*
X124110506Y-72432926D01*
X124059171Y-72556860D01*
X124033000Y-72688427D01*
X108806000Y-72688427D01*
X108806000Y-70465927D01*
X132224500Y-70465927D01*
X132224500Y-70600073D01*
X132250671Y-70731640D01*
X132302006Y-70855574D01*
X132376533Y-70967112D01*
X132471388Y-71061967D01*
X132582926Y-71136494D01*
X132706860Y-71187829D01*
X132838427Y-71214000D01*
X132972573Y-71214000D01*
X133104140Y-71187829D01*
X133228074Y-71136494D01*
X133339612Y-71061967D01*
X133434467Y-70967112D01*
X133508994Y-70855574D01*
X133560329Y-70731640D01*
X133586500Y-70600073D01*
X133586500Y-70465927D01*
X133560329Y-70334360D01*
X133508994Y-70210426D01*
X133434467Y-70098888D01*
X133339612Y-70004033D01*
X133228074Y-69929506D01*
X133104140Y-69878171D01*
X132972573Y-69852000D01*
X132838427Y-69852000D01*
X132706860Y-69878171D01*
X132582926Y-69929506D01*
X132471388Y-70004033D01*
X132376533Y-70098888D01*
X132302006Y-70210426D01*
X132250671Y-70334360D01*
X132224500Y-70465927D01*
X108806000Y-70465927D01*
X108806000Y-68127000D01*
X136633000Y-68127000D01*
X136633000Y-92873000D01*
G04 #@! TA.AperFunction,Conductor*
D19*
G36*
X136633000Y-92873000D02*
G01*
X108806000Y-92873000D01*
X108806000Y-91484427D01*
X120921500Y-91484427D01*
X120921500Y-91618573D01*
X120947671Y-91750140D01*
X120999006Y-91874074D01*
X121073533Y-91985612D01*
X121168388Y-92080467D01*
X121279926Y-92154994D01*
X121403860Y-92206329D01*
X121535427Y-92232500D01*
X121669573Y-92232500D01*
X121801140Y-92206329D01*
X121925074Y-92154994D01*
X122036612Y-92080467D01*
X122131467Y-91985612D01*
X122205994Y-91874074D01*
X122257329Y-91750140D01*
X122283500Y-91618573D01*
X122283500Y-91484427D01*
X122257329Y-91352860D01*
X122205994Y-91228926D01*
X122131467Y-91117388D01*
X122036612Y-91022533D01*
X121925074Y-90948006D01*
X121801140Y-90896671D01*
X121669573Y-90870500D01*
X121535427Y-90870500D01*
X121403860Y-90896671D01*
X121279926Y-90948006D01*
X121168388Y-91022533D01*
X121073533Y-91117388D01*
X120999006Y-91228926D01*
X120947671Y-91352860D01*
X120921500Y-91484427D01*
X108806000Y-91484427D01*
X108806000Y-87229927D01*
X122572500Y-87229927D01*
X122572500Y-87364073D01*
X122598671Y-87495640D01*
X122650006Y-87619574D01*
X122724533Y-87731112D01*
X122819388Y-87825967D01*
X122930926Y-87900494D01*
X123054860Y-87951829D01*
X123186427Y-87978000D01*
X123320573Y-87978000D01*
X123452140Y-87951829D01*
X123576074Y-87900494D01*
X123687612Y-87825967D01*
X123782467Y-87731112D01*
X123856994Y-87619574D01*
X123908329Y-87495640D01*
X123934500Y-87364073D01*
X123934500Y-87229927D01*
X123922521Y-87169704D01*
X126160162Y-87169704D01*
X126160162Y-87303850D01*
X126186333Y-87435417D01*
X126237668Y-87559351D01*
X126312195Y-87670889D01*
X126407050Y-87765744D01*
X126518588Y-87840271D01*
X126642522Y-87891606D01*
X126774089Y-87917777D01*
X126908235Y-87917777D01*
X127039802Y-87891606D01*
X127163736Y-87840271D01*
X127275274Y-87765744D01*
X127370129Y-87670889D01*
X127444656Y-87559351D01*
X127495991Y-87435417D01*
X127522162Y-87303850D01*
X127522162Y-87169704D01*
X127495991Y-87038137D01*
X127444656Y-86914203D01*
X127370129Y-86802665D01*
X127275274Y-86707810D01*
X127163736Y-86633283D01*
X127039802Y-86581948D01*
X126908235Y-86555777D01*
X126774089Y-86555777D01*
X126642522Y-86581948D01*
X126518588Y-86633283D01*
X126407050Y-86707810D01*
X126312195Y-86802665D01*
X126237668Y-86914203D01*
X126186333Y-87038137D01*
X126160162Y-87169704D01*
X123922521Y-87169704D01*
X123908329Y-87098360D01*
X123856994Y-86974426D01*
X123782467Y-86862888D01*
X123687612Y-86768033D01*
X123576074Y-86693506D01*
X123452140Y-86642171D01*
X123320573Y-86616000D01*
X123186427Y-86616000D01*
X123054860Y-86642171D01*
X122930926Y-86693506D01*
X122819388Y-86768033D01*
X122724533Y-86862888D01*
X122650006Y-86974426D01*
X122598671Y-87098360D01*
X122572500Y-87229927D01*
X108806000Y-87229927D01*
X108806000Y-79292427D01*
X124541000Y-79292427D01*
X124541000Y-79426573D01*
X124567171Y-79558140D01*
X124618506Y-79682074D01*
X124693033Y-79793612D01*
X124787888Y-79888467D01*
X124899426Y-79962994D01*
X125023360Y-80014329D01*
X125154927Y-80040500D01*
X125289073Y-80040500D01*
X125420640Y-80014329D01*
X125544574Y-79962994D01*
X125656112Y-79888467D01*
X125750967Y-79793612D01*
X125825494Y-79682074D01*
X125876829Y-79558140D01*
X125903000Y-79426573D01*
X125903000Y-79292427D01*
X125876829Y-79160860D01*
X125825494Y-79036926D01*
X125750967Y-78925388D01*
X125656112Y-78830533D01*
X125544574Y-78756006D01*
X125420640Y-78704671D01*
X125289073Y-78678500D01*
X125154927Y-78678500D01*
X125023360Y-78704671D01*
X124899426Y-78756006D01*
X124787888Y-78830533D01*
X124693033Y-78925388D01*
X124618506Y-79036926D01*
X124567171Y-79160860D01*
X124541000Y-79292427D01*
X108806000Y-79292427D01*
X108806000Y-75092927D01*
X110516000Y-75092927D01*
X110516000Y-75227073D01*
X110542171Y-75358640D01*
X110593506Y-75482574D01*
X110668033Y-75594112D01*
X110762888Y-75688967D01*
X110874426Y-75763494D01*
X110998360Y-75814829D01*
X111129927Y-75841000D01*
X111264073Y-75841000D01*
X111395640Y-75814829D01*
X111519574Y-75763494D01*
X111631112Y-75688967D01*
X111725967Y-75594112D01*
X111800494Y-75482574D01*
X111851829Y-75358640D01*
X111878000Y-75227073D01*
X111878000Y-75092927D01*
X111851829Y-74961360D01*
X111800494Y-74837426D01*
X111740693Y-74747927D01*
X112702500Y-74747927D01*
X112702500Y-74882073D01*
X112728671Y-75013640D01*
X112780006Y-75137574D01*
X112854533Y-75249112D01*
X112949388Y-75343967D01*
X113060926Y-75418494D01*
X113184860Y-75469829D01*
X113316427Y-75496000D01*
X113450573Y-75496000D01*
X113582140Y-75469829D01*
X113706074Y-75418494D01*
X113817612Y-75343967D01*
X113912467Y-75249112D01*
X113986994Y-75137574D01*
X114038329Y-75013640D01*
X114058760Y-74910927D01*
X122953500Y-74910927D01*
X122953500Y-75045073D01*
X122979671Y-75176640D01*
X123031006Y-75300574D01*
X123105533Y-75412112D01*
X123200388Y-75506967D01*
X123311926Y-75581494D01*
X123435860Y-75632829D01*
X123567427Y-75659000D01*
X123701573Y-75659000D01*
X123833140Y-75632829D01*
X123957074Y-75581494D01*
X124068612Y-75506967D01*
X124163467Y-75412112D01*
X124223984Y-75321542D01*
X124327926Y-75390994D01*
X124451860Y-75442329D01*
X124583427Y-75468500D01*
X124717573Y-75468500D01*
X124849140Y-75442329D01*
X124973074Y-75390994D01*
X125084612Y-75316467D01*
X125179467Y-75221612D01*
X125253994Y-75110074D01*
X125305329Y-74986140D01*
X125331500Y-74854573D01*
X125331500Y-74720427D01*
X125305329Y-74588860D01*
X125253994Y-74464926D01*
X125179467Y-74353388D01*
X125084612Y-74258533D01*
X124973074Y-74184006D01*
X124849140Y-74132671D01*
X124717573Y-74106500D01*
X124583427Y-74106500D01*
X124451860Y-74132671D01*
X124327926Y-74184006D01*
X124216388Y-74258533D01*
X124121533Y-74353388D01*
X124061016Y-74443958D01*
X123957074Y-74374506D01*
X123833140Y-74323171D01*
X123701573Y-74297000D01*
X123567427Y-74297000D01*
X123435860Y-74323171D01*
X123311926Y-74374506D01*
X123200388Y-74449033D01*
X123105533Y-74543888D01*
X123031006Y-74655426D01*
X122979671Y-74779360D01*
X122953500Y-74910927D01*
X114058760Y-74910927D01*
X114064500Y-74882073D01*
X114064500Y-74747927D01*
X114038329Y-74616360D01*
X113986994Y-74492426D01*
X113912467Y-74380888D01*
X113817612Y-74286033D01*
X113706074Y-74211506D01*
X113582140Y-74160171D01*
X113450573Y-74134000D01*
X113316427Y-74134000D01*
X113184860Y-74160171D01*
X113060926Y-74211506D01*
X112949388Y-74286033D01*
X112854533Y-74380888D01*
X112780006Y-74492426D01*
X112728671Y-74616360D01*
X112702500Y-74747927D01*
X111740693Y-74747927D01*
X111725967Y-74725888D01*
X111631112Y-74631033D01*
X111519574Y-74556506D01*
X111395640Y-74505171D01*
X111264073Y-74479000D01*
X111129927Y-74479000D01*
X110998360Y-74505171D01*
X110874426Y-74556506D01*
X110762888Y-74631033D01*
X110668033Y-74725888D01*
X110593506Y-74837426D01*
X110542171Y-74961360D01*
X110516000Y-75092927D01*
X108806000Y-75092927D01*
X108806000Y-72688427D01*
X124033000Y-72688427D01*
X124033000Y-72822573D01*
X124059171Y-72954140D01*
X124110506Y-73078074D01*
X124185033Y-73189612D01*
X124279888Y-73284467D01*
X124391426Y-73358994D01*
X124515360Y-73410329D01*
X124646927Y-73436500D01*
X124781073Y-73436500D01*
X124912640Y-73410329D01*
X124969137Y-73386927D01*
X129748000Y-73386927D01*
X129748000Y-73521073D01*
X129774171Y-73652640D01*
X129825506Y-73776574D01*
X129900033Y-73888112D01*
X129994888Y-73982967D01*
X130106426Y-74057494D01*
X130230360Y-74108829D01*
X130361927Y-74135000D01*
X130496073Y-74135000D01*
X130627640Y-74108829D01*
X130751574Y-74057494D01*
X130863112Y-73982967D01*
X130957967Y-73888112D01*
X131032494Y-73776574D01*
X131083829Y-73652640D01*
X131110000Y-73521073D01*
X131110000Y-73386927D01*
X131083829Y-73255360D01*
X131032494Y-73131426D01*
X130957967Y-73019888D01*
X130863112Y-72925033D01*
X130751574Y-72850506D01*
X130627640Y-72799171D01*
X130496073Y-72773000D01*
X130361927Y-72773000D01*
X130230360Y-72799171D01*
X130106426Y-72850506D01*
X129994888Y-72925033D01*
X129900033Y-73019888D01*
X129825506Y-73131426D01*
X129774171Y-73255360D01*
X129748000Y-73386927D01*
X124969137Y-73386927D01*
X125036574Y-73358994D01*
X125148112Y-73284467D01*
X125242967Y-73189612D01*
X125317494Y-73078074D01*
X125368829Y-72954140D01*
X125395000Y-72822573D01*
X125395000Y-72688427D01*
X125368829Y-72556860D01*
X125317494Y-72432926D01*
X125242967Y-72321388D01*
X125148112Y-72226533D01*
X125036574Y-72152006D01*
X124912640Y-72100671D01*
X124781073Y-72074500D01*
X124646927Y-72074500D01*
X124515360Y-72100671D01*
X124391426Y-72152006D01*
X124279888Y-72226533D01*
X124185033Y-72321388D01*
X124110506Y-72432926D01*
X124059171Y-72556860D01*
X124033000Y-72688427D01*
X108806000Y-72688427D01*
X108806000Y-70465927D01*
X132224500Y-70465927D01*
X132224500Y-70600073D01*
X132250671Y-70731640D01*
X132302006Y-70855574D01*
X132376533Y-70967112D01*
X132471388Y-71061967D01*
X132582926Y-71136494D01*
X132706860Y-71187829D01*
X132838427Y-71214000D01*
X132972573Y-71214000D01*
X133104140Y-71187829D01*
X133228074Y-71136494D01*
X133339612Y-71061967D01*
X133434467Y-70967112D01*
X133508994Y-70855574D01*
X133560329Y-70731640D01*
X133586500Y-70600073D01*
X133586500Y-70465927D01*
X133560329Y-70334360D01*
X133508994Y-70210426D01*
X133434467Y-70098888D01*
X133339612Y-70004033D01*
X133228074Y-69929506D01*
X133104140Y-69878171D01*
X132972573Y-69852000D01*
X132838427Y-69852000D01*
X132706860Y-69878171D01*
X132582926Y-69929506D01*
X132471388Y-70004033D01*
X132376533Y-70098888D01*
X132302006Y-70210426D01*
X132250671Y-70334360D01*
X132224500Y-70465927D01*
X108806000Y-70465927D01*
X108806000Y-68127000D01*
X136633000Y-68127000D01*
X136633000Y-92873000D01*
G37*
G04 #@! TD.AperFunction*
D18*
X192640001Y-75323225D02*
X192593889Y-75292414D01*
X192423729Y-75221932D01*
X192243089Y-75186000D01*
X192058911Y-75186000D01*
X191878271Y-75221932D01*
X191708111Y-75292414D01*
X191554972Y-75394738D01*
X191424738Y-75524972D01*
X191322414Y-75678111D01*
X191251932Y-75848271D01*
X191216000Y-76028911D01*
X191216000Y-76213089D01*
X191251932Y-76393729D01*
X191322414Y-76563889D01*
X191424738Y-76717028D01*
X191554972Y-76847262D01*
X191708111Y-76949586D01*
X191878271Y-77020068D01*
X192058911Y-77056000D01*
X192243089Y-77056000D01*
X192423729Y-77020068D01*
X192593889Y-76949586D01*
X192640001Y-76918775D01*
X192640001Y-79123000D01*
X192566911Y-79123000D01*
X192386271Y-79158932D01*
X192216111Y-79229414D01*
X192062972Y-79331738D01*
X191932738Y-79461972D01*
X191830414Y-79615111D01*
X191759932Y-79785271D01*
X191724000Y-79965911D01*
X191724000Y-80150089D01*
X191759932Y-80330729D01*
X191830414Y-80500889D01*
X191932738Y-80654028D01*
X192062972Y-80784262D01*
X192216111Y-80886586D01*
X192386271Y-80957068D01*
X192566911Y-80993000D01*
X192640000Y-80993000D01*
X192640000Y-105265279D01*
X192593048Y-105744133D01*
X192464063Y-106171353D01*
X192254554Y-106565384D01*
X191972501Y-106911214D01*
X191628651Y-107195672D01*
X191236093Y-107407927D01*
X190809788Y-107539891D01*
X190333036Y-107590000D01*
X172483509Y-107590000D01*
X172828839Y-107244670D01*
X173248533Y-106616554D01*
X173537623Y-105918628D01*
X173685000Y-105177715D01*
X173685000Y-104984911D01*
X190200000Y-104984911D01*
X190200000Y-105169089D01*
X190235932Y-105349729D01*
X190306414Y-105519889D01*
X190408738Y-105673028D01*
X190538972Y-105803262D01*
X190692111Y-105905586D01*
X190862271Y-105976068D01*
X191042911Y-106012000D01*
X191227089Y-106012000D01*
X191407729Y-105976068D01*
X191577889Y-105905586D01*
X191731028Y-105803262D01*
X191861262Y-105673028D01*
X191963586Y-105519889D01*
X192034068Y-105349729D01*
X192070000Y-105169089D01*
X192070000Y-104984911D01*
X192034068Y-104804271D01*
X191963586Y-104634111D01*
X191861262Y-104480972D01*
X191731028Y-104350738D01*
X191577889Y-104248414D01*
X191407729Y-104177932D01*
X191227089Y-104142000D01*
X191042911Y-104142000D01*
X190862271Y-104177932D01*
X190692111Y-104248414D01*
X190538972Y-104350738D01*
X190408738Y-104480972D01*
X190306414Y-104634111D01*
X190235932Y-104804271D01*
X190200000Y-104984911D01*
X173685000Y-104984911D01*
X173685000Y-104422285D01*
X173537623Y-103681372D01*
X173248533Y-102983446D01*
X173210959Y-102927213D01*
X173297244Y-102962953D01*
X173709721Y-103045000D01*
X174130279Y-103045000D01*
X174542756Y-102962953D01*
X174931302Y-102802012D01*
X175280983Y-102568363D01*
X175578363Y-102270983D01*
X175812012Y-101921302D01*
X175972953Y-101532756D01*
X176055000Y-101120279D01*
X176055000Y-100699721D01*
X175972953Y-100287244D01*
X175812012Y-99898698D01*
X175578363Y-99549017D01*
X175280983Y-99251637D01*
X174931302Y-99017988D01*
X174542756Y-98857047D01*
X174130279Y-98775000D01*
X173709721Y-98775000D01*
X173297244Y-98857047D01*
X172908698Y-99017988D01*
X172559017Y-99251637D01*
X172261637Y-99549017D01*
X172027988Y-99898698D01*
X171867047Y-100287244D01*
X171785000Y-100699721D01*
X171785000Y-101120279D01*
X171867047Y-101532756D01*
X171868580Y-101536456D01*
X171666554Y-101401467D01*
X170968628Y-101112377D01*
X170227715Y-100965000D01*
X169472285Y-100965000D01*
X168731372Y-101112377D01*
X168033446Y-101401467D01*
X167405330Y-101821161D01*
X166871161Y-102355330D01*
X166451467Y-102983446D01*
X166162377Y-103681372D01*
X166015000Y-104422285D01*
X166015000Y-105177715D01*
X166162377Y-105918628D01*
X166451467Y-106616554D01*
X166871161Y-107244670D01*
X167216491Y-107590000D01*
X160887000Y-107590000D01*
X160887000Y-100699721D01*
X161625000Y-100699721D01*
X161625000Y-101120279D01*
X161707047Y-101532756D01*
X161867988Y-101921302D01*
X162101637Y-102270983D01*
X162399017Y-102568363D01*
X162748698Y-102802012D01*
X163137244Y-102962953D01*
X163549721Y-103045000D01*
X163970279Y-103045000D01*
X164382756Y-102962953D01*
X164771302Y-102802012D01*
X165120983Y-102568363D01*
X165418363Y-102270983D01*
X165652012Y-101921302D01*
X165812953Y-101532756D01*
X165895000Y-101120279D01*
X165895000Y-100699721D01*
X165812953Y-100287244D01*
X165652012Y-99898698D01*
X165418363Y-99549017D01*
X165120983Y-99251637D01*
X164771302Y-99017988D01*
X164382756Y-98857047D01*
X163970279Y-98775000D01*
X163549721Y-98775000D01*
X163137244Y-98857047D01*
X162748698Y-99017988D01*
X162399017Y-99251637D01*
X162101637Y-99549017D01*
X161867988Y-99898698D01*
X161707047Y-100287244D01*
X161625000Y-100699721D01*
X160887000Y-100699721D01*
X160887000Y-97364911D01*
X179786000Y-97364911D01*
X179786000Y-97549089D01*
X179821932Y-97729729D01*
X179892414Y-97899889D01*
X179994738Y-98053028D01*
X180124972Y-98183262D01*
X180278111Y-98285586D01*
X180448271Y-98356068D01*
X180628911Y-98392000D01*
X180813089Y-98392000D01*
X180993729Y-98356068D01*
X181163889Y-98285586D01*
X181317028Y-98183262D01*
X181447262Y-98053028D01*
X181549586Y-97899889D01*
X181620068Y-97729729D01*
X181656000Y-97549089D01*
X181656000Y-97364911D01*
X181620068Y-97184271D01*
X181549586Y-97014111D01*
X181447262Y-96860972D01*
X181317028Y-96730738D01*
X181163889Y-96628414D01*
X180993729Y-96557932D01*
X180813089Y-96522000D01*
X180628911Y-96522000D01*
X180448271Y-96557932D01*
X180278111Y-96628414D01*
X180124972Y-96730738D01*
X179994738Y-96860972D01*
X179892414Y-97014111D01*
X179821932Y-97184271D01*
X179786000Y-97364911D01*
X160887000Y-97364911D01*
X160887000Y-95693589D01*
X167455000Y-95693589D01*
X167455000Y-95966411D01*
X167508225Y-96233989D01*
X167612629Y-96486043D01*
X167764201Y-96712886D01*
X167957114Y-96905799D01*
X168183957Y-97057371D01*
X168436011Y-97161775D01*
X168703589Y-97215000D01*
X168976411Y-97215000D01*
X169243989Y-97161775D01*
X169496043Y-97057371D01*
X169722886Y-96905799D01*
X169915799Y-96712886D01*
X170067371Y-96486043D01*
X170110000Y-96383127D01*
X170152629Y-96486043D01*
X170304201Y-96712886D01*
X170497114Y-96905799D01*
X170723957Y-97057371D01*
X170976011Y-97161775D01*
X171243589Y-97215000D01*
X171516411Y-97215000D01*
X171783989Y-97161775D01*
X172036043Y-97057371D01*
X172262886Y-96905799D01*
X172455799Y-96712886D01*
X172607371Y-96486043D01*
X172711775Y-96233989D01*
X172765000Y-95966411D01*
X172765000Y-95693589D01*
X172711775Y-95426011D01*
X172607371Y-95173957D01*
X172455799Y-94947114D01*
X172262886Y-94754201D01*
X172036043Y-94602629D01*
X171783989Y-94498225D01*
X171516411Y-94445000D01*
X171243589Y-94445000D01*
X170976011Y-94498225D01*
X170723957Y-94602629D01*
X170497114Y-94754201D01*
X170304201Y-94947114D01*
X170152629Y-95173957D01*
X170110000Y-95276873D01*
X170067371Y-95173957D01*
X169915799Y-94947114D01*
X169722886Y-94754201D01*
X169496043Y-94602629D01*
X169243989Y-94498225D01*
X168976411Y-94445000D01*
X168703589Y-94445000D01*
X168436011Y-94498225D01*
X168183957Y-94602629D01*
X167957114Y-94754201D01*
X167764201Y-94947114D01*
X167612629Y-95173957D01*
X167508225Y-95426011D01*
X167455000Y-95693589D01*
X160887000Y-95693589D01*
X160887000Y-93000000D01*
X160884560Y-92975224D01*
X160877333Y-92951399D01*
X160865597Y-92929443D01*
X160849803Y-92910197D01*
X160351517Y-92411911D01*
X165054000Y-92411911D01*
X165054000Y-92596089D01*
X165089932Y-92776729D01*
X165160414Y-92946889D01*
X165262738Y-93100028D01*
X165392972Y-93230262D01*
X165546111Y-93332586D01*
X165716271Y-93403068D01*
X165896911Y-93439000D01*
X166081089Y-93439000D01*
X166261729Y-93403068D01*
X166431889Y-93332586D01*
X166585028Y-93230262D01*
X166715262Y-93100028D01*
X166817586Y-92946889D01*
X166888068Y-92776729D01*
X166924000Y-92596089D01*
X166924000Y-92411911D01*
X166888068Y-92231271D01*
X166817586Y-92061111D01*
X166715262Y-91907972D01*
X166585028Y-91777738D01*
X166431889Y-91675414D01*
X166261729Y-91604932D01*
X166081089Y-91569000D01*
X165896911Y-91569000D01*
X165716271Y-91604932D01*
X165546111Y-91675414D01*
X165392972Y-91777738D01*
X165262738Y-91907972D01*
X165160414Y-92061111D01*
X165089932Y-92231271D01*
X165054000Y-92411911D01*
X160351517Y-92411911D01*
X159887000Y-91947394D01*
X159887000Y-91268911D01*
X180167000Y-91268911D01*
X180167000Y-91453089D01*
X180202932Y-91633729D01*
X180273414Y-91803889D01*
X180375738Y-91957028D01*
X180505972Y-92087262D01*
X180659111Y-92189586D01*
X180829271Y-92260068D01*
X181009911Y-92296000D01*
X181194089Y-92296000D01*
X181374729Y-92260068D01*
X181544889Y-92189586D01*
X181564000Y-92176816D01*
X181564000Y-92342089D01*
X181599932Y-92522729D01*
X181670414Y-92692889D01*
X181768496Y-92839679D01*
X181591271Y-92874932D01*
X181421111Y-92945414D01*
X181267972Y-93047738D01*
X181137738Y-93177972D01*
X181035414Y-93331111D01*
X180964932Y-93501271D01*
X180929000Y-93681911D01*
X180929000Y-93866089D01*
X180964932Y-94046729D01*
X181035414Y-94216889D01*
X181137738Y-94370028D01*
X181267972Y-94500262D01*
X181421111Y-94602586D01*
X181480081Y-94627012D01*
X181472932Y-94644271D01*
X181437000Y-94824911D01*
X181437000Y-95009089D01*
X181472932Y-95189729D01*
X181543414Y-95359889D01*
X181645738Y-95513028D01*
X181775972Y-95643262D01*
X181929111Y-95745586D01*
X182099271Y-95816068D01*
X182279911Y-95852000D01*
X182464089Y-95852000D01*
X182644729Y-95816068D01*
X182814889Y-95745586D01*
X182968028Y-95643262D01*
X183098262Y-95513028D01*
X183200586Y-95359889D01*
X183271068Y-95189729D01*
X183307000Y-95009089D01*
X183307000Y-94824911D01*
X183271068Y-94644271D01*
X183200586Y-94474111D01*
X183098262Y-94320972D01*
X182968028Y-94190738D01*
X182814889Y-94088414D01*
X182755919Y-94063988D01*
X182763068Y-94046729D01*
X182799000Y-93866089D01*
X182799000Y-93681911D01*
X182773738Y-93554911D01*
X184739000Y-93554911D01*
X184739000Y-93739089D01*
X184774932Y-93919729D01*
X184845414Y-94089889D01*
X184947738Y-94243028D01*
X185077972Y-94373262D01*
X185231111Y-94475586D01*
X185401271Y-94546068D01*
X185581911Y-94582000D01*
X185766089Y-94582000D01*
X185946729Y-94546068D01*
X186116889Y-94475586D01*
X186270028Y-94373262D01*
X186400262Y-94243028D01*
X186502586Y-94089889D01*
X186573068Y-93919729D01*
X186609000Y-93739089D01*
X186609000Y-93554911D01*
X186573068Y-93374271D01*
X186502586Y-93204111D01*
X186400262Y-93050972D01*
X186270028Y-92920738D01*
X186116889Y-92818414D01*
X185946729Y-92747932D01*
X185766089Y-92712000D01*
X185581911Y-92712000D01*
X185401271Y-92747932D01*
X185231111Y-92818414D01*
X185077972Y-92920738D01*
X184947738Y-93050972D01*
X184845414Y-93204111D01*
X184774932Y-93374271D01*
X184739000Y-93554911D01*
X182773738Y-93554911D01*
X182763068Y-93501271D01*
X182692586Y-93331111D01*
X182594504Y-93184321D01*
X182771729Y-93149068D01*
X182941889Y-93078586D01*
X183095028Y-92976262D01*
X183225262Y-92846028D01*
X183327586Y-92692889D01*
X183398068Y-92522729D01*
X183434000Y-92342089D01*
X183434000Y-92157911D01*
X183398068Y-91977271D01*
X183327586Y-91807111D01*
X183225262Y-91653972D01*
X183095028Y-91523738D01*
X182941889Y-91421414D01*
X182771729Y-91350932D01*
X182591089Y-91315000D01*
X182406911Y-91315000D01*
X182226271Y-91350932D01*
X182056111Y-91421414D01*
X182037000Y-91434184D01*
X182037000Y-91268911D01*
X182001068Y-91088271D01*
X181930586Y-90918111D01*
X181828262Y-90764972D01*
X181698028Y-90634738D01*
X181544889Y-90532414D01*
X181374729Y-90461932D01*
X181194089Y-90426000D01*
X181009911Y-90426000D01*
X180829271Y-90461932D01*
X180659111Y-90532414D01*
X180505972Y-90634738D01*
X180375738Y-90764972D01*
X180273414Y-90918111D01*
X180202932Y-91088271D01*
X180167000Y-91268911D01*
X159887000Y-91268911D01*
X159887000Y-88749075D01*
X188808000Y-88749075D01*
X188808000Y-88933253D01*
X188843932Y-89113893D01*
X188914414Y-89284053D01*
X189016738Y-89437192D01*
X189146972Y-89567426D01*
X189300111Y-89669750D01*
X189470271Y-89740232D01*
X189650911Y-89776164D01*
X189835089Y-89776164D01*
X190015729Y-89740232D01*
X190185889Y-89669750D01*
X190339028Y-89567426D01*
X190469262Y-89437192D01*
X190571586Y-89284053D01*
X190642068Y-89113893D01*
X190678000Y-88933253D01*
X190678000Y-88749075D01*
X190642068Y-88568435D01*
X190571586Y-88398275D01*
X190469262Y-88245136D01*
X190339028Y-88114902D01*
X190185889Y-88012578D01*
X190015729Y-87942096D01*
X189835089Y-87906164D01*
X189650911Y-87906164D01*
X189470271Y-87942096D01*
X189300111Y-88012578D01*
X189146972Y-88114902D01*
X189016738Y-88245136D01*
X188914414Y-88398275D01*
X188843932Y-88568435D01*
X188808000Y-88749075D01*
X159887000Y-88749075D01*
X159887000Y-85340911D01*
X162563536Y-85340911D01*
X162563536Y-85525089D01*
X162599468Y-85705729D01*
X162669950Y-85875889D01*
X162772274Y-86029028D01*
X162902508Y-86159262D01*
X163055647Y-86261586D01*
X163225807Y-86332068D01*
X163406447Y-86368000D01*
X163590625Y-86368000D01*
X163771265Y-86332068D01*
X163810271Y-86315911D01*
X187025000Y-86315911D01*
X187025000Y-86500089D01*
X187060932Y-86680729D01*
X187131414Y-86850889D01*
X187233738Y-87004028D01*
X187363972Y-87134262D01*
X187517111Y-87236586D01*
X187687271Y-87307068D01*
X187867911Y-87343000D01*
X188052089Y-87343000D01*
X188232729Y-87307068D01*
X188402889Y-87236586D01*
X188556028Y-87134262D01*
X188686262Y-87004028D01*
X188788586Y-86850889D01*
X188859068Y-86680729D01*
X188895000Y-86500089D01*
X188895000Y-86315911D01*
X188859068Y-86135271D01*
X188788586Y-85965111D01*
X188686262Y-85811972D01*
X188556028Y-85681738D01*
X188402889Y-85579414D01*
X188232729Y-85508932D01*
X188052089Y-85473000D01*
X187867911Y-85473000D01*
X187687271Y-85508932D01*
X187517111Y-85579414D01*
X187363972Y-85681738D01*
X187233738Y-85811972D01*
X187131414Y-85965111D01*
X187060932Y-86135271D01*
X187025000Y-86315911D01*
X163810271Y-86315911D01*
X163941425Y-86261586D01*
X164094564Y-86159262D01*
X164224798Y-86029028D01*
X164327122Y-85875889D01*
X164397604Y-85705729D01*
X164433536Y-85525089D01*
X164433536Y-85340911D01*
X164397604Y-85160271D01*
X164358707Y-85066364D01*
X164458229Y-85046568D01*
X164628389Y-84976086D01*
X164781528Y-84873762D01*
X164911762Y-84743528D01*
X165014086Y-84590389D01*
X165084568Y-84420229D01*
X165120500Y-84239589D01*
X165120500Y-84215416D01*
X177663995Y-84215416D01*
X177663995Y-84399594D01*
X177699927Y-84580234D01*
X177770409Y-84750394D01*
X177872733Y-84903533D01*
X178002967Y-85033767D01*
X178156106Y-85136091D01*
X178326266Y-85206573D01*
X178506906Y-85242505D01*
X178691084Y-85242505D01*
X178871724Y-85206573D01*
X179041884Y-85136091D01*
X179195023Y-85033767D01*
X179325257Y-84903533D01*
X179427581Y-84750394D01*
X179498063Y-84580234D01*
X179533995Y-84399594D01*
X179533995Y-84215416D01*
X179498063Y-84034776D01*
X179427581Y-83864616D01*
X179325257Y-83711477D01*
X179195023Y-83581243D01*
X179041884Y-83478919D01*
X178871724Y-83408437D01*
X178691084Y-83372505D01*
X178506906Y-83372505D01*
X178326266Y-83408437D01*
X178156106Y-83478919D01*
X178002967Y-83581243D01*
X177872733Y-83711477D01*
X177770409Y-83864616D01*
X177699927Y-84034776D01*
X177663995Y-84215416D01*
X165120500Y-84215416D01*
X165120500Y-84055411D01*
X165084568Y-83874771D01*
X165014086Y-83704611D01*
X164911762Y-83551472D01*
X164781528Y-83421238D01*
X164628389Y-83318914D01*
X164458229Y-83248432D01*
X164277589Y-83212500D01*
X164093411Y-83212500D01*
X163912771Y-83248432D01*
X163742611Y-83318914D01*
X163589472Y-83421238D01*
X163459238Y-83551472D01*
X163356914Y-83704611D01*
X163286432Y-83874771D01*
X163250500Y-84055411D01*
X163250500Y-84239589D01*
X163286432Y-84420229D01*
X163325329Y-84514136D01*
X163225807Y-84533932D01*
X163055647Y-84604414D01*
X162902508Y-84706738D01*
X162772274Y-84836972D01*
X162669950Y-84990111D01*
X162599468Y-85160271D01*
X162563536Y-85340911D01*
X159887000Y-85340911D01*
X159887000Y-82000000D01*
X159884560Y-81975224D01*
X159877333Y-81951399D01*
X159865597Y-81929443D01*
X159849803Y-81910197D01*
X159391517Y-81451911D01*
X165949500Y-81451911D01*
X165949500Y-81636089D01*
X165985432Y-81816729D01*
X166055914Y-81986889D01*
X166158238Y-82140028D01*
X166288472Y-82270262D01*
X166441611Y-82372586D01*
X166611771Y-82443068D01*
X166792411Y-82479000D01*
X166976589Y-82479000D01*
X167157229Y-82443068D01*
X167327389Y-82372586D01*
X167480528Y-82270262D01*
X167610762Y-82140028D01*
X167713086Y-81986889D01*
X167783568Y-81816729D01*
X167819500Y-81636089D01*
X167819500Y-81451911D01*
X167783568Y-81271271D01*
X167713086Y-81101111D01*
X167610762Y-80947972D01*
X167480528Y-80817738D01*
X167327389Y-80715414D01*
X167157229Y-80644932D01*
X166976589Y-80609000D01*
X166792411Y-80609000D01*
X166611771Y-80644932D01*
X166441611Y-80715414D01*
X166288472Y-80817738D01*
X166158238Y-80947972D01*
X166055914Y-81101111D01*
X165985432Y-81271271D01*
X165949500Y-81451911D01*
X159391517Y-81451911D01*
X158387000Y-80447394D01*
X158387000Y-78276911D01*
X174331500Y-78276911D01*
X174331500Y-78461089D01*
X174367432Y-78641729D01*
X174437914Y-78811889D01*
X174540238Y-78965028D01*
X174670472Y-79095262D01*
X174823611Y-79197586D01*
X174993771Y-79268068D01*
X175174411Y-79304000D01*
X175358589Y-79304000D01*
X175539229Y-79268068D01*
X175709389Y-79197586D01*
X175862528Y-79095262D01*
X175992762Y-78965028D01*
X176095086Y-78811889D01*
X176143125Y-78695911D01*
X188168000Y-78695911D01*
X188168000Y-78880089D01*
X188203932Y-79060729D01*
X188274414Y-79230889D01*
X188376738Y-79384028D01*
X188506972Y-79514262D01*
X188660111Y-79616586D01*
X188830271Y-79687068D01*
X189010911Y-79723000D01*
X189195089Y-79723000D01*
X189375729Y-79687068D01*
X189545889Y-79616586D01*
X189699028Y-79514262D01*
X189829262Y-79384028D01*
X189931586Y-79230889D01*
X190002068Y-79060729D01*
X190038000Y-78880089D01*
X190038000Y-78695911D01*
X190002068Y-78515271D01*
X189931586Y-78345111D01*
X189829262Y-78191972D01*
X189699028Y-78061738D01*
X189545889Y-77959414D01*
X189375729Y-77888932D01*
X189195089Y-77853000D01*
X189010911Y-77853000D01*
X188830271Y-77888932D01*
X188660111Y-77959414D01*
X188506972Y-78061738D01*
X188376738Y-78191972D01*
X188274414Y-78345111D01*
X188203932Y-78515271D01*
X188168000Y-78695911D01*
X176143125Y-78695911D01*
X176165568Y-78641729D01*
X176201500Y-78461089D01*
X176201500Y-78276911D01*
X176165568Y-78096271D01*
X176095086Y-77926111D01*
X175992762Y-77772972D01*
X175862528Y-77642738D01*
X175709389Y-77540414D01*
X175539229Y-77469932D01*
X175358589Y-77434000D01*
X175174411Y-77434000D01*
X174993771Y-77469932D01*
X174823611Y-77540414D01*
X174670472Y-77642738D01*
X174540238Y-77772972D01*
X174437914Y-77926111D01*
X174367432Y-78096271D01*
X174331500Y-78276911D01*
X158387000Y-78276911D01*
X158387000Y-76155911D01*
X186644000Y-76155911D01*
X186644000Y-76340089D01*
X186679932Y-76520729D01*
X186750414Y-76690889D01*
X186852738Y-76844028D01*
X186924215Y-76915505D01*
X186917748Y-76921972D01*
X186815424Y-77075111D01*
X186744942Y-77245271D01*
X186709010Y-77425911D01*
X186709010Y-77610089D01*
X186744942Y-77790729D01*
X186815424Y-77960889D01*
X186917748Y-78114028D01*
X187047982Y-78244262D01*
X187201121Y-78346586D01*
X187371281Y-78417068D01*
X187551921Y-78453000D01*
X187736099Y-78453000D01*
X187916739Y-78417068D01*
X188086899Y-78346586D01*
X188240038Y-78244262D01*
X188370272Y-78114028D01*
X188472596Y-77960889D01*
X188543078Y-77790729D01*
X188579010Y-77610089D01*
X188579010Y-77425911D01*
X188543078Y-77245271D01*
X188472596Y-77075111D01*
X188370272Y-76921972D01*
X188298795Y-76850495D01*
X188305262Y-76844028D01*
X188407586Y-76690889D01*
X188478068Y-76520729D01*
X188514000Y-76340089D01*
X188514000Y-76155911D01*
X188478068Y-75975271D01*
X188407586Y-75805111D01*
X188305262Y-75651972D01*
X188175028Y-75521738D01*
X188021889Y-75419414D01*
X187851729Y-75348932D01*
X187671089Y-75313000D01*
X187486911Y-75313000D01*
X187306271Y-75348932D01*
X187136111Y-75419414D01*
X186982972Y-75521738D01*
X186852738Y-75651972D01*
X186750414Y-75805111D01*
X186679932Y-75975271D01*
X186644000Y-76155911D01*
X158387000Y-76155911D01*
X158387000Y-73615911D01*
X161879000Y-73615911D01*
X161879000Y-73800089D01*
X161914932Y-73980729D01*
X161985414Y-74150889D01*
X162087738Y-74304028D01*
X162217972Y-74434262D01*
X162371111Y-74536586D01*
X162541271Y-74607068D01*
X162721911Y-74643000D01*
X162906089Y-74643000D01*
X163086729Y-74607068D01*
X163256889Y-74536586D01*
X163410028Y-74434262D01*
X163540262Y-74304028D01*
X163642586Y-74150889D01*
X163713068Y-73980729D01*
X163749000Y-73800089D01*
X163749000Y-73615911D01*
X163713068Y-73435271D01*
X163642586Y-73265111D01*
X163540262Y-73111972D01*
X163410028Y-72981738D01*
X163256889Y-72879414D01*
X163086729Y-72808932D01*
X162906089Y-72773000D01*
X162721911Y-72773000D01*
X162541271Y-72808932D01*
X162371111Y-72879414D01*
X162217972Y-72981738D01*
X162087738Y-73111972D01*
X161985414Y-73265111D01*
X161914932Y-73435271D01*
X161879000Y-73615911D01*
X158387000Y-73615911D01*
X158387000Y-70821911D01*
X163657000Y-70821911D01*
X163657000Y-71006089D01*
X163692932Y-71186729D01*
X163763414Y-71356889D01*
X163865738Y-71510028D01*
X163995972Y-71640262D01*
X164149111Y-71742586D01*
X164319271Y-71813068D01*
X164499911Y-71849000D01*
X164684089Y-71849000D01*
X164864729Y-71813068D01*
X165034889Y-71742586D01*
X165188028Y-71640262D01*
X165318262Y-71510028D01*
X165420586Y-71356889D01*
X165491068Y-71186729D01*
X165527000Y-71006089D01*
X165527000Y-70821911D01*
X165491068Y-70641271D01*
X165420586Y-70471111D01*
X165318262Y-70317972D01*
X165188028Y-70187738D01*
X165034889Y-70085414D01*
X164864729Y-70014932D01*
X164684089Y-69979000D01*
X164499911Y-69979000D01*
X164319271Y-70014932D01*
X164149111Y-70085414D01*
X163995972Y-70187738D01*
X163865738Y-70317972D01*
X163763414Y-70471111D01*
X163692932Y-70641271D01*
X163657000Y-70821911D01*
X158387000Y-70821911D01*
X158387000Y-69805911D01*
X169562500Y-69805911D01*
X169562500Y-69990089D01*
X169598432Y-70170729D01*
X169668914Y-70340889D01*
X169771238Y-70494028D01*
X169901472Y-70624262D01*
X170054611Y-70726586D01*
X170224771Y-70797068D01*
X170405411Y-70833000D01*
X170589589Y-70833000D01*
X170770229Y-70797068D01*
X170940389Y-70726586D01*
X171093528Y-70624262D01*
X171223762Y-70494028D01*
X171326086Y-70340889D01*
X171396568Y-70170729D01*
X171432500Y-69990089D01*
X171432500Y-69805911D01*
X171396568Y-69625271D01*
X171326086Y-69455111D01*
X171223762Y-69301972D01*
X171093528Y-69171738D01*
X170940389Y-69069414D01*
X170770229Y-68998932D01*
X170589589Y-68963000D01*
X170405411Y-68963000D01*
X170224771Y-68998932D01*
X170054611Y-69069414D01*
X169901472Y-69171738D01*
X169771238Y-69301972D01*
X169668914Y-69455111D01*
X169598432Y-69625271D01*
X169562500Y-69805911D01*
X158387000Y-69805911D01*
X158387000Y-68627000D01*
X192640001Y-68627000D01*
X192640001Y-75323225D01*
G04 #@! TA.AperFunction,Conductor*
D19*
G36*
X192640001Y-75323225D02*
G01*
X192593889Y-75292414D01*
X192423729Y-75221932D01*
X192243089Y-75186000D01*
X192058911Y-75186000D01*
X191878271Y-75221932D01*
X191708111Y-75292414D01*
X191554972Y-75394738D01*
X191424738Y-75524972D01*
X191322414Y-75678111D01*
X191251932Y-75848271D01*
X191216000Y-76028911D01*
X191216000Y-76213089D01*
X191251932Y-76393729D01*
X191322414Y-76563889D01*
X191424738Y-76717028D01*
X191554972Y-76847262D01*
X191708111Y-76949586D01*
X191878271Y-77020068D01*
X192058911Y-77056000D01*
X192243089Y-77056000D01*
X192423729Y-77020068D01*
X192593889Y-76949586D01*
X192640001Y-76918775D01*
X192640001Y-79123000D01*
X192566911Y-79123000D01*
X192386271Y-79158932D01*
X192216111Y-79229414D01*
X192062972Y-79331738D01*
X191932738Y-79461972D01*
X191830414Y-79615111D01*
X191759932Y-79785271D01*
X191724000Y-79965911D01*
X191724000Y-80150089D01*
X191759932Y-80330729D01*
X191830414Y-80500889D01*
X191932738Y-80654028D01*
X192062972Y-80784262D01*
X192216111Y-80886586D01*
X192386271Y-80957068D01*
X192566911Y-80993000D01*
X192640000Y-80993000D01*
X192640000Y-105265279D01*
X192593048Y-105744133D01*
X192464063Y-106171353D01*
X192254554Y-106565384D01*
X191972501Y-106911214D01*
X191628651Y-107195672D01*
X191236093Y-107407927D01*
X190809788Y-107539891D01*
X190333036Y-107590000D01*
X172483509Y-107590000D01*
X172828839Y-107244670D01*
X173248533Y-106616554D01*
X173537623Y-105918628D01*
X173685000Y-105177715D01*
X173685000Y-104984911D01*
X190200000Y-104984911D01*
X190200000Y-105169089D01*
X190235932Y-105349729D01*
X190306414Y-105519889D01*
X190408738Y-105673028D01*
X190538972Y-105803262D01*
X190692111Y-105905586D01*
X190862271Y-105976068D01*
X191042911Y-106012000D01*
X191227089Y-106012000D01*
X191407729Y-105976068D01*
X191577889Y-105905586D01*
X191731028Y-105803262D01*
X191861262Y-105673028D01*
X191963586Y-105519889D01*
X192034068Y-105349729D01*
X192070000Y-105169089D01*
X192070000Y-104984911D01*
X192034068Y-104804271D01*
X191963586Y-104634111D01*
X191861262Y-104480972D01*
X191731028Y-104350738D01*
X191577889Y-104248414D01*
X191407729Y-104177932D01*
X191227089Y-104142000D01*
X191042911Y-104142000D01*
X190862271Y-104177932D01*
X190692111Y-104248414D01*
X190538972Y-104350738D01*
X190408738Y-104480972D01*
X190306414Y-104634111D01*
X190235932Y-104804271D01*
X190200000Y-104984911D01*
X173685000Y-104984911D01*
X173685000Y-104422285D01*
X173537623Y-103681372D01*
X173248533Y-102983446D01*
X173210959Y-102927213D01*
X173297244Y-102962953D01*
X173709721Y-103045000D01*
X174130279Y-103045000D01*
X174542756Y-102962953D01*
X174931302Y-102802012D01*
X175280983Y-102568363D01*
X175578363Y-102270983D01*
X175812012Y-101921302D01*
X175972953Y-101532756D01*
X176055000Y-101120279D01*
X176055000Y-100699721D01*
X175972953Y-100287244D01*
X175812012Y-99898698D01*
X175578363Y-99549017D01*
X175280983Y-99251637D01*
X174931302Y-99017988D01*
X174542756Y-98857047D01*
X174130279Y-98775000D01*
X173709721Y-98775000D01*
X173297244Y-98857047D01*
X172908698Y-99017988D01*
X172559017Y-99251637D01*
X172261637Y-99549017D01*
X172027988Y-99898698D01*
X171867047Y-100287244D01*
X171785000Y-100699721D01*
X171785000Y-101120279D01*
X171867047Y-101532756D01*
X171868580Y-101536456D01*
X171666554Y-101401467D01*
X170968628Y-101112377D01*
X170227715Y-100965000D01*
X169472285Y-100965000D01*
X168731372Y-101112377D01*
X168033446Y-101401467D01*
X167405330Y-101821161D01*
X166871161Y-102355330D01*
X166451467Y-102983446D01*
X166162377Y-103681372D01*
X166015000Y-104422285D01*
X166015000Y-105177715D01*
X166162377Y-105918628D01*
X166451467Y-106616554D01*
X166871161Y-107244670D01*
X167216491Y-107590000D01*
X160887000Y-107590000D01*
X160887000Y-100699721D01*
X161625000Y-100699721D01*
X161625000Y-101120279D01*
X161707047Y-101532756D01*
X161867988Y-101921302D01*
X162101637Y-102270983D01*
X162399017Y-102568363D01*
X162748698Y-102802012D01*
X163137244Y-102962953D01*
X163549721Y-103045000D01*
X163970279Y-103045000D01*
X164382756Y-102962953D01*
X164771302Y-102802012D01*
X165120983Y-102568363D01*
X165418363Y-102270983D01*
X165652012Y-101921302D01*
X165812953Y-101532756D01*
X165895000Y-101120279D01*
X165895000Y-100699721D01*
X165812953Y-100287244D01*
X165652012Y-99898698D01*
X165418363Y-99549017D01*
X165120983Y-99251637D01*
X164771302Y-99017988D01*
X164382756Y-98857047D01*
X163970279Y-98775000D01*
X163549721Y-98775000D01*
X163137244Y-98857047D01*
X162748698Y-99017988D01*
X162399017Y-99251637D01*
X162101637Y-99549017D01*
X161867988Y-99898698D01*
X161707047Y-100287244D01*
X161625000Y-100699721D01*
X160887000Y-100699721D01*
X160887000Y-97364911D01*
X179786000Y-97364911D01*
X179786000Y-97549089D01*
X179821932Y-97729729D01*
X179892414Y-97899889D01*
X179994738Y-98053028D01*
X180124972Y-98183262D01*
X180278111Y-98285586D01*
X180448271Y-98356068D01*
X180628911Y-98392000D01*
X180813089Y-98392000D01*
X180993729Y-98356068D01*
X181163889Y-98285586D01*
X181317028Y-98183262D01*
X181447262Y-98053028D01*
X181549586Y-97899889D01*
X181620068Y-97729729D01*
X181656000Y-97549089D01*
X181656000Y-97364911D01*
X181620068Y-97184271D01*
X181549586Y-97014111D01*
X181447262Y-96860972D01*
X181317028Y-96730738D01*
X181163889Y-96628414D01*
X180993729Y-96557932D01*
X180813089Y-96522000D01*
X180628911Y-96522000D01*
X180448271Y-96557932D01*
X180278111Y-96628414D01*
X180124972Y-96730738D01*
X179994738Y-96860972D01*
X179892414Y-97014111D01*
X179821932Y-97184271D01*
X179786000Y-97364911D01*
X160887000Y-97364911D01*
X160887000Y-95693589D01*
X167455000Y-95693589D01*
X167455000Y-95966411D01*
X167508225Y-96233989D01*
X167612629Y-96486043D01*
X167764201Y-96712886D01*
X167957114Y-96905799D01*
X168183957Y-97057371D01*
X168436011Y-97161775D01*
X168703589Y-97215000D01*
X168976411Y-97215000D01*
X169243989Y-97161775D01*
X169496043Y-97057371D01*
X169722886Y-96905799D01*
X169915799Y-96712886D01*
X170067371Y-96486043D01*
X170110000Y-96383127D01*
X170152629Y-96486043D01*
X170304201Y-96712886D01*
X170497114Y-96905799D01*
X170723957Y-97057371D01*
X170976011Y-97161775D01*
X171243589Y-97215000D01*
X171516411Y-97215000D01*
X171783989Y-97161775D01*
X172036043Y-97057371D01*
X172262886Y-96905799D01*
X172455799Y-96712886D01*
X172607371Y-96486043D01*
X172711775Y-96233989D01*
X172765000Y-95966411D01*
X172765000Y-95693589D01*
X172711775Y-95426011D01*
X172607371Y-95173957D01*
X172455799Y-94947114D01*
X172262886Y-94754201D01*
X172036043Y-94602629D01*
X171783989Y-94498225D01*
X171516411Y-94445000D01*
X171243589Y-94445000D01*
X170976011Y-94498225D01*
X170723957Y-94602629D01*
X170497114Y-94754201D01*
X170304201Y-94947114D01*
X170152629Y-95173957D01*
X170110000Y-95276873D01*
X170067371Y-95173957D01*
X169915799Y-94947114D01*
X169722886Y-94754201D01*
X169496043Y-94602629D01*
X169243989Y-94498225D01*
X168976411Y-94445000D01*
X168703589Y-94445000D01*
X168436011Y-94498225D01*
X168183957Y-94602629D01*
X167957114Y-94754201D01*
X167764201Y-94947114D01*
X167612629Y-95173957D01*
X167508225Y-95426011D01*
X167455000Y-95693589D01*
X160887000Y-95693589D01*
X160887000Y-93000000D01*
X160884560Y-92975224D01*
X160877333Y-92951399D01*
X160865597Y-92929443D01*
X160849803Y-92910197D01*
X160351517Y-92411911D01*
X165054000Y-92411911D01*
X165054000Y-92596089D01*
X165089932Y-92776729D01*
X165160414Y-92946889D01*
X165262738Y-93100028D01*
X165392972Y-93230262D01*
X165546111Y-93332586D01*
X165716271Y-93403068D01*
X165896911Y-93439000D01*
X166081089Y-93439000D01*
X166261729Y-93403068D01*
X166431889Y-93332586D01*
X166585028Y-93230262D01*
X166715262Y-93100028D01*
X166817586Y-92946889D01*
X166888068Y-92776729D01*
X166924000Y-92596089D01*
X166924000Y-92411911D01*
X166888068Y-92231271D01*
X166817586Y-92061111D01*
X166715262Y-91907972D01*
X166585028Y-91777738D01*
X166431889Y-91675414D01*
X166261729Y-91604932D01*
X166081089Y-91569000D01*
X165896911Y-91569000D01*
X165716271Y-91604932D01*
X165546111Y-91675414D01*
X165392972Y-91777738D01*
X165262738Y-91907972D01*
X165160414Y-92061111D01*
X165089932Y-92231271D01*
X165054000Y-92411911D01*
X160351517Y-92411911D01*
X159887000Y-91947394D01*
X159887000Y-91268911D01*
X180167000Y-91268911D01*
X180167000Y-91453089D01*
X180202932Y-91633729D01*
X180273414Y-91803889D01*
X180375738Y-91957028D01*
X180505972Y-92087262D01*
X180659111Y-92189586D01*
X180829271Y-92260068D01*
X181009911Y-92296000D01*
X181194089Y-92296000D01*
X181374729Y-92260068D01*
X181544889Y-92189586D01*
X181564000Y-92176816D01*
X181564000Y-92342089D01*
X181599932Y-92522729D01*
X181670414Y-92692889D01*
X181768496Y-92839679D01*
X181591271Y-92874932D01*
X181421111Y-92945414D01*
X181267972Y-93047738D01*
X181137738Y-93177972D01*
X181035414Y-93331111D01*
X180964932Y-93501271D01*
X180929000Y-93681911D01*
X180929000Y-93866089D01*
X180964932Y-94046729D01*
X181035414Y-94216889D01*
X181137738Y-94370028D01*
X181267972Y-94500262D01*
X181421111Y-94602586D01*
X181480081Y-94627012D01*
X181472932Y-94644271D01*
X181437000Y-94824911D01*
X181437000Y-95009089D01*
X181472932Y-95189729D01*
X181543414Y-95359889D01*
X181645738Y-95513028D01*
X181775972Y-95643262D01*
X181929111Y-95745586D01*
X182099271Y-95816068D01*
X182279911Y-95852000D01*
X182464089Y-95852000D01*
X182644729Y-95816068D01*
X182814889Y-95745586D01*
X182968028Y-95643262D01*
X183098262Y-95513028D01*
X183200586Y-95359889D01*
X183271068Y-95189729D01*
X183307000Y-95009089D01*
X183307000Y-94824911D01*
X183271068Y-94644271D01*
X183200586Y-94474111D01*
X183098262Y-94320972D01*
X182968028Y-94190738D01*
X182814889Y-94088414D01*
X182755919Y-94063988D01*
X182763068Y-94046729D01*
X182799000Y-93866089D01*
X182799000Y-93681911D01*
X182773738Y-93554911D01*
X184739000Y-93554911D01*
X184739000Y-93739089D01*
X184774932Y-93919729D01*
X184845414Y-94089889D01*
X184947738Y-94243028D01*
X185077972Y-94373262D01*
X185231111Y-94475586D01*
X185401271Y-94546068D01*
X185581911Y-94582000D01*
X185766089Y-94582000D01*
X185946729Y-94546068D01*
X186116889Y-94475586D01*
X186270028Y-94373262D01*
X186400262Y-94243028D01*
X186502586Y-94089889D01*
X186573068Y-93919729D01*
X186609000Y-93739089D01*
X186609000Y-93554911D01*
X186573068Y-93374271D01*
X186502586Y-93204111D01*
X186400262Y-93050972D01*
X186270028Y-92920738D01*
X186116889Y-92818414D01*
X185946729Y-92747932D01*
X185766089Y-92712000D01*
X185581911Y-92712000D01*
X185401271Y-92747932D01*
X185231111Y-92818414D01*
X185077972Y-92920738D01*
X184947738Y-93050972D01*
X184845414Y-93204111D01*
X184774932Y-93374271D01*
X184739000Y-93554911D01*
X182773738Y-93554911D01*
X182763068Y-93501271D01*
X182692586Y-93331111D01*
X182594504Y-93184321D01*
X182771729Y-93149068D01*
X182941889Y-93078586D01*
X183095028Y-92976262D01*
X183225262Y-92846028D01*
X183327586Y-92692889D01*
X183398068Y-92522729D01*
X183434000Y-92342089D01*
X183434000Y-92157911D01*
X183398068Y-91977271D01*
X183327586Y-91807111D01*
X183225262Y-91653972D01*
X183095028Y-91523738D01*
X182941889Y-91421414D01*
X182771729Y-91350932D01*
X182591089Y-91315000D01*
X182406911Y-91315000D01*
X182226271Y-91350932D01*
X182056111Y-91421414D01*
X182037000Y-91434184D01*
X182037000Y-91268911D01*
X182001068Y-91088271D01*
X181930586Y-90918111D01*
X181828262Y-90764972D01*
X181698028Y-90634738D01*
X181544889Y-90532414D01*
X181374729Y-90461932D01*
X181194089Y-90426000D01*
X181009911Y-90426000D01*
X180829271Y-90461932D01*
X180659111Y-90532414D01*
X180505972Y-90634738D01*
X180375738Y-90764972D01*
X180273414Y-90918111D01*
X180202932Y-91088271D01*
X180167000Y-91268911D01*
X159887000Y-91268911D01*
X159887000Y-88749075D01*
X188808000Y-88749075D01*
X188808000Y-88933253D01*
X188843932Y-89113893D01*
X188914414Y-89284053D01*
X189016738Y-89437192D01*
X189146972Y-89567426D01*
X189300111Y-89669750D01*
X189470271Y-89740232D01*
X189650911Y-89776164D01*
X189835089Y-89776164D01*
X190015729Y-89740232D01*
X190185889Y-89669750D01*
X190339028Y-89567426D01*
X190469262Y-89437192D01*
X190571586Y-89284053D01*
X190642068Y-89113893D01*
X190678000Y-88933253D01*
X190678000Y-88749075D01*
X190642068Y-88568435D01*
X190571586Y-88398275D01*
X190469262Y-88245136D01*
X190339028Y-88114902D01*
X190185889Y-88012578D01*
X190015729Y-87942096D01*
X189835089Y-87906164D01*
X189650911Y-87906164D01*
X189470271Y-87942096D01*
X189300111Y-88012578D01*
X189146972Y-88114902D01*
X189016738Y-88245136D01*
X188914414Y-88398275D01*
X188843932Y-88568435D01*
X188808000Y-88749075D01*
X159887000Y-88749075D01*
X159887000Y-85340911D01*
X162563536Y-85340911D01*
X162563536Y-85525089D01*
X162599468Y-85705729D01*
X162669950Y-85875889D01*
X162772274Y-86029028D01*
X162902508Y-86159262D01*
X163055647Y-86261586D01*
X163225807Y-86332068D01*
X163406447Y-86368000D01*
X163590625Y-86368000D01*
X163771265Y-86332068D01*
X163810271Y-86315911D01*
X187025000Y-86315911D01*
X187025000Y-86500089D01*
X187060932Y-86680729D01*
X187131414Y-86850889D01*
X187233738Y-87004028D01*
X187363972Y-87134262D01*
X187517111Y-87236586D01*
X187687271Y-87307068D01*
X187867911Y-87343000D01*
X188052089Y-87343000D01*
X188232729Y-87307068D01*
X188402889Y-87236586D01*
X188556028Y-87134262D01*
X188686262Y-87004028D01*
X188788586Y-86850889D01*
X188859068Y-86680729D01*
X188895000Y-86500089D01*
X188895000Y-86315911D01*
X188859068Y-86135271D01*
X188788586Y-85965111D01*
X188686262Y-85811972D01*
X188556028Y-85681738D01*
X188402889Y-85579414D01*
X188232729Y-85508932D01*
X188052089Y-85473000D01*
X187867911Y-85473000D01*
X187687271Y-85508932D01*
X187517111Y-85579414D01*
X187363972Y-85681738D01*
X187233738Y-85811972D01*
X187131414Y-85965111D01*
X187060932Y-86135271D01*
X187025000Y-86315911D01*
X163810271Y-86315911D01*
X163941425Y-86261586D01*
X164094564Y-86159262D01*
X164224798Y-86029028D01*
X164327122Y-85875889D01*
X164397604Y-85705729D01*
X164433536Y-85525089D01*
X164433536Y-85340911D01*
X164397604Y-85160271D01*
X164358707Y-85066364D01*
X164458229Y-85046568D01*
X164628389Y-84976086D01*
X164781528Y-84873762D01*
X164911762Y-84743528D01*
X165014086Y-84590389D01*
X165084568Y-84420229D01*
X165120500Y-84239589D01*
X165120500Y-84215416D01*
X177663995Y-84215416D01*
X177663995Y-84399594D01*
X177699927Y-84580234D01*
X177770409Y-84750394D01*
X177872733Y-84903533D01*
X178002967Y-85033767D01*
X178156106Y-85136091D01*
X178326266Y-85206573D01*
X178506906Y-85242505D01*
X178691084Y-85242505D01*
X178871724Y-85206573D01*
X179041884Y-85136091D01*
X179195023Y-85033767D01*
X179325257Y-84903533D01*
X179427581Y-84750394D01*
X179498063Y-84580234D01*
X179533995Y-84399594D01*
X179533995Y-84215416D01*
X179498063Y-84034776D01*
X179427581Y-83864616D01*
X179325257Y-83711477D01*
X179195023Y-83581243D01*
X179041884Y-83478919D01*
X178871724Y-83408437D01*
X178691084Y-83372505D01*
X178506906Y-83372505D01*
X178326266Y-83408437D01*
X178156106Y-83478919D01*
X178002967Y-83581243D01*
X177872733Y-83711477D01*
X177770409Y-83864616D01*
X177699927Y-84034776D01*
X177663995Y-84215416D01*
X165120500Y-84215416D01*
X165120500Y-84055411D01*
X165084568Y-83874771D01*
X165014086Y-83704611D01*
X164911762Y-83551472D01*
X164781528Y-83421238D01*
X164628389Y-83318914D01*
X164458229Y-83248432D01*
X164277589Y-83212500D01*
X164093411Y-83212500D01*
X163912771Y-83248432D01*
X163742611Y-83318914D01*
X163589472Y-83421238D01*
X163459238Y-83551472D01*
X163356914Y-83704611D01*
X163286432Y-83874771D01*
X163250500Y-84055411D01*
X163250500Y-84239589D01*
X163286432Y-84420229D01*
X163325329Y-84514136D01*
X163225807Y-84533932D01*
X163055647Y-84604414D01*
X162902508Y-84706738D01*
X162772274Y-84836972D01*
X162669950Y-84990111D01*
X162599468Y-85160271D01*
X162563536Y-85340911D01*
X159887000Y-85340911D01*
X159887000Y-82000000D01*
X159884560Y-81975224D01*
X159877333Y-81951399D01*
X159865597Y-81929443D01*
X159849803Y-81910197D01*
X159391517Y-81451911D01*
X165949500Y-81451911D01*
X165949500Y-81636089D01*
X165985432Y-81816729D01*
X166055914Y-81986889D01*
X166158238Y-82140028D01*
X166288472Y-82270262D01*
X166441611Y-82372586D01*
X166611771Y-82443068D01*
X166792411Y-82479000D01*
X166976589Y-82479000D01*
X167157229Y-82443068D01*
X167327389Y-82372586D01*
X167480528Y-82270262D01*
X167610762Y-82140028D01*
X167713086Y-81986889D01*
X167783568Y-81816729D01*
X167819500Y-81636089D01*
X167819500Y-81451911D01*
X167783568Y-81271271D01*
X167713086Y-81101111D01*
X167610762Y-80947972D01*
X167480528Y-80817738D01*
X167327389Y-80715414D01*
X167157229Y-80644932D01*
X166976589Y-80609000D01*
X166792411Y-80609000D01*
X166611771Y-80644932D01*
X166441611Y-80715414D01*
X166288472Y-80817738D01*
X166158238Y-80947972D01*
X166055914Y-81101111D01*
X165985432Y-81271271D01*
X165949500Y-81451911D01*
X159391517Y-81451911D01*
X158387000Y-80447394D01*
X158387000Y-78276911D01*
X174331500Y-78276911D01*
X174331500Y-78461089D01*
X174367432Y-78641729D01*
X174437914Y-78811889D01*
X174540238Y-78965028D01*
X174670472Y-79095262D01*
X174823611Y-79197586D01*
X174993771Y-79268068D01*
X175174411Y-79304000D01*
X175358589Y-79304000D01*
X175539229Y-79268068D01*
X175709389Y-79197586D01*
X175862528Y-79095262D01*
X175992762Y-78965028D01*
X176095086Y-78811889D01*
X176143125Y-78695911D01*
X188168000Y-78695911D01*
X188168000Y-78880089D01*
X188203932Y-79060729D01*
X188274414Y-79230889D01*
X188376738Y-79384028D01*
X188506972Y-79514262D01*
X188660111Y-79616586D01*
X188830271Y-79687068D01*
X189010911Y-79723000D01*
X189195089Y-79723000D01*
X189375729Y-79687068D01*
X189545889Y-79616586D01*
X189699028Y-79514262D01*
X189829262Y-79384028D01*
X189931586Y-79230889D01*
X190002068Y-79060729D01*
X190038000Y-78880089D01*
X190038000Y-78695911D01*
X190002068Y-78515271D01*
X189931586Y-78345111D01*
X189829262Y-78191972D01*
X189699028Y-78061738D01*
X189545889Y-77959414D01*
X189375729Y-77888932D01*
X189195089Y-77853000D01*
X189010911Y-77853000D01*
X188830271Y-77888932D01*
X188660111Y-77959414D01*
X188506972Y-78061738D01*
X188376738Y-78191972D01*
X188274414Y-78345111D01*
X188203932Y-78515271D01*
X188168000Y-78695911D01*
X176143125Y-78695911D01*
X176165568Y-78641729D01*
X176201500Y-78461089D01*
X176201500Y-78276911D01*
X176165568Y-78096271D01*
X176095086Y-77926111D01*
X175992762Y-77772972D01*
X175862528Y-77642738D01*
X175709389Y-77540414D01*
X175539229Y-77469932D01*
X175358589Y-77434000D01*
X175174411Y-77434000D01*
X174993771Y-77469932D01*
X174823611Y-77540414D01*
X174670472Y-77642738D01*
X174540238Y-77772972D01*
X174437914Y-77926111D01*
X174367432Y-78096271D01*
X174331500Y-78276911D01*
X158387000Y-78276911D01*
X158387000Y-76155911D01*
X186644000Y-76155911D01*
X186644000Y-76340089D01*
X186679932Y-76520729D01*
X186750414Y-76690889D01*
X186852738Y-76844028D01*
X186924215Y-76915505D01*
X186917748Y-76921972D01*
X186815424Y-77075111D01*
X186744942Y-77245271D01*
X186709010Y-77425911D01*
X186709010Y-77610089D01*
X186744942Y-77790729D01*
X186815424Y-77960889D01*
X186917748Y-78114028D01*
X187047982Y-78244262D01*
X187201121Y-78346586D01*
X187371281Y-78417068D01*
X187551921Y-78453000D01*
X187736099Y-78453000D01*
X187916739Y-78417068D01*
X188086899Y-78346586D01*
X188240038Y-78244262D01*
X188370272Y-78114028D01*
X188472596Y-77960889D01*
X188543078Y-77790729D01*
X188579010Y-77610089D01*
X188579010Y-77425911D01*
X188543078Y-77245271D01*
X188472596Y-77075111D01*
X188370272Y-76921972D01*
X188298795Y-76850495D01*
X188305262Y-76844028D01*
X188407586Y-76690889D01*
X188478068Y-76520729D01*
X188514000Y-76340089D01*
X188514000Y-76155911D01*
X188478068Y-75975271D01*
X188407586Y-75805111D01*
X188305262Y-75651972D01*
X188175028Y-75521738D01*
X188021889Y-75419414D01*
X187851729Y-75348932D01*
X187671089Y-75313000D01*
X187486911Y-75313000D01*
X187306271Y-75348932D01*
X187136111Y-75419414D01*
X186982972Y-75521738D01*
X186852738Y-75651972D01*
X186750414Y-75805111D01*
X186679932Y-75975271D01*
X186644000Y-76155911D01*
X158387000Y-76155911D01*
X158387000Y-73615911D01*
X161879000Y-73615911D01*
X161879000Y-73800089D01*
X161914932Y-73980729D01*
X161985414Y-74150889D01*
X162087738Y-74304028D01*
X162217972Y-74434262D01*
X162371111Y-74536586D01*
X162541271Y-74607068D01*
X162721911Y-74643000D01*
X162906089Y-74643000D01*
X163086729Y-74607068D01*
X163256889Y-74536586D01*
X163410028Y-74434262D01*
X163540262Y-74304028D01*
X163642586Y-74150889D01*
X163713068Y-73980729D01*
X163749000Y-73800089D01*
X163749000Y-73615911D01*
X163713068Y-73435271D01*
X163642586Y-73265111D01*
X163540262Y-73111972D01*
X163410028Y-72981738D01*
X163256889Y-72879414D01*
X163086729Y-72808932D01*
X162906089Y-72773000D01*
X162721911Y-72773000D01*
X162541271Y-72808932D01*
X162371111Y-72879414D01*
X162217972Y-72981738D01*
X162087738Y-73111972D01*
X161985414Y-73265111D01*
X161914932Y-73435271D01*
X161879000Y-73615911D01*
X158387000Y-73615911D01*
X158387000Y-70821911D01*
X163657000Y-70821911D01*
X163657000Y-71006089D01*
X163692932Y-71186729D01*
X163763414Y-71356889D01*
X163865738Y-71510028D01*
X163995972Y-71640262D01*
X164149111Y-71742586D01*
X164319271Y-71813068D01*
X164499911Y-71849000D01*
X164684089Y-71849000D01*
X164864729Y-71813068D01*
X165034889Y-71742586D01*
X165188028Y-71640262D01*
X165318262Y-71510028D01*
X165420586Y-71356889D01*
X165491068Y-71186729D01*
X165527000Y-71006089D01*
X165527000Y-70821911D01*
X165491068Y-70641271D01*
X165420586Y-70471111D01*
X165318262Y-70317972D01*
X165188028Y-70187738D01*
X165034889Y-70085414D01*
X164864729Y-70014932D01*
X164684089Y-69979000D01*
X164499911Y-69979000D01*
X164319271Y-70014932D01*
X164149111Y-70085414D01*
X163995972Y-70187738D01*
X163865738Y-70317972D01*
X163763414Y-70471111D01*
X163692932Y-70641271D01*
X163657000Y-70821911D01*
X158387000Y-70821911D01*
X158387000Y-69805911D01*
X169562500Y-69805911D01*
X169562500Y-69990089D01*
X169598432Y-70170729D01*
X169668914Y-70340889D01*
X169771238Y-70494028D01*
X169901472Y-70624262D01*
X170054611Y-70726586D01*
X170224771Y-70797068D01*
X170405411Y-70833000D01*
X170589589Y-70833000D01*
X170770229Y-70797068D01*
X170940389Y-70726586D01*
X171093528Y-70624262D01*
X171223762Y-70494028D01*
X171326086Y-70340889D01*
X171396568Y-70170729D01*
X171432500Y-69990089D01*
X171432500Y-69805911D01*
X171396568Y-69625271D01*
X171326086Y-69455111D01*
X171223762Y-69301972D01*
X171093528Y-69171738D01*
X170940389Y-69069414D01*
X170770229Y-68998932D01*
X170589589Y-68963000D01*
X170405411Y-68963000D01*
X170224771Y-68998932D01*
X170054611Y-69069414D01*
X169901472Y-69171738D01*
X169771238Y-69301972D01*
X169668914Y-69455111D01*
X169598432Y-69625271D01*
X169562500Y-69805911D01*
X158387000Y-69805911D01*
X158387000Y-68627000D01*
X192640001Y-68627000D01*
X192640001Y-75323225D01*
G37*
G04 #@! TD.AperFunction*
D18*
X167567246Y-53018456D02*
X167068456Y-53517246D01*
X166676559Y-54103760D01*
X166406616Y-54755461D01*
X166269000Y-55447302D01*
X166269000Y-56152698D01*
X166406616Y-56844539D01*
X166676559Y-57496240D01*
X167068456Y-58082754D01*
X167567246Y-58581544D01*
X168153760Y-58973441D01*
X168805461Y-59243384D01*
X169497302Y-59381000D01*
X170202698Y-59381000D01*
X170894539Y-59243384D01*
X171546240Y-58973441D01*
X172132754Y-58581544D01*
X172631544Y-58082754D01*
X173023441Y-57496240D01*
X173293384Y-56844539D01*
X173382405Y-56397000D01*
X182153928Y-56397000D01*
X182166188Y-56521482D01*
X182202498Y-56641180D01*
X182261463Y-56751494D01*
X182340815Y-56848185D01*
X182437506Y-56927537D01*
X182547820Y-56986502D01*
X182667518Y-57022812D01*
X182792000Y-57035072D01*
X183356250Y-57032000D01*
X183515000Y-56873250D01*
X183515000Y-55674000D01*
X182315750Y-55674000D01*
X182157000Y-55832750D01*
X182153928Y-56397000D01*
X173382405Y-56397000D01*
X173431000Y-56152698D01*
X173431000Y-55447302D01*
X173293384Y-54755461D01*
X173269169Y-54697000D01*
X182153928Y-54697000D01*
X182157000Y-55261250D01*
X182315750Y-55420000D01*
X183515000Y-55420000D01*
X183515000Y-54220750D01*
X183769000Y-54220750D01*
X183769000Y-55420000D01*
X183789000Y-55420000D01*
X183789000Y-55674000D01*
X183769000Y-55674000D01*
X183769000Y-56873250D01*
X183927750Y-57032000D01*
X184492000Y-57035072D01*
X184616482Y-57022812D01*
X184736180Y-56986502D01*
X184846494Y-56927537D01*
X184943185Y-56848185D01*
X185022537Y-56751494D01*
X185081502Y-56641180D01*
X185117812Y-56521482D01*
X185130072Y-56397000D01*
X185128927Y-56186706D01*
X185225820Y-56331717D01*
X185397283Y-56503180D01*
X185598903Y-56637898D01*
X185822931Y-56730693D01*
X186060757Y-56778000D01*
X186303243Y-56778000D01*
X186541069Y-56730693D01*
X186765097Y-56637898D01*
X186966717Y-56503180D01*
X187138180Y-56331717D01*
X187272898Y-56130097D01*
X187365693Y-55906069D01*
X187413000Y-55668243D01*
X187413000Y-55425757D01*
X187491000Y-55425757D01*
X187491000Y-55668243D01*
X187538307Y-55906069D01*
X187631102Y-56130097D01*
X187765820Y-56331717D01*
X187937283Y-56503180D01*
X188138903Y-56637898D01*
X188362931Y-56730693D01*
X188600757Y-56778000D01*
X188843243Y-56778000D01*
X189081069Y-56730693D01*
X189305097Y-56637898D01*
X189506717Y-56503180D01*
X189678180Y-56331717D01*
X189812898Y-56130097D01*
X189905693Y-55906069D01*
X189953000Y-55668243D01*
X189953000Y-55425757D01*
X190031000Y-55425757D01*
X190031000Y-55668243D01*
X190078307Y-55906069D01*
X190171102Y-56130097D01*
X190305820Y-56331717D01*
X190477283Y-56503180D01*
X190678903Y-56637898D01*
X190902931Y-56730693D01*
X191140757Y-56778000D01*
X191383243Y-56778000D01*
X191621069Y-56730693D01*
X191845097Y-56637898D01*
X192046717Y-56503180D01*
X192218180Y-56331717D01*
X192352898Y-56130097D01*
X192445693Y-55906069D01*
X192493000Y-55668243D01*
X192493000Y-55425757D01*
X192445693Y-55187931D01*
X192352898Y-54963903D01*
X192218180Y-54762283D01*
X192046717Y-54590820D01*
X191845097Y-54456102D01*
X191621069Y-54363307D01*
X191383243Y-54316000D01*
X191140757Y-54316000D01*
X190902931Y-54363307D01*
X190678903Y-54456102D01*
X190477283Y-54590820D01*
X190305820Y-54762283D01*
X190171102Y-54963903D01*
X190078307Y-55187931D01*
X190031000Y-55425757D01*
X189953000Y-55425757D01*
X189905693Y-55187931D01*
X189812898Y-54963903D01*
X189678180Y-54762283D01*
X189506717Y-54590820D01*
X189305097Y-54456102D01*
X189081069Y-54363307D01*
X188843243Y-54316000D01*
X188600757Y-54316000D01*
X188362931Y-54363307D01*
X188138903Y-54456102D01*
X187937283Y-54590820D01*
X187765820Y-54762283D01*
X187631102Y-54963903D01*
X187538307Y-55187931D01*
X187491000Y-55425757D01*
X187413000Y-55425757D01*
X187365693Y-55187931D01*
X187272898Y-54963903D01*
X187138180Y-54762283D01*
X186966717Y-54590820D01*
X186765097Y-54456102D01*
X186541069Y-54363307D01*
X186303243Y-54316000D01*
X186060757Y-54316000D01*
X185822931Y-54363307D01*
X185598903Y-54456102D01*
X185397283Y-54590820D01*
X185225820Y-54762283D01*
X185128927Y-54907294D01*
X185130072Y-54697000D01*
X185117812Y-54572518D01*
X185081502Y-54452820D01*
X185022537Y-54342506D01*
X184943185Y-54245815D01*
X184846494Y-54166463D01*
X184736180Y-54107498D01*
X184616482Y-54071188D01*
X184492000Y-54058928D01*
X183927750Y-54062000D01*
X183769000Y-54220750D01*
X183515000Y-54220750D01*
X183356250Y-54062000D01*
X182792000Y-54058928D01*
X182667518Y-54071188D01*
X182547820Y-54107498D01*
X182437506Y-54166463D01*
X182340815Y-54245815D01*
X182261463Y-54342506D01*
X182202498Y-54452820D01*
X182166188Y-54572518D01*
X182153928Y-54697000D01*
X173269169Y-54697000D01*
X173023441Y-54103760D01*
X172631544Y-53517246D01*
X172132754Y-53018456D01*
X171739962Y-52756000D01*
X190327694Y-52756000D01*
X190843709Y-52806596D01*
X191318611Y-52949977D01*
X191756614Y-53182866D01*
X192141050Y-53496405D01*
X192457260Y-53878638D01*
X192693203Y-54315007D01*
X192839898Y-54788899D01*
X192894001Y-55303657D01*
X192894001Y-66873000D01*
X162479000Y-66873000D01*
X162479000Y-66782927D01*
X162452829Y-66651360D01*
X162401494Y-66527426D01*
X162326967Y-66415888D01*
X162232112Y-66321033D01*
X162120574Y-66246506D01*
X161996640Y-66195171D01*
X161865073Y-66169000D01*
X161730927Y-66169000D01*
X161599360Y-66195171D01*
X161475426Y-66246506D01*
X161363888Y-66321033D01*
X161269033Y-66415888D01*
X161194506Y-66527426D01*
X161143171Y-66651360D01*
X161117000Y-66782927D01*
X161117000Y-66873000D01*
X150153456Y-66873000D01*
X150134829Y-66779360D01*
X150083494Y-66655426D01*
X150008967Y-66543888D01*
X149914112Y-66449033D01*
X149802574Y-66374506D01*
X149678640Y-66323171D01*
X149547073Y-66297000D01*
X149412927Y-66297000D01*
X149281360Y-66323171D01*
X149157426Y-66374506D01*
X149045888Y-66449033D01*
X148951033Y-66543888D01*
X148876506Y-66655426D01*
X148825171Y-66779360D01*
X148806544Y-66873000D01*
X108806000Y-66873000D01*
X108806000Y-65830427D01*
X111269500Y-65830427D01*
X111269500Y-65964573D01*
X111295671Y-66096140D01*
X111347006Y-66220074D01*
X111421533Y-66331612D01*
X111516388Y-66426467D01*
X111627926Y-66500994D01*
X111751860Y-66552329D01*
X111883427Y-66578500D01*
X112017573Y-66578500D01*
X112149140Y-66552329D01*
X112273074Y-66500994D01*
X112384612Y-66426467D01*
X112479467Y-66331612D01*
X112553994Y-66220074D01*
X112605329Y-66096140D01*
X112631500Y-65964573D01*
X112631500Y-65830427D01*
X112605329Y-65698860D01*
X112553994Y-65574926D01*
X112479467Y-65463388D01*
X112384612Y-65368533D01*
X112273074Y-65294006D01*
X112149140Y-65242671D01*
X112017573Y-65216500D01*
X111883427Y-65216500D01*
X111751860Y-65242671D01*
X111627926Y-65294006D01*
X111516388Y-65368533D01*
X111421533Y-65463388D01*
X111347006Y-65574926D01*
X111295671Y-65698860D01*
X111269500Y-65830427D01*
X108806000Y-65830427D01*
X108806000Y-65131927D01*
X148798000Y-65131927D01*
X148798000Y-65266073D01*
X148824171Y-65397640D01*
X148875506Y-65521574D01*
X148950033Y-65633112D01*
X149044888Y-65727967D01*
X149156426Y-65802494D01*
X149280360Y-65853829D01*
X149411927Y-65880000D01*
X149546073Y-65880000D01*
X149677640Y-65853829D01*
X149801574Y-65802494D01*
X149913112Y-65727967D01*
X150007967Y-65633112D01*
X150082494Y-65521574D01*
X150133829Y-65397640D01*
X150160000Y-65266073D01*
X150160000Y-65258927D01*
X159212000Y-65258927D01*
X159212000Y-65393073D01*
X159238171Y-65524640D01*
X159289506Y-65648574D01*
X159364033Y-65760112D01*
X159458888Y-65854967D01*
X159570426Y-65929494D01*
X159694360Y-65980829D01*
X159825927Y-66007000D01*
X159960073Y-66007000D01*
X160091640Y-65980829D01*
X160215574Y-65929494D01*
X160268803Y-65893927D01*
X162641000Y-65893927D01*
X162641000Y-66028073D01*
X162667171Y-66159640D01*
X162718506Y-66283574D01*
X162793033Y-66395112D01*
X162887888Y-66489967D01*
X162999426Y-66564494D01*
X163123360Y-66615829D01*
X163254927Y-66642000D01*
X163389073Y-66642000D01*
X163520640Y-66615829D01*
X163644574Y-66564494D01*
X163756112Y-66489967D01*
X163850967Y-66395112D01*
X163925494Y-66283574D01*
X163976829Y-66159640D01*
X164003000Y-66028073D01*
X164003000Y-66020927D01*
X173944000Y-66020927D01*
X173944000Y-66155073D01*
X173970171Y-66286640D01*
X174021506Y-66410574D01*
X174096033Y-66522112D01*
X174190888Y-66616967D01*
X174302426Y-66691494D01*
X174426360Y-66742829D01*
X174557927Y-66769000D01*
X174692073Y-66769000D01*
X174823640Y-66742829D01*
X174947574Y-66691494D01*
X175059112Y-66616967D01*
X175153967Y-66522112D01*
X175228494Y-66410574D01*
X175279829Y-66286640D01*
X175306000Y-66155073D01*
X175306000Y-66020927D01*
X175279829Y-65889360D01*
X175228494Y-65765426D01*
X175153967Y-65653888D01*
X175059112Y-65559033D01*
X174947574Y-65484506D01*
X174823640Y-65433171D01*
X174692073Y-65407000D01*
X174557927Y-65407000D01*
X174426360Y-65433171D01*
X174302426Y-65484506D01*
X174190888Y-65559033D01*
X174096033Y-65653888D01*
X174021506Y-65765426D01*
X173970171Y-65889360D01*
X173944000Y-66020927D01*
X164003000Y-66020927D01*
X164003000Y-65893927D01*
X163976829Y-65762360D01*
X163925494Y-65638426D01*
X163850967Y-65526888D01*
X163756112Y-65432033D01*
X163687110Y-65385927D01*
X183024500Y-65385927D01*
X183024500Y-65520073D01*
X183050671Y-65651640D01*
X183102006Y-65775574D01*
X183176533Y-65887112D01*
X183271388Y-65981967D01*
X183382926Y-66056494D01*
X183506860Y-66107829D01*
X183638427Y-66134000D01*
X183772573Y-66134000D01*
X183904140Y-66107829D01*
X184028074Y-66056494D01*
X184139612Y-65981967D01*
X184234467Y-65887112D01*
X184308994Y-65775574D01*
X184360329Y-65651640D01*
X184386500Y-65520073D01*
X184386500Y-65385927D01*
X184360329Y-65254360D01*
X184308994Y-65130426D01*
X184234467Y-65018888D01*
X184139612Y-64924033D01*
X184028074Y-64849506D01*
X183904140Y-64798171D01*
X183772573Y-64772000D01*
X183638427Y-64772000D01*
X183506860Y-64798171D01*
X183382926Y-64849506D01*
X183271388Y-64924033D01*
X183176533Y-65018888D01*
X183102006Y-65130426D01*
X183050671Y-65254360D01*
X183024500Y-65385927D01*
X163687110Y-65385927D01*
X163644574Y-65357506D01*
X163520640Y-65306171D01*
X163389073Y-65280000D01*
X163254927Y-65280000D01*
X163123360Y-65306171D01*
X162999426Y-65357506D01*
X162887888Y-65432033D01*
X162793033Y-65526888D01*
X162718506Y-65638426D01*
X162667171Y-65762360D01*
X162641000Y-65893927D01*
X160268803Y-65893927D01*
X160327112Y-65854967D01*
X160421967Y-65760112D01*
X160496494Y-65648574D01*
X160547829Y-65524640D01*
X160574000Y-65393073D01*
X160574000Y-65258927D01*
X160547829Y-65127360D01*
X160496494Y-65003426D01*
X160421967Y-64891888D01*
X160327112Y-64797033D01*
X160215574Y-64722506D01*
X160091640Y-64671171D01*
X159960073Y-64645000D01*
X159825927Y-64645000D01*
X159694360Y-64671171D01*
X159570426Y-64722506D01*
X159458888Y-64797033D01*
X159364033Y-64891888D01*
X159289506Y-65003426D01*
X159238171Y-65127360D01*
X159212000Y-65258927D01*
X150160000Y-65258927D01*
X150160000Y-65131927D01*
X150133829Y-65000360D01*
X150082494Y-64876426D01*
X150007967Y-64764888D01*
X149913112Y-64670033D01*
X149801574Y-64595506D01*
X149677640Y-64544171D01*
X149546073Y-64518000D01*
X149411927Y-64518000D01*
X149280360Y-64544171D01*
X149156426Y-64595506D01*
X149044888Y-64670033D01*
X148950033Y-64764888D01*
X148875506Y-64876426D01*
X148824171Y-65000360D01*
X148798000Y-65131927D01*
X108806000Y-65131927D01*
X108806000Y-63226927D01*
X111333000Y-63226927D01*
X111333000Y-63361073D01*
X111359171Y-63492640D01*
X111410506Y-63616574D01*
X111485033Y-63728112D01*
X111579888Y-63822967D01*
X111691426Y-63897494D01*
X111815360Y-63948829D01*
X111946927Y-63975000D01*
X112081073Y-63975000D01*
X112212640Y-63948829D01*
X112336574Y-63897494D01*
X112448112Y-63822967D01*
X112542967Y-63728112D01*
X112617494Y-63616574D01*
X112668829Y-63492640D01*
X112695000Y-63361073D01*
X112695000Y-63290427D01*
X127652500Y-63290427D01*
X127652500Y-63424573D01*
X127678671Y-63556140D01*
X127730006Y-63680074D01*
X127804533Y-63791612D01*
X127899388Y-63886467D01*
X128010926Y-63960994D01*
X128134860Y-64012329D01*
X128266427Y-64038500D01*
X128400573Y-64038500D01*
X128532140Y-64012329D01*
X128656074Y-63960994D01*
X128762324Y-63890000D01*
X137449928Y-63890000D01*
X137462188Y-64014482D01*
X137498498Y-64134180D01*
X137557463Y-64244494D01*
X137636815Y-64341185D01*
X137733506Y-64420537D01*
X137843820Y-64479502D01*
X137963518Y-64515812D01*
X138088000Y-64528072D01*
X138652250Y-64525000D01*
X138811000Y-64366250D01*
X138811000Y-63167000D01*
X137611750Y-63167000D01*
X137453000Y-63325750D01*
X137449928Y-63890000D01*
X128762324Y-63890000D01*
X128767612Y-63886467D01*
X128862467Y-63791612D01*
X128936994Y-63680074D01*
X128988329Y-63556140D01*
X129014500Y-63424573D01*
X129014500Y-63290427D01*
X128988329Y-63158860D01*
X128963919Y-63099927D01*
X134447000Y-63099927D01*
X134447000Y-63234073D01*
X134473171Y-63365640D01*
X134524506Y-63489574D01*
X134599033Y-63601112D01*
X134693888Y-63695967D01*
X134805426Y-63770494D01*
X134929360Y-63821829D01*
X135060927Y-63848000D01*
X135195073Y-63848000D01*
X135326640Y-63821829D01*
X135450574Y-63770494D01*
X135562112Y-63695967D01*
X135656967Y-63601112D01*
X135731494Y-63489574D01*
X135782829Y-63365640D01*
X135809000Y-63234073D01*
X135809000Y-63099927D01*
X135782829Y-62968360D01*
X135731494Y-62844426D01*
X135656967Y-62732888D01*
X135562112Y-62638033D01*
X135450574Y-62563506D01*
X135326640Y-62512171D01*
X135195073Y-62486000D01*
X135060927Y-62486000D01*
X134929360Y-62512171D01*
X134805426Y-62563506D01*
X134693888Y-62638033D01*
X134599033Y-62732888D01*
X134524506Y-62844426D01*
X134473171Y-62968360D01*
X134447000Y-63099927D01*
X128963919Y-63099927D01*
X128936994Y-63034926D01*
X128862467Y-62923388D01*
X128767612Y-62828533D01*
X128656074Y-62754006D01*
X128532140Y-62702671D01*
X128400573Y-62676500D01*
X128266427Y-62676500D01*
X128134860Y-62702671D01*
X128010926Y-62754006D01*
X127899388Y-62828533D01*
X127804533Y-62923388D01*
X127730006Y-63034926D01*
X127678671Y-63158860D01*
X127652500Y-63290427D01*
X112695000Y-63290427D01*
X112695000Y-63226927D01*
X112668829Y-63095360D01*
X112617494Y-62971426D01*
X112542967Y-62859888D01*
X112448112Y-62765033D01*
X112336574Y-62690506D01*
X112212640Y-62639171D01*
X112081073Y-62613000D01*
X111946927Y-62613000D01*
X111815360Y-62639171D01*
X111691426Y-62690506D01*
X111579888Y-62765033D01*
X111485033Y-62859888D01*
X111410506Y-62971426D01*
X111359171Y-63095360D01*
X111333000Y-63226927D01*
X108806000Y-63226927D01*
X108806000Y-62190000D01*
X137449928Y-62190000D01*
X137453000Y-62754250D01*
X137611750Y-62913000D01*
X138811000Y-62913000D01*
X138811000Y-61713750D01*
X139065000Y-61713750D01*
X139065000Y-62913000D01*
X139085000Y-62913000D01*
X139085000Y-63167000D01*
X139065000Y-63167000D01*
X139065000Y-64366250D01*
X139223750Y-64525000D01*
X139788000Y-64528072D01*
X139912482Y-64515812D01*
X140032180Y-64479502D01*
X140142494Y-64420537D01*
X140204162Y-64369927D01*
X170007000Y-64369927D01*
X170007000Y-64504073D01*
X170033171Y-64635640D01*
X170084506Y-64759574D01*
X170159033Y-64871112D01*
X170253888Y-64965967D01*
X170365426Y-65040494D01*
X170489360Y-65091829D01*
X170620927Y-65118000D01*
X170755073Y-65118000D01*
X170886640Y-65091829D01*
X171010574Y-65040494D01*
X171122112Y-64965967D01*
X171216967Y-64871112D01*
X171291494Y-64759574D01*
X171342829Y-64635640D01*
X171369000Y-64504073D01*
X171369000Y-64496927D01*
X173055000Y-64496927D01*
X173055000Y-64631073D01*
X173081171Y-64762640D01*
X173132506Y-64886574D01*
X173207033Y-64998112D01*
X173301888Y-65092967D01*
X173413426Y-65167494D01*
X173537360Y-65218829D01*
X173668927Y-65245000D01*
X173803073Y-65245000D01*
X173934640Y-65218829D01*
X174058574Y-65167494D01*
X174170112Y-65092967D01*
X174264967Y-64998112D01*
X174339494Y-64886574D01*
X174390829Y-64762640D01*
X174417000Y-64631073D01*
X174417000Y-64496927D01*
X174390829Y-64365360D01*
X174339494Y-64241426D01*
X174264967Y-64129888D01*
X174170112Y-64035033D01*
X174058574Y-63960506D01*
X173934640Y-63909171D01*
X173803073Y-63883000D01*
X173668927Y-63883000D01*
X173537360Y-63909171D01*
X173413426Y-63960506D01*
X173301888Y-64035033D01*
X173207033Y-64129888D01*
X173132506Y-64241426D01*
X173081171Y-64365360D01*
X173055000Y-64496927D01*
X171369000Y-64496927D01*
X171369000Y-64369927D01*
X171342829Y-64238360D01*
X171291494Y-64114426D01*
X171216967Y-64002888D01*
X171122112Y-63908033D01*
X171010574Y-63833506D01*
X170886640Y-63782171D01*
X170755073Y-63756000D01*
X170620927Y-63756000D01*
X170489360Y-63782171D01*
X170365426Y-63833506D01*
X170253888Y-63908033D01*
X170159033Y-64002888D01*
X170084506Y-64114426D01*
X170033171Y-64238360D01*
X170007000Y-64369927D01*
X140204162Y-64369927D01*
X140239185Y-64341185D01*
X140318537Y-64244494D01*
X140377502Y-64134180D01*
X140413812Y-64014482D01*
X140426072Y-63890000D01*
X140424927Y-63679706D01*
X140521820Y-63824717D01*
X140693283Y-63996180D01*
X140894903Y-64130898D01*
X141118931Y-64223693D01*
X141356757Y-64271000D01*
X141599243Y-64271000D01*
X141837069Y-64223693D01*
X142061097Y-64130898D01*
X142262717Y-63996180D01*
X142434180Y-63824717D01*
X142568898Y-63623097D01*
X142661693Y-63399069D01*
X142709000Y-63161243D01*
X142709000Y-62918757D01*
X142787000Y-62918757D01*
X142787000Y-63161243D01*
X142834307Y-63399069D01*
X142927102Y-63623097D01*
X143061820Y-63824717D01*
X143233283Y-63996180D01*
X143434903Y-64130898D01*
X143658931Y-64223693D01*
X143896757Y-64271000D01*
X144139243Y-64271000D01*
X144377069Y-64223693D01*
X144601097Y-64130898D01*
X144802717Y-63996180D01*
X144974180Y-63824717D01*
X145108898Y-63623097D01*
X145201693Y-63399069D01*
X145248565Y-63163427D01*
X183024500Y-63163427D01*
X183024500Y-63297573D01*
X183050671Y-63429140D01*
X183102006Y-63553074D01*
X183176533Y-63664612D01*
X183271388Y-63759467D01*
X183382926Y-63833994D01*
X183506860Y-63885329D01*
X183638427Y-63911500D01*
X183772573Y-63911500D01*
X183904140Y-63885329D01*
X184028074Y-63833994D01*
X184139612Y-63759467D01*
X184234467Y-63664612D01*
X184308994Y-63553074D01*
X184360329Y-63429140D01*
X184386500Y-63297573D01*
X184386500Y-63163427D01*
X184360329Y-63031860D01*
X184308994Y-62907926D01*
X184234467Y-62796388D01*
X184139612Y-62701533D01*
X184028074Y-62627006D01*
X183904140Y-62575671D01*
X183772573Y-62549500D01*
X183638427Y-62549500D01*
X183506860Y-62575671D01*
X183382926Y-62627006D01*
X183271388Y-62701533D01*
X183176533Y-62796388D01*
X183102006Y-62907926D01*
X183050671Y-63031860D01*
X183024500Y-63163427D01*
X145248565Y-63163427D01*
X145249000Y-63161243D01*
X145249000Y-62918757D01*
X145201693Y-62680931D01*
X145108898Y-62456903D01*
X144974180Y-62255283D01*
X144802717Y-62083820D01*
X144601097Y-61949102D01*
X144377069Y-61856307D01*
X144139243Y-61809000D01*
X143896757Y-61809000D01*
X143658931Y-61856307D01*
X143434903Y-61949102D01*
X143233283Y-62083820D01*
X143061820Y-62255283D01*
X142927102Y-62456903D01*
X142834307Y-62680931D01*
X142787000Y-62918757D01*
X142709000Y-62918757D01*
X142661693Y-62680931D01*
X142568898Y-62456903D01*
X142434180Y-62255283D01*
X142262717Y-62083820D01*
X142061097Y-61949102D01*
X141837069Y-61856307D01*
X141599243Y-61809000D01*
X141356757Y-61809000D01*
X141118931Y-61856307D01*
X140894903Y-61949102D01*
X140693283Y-62083820D01*
X140521820Y-62255283D01*
X140424927Y-62400294D01*
X140426072Y-62190000D01*
X140413812Y-62065518D01*
X140377502Y-61945820D01*
X140318537Y-61835506D01*
X140239185Y-61738815D01*
X140142494Y-61659463D01*
X140032180Y-61600498D01*
X139912482Y-61564188D01*
X139788000Y-61551928D01*
X139223750Y-61555000D01*
X139065000Y-61713750D01*
X138811000Y-61713750D01*
X138652250Y-61555000D01*
X138088000Y-61551928D01*
X137963518Y-61564188D01*
X137843820Y-61600498D01*
X137733506Y-61659463D01*
X137636815Y-61738815D01*
X137557463Y-61835506D01*
X137498498Y-61945820D01*
X137462188Y-62065518D01*
X137449928Y-62190000D01*
X108806000Y-62190000D01*
X108806000Y-61067927D01*
X141940000Y-61067927D01*
X141940000Y-61202073D01*
X141966171Y-61333640D01*
X142017506Y-61457574D01*
X142092033Y-61569112D01*
X142186888Y-61663967D01*
X142298426Y-61738494D01*
X142422360Y-61789829D01*
X142553927Y-61816000D01*
X142688073Y-61816000D01*
X142819640Y-61789829D01*
X142943574Y-61738494D01*
X143055112Y-61663967D01*
X143079652Y-61639427D01*
X165752500Y-61639427D01*
X165752500Y-61773573D01*
X165778671Y-61905140D01*
X165830006Y-62029074D01*
X165904533Y-62140612D01*
X165999388Y-62235467D01*
X166110926Y-62309994D01*
X166234860Y-62361329D01*
X166366427Y-62387500D01*
X166500573Y-62387500D01*
X166632140Y-62361329D01*
X166688637Y-62337927D01*
X170134000Y-62337927D01*
X170134000Y-62472073D01*
X170160171Y-62603640D01*
X170211506Y-62727574D01*
X170286033Y-62839112D01*
X170380888Y-62933967D01*
X170492426Y-63008494D01*
X170616360Y-63059829D01*
X170747927Y-63086000D01*
X170882073Y-63086000D01*
X171013640Y-63059829D01*
X171137574Y-63008494D01*
X171249112Y-62933967D01*
X171343967Y-62839112D01*
X171418494Y-62727574D01*
X171469829Y-62603640D01*
X171496000Y-62472073D01*
X171496000Y-62337927D01*
X171469829Y-62206360D01*
X171418494Y-62082426D01*
X171343967Y-61970888D01*
X171249112Y-61876033D01*
X171137574Y-61801506D01*
X171013640Y-61750171D01*
X170882073Y-61724000D01*
X170747927Y-61724000D01*
X170616360Y-61750171D01*
X170492426Y-61801506D01*
X170380888Y-61876033D01*
X170286033Y-61970888D01*
X170211506Y-62082426D01*
X170160171Y-62206360D01*
X170134000Y-62337927D01*
X166688637Y-62337927D01*
X166756074Y-62309994D01*
X166867612Y-62235467D01*
X166962467Y-62140612D01*
X167036994Y-62029074D01*
X167088329Y-61905140D01*
X167114500Y-61773573D01*
X167114500Y-61639427D01*
X167088329Y-61507860D01*
X167036994Y-61383926D01*
X166962467Y-61272388D01*
X166867612Y-61177533D01*
X166756074Y-61103006D01*
X166632140Y-61051671D01*
X166500573Y-61025500D01*
X166366427Y-61025500D01*
X166234860Y-61051671D01*
X166110926Y-61103006D01*
X165999388Y-61177533D01*
X165904533Y-61272388D01*
X165830006Y-61383926D01*
X165778671Y-61507860D01*
X165752500Y-61639427D01*
X143079652Y-61639427D01*
X143149967Y-61569112D01*
X143224494Y-61457574D01*
X143275829Y-61333640D01*
X143302000Y-61202073D01*
X143302000Y-61067927D01*
X143275829Y-60936360D01*
X143224494Y-60812426D01*
X143149967Y-60700888D01*
X143055112Y-60606033D01*
X142943574Y-60531506D01*
X142819640Y-60480171D01*
X142688073Y-60454000D01*
X142553927Y-60454000D01*
X142422360Y-60480171D01*
X142298426Y-60531506D01*
X142186888Y-60606033D01*
X142092033Y-60700888D01*
X142017506Y-60812426D01*
X141966171Y-60936360D01*
X141940000Y-61067927D01*
X108806000Y-61067927D01*
X108806000Y-59416927D01*
X121112000Y-59416927D01*
X121112000Y-59551073D01*
X121138171Y-59682640D01*
X121189506Y-59806574D01*
X121264033Y-59918112D01*
X121358888Y-60012967D01*
X121470426Y-60087494D01*
X121594360Y-60138829D01*
X121725927Y-60165000D01*
X121860073Y-60165000D01*
X121991640Y-60138829D01*
X122115574Y-60087494D01*
X122227112Y-60012967D01*
X122321967Y-59918112D01*
X122396494Y-59806574D01*
X122447829Y-59682640D01*
X122474000Y-59551073D01*
X122474000Y-59416927D01*
X122447829Y-59285360D01*
X122396494Y-59161426D01*
X122321967Y-59049888D01*
X122227112Y-58955033D01*
X122115574Y-58880506D01*
X121991640Y-58829171D01*
X121860073Y-58803000D01*
X121725927Y-58803000D01*
X121594360Y-58829171D01*
X121470426Y-58880506D01*
X121358888Y-58955033D01*
X121264033Y-59049888D01*
X121189506Y-59161426D01*
X121138171Y-59285360D01*
X121112000Y-59416927D01*
X108806000Y-59416927D01*
X108806000Y-57689962D01*
X109068456Y-58082754D01*
X109567246Y-58581544D01*
X110153760Y-58973441D01*
X110805461Y-59243384D01*
X111497302Y-59381000D01*
X112202698Y-59381000D01*
X112894539Y-59243384D01*
X113546240Y-58973441D01*
X114132754Y-58581544D01*
X114631544Y-58082754D01*
X114741629Y-57918000D01*
X115248928Y-57918000D01*
X115261188Y-58042482D01*
X115297498Y-58162180D01*
X115356463Y-58272494D01*
X115435815Y-58369185D01*
X115532506Y-58448537D01*
X115642820Y-58507502D01*
X115762518Y-58543812D01*
X115887000Y-58556072D01*
X116451250Y-58553000D01*
X116610000Y-58394250D01*
X116610000Y-57195000D01*
X115410750Y-57195000D01*
X115252000Y-57353750D01*
X115248928Y-57918000D01*
X114741629Y-57918000D01*
X115023441Y-57496240D01*
X115293384Y-56844539D01*
X115296852Y-56827102D01*
X115410750Y-56941000D01*
X116610000Y-56941000D01*
X116610000Y-56921000D01*
X116864000Y-56921000D01*
X116864000Y-56941000D01*
X116884000Y-56941000D01*
X116884000Y-57195000D01*
X116864000Y-57195000D01*
X116864000Y-58394250D01*
X117022750Y-58553000D01*
X117587000Y-58556072D01*
X117711482Y-58543812D01*
X117831180Y-58507502D01*
X117941494Y-58448537D01*
X118038185Y-58369185D01*
X118117537Y-58272494D01*
X118176502Y-58162180D01*
X118212812Y-58042482D01*
X118225072Y-57918000D01*
X118223927Y-57707706D01*
X118320820Y-57852717D01*
X118492283Y-58024180D01*
X118693903Y-58158898D01*
X118917931Y-58251693D01*
X119155757Y-58299000D01*
X119398243Y-58299000D01*
X119636069Y-58251693D01*
X119860097Y-58158898D01*
X120061717Y-58024180D01*
X120233180Y-57852717D01*
X120367898Y-57651097D01*
X120460693Y-57427069D01*
X120508000Y-57189243D01*
X120508000Y-56946757D01*
X120586000Y-56946757D01*
X120586000Y-57189243D01*
X120633307Y-57427069D01*
X120726102Y-57651097D01*
X120860820Y-57852717D01*
X121032283Y-58024180D01*
X121233903Y-58158898D01*
X121457931Y-58251693D01*
X121695757Y-58299000D01*
X121938243Y-58299000D01*
X122176069Y-58251693D01*
X122400097Y-58158898D01*
X122601717Y-58024180D01*
X122773180Y-57852717D01*
X122907898Y-57651097D01*
X123000693Y-57427069D01*
X123048000Y-57189243D01*
X123048000Y-56946757D01*
X123126000Y-56946757D01*
X123126000Y-57189243D01*
X123173307Y-57427069D01*
X123266102Y-57651097D01*
X123400820Y-57852717D01*
X123572283Y-58024180D01*
X123773903Y-58158898D01*
X123997931Y-58251693D01*
X124235757Y-58299000D01*
X124478243Y-58299000D01*
X124716069Y-58251693D01*
X124940097Y-58158898D01*
X125141717Y-58024180D01*
X125313180Y-57852717D01*
X125447898Y-57651097D01*
X125540693Y-57427069D01*
X125588000Y-57189243D01*
X125588000Y-56946757D01*
X125666000Y-56946757D01*
X125666000Y-57189243D01*
X125713307Y-57427069D01*
X125806102Y-57651097D01*
X125940820Y-57852717D01*
X126112283Y-58024180D01*
X126313903Y-58158898D01*
X126537931Y-58251693D01*
X126775757Y-58299000D01*
X127018243Y-58299000D01*
X127256069Y-58251693D01*
X127480097Y-58158898D01*
X127681717Y-58024180D01*
X127853180Y-57852717D01*
X127987898Y-57651097D01*
X128080693Y-57427069D01*
X128128000Y-57189243D01*
X128128000Y-56946757D01*
X128206000Y-56946757D01*
X128206000Y-57189243D01*
X128253307Y-57427069D01*
X128346102Y-57651097D01*
X128480820Y-57852717D01*
X128652283Y-58024180D01*
X128853903Y-58158898D01*
X129077931Y-58251693D01*
X129315757Y-58299000D01*
X129558243Y-58299000D01*
X129796069Y-58251693D01*
X130020097Y-58158898D01*
X130221717Y-58024180D01*
X130393180Y-57852717D01*
X130527898Y-57651097D01*
X130620693Y-57427069D01*
X130668000Y-57189243D01*
X130668000Y-56946757D01*
X130746000Y-56946757D01*
X130746000Y-57189243D01*
X130793307Y-57427069D01*
X130886102Y-57651097D01*
X131020820Y-57852717D01*
X131192283Y-58024180D01*
X131393903Y-58158898D01*
X131617931Y-58251693D01*
X131855757Y-58299000D01*
X132098243Y-58299000D01*
X132336069Y-58251693D01*
X132560097Y-58158898D01*
X132761717Y-58024180D01*
X132933180Y-57852717D01*
X133067898Y-57651097D01*
X133160693Y-57427069D01*
X133208000Y-57189243D01*
X133208000Y-56946757D01*
X133286000Y-56946757D01*
X133286000Y-57189243D01*
X133333307Y-57427069D01*
X133426102Y-57651097D01*
X133560820Y-57852717D01*
X133732283Y-58024180D01*
X133933903Y-58158898D01*
X134157931Y-58251693D01*
X134395757Y-58299000D01*
X134638243Y-58299000D01*
X134876069Y-58251693D01*
X135100097Y-58158898D01*
X135301717Y-58024180D01*
X135473180Y-57852717D01*
X135607898Y-57651097D01*
X135700693Y-57427069D01*
X135748000Y-57189243D01*
X135748000Y-56946757D01*
X135826000Y-56946757D01*
X135826000Y-57189243D01*
X135873307Y-57427069D01*
X135966102Y-57651097D01*
X136100820Y-57852717D01*
X136272283Y-58024180D01*
X136473903Y-58158898D01*
X136697931Y-58251693D01*
X136935757Y-58299000D01*
X137178243Y-58299000D01*
X137416069Y-58251693D01*
X137640097Y-58158898D01*
X137841717Y-58024180D01*
X138013180Y-57852717D01*
X138147898Y-57651097D01*
X138240693Y-57427069D01*
X138288000Y-57189243D01*
X138288000Y-56946757D01*
X138366000Y-56946757D01*
X138366000Y-57189243D01*
X138413307Y-57427069D01*
X138506102Y-57651097D01*
X138640820Y-57852717D01*
X138812283Y-58024180D01*
X139013903Y-58158898D01*
X139237931Y-58251693D01*
X139475757Y-58299000D01*
X139718243Y-58299000D01*
X139956069Y-58251693D01*
X140180097Y-58158898D01*
X140381717Y-58024180D01*
X140553180Y-57852717D01*
X140687898Y-57651097D01*
X140780693Y-57427069D01*
X140828000Y-57189243D01*
X140828000Y-56946757D01*
X140906000Y-56946757D01*
X140906000Y-57189243D01*
X140953307Y-57427069D01*
X141046102Y-57651097D01*
X141180820Y-57852717D01*
X141352283Y-58024180D01*
X141553903Y-58158898D01*
X141777931Y-58251693D01*
X142015757Y-58299000D01*
X142258243Y-58299000D01*
X142496069Y-58251693D01*
X142720097Y-58158898D01*
X142921717Y-58024180D01*
X143093180Y-57852717D01*
X143227898Y-57651097D01*
X143320693Y-57427069D01*
X143368000Y-57189243D01*
X143368000Y-56946757D01*
X143446000Y-56946757D01*
X143446000Y-57189243D01*
X143493307Y-57427069D01*
X143586102Y-57651097D01*
X143720820Y-57852717D01*
X143892283Y-58024180D01*
X144093903Y-58158898D01*
X144317931Y-58251693D01*
X144555757Y-58299000D01*
X144798243Y-58299000D01*
X145036069Y-58251693D01*
X145260097Y-58158898D01*
X145461717Y-58024180D01*
X145633180Y-57852717D01*
X145767898Y-57651097D01*
X145860693Y-57427069D01*
X145908000Y-57189243D01*
X145908000Y-56946757D01*
X145986000Y-56946757D01*
X145986000Y-57189243D01*
X146033307Y-57427069D01*
X146126102Y-57651097D01*
X146260820Y-57852717D01*
X146432283Y-58024180D01*
X146633903Y-58158898D01*
X146857931Y-58251693D01*
X147095757Y-58299000D01*
X147338243Y-58299000D01*
X147576069Y-58251693D01*
X147800097Y-58158898D01*
X148001717Y-58024180D01*
X148173180Y-57852717D01*
X148307898Y-57651097D01*
X148400693Y-57427069D01*
X148448000Y-57189243D01*
X148448000Y-56946757D01*
X148526000Y-56946757D01*
X148526000Y-57189243D01*
X148573307Y-57427069D01*
X148666102Y-57651097D01*
X148800820Y-57852717D01*
X148972283Y-58024180D01*
X149173903Y-58158898D01*
X149397931Y-58251693D01*
X149635757Y-58299000D01*
X149878243Y-58299000D01*
X150116069Y-58251693D01*
X150340097Y-58158898D01*
X150541717Y-58024180D01*
X150713180Y-57852717D01*
X150847898Y-57651097D01*
X150940693Y-57427069D01*
X150988000Y-57189243D01*
X150988000Y-56946757D01*
X151066000Y-56946757D01*
X151066000Y-57189243D01*
X151113307Y-57427069D01*
X151206102Y-57651097D01*
X151340820Y-57852717D01*
X151512283Y-58024180D01*
X151713903Y-58158898D01*
X151937931Y-58251693D01*
X152175757Y-58299000D01*
X152418243Y-58299000D01*
X152656069Y-58251693D01*
X152880097Y-58158898D01*
X153081717Y-58024180D01*
X153253180Y-57852717D01*
X153387898Y-57651097D01*
X153480693Y-57427069D01*
X153528000Y-57189243D01*
X153528000Y-56946757D01*
X153606000Y-56946757D01*
X153606000Y-57189243D01*
X153653307Y-57427069D01*
X153746102Y-57651097D01*
X153880820Y-57852717D01*
X154052283Y-58024180D01*
X154253903Y-58158898D01*
X154477931Y-58251693D01*
X154715757Y-58299000D01*
X154958243Y-58299000D01*
X155196069Y-58251693D01*
X155420097Y-58158898D01*
X155621717Y-58024180D01*
X155793180Y-57852717D01*
X155927898Y-57651097D01*
X156020693Y-57427069D01*
X156068000Y-57189243D01*
X156068000Y-56946757D01*
X156146000Y-56946757D01*
X156146000Y-57189243D01*
X156193307Y-57427069D01*
X156286102Y-57651097D01*
X156420820Y-57852717D01*
X156592283Y-58024180D01*
X156793903Y-58158898D01*
X157017931Y-58251693D01*
X157255757Y-58299000D01*
X157498243Y-58299000D01*
X157736069Y-58251693D01*
X157960097Y-58158898D01*
X158161717Y-58024180D01*
X158333180Y-57852717D01*
X158467898Y-57651097D01*
X158560693Y-57427069D01*
X158608000Y-57189243D01*
X158608000Y-56946757D01*
X158686000Y-56946757D01*
X158686000Y-57189243D01*
X158733307Y-57427069D01*
X158826102Y-57651097D01*
X158960820Y-57852717D01*
X159132283Y-58024180D01*
X159333903Y-58158898D01*
X159557931Y-58251693D01*
X159795757Y-58299000D01*
X160038243Y-58299000D01*
X160276069Y-58251693D01*
X160500097Y-58158898D01*
X160701717Y-58024180D01*
X160873180Y-57852717D01*
X161007898Y-57651097D01*
X161100693Y-57427069D01*
X161148000Y-57189243D01*
X161148000Y-56946757D01*
X161226000Y-56946757D01*
X161226000Y-57189243D01*
X161273307Y-57427069D01*
X161366102Y-57651097D01*
X161500820Y-57852717D01*
X161672283Y-58024180D01*
X161873903Y-58158898D01*
X162097931Y-58251693D01*
X162335757Y-58299000D01*
X162578243Y-58299000D01*
X162816069Y-58251693D01*
X163040097Y-58158898D01*
X163241717Y-58024180D01*
X163413180Y-57852717D01*
X163547898Y-57651097D01*
X163640693Y-57427069D01*
X163688000Y-57189243D01*
X163688000Y-56946757D01*
X163766000Y-56946757D01*
X163766000Y-57189243D01*
X163813307Y-57427069D01*
X163906102Y-57651097D01*
X164040820Y-57852717D01*
X164212283Y-58024180D01*
X164413903Y-58158898D01*
X164637931Y-58251693D01*
X164875757Y-58299000D01*
X165118243Y-58299000D01*
X165356069Y-58251693D01*
X165580097Y-58158898D01*
X165781717Y-58024180D01*
X165953180Y-57852717D01*
X166087898Y-57651097D01*
X166180693Y-57427069D01*
X166228000Y-57189243D01*
X166228000Y-56946757D01*
X166180693Y-56708931D01*
X166087898Y-56484903D01*
X165953180Y-56283283D01*
X165781717Y-56111820D01*
X165580097Y-55977102D01*
X165356069Y-55884307D01*
X165118243Y-55837000D01*
X164875757Y-55837000D01*
X164637931Y-55884307D01*
X164413903Y-55977102D01*
X164212283Y-56111820D01*
X164040820Y-56283283D01*
X163906102Y-56484903D01*
X163813307Y-56708931D01*
X163766000Y-56946757D01*
X163688000Y-56946757D01*
X163640693Y-56708931D01*
X163547898Y-56484903D01*
X163413180Y-56283283D01*
X163241717Y-56111820D01*
X163040097Y-55977102D01*
X162816069Y-55884307D01*
X162578243Y-55837000D01*
X162335757Y-55837000D01*
X162097931Y-55884307D01*
X161873903Y-55977102D01*
X161672283Y-56111820D01*
X161500820Y-56283283D01*
X161366102Y-56484903D01*
X161273307Y-56708931D01*
X161226000Y-56946757D01*
X161148000Y-56946757D01*
X161100693Y-56708931D01*
X161007898Y-56484903D01*
X160873180Y-56283283D01*
X160701717Y-56111820D01*
X160500097Y-55977102D01*
X160276069Y-55884307D01*
X160038243Y-55837000D01*
X159795757Y-55837000D01*
X159557931Y-55884307D01*
X159333903Y-55977102D01*
X159132283Y-56111820D01*
X158960820Y-56283283D01*
X158826102Y-56484903D01*
X158733307Y-56708931D01*
X158686000Y-56946757D01*
X158608000Y-56946757D01*
X158560693Y-56708931D01*
X158467898Y-56484903D01*
X158333180Y-56283283D01*
X158161717Y-56111820D01*
X157960097Y-55977102D01*
X157736069Y-55884307D01*
X157498243Y-55837000D01*
X157255757Y-55837000D01*
X157017931Y-55884307D01*
X156793903Y-55977102D01*
X156592283Y-56111820D01*
X156420820Y-56283283D01*
X156286102Y-56484903D01*
X156193307Y-56708931D01*
X156146000Y-56946757D01*
X156068000Y-56946757D01*
X156020693Y-56708931D01*
X155927898Y-56484903D01*
X155793180Y-56283283D01*
X155621717Y-56111820D01*
X155420097Y-55977102D01*
X155196069Y-55884307D01*
X154958243Y-55837000D01*
X154715757Y-55837000D01*
X154477931Y-55884307D01*
X154253903Y-55977102D01*
X154052283Y-56111820D01*
X153880820Y-56283283D01*
X153746102Y-56484903D01*
X153653307Y-56708931D01*
X153606000Y-56946757D01*
X153528000Y-56946757D01*
X153480693Y-56708931D01*
X153387898Y-56484903D01*
X153253180Y-56283283D01*
X153081717Y-56111820D01*
X152880097Y-55977102D01*
X152656069Y-55884307D01*
X152418243Y-55837000D01*
X152175757Y-55837000D01*
X151937931Y-55884307D01*
X151713903Y-55977102D01*
X151512283Y-56111820D01*
X151340820Y-56283283D01*
X151206102Y-56484903D01*
X151113307Y-56708931D01*
X151066000Y-56946757D01*
X150988000Y-56946757D01*
X150940693Y-56708931D01*
X150847898Y-56484903D01*
X150713180Y-56283283D01*
X150541717Y-56111820D01*
X150340097Y-55977102D01*
X150116069Y-55884307D01*
X149878243Y-55837000D01*
X149635757Y-55837000D01*
X149397931Y-55884307D01*
X149173903Y-55977102D01*
X148972283Y-56111820D01*
X148800820Y-56283283D01*
X148666102Y-56484903D01*
X148573307Y-56708931D01*
X148526000Y-56946757D01*
X148448000Y-56946757D01*
X148400693Y-56708931D01*
X148307898Y-56484903D01*
X148173180Y-56283283D01*
X148001717Y-56111820D01*
X147800097Y-55977102D01*
X147576069Y-55884307D01*
X147338243Y-55837000D01*
X147095757Y-55837000D01*
X146857931Y-55884307D01*
X146633903Y-55977102D01*
X146432283Y-56111820D01*
X146260820Y-56283283D01*
X146126102Y-56484903D01*
X146033307Y-56708931D01*
X145986000Y-56946757D01*
X145908000Y-56946757D01*
X145860693Y-56708931D01*
X145767898Y-56484903D01*
X145633180Y-56283283D01*
X145461717Y-56111820D01*
X145260097Y-55977102D01*
X145036069Y-55884307D01*
X144798243Y-55837000D01*
X144555757Y-55837000D01*
X144317931Y-55884307D01*
X144093903Y-55977102D01*
X143892283Y-56111820D01*
X143720820Y-56283283D01*
X143586102Y-56484903D01*
X143493307Y-56708931D01*
X143446000Y-56946757D01*
X143368000Y-56946757D01*
X143320693Y-56708931D01*
X143227898Y-56484903D01*
X143093180Y-56283283D01*
X142921717Y-56111820D01*
X142720097Y-55977102D01*
X142496069Y-55884307D01*
X142258243Y-55837000D01*
X142015757Y-55837000D01*
X141777931Y-55884307D01*
X141553903Y-55977102D01*
X141352283Y-56111820D01*
X141180820Y-56283283D01*
X141046102Y-56484903D01*
X140953307Y-56708931D01*
X140906000Y-56946757D01*
X140828000Y-56946757D01*
X140780693Y-56708931D01*
X140687898Y-56484903D01*
X140553180Y-56283283D01*
X140381717Y-56111820D01*
X140180097Y-55977102D01*
X139956069Y-55884307D01*
X139718243Y-55837000D01*
X139475757Y-55837000D01*
X139237931Y-55884307D01*
X139013903Y-55977102D01*
X138812283Y-56111820D01*
X138640820Y-56283283D01*
X138506102Y-56484903D01*
X138413307Y-56708931D01*
X138366000Y-56946757D01*
X138288000Y-56946757D01*
X138240693Y-56708931D01*
X138147898Y-56484903D01*
X138013180Y-56283283D01*
X137841717Y-56111820D01*
X137640097Y-55977102D01*
X137416069Y-55884307D01*
X137178243Y-55837000D01*
X136935757Y-55837000D01*
X136697931Y-55884307D01*
X136473903Y-55977102D01*
X136272283Y-56111820D01*
X136100820Y-56283283D01*
X135966102Y-56484903D01*
X135873307Y-56708931D01*
X135826000Y-56946757D01*
X135748000Y-56946757D01*
X135700693Y-56708931D01*
X135607898Y-56484903D01*
X135473180Y-56283283D01*
X135301717Y-56111820D01*
X135100097Y-55977102D01*
X134876069Y-55884307D01*
X134638243Y-55837000D01*
X134395757Y-55837000D01*
X134157931Y-55884307D01*
X133933903Y-55977102D01*
X133732283Y-56111820D01*
X133560820Y-56283283D01*
X133426102Y-56484903D01*
X133333307Y-56708931D01*
X133286000Y-56946757D01*
X133208000Y-56946757D01*
X133160693Y-56708931D01*
X133067898Y-56484903D01*
X132933180Y-56283283D01*
X132761717Y-56111820D01*
X132560097Y-55977102D01*
X132336069Y-55884307D01*
X132098243Y-55837000D01*
X131855757Y-55837000D01*
X131617931Y-55884307D01*
X131393903Y-55977102D01*
X131192283Y-56111820D01*
X131020820Y-56283283D01*
X130886102Y-56484903D01*
X130793307Y-56708931D01*
X130746000Y-56946757D01*
X130668000Y-56946757D01*
X130620693Y-56708931D01*
X130527898Y-56484903D01*
X130393180Y-56283283D01*
X130221717Y-56111820D01*
X130020097Y-55977102D01*
X129796069Y-55884307D01*
X129558243Y-55837000D01*
X129315757Y-55837000D01*
X129077931Y-55884307D01*
X128853903Y-55977102D01*
X128652283Y-56111820D01*
X128480820Y-56283283D01*
X128346102Y-56484903D01*
X128253307Y-56708931D01*
X128206000Y-56946757D01*
X128128000Y-56946757D01*
X128080693Y-56708931D01*
X127987898Y-56484903D01*
X127853180Y-56283283D01*
X127681717Y-56111820D01*
X127480097Y-55977102D01*
X127256069Y-55884307D01*
X127018243Y-55837000D01*
X126775757Y-55837000D01*
X126537931Y-55884307D01*
X126313903Y-55977102D01*
X126112283Y-56111820D01*
X125940820Y-56283283D01*
X125806102Y-56484903D01*
X125713307Y-56708931D01*
X125666000Y-56946757D01*
X125588000Y-56946757D01*
X125540693Y-56708931D01*
X125447898Y-56484903D01*
X125313180Y-56283283D01*
X125141717Y-56111820D01*
X124940097Y-55977102D01*
X124716069Y-55884307D01*
X124478243Y-55837000D01*
X124235757Y-55837000D01*
X123997931Y-55884307D01*
X123773903Y-55977102D01*
X123572283Y-56111820D01*
X123400820Y-56283283D01*
X123266102Y-56484903D01*
X123173307Y-56708931D01*
X123126000Y-56946757D01*
X123048000Y-56946757D01*
X123000693Y-56708931D01*
X122907898Y-56484903D01*
X122773180Y-56283283D01*
X122601717Y-56111820D01*
X122400097Y-55977102D01*
X122176069Y-55884307D01*
X121938243Y-55837000D01*
X121695757Y-55837000D01*
X121457931Y-55884307D01*
X121233903Y-55977102D01*
X121032283Y-56111820D01*
X120860820Y-56283283D01*
X120726102Y-56484903D01*
X120633307Y-56708931D01*
X120586000Y-56946757D01*
X120508000Y-56946757D01*
X120460693Y-56708931D01*
X120367898Y-56484903D01*
X120233180Y-56283283D01*
X120061717Y-56111820D01*
X119860097Y-55977102D01*
X119636069Y-55884307D01*
X119398243Y-55837000D01*
X119155757Y-55837000D01*
X118917931Y-55884307D01*
X118693903Y-55977102D01*
X118492283Y-56111820D01*
X118320820Y-56283283D01*
X118223927Y-56428294D01*
X118225072Y-56218000D01*
X118212812Y-56093518D01*
X118176502Y-55973820D01*
X118117537Y-55863506D01*
X118038185Y-55766815D01*
X117941494Y-55687463D01*
X117831180Y-55628498D01*
X117711482Y-55592188D01*
X117587000Y-55579928D01*
X117376706Y-55581073D01*
X117521717Y-55484180D01*
X117693180Y-55312717D01*
X117827898Y-55111097D01*
X117920693Y-54887069D01*
X117968000Y-54649243D01*
X117968000Y-54406757D01*
X118046000Y-54406757D01*
X118046000Y-54649243D01*
X118093307Y-54887069D01*
X118186102Y-55111097D01*
X118320820Y-55312717D01*
X118492283Y-55484180D01*
X118693903Y-55618898D01*
X118917931Y-55711693D01*
X119155757Y-55759000D01*
X119398243Y-55759000D01*
X119636069Y-55711693D01*
X119860097Y-55618898D01*
X120061717Y-55484180D01*
X120233180Y-55312717D01*
X120367898Y-55111097D01*
X120460693Y-54887069D01*
X120508000Y-54649243D01*
X120508000Y-54406757D01*
X120586000Y-54406757D01*
X120586000Y-54649243D01*
X120633307Y-54887069D01*
X120726102Y-55111097D01*
X120860820Y-55312717D01*
X121032283Y-55484180D01*
X121233903Y-55618898D01*
X121457931Y-55711693D01*
X121695757Y-55759000D01*
X121938243Y-55759000D01*
X122176069Y-55711693D01*
X122400097Y-55618898D01*
X122601717Y-55484180D01*
X122773180Y-55312717D01*
X122907898Y-55111097D01*
X123000693Y-54887069D01*
X123048000Y-54649243D01*
X123048000Y-54406757D01*
X123126000Y-54406757D01*
X123126000Y-54649243D01*
X123173307Y-54887069D01*
X123266102Y-55111097D01*
X123400820Y-55312717D01*
X123572283Y-55484180D01*
X123773903Y-55618898D01*
X123997931Y-55711693D01*
X124235757Y-55759000D01*
X124478243Y-55759000D01*
X124716069Y-55711693D01*
X124940097Y-55618898D01*
X125141717Y-55484180D01*
X125313180Y-55312717D01*
X125447898Y-55111097D01*
X125540693Y-54887069D01*
X125588000Y-54649243D01*
X125588000Y-54406757D01*
X125666000Y-54406757D01*
X125666000Y-54649243D01*
X125713307Y-54887069D01*
X125806102Y-55111097D01*
X125940820Y-55312717D01*
X126112283Y-55484180D01*
X126313903Y-55618898D01*
X126537931Y-55711693D01*
X126775757Y-55759000D01*
X127018243Y-55759000D01*
X127256069Y-55711693D01*
X127480097Y-55618898D01*
X127681717Y-55484180D01*
X127853180Y-55312717D01*
X127987898Y-55111097D01*
X128080693Y-54887069D01*
X128128000Y-54649243D01*
X128128000Y-54406757D01*
X128206000Y-54406757D01*
X128206000Y-54649243D01*
X128253307Y-54887069D01*
X128346102Y-55111097D01*
X128480820Y-55312717D01*
X128652283Y-55484180D01*
X128853903Y-55618898D01*
X129077931Y-55711693D01*
X129315757Y-55759000D01*
X129558243Y-55759000D01*
X129796069Y-55711693D01*
X130020097Y-55618898D01*
X130221717Y-55484180D01*
X130393180Y-55312717D01*
X130527898Y-55111097D01*
X130620693Y-54887069D01*
X130668000Y-54649243D01*
X130668000Y-54406757D01*
X130746000Y-54406757D01*
X130746000Y-54649243D01*
X130793307Y-54887069D01*
X130886102Y-55111097D01*
X131020820Y-55312717D01*
X131192283Y-55484180D01*
X131393903Y-55618898D01*
X131617931Y-55711693D01*
X131855757Y-55759000D01*
X132098243Y-55759000D01*
X132336069Y-55711693D01*
X132560097Y-55618898D01*
X132761717Y-55484180D01*
X132933180Y-55312717D01*
X133067898Y-55111097D01*
X133160693Y-54887069D01*
X133208000Y-54649243D01*
X133208000Y-54406757D01*
X133286000Y-54406757D01*
X133286000Y-54649243D01*
X133333307Y-54887069D01*
X133426102Y-55111097D01*
X133560820Y-55312717D01*
X133732283Y-55484180D01*
X133933903Y-55618898D01*
X134157931Y-55711693D01*
X134395757Y-55759000D01*
X134638243Y-55759000D01*
X134876069Y-55711693D01*
X135100097Y-55618898D01*
X135301717Y-55484180D01*
X135473180Y-55312717D01*
X135607898Y-55111097D01*
X135700693Y-54887069D01*
X135748000Y-54649243D01*
X135748000Y-54406757D01*
X135826000Y-54406757D01*
X135826000Y-54649243D01*
X135873307Y-54887069D01*
X135966102Y-55111097D01*
X136100820Y-55312717D01*
X136272283Y-55484180D01*
X136473903Y-55618898D01*
X136697931Y-55711693D01*
X136935757Y-55759000D01*
X137178243Y-55759000D01*
X137416069Y-55711693D01*
X137640097Y-55618898D01*
X137841717Y-55484180D01*
X138013180Y-55312717D01*
X138147898Y-55111097D01*
X138240693Y-54887069D01*
X138288000Y-54649243D01*
X138288000Y-54406757D01*
X138366000Y-54406757D01*
X138366000Y-54649243D01*
X138413307Y-54887069D01*
X138506102Y-55111097D01*
X138640820Y-55312717D01*
X138812283Y-55484180D01*
X139013903Y-55618898D01*
X139237931Y-55711693D01*
X139475757Y-55759000D01*
X139718243Y-55759000D01*
X139956069Y-55711693D01*
X140180097Y-55618898D01*
X140381717Y-55484180D01*
X140553180Y-55312717D01*
X140687898Y-55111097D01*
X140780693Y-54887069D01*
X140828000Y-54649243D01*
X140828000Y-54406757D01*
X140906000Y-54406757D01*
X140906000Y-54649243D01*
X140953307Y-54887069D01*
X141046102Y-55111097D01*
X141180820Y-55312717D01*
X141352283Y-55484180D01*
X141553903Y-55618898D01*
X141777931Y-55711693D01*
X142015757Y-55759000D01*
X142258243Y-55759000D01*
X142496069Y-55711693D01*
X142720097Y-55618898D01*
X142921717Y-55484180D01*
X143093180Y-55312717D01*
X143227898Y-55111097D01*
X143320693Y-54887069D01*
X143368000Y-54649243D01*
X143368000Y-54406757D01*
X143446000Y-54406757D01*
X143446000Y-54649243D01*
X143493307Y-54887069D01*
X143586102Y-55111097D01*
X143720820Y-55312717D01*
X143892283Y-55484180D01*
X144093903Y-55618898D01*
X144317931Y-55711693D01*
X144555757Y-55759000D01*
X144798243Y-55759000D01*
X145036069Y-55711693D01*
X145260097Y-55618898D01*
X145461717Y-55484180D01*
X145633180Y-55312717D01*
X145767898Y-55111097D01*
X145860693Y-54887069D01*
X145908000Y-54649243D01*
X145908000Y-54406757D01*
X145986000Y-54406757D01*
X145986000Y-54649243D01*
X146033307Y-54887069D01*
X146126102Y-55111097D01*
X146260820Y-55312717D01*
X146432283Y-55484180D01*
X146633903Y-55618898D01*
X146857931Y-55711693D01*
X147095757Y-55759000D01*
X147338243Y-55759000D01*
X147576069Y-55711693D01*
X147800097Y-55618898D01*
X148001717Y-55484180D01*
X148173180Y-55312717D01*
X148307898Y-55111097D01*
X148400693Y-54887069D01*
X148448000Y-54649243D01*
X148448000Y-54406757D01*
X148526000Y-54406757D01*
X148526000Y-54649243D01*
X148573307Y-54887069D01*
X148666102Y-55111097D01*
X148800820Y-55312717D01*
X148972283Y-55484180D01*
X149173903Y-55618898D01*
X149397931Y-55711693D01*
X149635757Y-55759000D01*
X149878243Y-55759000D01*
X150116069Y-55711693D01*
X150340097Y-55618898D01*
X150541717Y-55484180D01*
X150713180Y-55312717D01*
X150847898Y-55111097D01*
X150940693Y-54887069D01*
X150988000Y-54649243D01*
X150988000Y-54406757D01*
X151066000Y-54406757D01*
X151066000Y-54649243D01*
X151113307Y-54887069D01*
X151206102Y-55111097D01*
X151340820Y-55312717D01*
X151512283Y-55484180D01*
X151713903Y-55618898D01*
X151937931Y-55711693D01*
X152175757Y-55759000D01*
X152418243Y-55759000D01*
X152656069Y-55711693D01*
X152880097Y-55618898D01*
X153081717Y-55484180D01*
X153253180Y-55312717D01*
X153387898Y-55111097D01*
X153480693Y-54887069D01*
X153528000Y-54649243D01*
X153528000Y-54406757D01*
X153606000Y-54406757D01*
X153606000Y-54649243D01*
X153653307Y-54887069D01*
X153746102Y-55111097D01*
X153880820Y-55312717D01*
X154052283Y-55484180D01*
X154253903Y-55618898D01*
X154477931Y-55711693D01*
X154715757Y-55759000D01*
X154958243Y-55759000D01*
X155196069Y-55711693D01*
X155420097Y-55618898D01*
X155621717Y-55484180D01*
X155793180Y-55312717D01*
X155927898Y-55111097D01*
X156020693Y-54887069D01*
X156068000Y-54649243D01*
X156068000Y-54406757D01*
X156146000Y-54406757D01*
X156146000Y-54649243D01*
X156193307Y-54887069D01*
X156286102Y-55111097D01*
X156420820Y-55312717D01*
X156592283Y-55484180D01*
X156793903Y-55618898D01*
X157017931Y-55711693D01*
X157255757Y-55759000D01*
X157498243Y-55759000D01*
X157736069Y-55711693D01*
X157960097Y-55618898D01*
X158161717Y-55484180D01*
X158333180Y-55312717D01*
X158467898Y-55111097D01*
X158560693Y-54887069D01*
X158608000Y-54649243D01*
X158608000Y-54406757D01*
X158686000Y-54406757D01*
X158686000Y-54649243D01*
X158733307Y-54887069D01*
X158826102Y-55111097D01*
X158960820Y-55312717D01*
X159132283Y-55484180D01*
X159333903Y-55618898D01*
X159557931Y-55711693D01*
X159795757Y-55759000D01*
X160038243Y-55759000D01*
X160276069Y-55711693D01*
X160500097Y-55618898D01*
X160701717Y-55484180D01*
X160873180Y-55312717D01*
X161007898Y-55111097D01*
X161100693Y-54887069D01*
X161148000Y-54649243D01*
X161148000Y-54406757D01*
X161226000Y-54406757D01*
X161226000Y-54649243D01*
X161273307Y-54887069D01*
X161366102Y-55111097D01*
X161500820Y-55312717D01*
X161672283Y-55484180D01*
X161873903Y-55618898D01*
X162097931Y-55711693D01*
X162335757Y-55759000D01*
X162578243Y-55759000D01*
X162816069Y-55711693D01*
X163040097Y-55618898D01*
X163241717Y-55484180D01*
X163413180Y-55312717D01*
X163547898Y-55111097D01*
X163640693Y-54887069D01*
X163688000Y-54649243D01*
X163688000Y-54406757D01*
X163766000Y-54406757D01*
X163766000Y-54649243D01*
X163813307Y-54887069D01*
X163906102Y-55111097D01*
X164040820Y-55312717D01*
X164212283Y-55484180D01*
X164413903Y-55618898D01*
X164637931Y-55711693D01*
X164875757Y-55759000D01*
X165118243Y-55759000D01*
X165356069Y-55711693D01*
X165580097Y-55618898D01*
X165781717Y-55484180D01*
X165953180Y-55312717D01*
X166087898Y-55111097D01*
X166180693Y-54887069D01*
X166228000Y-54649243D01*
X166228000Y-54406757D01*
X166180693Y-54168931D01*
X166087898Y-53944903D01*
X165953180Y-53743283D01*
X165781717Y-53571820D01*
X165580097Y-53437102D01*
X165356069Y-53344307D01*
X165118243Y-53297000D01*
X164875757Y-53297000D01*
X164637931Y-53344307D01*
X164413903Y-53437102D01*
X164212283Y-53571820D01*
X164040820Y-53743283D01*
X163906102Y-53944903D01*
X163813307Y-54168931D01*
X163766000Y-54406757D01*
X163688000Y-54406757D01*
X163640693Y-54168931D01*
X163547898Y-53944903D01*
X163413180Y-53743283D01*
X163241717Y-53571820D01*
X163040097Y-53437102D01*
X162816069Y-53344307D01*
X162578243Y-53297000D01*
X162335757Y-53297000D01*
X162097931Y-53344307D01*
X161873903Y-53437102D01*
X161672283Y-53571820D01*
X161500820Y-53743283D01*
X161366102Y-53944903D01*
X161273307Y-54168931D01*
X161226000Y-54406757D01*
X161148000Y-54406757D01*
X161100693Y-54168931D01*
X161007898Y-53944903D01*
X160873180Y-53743283D01*
X160701717Y-53571820D01*
X160500097Y-53437102D01*
X160276069Y-53344307D01*
X160038243Y-53297000D01*
X159795757Y-53297000D01*
X159557931Y-53344307D01*
X159333903Y-53437102D01*
X159132283Y-53571820D01*
X158960820Y-53743283D01*
X158826102Y-53944903D01*
X158733307Y-54168931D01*
X158686000Y-54406757D01*
X158608000Y-54406757D01*
X158560693Y-54168931D01*
X158467898Y-53944903D01*
X158333180Y-53743283D01*
X158161717Y-53571820D01*
X157960097Y-53437102D01*
X157736069Y-53344307D01*
X157498243Y-53297000D01*
X157255757Y-53297000D01*
X157017931Y-53344307D01*
X156793903Y-53437102D01*
X156592283Y-53571820D01*
X156420820Y-53743283D01*
X156286102Y-53944903D01*
X156193307Y-54168931D01*
X156146000Y-54406757D01*
X156068000Y-54406757D01*
X156020693Y-54168931D01*
X155927898Y-53944903D01*
X155793180Y-53743283D01*
X155621717Y-53571820D01*
X155420097Y-53437102D01*
X155196069Y-53344307D01*
X154958243Y-53297000D01*
X154715757Y-53297000D01*
X154477931Y-53344307D01*
X154253903Y-53437102D01*
X154052283Y-53571820D01*
X153880820Y-53743283D01*
X153746102Y-53944903D01*
X153653307Y-54168931D01*
X153606000Y-54406757D01*
X153528000Y-54406757D01*
X153480693Y-54168931D01*
X153387898Y-53944903D01*
X153253180Y-53743283D01*
X153081717Y-53571820D01*
X152880097Y-53437102D01*
X152656069Y-53344307D01*
X152418243Y-53297000D01*
X152175757Y-53297000D01*
X151937931Y-53344307D01*
X151713903Y-53437102D01*
X151512283Y-53571820D01*
X151340820Y-53743283D01*
X151206102Y-53944903D01*
X151113307Y-54168931D01*
X151066000Y-54406757D01*
X150988000Y-54406757D01*
X150940693Y-54168931D01*
X150847898Y-53944903D01*
X150713180Y-53743283D01*
X150541717Y-53571820D01*
X150340097Y-53437102D01*
X150116069Y-53344307D01*
X149878243Y-53297000D01*
X149635757Y-53297000D01*
X149397931Y-53344307D01*
X149173903Y-53437102D01*
X148972283Y-53571820D01*
X148800820Y-53743283D01*
X148666102Y-53944903D01*
X148573307Y-54168931D01*
X148526000Y-54406757D01*
X148448000Y-54406757D01*
X148400693Y-54168931D01*
X148307898Y-53944903D01*
X148173180Y-53743283D01*
X148001717Y-53571820D01*
X147800097Y-53437102D01*
X147576069Y-53344307D01*
X147338243Y-53297000D01*
X147095757Y-53297000D01*
X146857931Y-53344307D01*
X146633903Y-53437102D01*
X146432283Y-53571820D01*
X146260820Y-53743283D01*
X146126102Y-53944903D01*
X146033307Y-54168931D01*
X145986000Y-54406757D01*
X145908000Y-54406757D01*
X145860693Y-54168931D01*
X145767898Y-53944903D01*
X145633180Y-53743283D01*
X145461717Y-53571820D01*
X145260097Y-53437102D01*
X145036069Y-53344307D01*
X144798243Y-53297000D01*
X144555757Y-53297000D01*
X144317931Y-53344307D01*
X144093903Y-53437102D01*
X143892283Y-53571820D01*
X143720820Y-53743283D01*
X143586102Y-53944903D01*
X143493307Y-54168931D01*
X143446000Y-54406757D01*
X143368000Y-54406757D01*
X143320693Y-54168931D01*
X143227898Y-53944903D01*
X143093180Y-53743283D01*
X142921717Y-53571820D01*
X142720097Y-53437102D01*
X142496069Y-53344307D01*
X142258243Y-53297000D01*
X142015757Y-53297000D01*
X141777931Y-53344307D01*
X141553903Y-53437102D01*
X141352283Y-53571820D01*
X141180820Y-53743283D01*
X141046102Y-53944903D01*
X140953307Y-54168931D01*
X140906000Y-54406757D01*
X140828000Y-54406757D01*
X140780693Y-54168931D01*
X140687898Y-53944903D01*
X140553180Y-53743283D01*
X140381717Y-53571820D01*
X140180097Y-53437102D01*
X139956069Y-53344307D01*
X139718243Y-53297000D01*
X139475757Y-53297000D01*
X139237931Y-53344307D01*
X139013903Y-53437102D01*
X138812283Y-53571820D01*
X138640820Y-53743283D01*
X138506102Y-53944903D01*
X138413307Y-54168931D01*
X138366000Y-54406757D01*
X138288000Y-54406757D01*
X138240693Y-54168931D01*
X138147898Y-53944903D01*
X138013180Y-53743283D01*
X137841717Y-53571820D01*
X137640097Y-53437102D01*
X137416069Y-53344307D01*
X137178243Y-53297000D01*
X136935757Y-53297000D01*
X136697931Y-53344307D01*
X136473903Y-53437102D01*
X136272283Y-53571820D01*
X136100820Y-53743283D01*
X135966102Y-53944903D01*
X135873307Y-54168931D01*
X135826000Y-54406757D01*
X135748000Y-54406757D01*
X135700693Y-54168931D01*
X135607898Y-53944903D01*
X135473180Y-53743283D01*
X135301717Y-53571820D01*
X135100097Y-53437102D01*
X134876069Y-53344307D01*
X134638243Y-53297000D01*
X134395757Y-53297000D01*
X134157931Y-53344307D01*
X133933903Y-53437102D01*
X133732283Y-53571820D01*
X133560820Y-53743283D01*
X133426102Y-53944903D01*
X133333307Y-54168931D01*
X133286000Y-54406757D01*
X133208000Y-54406757D01*
X133160693Y-54168931D01*
X133067898Y-53944903D01*
X132933180Y-53743283D01*
X132761717Y-53571820D01*
X132560097Y-53437102D01*
X132336069Y-53344307D01*
X132098243Y-53297000D01*
X131855757Y-53297000D01*
X131617931Y-53344307D01*
X131393903Y-53437102D01*
X131192283Y-53571820D01*
X131020820Y-53743283D01*
X130886102Y-53944903D01*
X130793307Y-54168931D01*
X130746000Y-54406757D01*
X130668000Y-54406757D01*
X130620693Y-54168931D01*
X130527898Y-53944903D01*
X130393180Y-53743283D01*
X130221717Y-53571820D01*
X130020097Y-53437102D01*
X129796069Y-53344307D01*
X129558243Y-53297000D01*
X129315757Y-53297000D01*
X129077931Y-53344307D01*
X128853903Y-53437102D01*
X128652283Y-53571820D01*
X128480820Y-53743283D01*
X128346102Y-53944903D01*
X128253307Y-54168931D01*
X128206000Y-54406757D01*
X128128000Y-54406757D01*
X128080693Y-54168931D01*
X127987898Y-53944903D01*
X127853180Y-53743283D01*
X127681717Y-53571820D01*
X127480097Y-53437102D01*
X127256069Y-53344307D01*
X127018243Y-53297000D01*
X126775757Y-53297000D01*
X126537931Y-53344307D01*
X126313903Y-53437102D01*
X126112283Y-53571820D01*
X125940820Y-53743283D01*
X125806102Y-53944903D01*
X125713307Y-54168931D01*
X125666000Y-54406757D01*
X125588000Y-54406757D01*
X125540693Y-54168931D01*
X125447898Y-53944903D01*
X125313180Y-53743283D01*
X125141717Y-53571820D01*
X124940097Y-53437102D01*
X124716069Y-53344307D01*
X124478243Y-53297000D01*
X124235757Y-53297000D01*
X123997931Y-53344307D01*
X123773903Y-53437102D01*
X123572283Y-53571820D01*
X123400820Y-53743283D01*
X123266102Y-53944903D01*
X123173307Y-54168931D01*
X123126000Y-54406757D01*
X123048000Y-54406757D01*
X123000693Y-54168931D01*
X122907898Y-53944903D01*
X122773180Y-53743283D01*
X122601717Y-53571820D01*
X122400097Y-53437102D01*
X122176069Y-53344307D01*
X121938243Y-53297000D01*
X121695757Y-53297000D01*
X121457931Y-53344307D01*
X121233903Y-53437102D01*
X121032283Y-53571820D01*
X120860820Y-53743283D01*
X120726102Y-53944903D01*
X120633307Y-54168931D01*
X120586000Y-54406757D01*
X120508000Y-54406757D01*
X120460693Y-54168931D01*
X120367898Y-53944903D01*
X120233180Y-53743283D01*
X120061717Y-53571820D01*
X119860097Y-53437102D01*
X119636069Y-53344307D01*
X119398243Y-53297000D01*
X119155757Y-53297000D01*
X118917931Y-53344307D01*
X118693903Y-53437102D01*
X118492283Y-53571820D01*
X118320820Y-53743283D01*
X118186102Y-53944903D01*
X118093307Y-54168931D01*
X118046000Y-54406757D01*
X117968000Y-54406757D01*
X117920693Y-54168931D01*
X117827898Y-53944903D01*
X117693180Y-53743283D01*
X117521717Y-53571820D01*
X117320097Y-53437102D01*
X117096069Y-53344307D01*
X116858243Y-53297000D01*
X116615757Y-53297000D01*
X116377931Y-53344307D01*
X116153903Y-53437102D01*
X115952283Y-53571820D01*
X115780820Y-53743283D01*
X115646102Y-53944903D01*
X115553307Y-54168931D01*
X115506000Y-54406757D01*
X115506000Y-54649243D01*
X115553307Y-54887069D01*
X115646102Y-55111097D01*
X115780820Y-55312717D01*
X115952283Y-55484180D01*
X116097294Y-55581073D01*
X115887000Y-55579928D01*
X115762518Y-55592188D01*
X115642820Y-55628498D01*
X115532506Y-55687463D01*
X115435815Y-55766815D01*
X115431000Y-55772682D01*
X115431000Y-55447302D01*
X115293384Y-54755461D01*
X115023441Y-54103760D01*
X114631544Y-53517246D01*
X114132754Y-53018456D01*
X113739962Y-52756000D01*
X167960038Y-52756000D01*
X167567246Y-53018456D01*
G04 #@! TA.AperFunction,Conductor*
D19*
G36*
X167567246Y-53018456D02*
G01*
X167068456Y-53517246D01*
X166676559Y-54103760D01*
X166406616Y-54755461D01*
X166269000Y-55447302D01*
X166269000Y-56152698D01*
X166406616Y-56844539D01*
X166676559Y-57496240D01*
X167068456Y-58082754D01*
X167567246Y-58581544D01*
X168153760Y-58973441D01*
X168805461Y-59243384D01*
X169497302Y-59381000D01*
X170202698Y-59381000D01*
X170894539Y-59243384D01*
X171546240Y-58973441D01*
X172132754Y-58581544D01*
X172631544Y-58082754D01*
X173023441Y-57496240D01*
X173293384Y-56844539D01*
X173382405Y-56397000D01*
X182153928Y-56397000D01*
X182166188Y-56521482D01*
X182202498Y-56641180D01*
X182261463Y-56751494D01*
X182340815Y-56848185D01*
X182437506Y-56927537D01*
X182547820Y-56986502D01*
X182667518Y-57022812D01*
X182792000Y-57035072D01*
X183356250Y-57032000D01*
X183515000Y-56873250D01*
X183515000Y-55674000D01*
X182315750Y-55674000D01*
X182157000Y-55832750D01*
X182153928Y-56397000D01*
X173382405Y-56397000D01*
X173431000Y-56152698D01*
X173431000Y-55447302D01*
X173293384Y-54755461D01*
X173269169Y-54697000D01*
X182153928Y-54697000D01*
X182157000Y-55261250D01*
X182315750Y-55420000D01*
X183515000Y-55420000D01*
X183515000Y-54220750D01*
X183769000Y-54220750D01*
X183769000Y-55420000D01*
X183789000Y-55420000D01*
X183789000Y-55674000D01*
X183769000Y-55674000D01*
X183769000Y-56873250D01*
X183927750Y-57032000D01*
X184492000Y-57035072D01*
X184616482Y-57022812D01*
X184736180Y-56986502D01*
X184846494Y-56927537D01*
X184943185Y-56848185D01*
X185022537Y-56751494D01*
X185081502Y-56641180D01*
X185117812Y-56521482D01*
X185130072Y-56397000D01*
X185128927Y-56186706D01*
X185225820Y-56331717D01*
X185397283Y-56503180D01*
X185598903Y-56637898D01*
X185822931Y-56730693D01*
X186060757Y-56778000D01*
X186303243Y-56778000D01*
X186541069Y-56730693D01*
X186765097Y-56637898D01*
X186966717Y-56503180D01*
X187138180Y-56331717D01*
X187272898Y-56130097D01*
X187365693Y-55906069D01*
X187413000Y-55668243D01*
X187413000Y-55425757D01*
X187491000Y-55425757D01*
X187491000Y-55668243D01*
X187538307Y-55906069D01*
X187631102Y-56130097D01*
X187765820Y-56331717D01*
X187937283Y-56503180D01*
X188138903Y-56637898D01*
X188362931Y-56730693D01*
X188600757Y-56778000D01*
X188843243Y-56778000D01*
X189081069Y-56730693D01*
X189305097Y-56637898D01*
X189506717Y-56503180D01*
X189678180Y-56331717D01*
X189812898Y-56130097D01*
X189905693Y-55906069D01*
X189953000Y-55668243D01*
X189953000Y-55425757D01*
X190031000Y-55425757D01*
X190031000Y-55668243D01*
X190078307Y-55906069D01*
X190171102Y-56130097D01*
X190305820Y-56331717D01*
X190477283Y-56503180D01*
X190678903Y-56637898D01*
X190902931Y-56730693D01*
X191140757Y-56778000D01*
X191383243Y-56778000D01*
X191621069Y-56730693D01*
X191845097Y-56637898D01*
X192046717Y-56503180D01*
X192218180Y-56331717D01*
X192352898Y-56130097D01*
X192445693Y-55906069D01*
X192493000Y-55668243D01*
X192493000Y-55425757D01*
X192445693Y-55187931D01*
X192352898Y-54963903D01*
X192218180Y-54762283D01*
X192046717Y-54590820D01*
X191845097Y-54456102D01*
X191621069Y-54363307D01*
X191383243Y-54316000D01*
X191140757Y-54316000D01*
X190902931Y-54363307D01*
X190678903Y-54456102D01*
X190477283Y-54590820D01*
X190305820Y-54762283D01*
X190171102Y-54963903D01*
X190078307Y-55187931D01*
X190031000Y-55425757D01*
X189953000Y-55425757D01*
X189905693Y-55187931D01*
X189812898Y-54963903D01*
X189678180Y-54762283D01*
X189506717Y-54590820D01*
X189305097Y-54456102D01*
X189081069Y-54363307D01*
X188843243Y-54316000D01*
X188600757Y-54316000D01*
X188362931Y-54363307D01*
X188138903Y-54456102D01*
X187937283Y-54590820D01*
X187765820Y-54762283D01*
X187631102Y-54963903D01*
X187538307Y-55187931D01*
X187491000Y-55425757D01*
X187413000Y-55425757D01*
X187365693Y-55187931D01*
X187272898Y-54963903D01*
X187138180Y-54762283D01*
X186966717Y-54590820D01*
X186765097Y-54456102D01*
X186541069Y-54363307D01*
X186303243Y-54316000D01*
X186060757Y-54316000D01*
X185822931Y-54363307D01*
X185598903Y-54456102D01*
X185397283Y-54590820D01*
X185225820Y-54762283D01*
X185128927Y-54907294D01*
X185130072Y-54697000D01*
X185117812Y-54572518D01*
X185081502Y-54452820D01*
X185022537Y-54342506D01*
X184943185Y-54245815D01*
X184846494Y-54166463D01*
X184736180Y-54107498D01*
X184616482Y-54071188D01*
X184492000Y-54058928D01*
X183927750Y-54062000D01*
X183769000Y-54220750D01*
X183515000Y-54220750D01*
X183356250Y-54062000D01*
X182792000Y-54058928D01*
X182667518Y-54071188D01*
X182547820Y-54107498D01*
X182437506Y-54166463D01*
X182340815Y-54245815D01*
X182261463Y-54342506D01*
X182202498Y-54452820D01*
X182166188Y-54572518D01*
X182153928Y-54697000D01*
X173269169Y-54697000D01*
X173023441Y-54103760D01*
X172631544Y-53517246D01*
X172132754Y-53018456D01*
X171739962Y-52756000D01*
X190327694Y-52756000D01*
X190843709Y-52806596D01*
X191318611Y-52949977D01*
X191756614Y-53182866D01*
X192141050Y-53496405D01*
X192457260Y-53878638D01*
X192693203Y-54315007D01*
X192839898Y-54788899D01*
X192894001Y-55303657D01*
X192894001Y-66873000D01*
X162479000Y-66873000D01*
X162479000Y-66782927D01*
X162452829Y-66651360D01*
X162401494Y-66527426D01*
X162326967Y-66415888D01*
X162232112Y-66321033D01*
X162120574Y-66246506D01*
X161996640Y-66195171D01*
X161865073Y-66169000D01*
X161730927Y-66169000D01*
X161599360Y-66195171D01*
X161475426Y-66246506D01*
X161363888Y-66321033D01*
X161269033Y-66415888D01*
X161194506Y-66527426D01*
X161143171Y-66651360D01*
X161117000Y-66782927D01*
X161117000Y-66873000D01*
X150153456Y-66873000D01*
X150134829Y-66779360D01*
X150083494Y-66655426D01*
X150008967Y-66543888D01*
X149914112Y-66449033D01*
X149802574Y-66374506D01*
X149678640Y-66323171D01*
X149547073Y-66297000D01*
X149412927Y-66297000D01*
X149281360Y-66323171D01*
X149157426Y-66374506D01*
X149045888Y-66449033D01*
X148951033Y-66543888D01*
X148876506Y-66655426D01*
X148825171Y-66779360D01*
X148806544Y-66873000D01*
X108806000Y-66873000D01*
X108806000Y-65830427D01*
X111269500Y-65830427D01*
X111269500Y-65964573D01*
X111295671Y-66096140D01*
X111347006Y-66220074D01*
X111421533Y-66331612D01*
X111516388Y-66426467D01*
X111627926Y-66500994D01*
X111751860Y-66552329D01*
X111883427Y-66578500D01*
X112017573Y-66578500D01*
X112149140Y-66552329D01*
X112273074Y-66500994D01*
X112384612Y-66426467D01*
X112479467Y-66331612D01*
X112553994Y-66220074D01*
X112605329Y-66096140D01*
X112631500Y-65964573D01*
X112631500Y-65830427D01*
X112605329Y-65698860D01*
X112553994Y-65574926D01*
X112479467Y-65463388D01*
X112384612Y-65368533D01*
X112273074Y-65294006D01*
X112149140Y-65242671D01*
X112017573Y-65216500D01*
X111883427Y-65216500D01*
X111751860Y-65242671D01*
X111627926Y-65294006D01*
X111516388Y-65368533D01*
X111421533Y-65463388D01*
X111347006Y-65574926D01*
X111295671Y-65698860D01*
X111269500Y-65830427D01*
X108806000Y-65830427D01*
X108806000Y-65131927D01*
X148798000Y-65131927D01*
X148798000Y-65266073D01*
X148824171Y-65397640D01*
X148875506Y-65521574D01*
X148950033Y-65633112D01*
X149044888Y-65727967D01*
X149156426Y-65802494D01*
X149280360Y-65853829D01*
X149411927Y-65880000D01*
X149546073Y-65880000D01*
X149677640Y-65853829D01*
X149801574Y-65802494D01*
X149913112Y-65727967D01*
X150007967Y-65633112D01*
X150082494Y-65521574D01*
X150133829Y-65397640D01*
X150160000Y-65266073D01*
X150160000Y-65258927D01*
X159212000Y-65258927D01*
X159212000Y-65393073D01*
X159238171Y-65524640D01*
X159289506Y-65648574D01*
X159364033Y-65760112D01*
X159458888Y-65854967D01*
X159570426Y-65929494D01*
X159694360Y-65980829D01*
X159825927Y-66007000D01*
X159960073Y-66007000D01*
X160091640Y-65980829D01*
X160215574Y-65929494D01*
X160268803Y-65893927D01*
X162641000Y-65893927D01*
X162641000Y-66028073D01*
X162667171Y-66159640D01*
X162718506Y-66283574D01*
X162793033Y-66395112D01*
X162887888Y-66489967D01*
X162999426Y-66564494D01*
X163123360Y-66615829D01*
X163254927Y-66642000D01*
X163389073Y-66642000D01*
X163520640Y-66615829D01*
X163644574Y-66564494D01*
X163756112Y-66489967D01*
X163850967Y-66395112D01*
X163925494Y-66283574D01*
X163976829Y-66159640D01*
X164003000Y-66028073D01*
X164003000Y-66020927D01*
X173944000Y-66020927D01*
X173944000Y-66155073D01*
X173970171Y-66286640D01*
X174021506Y-66410574D01*
X174096033Y-66522112D01*
X174190888Y-66616967D01*
X174302426Y-66691494D01*
X174426360Y-66742829D01*
X174557927Y-66769000D01*
X174692073Y-66769000D01*
X174823640Y-66742829D01*
X174947574Y-66691494D01*
X175059112Y-66616967D01*
X175153967Y-66522112D01*
X175228494Y-66410574D01*
X175279829Y-66286640D01*
X175306000Y-66155073D01*
X175306000Y-66020927D01*
X175279829Y-65889360D01*
X175228494Y-65765426D01*
X175153967Y-65653888D01*
X175059112Y-65559033D01*
X174947574Y-65484506D01*
X174823640Y-65433171D01*
X174692073Y-65407000D01*
X174557927Y-65407000D01*
X174426360Y-65433171D01*
X174302426Y-65484506D01*
X174190888Y-65559033D01*
X174096033Y-65653888D01*
X174021506Y-65765426D01*
X173970171Y-65889360D01*
X173944000Y-66020927D01*
X164003000Y-66020927D01*
X164003000Y-65893927D01*
X163976829Y-65762360D01*
X163925494Y-65638426D01*
X163850967Y-65526888D01*
X163756112Y-65432033D01*
X163687110Y-65385927D01*
X183024500Y-65385927D01*
X183024500Y-65520073D01*
X183050671Y-65651640D01*
X183102006Y-65775574D01*
X183176533Y-65887112D01*
X183271388Y-65981967D01*
X183382926Y-66056494D01*
X183506860Y-66107829D01*
X183638427Y-66134000D01*
X183772573Y-66134000D01*
X183904140Y-66107829D01*
X184028074Y-66056494D01*
X184139612Y-65981967D01*
X184234467Y-65887112D01*
X184308994Y-65775574D01*
X184360329Y-65651640D01*
X184386500Y-65520073D01*
X184386500Y-65385927D01*
X184360329Y-65254360D01*
X184308994Y-65130426D01*
X184234467Y-65018888D01*
X184139612Y-64924033D01*
X184028074Y-64849506D01*
X183904140Y-64798171D01*
X183772573Y-64772000D01*
X183638427Y-64772000D01*
X183506860Y-64798171D01*
X183382926Y-64849506D01*
X183271388Y-64924033D01*
X183176533Y-65018888D01*
X183102006Y-65130426D01*
X183050671Y-65254360D01*
X183024500Y-65385927D01*
X163687110Y-65385927D01*
X163644574Y-65357506D01*
X163520640Y-65306171D01*
X163389073Y-65280000D01*
X163254927Y-65280000D01*
X163123360Y-65306171D01*
X162999426Y-65357506D01*
X162887888Y-65432033D01*
X162793033Y-65526888D01*
X162718506Y-65638426D01*
X162667171Y-65762360D01*
X162641000Y-65893927D01*
X160268803Y-65893927D01*
X160327112Y-65854967D01*
X160421967Y-65760112D01*
X160496494Y-65648574D01*
X160547829Y-65524640D01*
X160574000Y-65393073D01*
X160574000Y-65258927D01*
X160547829Y-65127360D01*
X160496494Y-65003426D01*
X160421967Y-64891888D01*
X160327112Y-64797033D01*
X160215574Y-64722506D01*
X160091640Y-64671171D01*
X159960073Y-64645000D01*
X159825927Y-64645000D01*
X159694360Y-64671171D01*
X159570426Y-64722506D01*
X159458888Y-64797033D01*
X159364033Y-64891888D01*
X159289506Y-65003426D01*
X159238171Y-65127360D01*
X159212000Y-65258927D01*
X150160000Y-65258927D01*
X150160000Y-65131927D01*
X150133829Y-65000360D01*
X150082494Y-64876426D01*
X150007967Y-64764888D01*
X149913112Y-64670033D01*
X149801574Y-64595506D01*
X149677640Y-64544171D01*
X149546073Y-64518000D01*
X149411927Y-64518000D01*
X149280360Y-64544171D01*
X149156426Y-64595506D01*
X149044888Y-64670033D01*
X148950033Y-64764888D01*
X148875506Y-64876426D01*
X148824171Y-65000360D01*
X148798000Y-65131927D01*
X108806000Y-65131927D01*
X108806000Y-63226927D01*
X111333000Y-63226927D01*
X111333000Y-63361073D01*
X111359171Y-63492640D01*
X111410506Y-63616574D01*
X111485033Y-63728112D01*
X111579888Y-63822967D01*
X111691426Y-63897494D01*
X111815360Y-63948829D01*
X111946927Y-63975000D01*
X112081073Y-63975000D01*
X112212640Y-63948829D01*
X112336574Y-63897494D01*
X112448112Y-63822967D01*
X112542967Y-63728112D01*
X112617494Y-63616574D01*
X112668829Y-63492640D01*
X112695000Y-63361073D01*
X112695000Y-63290427D01*
X127652500Y-63290427D01*
X127652500Y-63424573D01*
X127678671Y-63556140D01*
X127730006Y-63680074D01*
X127804533Y-63791612D01*
X127899388Y-63886467D01*
X128010926Y-63960994D01*
X128134860Y-64012329D01*
X128266427Y-64038500D01*
X128400573Y-64038500D01*
X128532140Y-64012329D01*
X128656074Y-63960994D01*
X128762324Y-63890000D01*
X137449928Y-63890000D01*
X137462188Y-64014482D01*
X137498498Y-64134180D01*
X137557463Y-64244494D01*
X137636815Y-64341185D01*
X137733506Y-64420537D01*
X137843820Y-64479502D01*
X137963518Y-64515812D01*
X138088000Y-64528072D01*
X138652250Y-64525000D01*
X138811000Y-64366250D01*
X138811000Y-63167000D01*
X137611750Y-63167000D01*
X137453000Y-63325750D01*
X137449928Y-63890000D01*
X128762324Y-63890000D01*
X128767612Y-63886467D01*
X128862467Y-63791612D01*
X128936994Y-63680074D01*
X128988329Y-63556140D01*
X129014500Y-63424573D01*
X129014500Y-63290427D01*
X128988329Y-63158860D01*
X128963919Y-63099927D01*
X134447000Y-63099927D01*
X134447000Y-63234073D01*
X134473171Y-63365640D01*
X134524506Y-63489574D01*
X134599033Y-63601112D01*
X134693888Y-63695967D01*
X134805426Y-63770494D01*
X134929360Y-63821829D01*
X135060927Y-63848000D01*
X135195073Y-63848000D01*
X135326640Y-63821829D01*
X135450574Y-63770494D01*
X135562112Y-63695967D01*
X135656967Y-63601112D01*
X135731494Y-63489574D01*
X135782829Y-63365640D01*
X135809000Y-63234073D01*
X135809000Y-63099927D01*
X135782829Y-62968360D01*
X135731494Y-62844426D01*
X135656967Y-62732888D01*
X135562112Y-62638033D01*
X135450574Y-62563506D01*
X135326640Y-62512171D01*
X135195073Y-62486000D01*
X135060927Y-62486000D01*
X134929360Y-62512171D01*
X134805426Y-62563506D01*
X134693888Y-62638033D01*
X134599033Y-62732888D01*
X134524506Y-62844426D01*
X134473171Y-62968360D01*
X134447000Y-63099927D01*
X128963919Y-63099927D01*
X128936994Y-63034926D01*
X128862467Y-62923388D01*
X128767612Y-62828533D01*
X128656074Y-62754006D01*
X128532140Y-62702671D01*
X128400573Y-62676500D01*
X128266427Y-62676500D01*
X128134860Y-62702671D01*
X128010926Y-62754006D01*
X127899388Y-62828533D01*
X127804533Y-62923388D01*
X127730006Y-63034926D01*
X127678671Y-63158860D01*
X127652500Y-63290427D01*
X112695000Y-63290427D01*
X112695000Y-63226927D01*
X112668829Y-63095360D01*
X112617494Y-62971426D01*
X112542967Y-62859888D01*
X112448112Y-62765033D01*
X112336574Y-62690506D01*
X112212640Y-62639171D01*
X112081073Y-62613000D01*
X111946927Y-62613000D01*
X111815360Y-62639171D01*
X111691426Y-62690506D01*
X111579888Y-62765033D01*
X111485033Y-62859888D01*
X111410506Y-62971426D01*
X111359171Y-63095360D01*
X111333000Y-63226927D01*
X108806000Y-63226927D01*
X108806000Y-62190000D01*
X137449928Y-62190000D01*
X137453000Y-62754250D01*
X137611750Y-62913000D01*
X138811000Y-62913000D01*
X138811000Y-61713750D01*
X139065000Y-61713750D01*
X139065000Y-62913000D01*
X139085000Y-62913000D01*
X139085000Y-63167000D01*
X139065000Y-63167000D01*
X139065000Y-64366250D01*
X139223750Y-64525000D01*
X139788000Y-64528072D01*
X139912482Y-64515812D01*
X140032180Y-64479502D01*
X140142494Y-64420537D01*
X140204162Y-64369927D01*
X170007000Y-64369927D01*
X170007000Y-64504073D01*
X170033171Y-64635640D01*
X170084506Y-64759574D01*
X170159033Y-64871112D01*
X170253888Y-64965967D01*
X170365426Y-65040494D01*
X170489360Y-65091829D01*
X170620927Y-65118000D01*
X170755073Y-65118000D01*
X170886640Y-65091829D01*
X171010574Y-65040494D01*
X171122112Y-64965967D01*
X171216967Y-64871112D01*
X171291494Y-64759574D01*
X171342829Y-64635640D01*
X171369000Y-64504073D01*
X171369000Y-64496927D01*
X173055000Y-64496927D01*
X173055000Y-64631073D01*
X173081171Y-64762640D01*
X173132506Y-64886574D01*
X173207033Y-64998112D01*
X173301888Y-65092967D01*
X173413426Y-65167494D01*
X173537360Y-65218829D01*
X173668927Y-65245000D01*
X173803073Y-65245000D01*
X173934640Y-65218829D01*
X174058574Y-65167494D01*
X174170112Y-65092967D01*
X174264967Y-64998112D01*
X174339494Y-64886574D01*
X174390829Y-64762640D01*
X174417000Y-64631073D01*
X174417000Y-64496927D01*
X174390829Y-64365360D01*
X174339494Y-64241426D01*
X174264967Y-64129888D01*
X174170112Y-64035033D01*
X174058574Y-63960506D01*
X173934640Y-63909171D01*
X173803073Y-63883000D01*
X173668927Y-63883000D01*
X173537360Y-63909171D01*
X173413426Y-63960506D01*
X173301888Y-64035033D01*
X173207033Y-64129888D01*
X173132506Y-64241426D01*
X173081171Y-64365360D01*
X173055000Y-64496927D01*
X171369000Y-64496927D01*
X171369000Y-64369927D01*
X171342829Y-64238360D01*
X171291494Y-64114426D01*
X171216967Y-64002888D01*
X171122112Y-63908033D01*
X171010574Y-63833506D01*
X170886640Y-63782171D01*
X170755073Y-63756000D01*
X170620927Y-63756000D01*
X170489360Y-63782171D01*
X170365426Y-63833506D01*
X170253888Y-63908033D01*
X170159033Y-64002888D01*
X170084506Y-64114426D01*
X170033171Y-64238360D01*
X170007000Y-64369927D01*
X140204162Y-64369927D01*
X140239185Y-64341185D01*
X140318537Y-64244494D01*
X140377502Y-64134180D01*
X140413812Y-64014482D01*
X140426072Y-63890000D01*
X140424927Y-63679706D01*
X140521820Y-63824717D01*
X140693283Y-63996180D01*
X140894903Y-64130898D01*
X141118931Y-64223693D01*
X141356757Y-64271000D01*
X141599243Y-64271000D01*
X141837069Y-64223693D01*
X142061097Y-64130898D01*
X142262717Y-63996180D01*
X142434180Y-63824717D01*
X142568898Y-63623097D01*
X142661693Y-63399069D01*
X142709000Y-63161243D01*
X142709000Y-62918757D01*
X142787000Y-62918757D01*
X142787000Y-63161243D01*
X142834307Y-63399069D01*
X142927102Y-63623097D01*
X143061820Y-63824717D01*
X143233283Y-63996180D01*
X143434903Y-64130898D01*
X143658931Y-64223693D01*
X143896757Y-64271000D01*
X144139243Y-64271000D01*
X144377069Y-64223693D01*
X144601097Y-64130898D01*
X144802717Y-63996180D01*
X144974180Y-63824717D01*
X145108898Y-63623097D01*
X145201693Y-63399069D01*
X145248565Y-63163427D01*
X183024500Y-63163427D01*
X183024500Y-63297573D01*
X183050671Y-63429140D01*
X183102006Y-63553074D01*
X183176533Y-63664612D01*
X183271388Y-63759467D01*
X183382926Y-63833994D01*
X183506860Y-63885329D01*
X183638427Y-63911500D01*
X183772573Y-63911500D01*
X183904140Y-63885329D01*
X184028074Y-63833994D01*
X184139612Y-63759467D01*
X184234467Y-63664612D01*
X184308994Y-63553074D01*
X184360329Y-63429140D01*
X184386500Y-63297573D01*
X184386500Y-63163427D01*
X184360329Y-63031860D01*
X184308994Y-62907926D01*
X184234467Y-62796388D01*
X184139612Y-62701533D01*
X184028074Y-62627006D01*
X183904140Y-62575671D01*
X183772573Y-62549500D01*
X183638427Y-62549500D01*
X183506860Y-62575671D01*
X183382926Y-62627006D01*
X183271388Y-62701533D01*
X183176533Y-62796388D01*
X183102006Y-62907926D01*
X183050671Y-63031860D01*
X183024500Y-63163427D01*
X145248565Y-63163427D01*
X145249000Y-63161243D01*
X145249000Y-62918757D01*
X145201693Y-62680931D01*
X145108898Y-62456903D01*
X144974180Y-62255283D01*
X144802717Y-62083820D01*
X144601097Y-61949102D01*
X144377069Y-61856307D01*
X144139243Y-61809000D01*
X143896757Y-61809000D01*
X143658931Y-61856307D01*
X143434903Y-61949102D01*
X143233283Y-62083820D01*
X143061820Y-62255283D01*
X142927102Y-62456903D01*
X142834307Y-62680931D01*
X142787000Y-62918757D01*
X142709000Y-62918757D01*
X142661693Y-62680931D01*
X142568898Y-62456903D01*
X142434180Y-62255283D01*
X142262717Y-62083820D01*
X142061097Y-61949102D01*
X141837069Y-61856307D01*
X141599243Y-61809000D01*
X141356757Y-61809000D01*
X141118931Y-61856307D01*
X140894903Y-61949102D01*
X140693283Y-62083820D01*
X140521820Y-62255283D01*
X140424927Y-62400294D01*
X140426072Y-62190000D01*
X140413812Y-62065518D01*
X140377502Y-61945820D01*
X140318537Y-61835506D01*
X140239185Y-61738815D01*
X140142494Y-61659463D01*
X140032180Y-61600498D01*
X139912482Y-61564188D01*
X139788000Y-61551928D01*
X139223750Y-61555000D01*
X139065000Y-61713750D01*
X138811000Y-61713750D01*
X138652250Y-61555000D01*
X138088000Y-61551928D01*
X137963518Y-61564188D01*
X137843820Y-61600498D01*
X137733506Y-61659463D01*
X137636815Y-61738815D01*
X137557463Y-61835506D01*
X137498498Y-61945820D01*
X137462188Y-62065518D01*
X137449928Y-62190000D01*
X108806000Y-62190000D01*
X108806000Y-61067927D01*
X141940000Y-61067927D01*
X141940000Y-61202073D01*
X141966171Y-61333640D01*
X142017506Y-61457574D01*
X142092033Y-61569112D01*
X142186888Y-61663967D01*
X142298426Y-61738494D01*
X142422360Y-61789829D01*
X142553927Y-61816000D01*
X142688073Y-61816000D01*
X142819640Y-61789829D01*
X142943574Y-61738494D01*
X143055112Y-61663967D01*
X143079652Y-61639427D01*
X165752500Y-61639427D01*
X165752500Y-61773573D01*
X165778671Y-61905140D01*
X165830006Y-62029074D01*
X165904533Y-62140612D01*
X165999388Y-62235467D01*
X166110926Y-62309994D01*
X166234860Y-62361329D01*
X166366427Y-62387500D01*
X166500573Y-62387500D01*
X166632140Y-62361329D01*
X166688637Y-62337927D01*
X170134000Y-62337927D01*
X170134000Y-62472073D01*
X170160171Y-62603640D01*
X170211506Y-62727574D01*
X170286033Y-62839112D01*
X170380888Y-62933967D01*
X170492426Y-63008494D01*
X170616360Y-63059829D01*
X170747927Y-63086000D01*
X170882073Y-63086000D01*
X171013640Y-63059829D01*
X171137574Y-63008494D01*
X171249112Y-62933967D01*
X171343967Y-62839112D01*
X171418494Y-62727574D01*
X171469829Y-62603640D01*
X171496000Y-62472073D01*
X171496000Y-62337927D01*
X171469829Y-62206360D01*
X171418494Y-62082426D01*
X171343967Y-61970888D01*
X171249112Y-61876033D01*
X171137574Y-61801506D01*
X171013640Y-61750171D01*
X170882073Y-61724000D01*
X170747927Y-61724000D01*
X170616360Y-61750171D01*
X170492426Y-61801506D01*
X170380888Y-61876033D01*
X170286033Y-61970888D01*
X170211506Y-62082426D01*
X170160171Y-62206360D01*
X170134000Y-62337927D01*
X166688637Y-62337927D01*
X166756074Y-62309994D01*
X166867612Y-62235467D01*
X166962467Y-62140612D01*
X167036994Y-62029074D01*
X167088329Y-61905140D01*
X167114500Y-61773573D01*
X167114500Y-61639427D01*
X167088329Y-61507860D01*
X167036994Y-61383926D01*
X166962467Y-61272388D01*
X166867612Y-61177533D01*
X166756074Y-61103006D01*
X166632140Y-61051671D01*
X166500573Y-61025500D01*
X166366427Y-61025500D01*
X166234860Y-61051671D01*
X166110926Y-61103006D01*
X165999388Y-61177533D01*
X165904533Y-61272388D01*
X165830006Y-61383926D01*
X165778671Y-61507860D01*
X165752500Y-61639427D01*
X143079652Y-61639427D01*
X143149967Y-61569112D01*
X143224494Y-61457574D01*
X143275829Y-61333640D01*
X143302000Y-61202073D01*
X143302000Y-61067927D01*
X143275829Y-60936360D01*
X143224494Y-60812426D01*
X143149967Y-60700888D01*
X143055112Y-60606033D01*
X142943574Y-60531506D01*
X142819640Y-60480171D01*
X142688073Y-60454000D01*
X142553927Y-60454000D01*
X142422360Y-60480171D01*
X142298426Y-60531506D01*
X142186888Y-60606033D01*
X142092033Y-60700888D01*
X142017506Y-60812426D01*
X141966171Y-60936360D01*
X141940000Y-61067927D01*
X108806000Y-61067927D01*
X108806000Y-59416927D01*
X121112000Y-59416927D01*
X121112000Y-59551073D01*
X121138171Y-59682640D01*
X121189506Y-59806574D01*
X121264033Y-59918112D01*
X121358888Y-60012967D01*
X121470426Y-60087494D01*
X121594360Y-60138829D01*
X121725927Y-60165000D01*
X121860073Y-60165000D01*
X121991640Y-60138829D01*
X122115574Y-60087494D01*
X122227112Y-60012967D01*
X122321967Y-59918112D01*
X122396494Y-59806574D01*
X122447829Y-59682640D01*
X122474000Y-59551073D01*
X122474000Y-59416927D01*
X122447829Y-59285360D01*
X122396494Y-59161426D01*
X122321967Y-59049888D01*
X122227112Y-58955033D01*
X122115574Y-58880506D01*
X121991640Y-58829171D01*
X121860073Y-58803000D01*
X121725927Y-58803000D01*
X121594360Y-58829171D01*
X121470426Y-58880506D01*
X121358888Y-58955033D01*
X121264033Y-59049888D01*
X121189506Y-59161426D01*
X121138171Y-59285360D01*
X121112000Y-59416927D01*
X108806000Y-59416927D01*
X108806000Y-57689962D01*
X109068456Y-58082754D01*
X109567246Y-58581544D01*
X110153760Y-58973441D01*
X110805461Y-59243384D01*
X111497302Y-59381000D01*
X112202698Y-59381000D01*
X112894539Y-59243384D01*
X113546240Y-58973441D01*
X114132754Y-58581544D01*
X114631544Y-58082754D01*
X114741629Y-57918000D01*
X115248928Y-57918000D01*
X115261188Y-58042482D01*
X115297498Y-58162180D01*
X115356463Y-58272494D01*
X115435815Y-58369185D01*
X115532506Y-58448537D01*
X115642820Y-58507502D01*
X115762518Y-58543812D01*
X115887000Y-58556072D01*
X116451250Y-58553000D01*
X116610000Y-58394250D01*
X116610000Y-57195000D01*
X115410750Y-57195000D01*
X115252000Y-57353750D01*
X115248928Y-57918000D01*
X114741629Y-57918000D01*
X115023441Y-57496240D01*
X115293384Y-56844539D01*
X115296852Y-56827102D01*
X115410750Y-56941000D01*
X116610000Y-56941000D01*
X116610000Y-56921000D01*
X116864000Y-56921000D01*
X116864000Y-56941000D01*
X116884000Y-56941000D01*
X116884000Y-57195000D01*
X116864000Y-57195000D01*
X116864000Y-58394250D01*
X117022750Y-58553000D01*
X117587000Y-58556072D01*
X117711482Y-58543812D01*
X117831180Y-58507502D01*
X117941494Y-58448537D01*
X118038185Y-58369185D01*
X118117537Y-58272494D01*
X118176502Y-58162180D01*
X118212812Y-58042482D01*
X118225072Y-57918000D01*
X118223927Y-57707706D01*
X118320820Y-57852717D01*
X118492283Y-58024180D01*
X118693903Y-58158898D01*
X118917931Y-58251693D01*
X119155757Y-58299000D01*
X119398243Y-58299000D01*
X119636069Y-58251693D01*
X119860097Y-58158898D01*
X120061717Y-58024180D01*
X120233180Y-57852717D01*
X120367898Y-57651097D01*
X120460693Y-57427069D01*
X120508000Y-57189243D01*
X120508000Y-56946757D01*
X120586000Y-56946757D01*
X120586000Y-57189243D01*
X120633307Y-57427069D01*
X120726102Y-57651097D01*
X120860820Y-57852717D01*
X121032283Y-58024180D01*
X121233903Y-58158898D01*
X121457931Y-58251693D01*
X121695757Y-58299000D01*
X121938243Y-58299000D01*
X122176069Y-58251693D01*
X122400097Y-58158898D01*
X122601717Y-58024180D01*
X122773180Y-57852717D01*
X122907898Y-57651097D01*
X123000693Y-57427069D01*
X123048000Y-57189243D01*
X123048000Y-56946757D01*
X123126000Y-56946757D01*
X123126000Y-57189243D01*
X123173307Y-57427069D01*
X123266102Y-57651097D01*
X123400820Y-57852717D01*
X123572283Y-58024180D01*
X123773903Y-58158898D01*
X123997931Y-58251693D01*
X124235757Y-58299000D01*
X124478243Y-58299000D01*
X124716069Y-58251693D01*
X124940097Y-58158898D01*
X125141717Y-58024180D01*
X125313180Y-57852717D01*
X125447898Y-57651097D01*
X125540693Y-57427069D01*
X125588000Y-57189243D01*
X125588000Y-56946757D01*
X125666000Y-56946757D01*
X125666000Y-57189243D01*
X125713307Y-57427069D01*
X125806102Y-57651097D01*
X125940820Y-57852717D01*
X126112283Y-58024180D01*
X126313903Y-58158898D01*
X126537931Y-58251693D01*
X126775757Y-58299000D01*
X127018243Y-58299000D01*
X127256069Y-58251693D01*
X127480097Y-58158898D01*
X127681717Y-58024180D01*
X127853180Y-57852717D01*
X127987898Y-57651097D01*
X128080693Y-57427069D01*
X128128000Y-57189243D01*
X128128000Y-56946757D01*
X128206000Y-56946757D01*
X128206000Y-57189243D01*
X128253307Y-57427069D01*
X128346102Y-57651097D01*
X128480820Y-57852717D01*
X128652283Y-58024180D01*
X128853903Y-58158898D01*
X129077931Y-58251693D01*
X129315757Y-58299000D01*
X129558243Y-58299000D01*
X129796069Y-58251693D01*
X130020097Y-58158898D01*
X130221717Y-58024180D01*
X130393180Y-57852717D01*
X130527898Y-57651097D01*
X130620693Y-57427069D01*
X130668000Y-57189243D01*
X130668000Y-56946757D01*
X130746000Y-56946757D01*
X130746000Y-57189243D01*
X130793307Y-57427069D01*
X130886102Y-57651097D01*
X131020820Y-57852717D01*
X131192283Y-58024180D01*
X131393903Y-58158898D01*
X131617931Y-58251693D01*
X131855757Y-58299000D01*
X132098243Y-58299000D01*
X132336069Y-58251693D01*
X132560097Y-58158898D01*
X132761717Y-58024180D01*
X132933180Y-57852717D01*
X133067898Y-57651097D01*
X133160693Y-57427069D01*
X133208000Y-57189243D01*
X133208000Y-56946757D01*
X133286000Y-56946757D01*
X133286000Y-57189243D01*
X133333307Y-57427069D01*
X133426102Y-57651097D01*
X133560820Y-57852717D01*
X133732283Y-58024180D01*
X133933903Y-58158898D01*
X134157931Y-58251693D01*
X134395757Y-58299000D01*
X134638243Y-58299000D01*
X134876069Y-58251693D01*
X135100097Y-58158898D01*
X135301717Y-58024180D01*
X135473180Y-57852717D01*
X135607898Y-57651097D01*
X135700693Y-57427069D01*
X135748000Y-57189243D01*
X135748000Y-56946757D01*
X135826000Y-56946757D01*
X135826000Y-57189243D01*
X135873307Y-57427069D01*
X135966102Y-57651097D01*
X136100820Y-57852717D01*
X136272283Y-58024180D01*
X136473903Y-58158898D01*
X136697931Y-58251693D01*
X136935757Y-58299000D01*
X137178243Y-58299000D01*
X137416069Y-58251693D01*
X137640097Y-58158898D01*
X137841717Y-58024180D01*
X138013180Y-57852717D01*
X138147898Y-57651097D01*
X138240693Y-57427069D01*
X138288000Y-57189243D01*
X138288000Y-56946757D01*
X138366000Y-56946757D01*
X138366000Y-57189243D01*
X138413307Y-57427069D01*
X138506102Y-57651097D01*
X138640820Y-57852717D01*
X138812283Y-58024180D01*
X139013903Y-58158898D01*
X139237931Y-58251693D01*
X139475757Y-58299000D01*
X139718243Y-58299000D01*
X139956069Y-58251693D01*
X140180097Y-58158898D01*
X140381717Y-58024180D01*
X140553180Y-57852717D01*
X140687898Y-57651097D01*
X140780693Y-57427069D01*
X140828000Y-57189243D01*
X140828000Y-56946757D01*
X140906000Y-56946757D01*
X140906000Y-57189243D01*
X140953307Y-57427069D01*
X141046102Y-57651097D01*
X141180820Y-57852717D01*
X141352283Y-58024180D01*
X141553903Y-58158898D01*
X141777931Y-58251693D01*
X142015757Y-58299000D01*
X142258243Y-58299000D01*
X142496069Y-58251693D01*
X142720097Y-58158898D01*
X142921717Y-58024180D01*
X143093180Y-57852717D01*
X143227898Y-57651097D01*
X143320693Y-57427069D01*
X143368000Y-57189243D01*
X143368000Y-56946757D01*
X143446000Y-56946757D01*
X143446000Y-57189243D01*
X143493307Y-57427069D01*
X143586102Y-57651097D01*
X143720820Y-57852717D01*
X143892283Y-58024180D01*
X144093903Y-58158898D01*
X144317931Y-58251693D01*
X144555757Y-58299000D01*
X144798243Y-58299000D01*
X145036069Y-58251693D01*
X145260097Y-58158898D01*
X145461717Y-58024180D01*
X145633180Y-57852717D01*
X145767898Y-57651097D01*
X145860693Y-57427069D01*
X145908000Y-57189243D01*
X145908000Y-56946757D01*
X145986000Y-56946757D01*
X145986000Y-57189243D01*
X146033307Y-57427069D01*
X146126102Y-57651097D01*
X146260820Y-57852717D01*
X146432283Y-58024180D01*
X146633903Y-58158898D01*
X146857931Y-58251693D01*
X147095757Y-58299000D01*
X147338243Y-58299000D01*
X147576069Y-58251693D01*
X147800097Y-58158898D01*
X148001717Y-58024180D01*
X148173180Y-57852717D01*
X148307898Y-57651097D01*
X148400693Y-57427069D01*
X148448000Y-57189243D01*
X148448000Y-56946757D01*
X148526000Y-56946757D01*
X148526000Y-57189243D01*
X148573307Y-57427069D01*
X148666102Y-57651097D01*
X148800820Y-57852717D01*
X148972283Y-58024180D01*
X149173903Y-58158898D01*
X149397931Y-58251693D01*
X149635757Y-58299000D01*
X149878243Y-58299000D01*
X150116069Y-58251693D01*
X150340097Y-58158898D01*
X150541717Y-58024180D01*
X150713180Y-57852717D01*
X150847898Y-57651097D01*
X150940693Y-57427069D01*
X150988000Y-57189243D01*
X150988000Y-56946757D01*
X151066000Y-56946757D01*
X151066000Y-57189243D01*
X151113307Y-57427069D01*
X151206102Y-57651097D01*
X151340820Y-57852717D01*
X151512283Y-58024180D01*
X151713903Y-58158898D01*
X151937931Y-58251693D01*
X152175757Y-58299000D01*
X152418243Y-58299000D01*
X152656069Y-58251693D01*
X152880097Y-58158898D01*
X153081717Y-58024180D01*
X153253180Y-57852717D01*
X153387898Y-57651097D01*
X153480693Y-57427069D01*
X153528000Y-57189243D01*
X153528000Y-56946757D01*
X153606000Y-56946757D01*
X153606000Y-57189243D01*
X153653307Y-57427069D01*
X153746102Y-57651097D01*
X153880820Y-57852717D01*
X154052283Y-58024180D01*
X154253903Y-58158898D01*
X154477931Y-58251693D01*
X154715757Y-58299000D01*
X154958243Y-58299000D01*
X155196069Y-58251693D01*
X155420097Y-58158898D01*
X155621717Y-58024180D01*
X155793180Y-57852717D01*
X155927898Y-57651097D01*
X156020693Y-57427069D01*
X156068000Y-57189243D01*
X156068000Y-56946757D01*
X156146000Y-56946757D01*
X156146000Y-57189243D01*
X156193307Y-57427069D01*
X156286102Y-57651097D01*
X156420820Y-57852717D01*
X156592283Y-58024180D01*
X156793903Y-58158898D01*
X157017931Y-58251693D01*
X157255757Y-58299000D01*
X157498243Y-58299000D01*
X157736069Y-58251693D01*
X157960097Y-58158898D01*
X158161717Y-58024180D01*
X158333180Y-57852717D01*
X158467898Y-57651097D01*
X158560693Y-57427069D01*
X158608000Y-57189243D01*
X158608000Y-56946757D01*
X158686000Y-56946757D01*
X158686000Y-57189243D01*
X158733307Y-57427069D01*
X158826102Y-57651097D01*
X158960820Y-57852717D01*
X159132283Y-58024180D01*
X159333903Y-58158898D01*
X159557931Y-58251693D01*
X159795757Y-58299000D01*
X160038243Y-58299000D01*
X160276069Y-58251693D01*
X160500097Y-58158898D01*
X160701717Y-58024180D01*
X160873180Y-57852717D01*
X161007898Y-57651097D01*
X161100693Y-57427069D01*
X161148000Y-57189243D01*
X161148000Y-56946757D01*
X161226000Y-56946757D01*
X161226000Y-57189243D01*
X161273307Y-57427069D01*
X161366102Y-57651097D01*
X161500820Y-57852717D01*
X161672283Y-58024180D01*
X161873903Y-58158898D01*
X162097931Y-58251693D01*
X162335757Y-58299000D01*
X162578243Y-58299000D01*
X162816069Y-58251693D01*
X163040097Y-58158898D01*
X163241717Y-58024180D01*
X163413180Y-57852717D01*
X163547898Y-57651097D01*
X163640693Y-57427069D01*
X163688000Y-57189243D01*
X163688000Y-56946757D01*
X163766000Y-56946757D01*
X163766000Y-57189243D01*
X163813307Y-57427069D01*
X163906102Y-57651097D01*
X164040820Y-57852717D01*
X164212283Y-58024180D01*
X164413903Y-58158898D01*
X164637931Y-58251693D01*
X164875757Y-58299000D01*
X165118243Y-58299000D01*
X165356069Y-58251693D01*
X165580097Y-58158898D01*
X165781717Y-58024180D01*
X165953180Y-57852717D01*
X166087898Y-57651097D01*
X166180693Y-57427069D01*
X166228000Y-57189243D01*
X166228000Y-56946757D01*
X166180693Y-56708931D01*
X166087898Y-56484903D01*
X165953180Y-56283283D01*
X165781717Y-56111820D01*
X165580097Y-55977102D01*
X165356069Y-55884307D01*
X165118243Y-55837000D01*
X164875757Y-55837000D01*
X164637931Y-55884307D01*
X164413903Y-55977102D01*
X164212283Y-56111820D01*
X164040820Y-56283283D01*
X163906102Y-56484903D01*
X163813307Y-56708931D01*
X163766000Y-56946757D01*
X163688000Y-56946757D01*
X163640693Y-56708931D01*
X163547898Y-56484903D01*
X163413180Y-56283283D01*
X163241717Y-56111820D01*
X163040097Y-55977102D01*
X162816069Y-55884307D01*
X162578243Y-55837000D01*
X162335757Y-55837000D01*
X162097931Y-55884307D01*
X161873903Y-55977102D01*
X161672283Y-56111820D01*
X161500820Y-56283283D01*
X161366102Y-56484903D01*
X161273307Y-56708931D01*
X161226000Y-56946757D01*
X161148000Y-56946757D01*
X161100693Y-56708931D01*
X161007898Y-56484903D01*
X160873180Y-56283283D01*
X160701717Y-56111820D01*
X160500097Y-55977102D01*
X160276069Y-55884307D01*
X160038243Y-55837000D01*
X159795757Y-55837000D01*
X159557931Y-55884307D01*
X159333903Y-55977102D01*
X159132283Y-56111820D01*
X158960820Y-56283283D01*
X158826102Y-56484903D01*
X158733307Y-56708931D01*
X158686000Y-56946757D01*
X158608000Y-56946757D01*
X158560693Y-56708931D01*
X158467898Y-56484903D01*
X158333180Y-56283283D01*
X158161717Y-56111820D01*
X157960097Y-55977102D01*
X157736069Y-55884307D01*
X157498243Y-55837000D01*
X157255757Y-55837000D01*
X157017931Y-55884307D01*
X156793903Y-55977102D01*
X156592283Y-56111820D01*
X156420820Y-56283283D01*
X156286102Y-56484903D01*
X156193307Y-56708931D01*
X156146000Y-56946757D01*
X156068000Y-56946757D01*
X156020693Y-56708931D01*
X155927898Y-56484903D01*
X155793180Y-56283283D01*
X155621717Y-56111820D01*
X155420097Y-55977102D01*
X155196069Y-55884307D01*
X154958243Y-55837000D01*
X154715757Y-55837000D01*
X154477931Y-55884307D01*
X154253903Y-55977102D01*
X154052283Y-56111820D01*
X153880820Y-56283283D01*
X153746102Y-56484903D01*
X153653307Y-56708931D01*
X153606000Y-56946757D01*
X153528000Y-56946757D01*
X153480693Y-56708931D01*
X153387898Y-56484903D01*
X153253180Y-56283283D01*
X153081717Y-56111820D01*
X152880097Y-55977102D01*
X152656069Y-55884307D01*
X152418243Y-55837000D01*
X152175757Y-55837000D01*
X151937931Y-55884307D01*
X151713903Y-55977102D01*
X151512283Y-56111820D01*
X151340820Y-56283283D01*
X151206102Y-56484903D01*
X151113307Y-56708931D01*
X151066000Y-56946757D01*
X150988000Y-56946757D01*
X150940693Y-56708931D01*
X150847898Y-56484903D01*
X150713180Y-56283283D01*
X150541717Y-56111820D01*
X150340097Y-55977102D01*
X150116069Y-55884307D01*
X149878243Y-55837000D01*
X149635757Y-55837000D01*
X149397931Y-55884307D01*
X149173903Y-55977102D01*
X148972283Y-56111820D01*
X148800820Y-56283283D01*
X148666102Y-56484903D01*
X148573307Y-56708931D01*
X148526000Y-56946757D01*
X148448000Y-56946757D01*
X148400693Y-56708931D01*
X148307898Y-56484903D01*
X148173180Y-56283283D01*
X148001717Y-56111820D01*
X147800097Y-55977102D01*
X147576069Y-55884307D01*
X147338243Y-55837000D01*
X147095757Y-55837000D01*
X146857931Y-55884307D01*
X146633903Y-55977102D01*
X146432283Y-56111820D01*
X146260820Y-56283283D01*
X146126102Y-56484903D01*
X146033307Y-56708931D01*
X145986000Y-56946757D01*
X145908000Y-56946757D01*
X145860693Y-56708931D01*
X145767898Y-56484903D01*
X145633180Y-56283283D01*
X145461717Y-56111820D01*
X145260097Y-55977102D01*
X145036069Y-55884307D01*
X144798243Y-55837000D01*
X144555757Y-55837000D01*
X144317931Y-55884307D01*
X144093903Y-55977102D01*
X143892283Y-56111820D01*
X143720820Y-56283283D01*
X143586102Y-56484903D01*
X143493307Y-56708931D01*
X143446000Y-56946757D01*
X143368000Y-56946757D01*
X143320693Y-56708931D01*
X143227898Y-56484903D01*
X143093180Y-56283283D01*
X142921717Y-56111820D01*
X142720097Y-55977102D01*
X142496069Y-55884307D01*
X142258243Y-55837000D01*
X142015757Y-55837000D01*
X141777931Y-55884307D01*
X141553903Y-55977102D01*
X141352283Y-56111820D01*
X141180820Y-56283283D01*
X141046102Y-56484903D01*
X140953307Y-56708931D01*
X140906000Y-56946757D01*
X140828000Y-56946757D01*
X140780693Y-56708931D01*
X140687898Y-56484903D01*
X140553180Y-56283283D01*
X140381717Y-56111820D01*
X140180097Y-55977102D01*
X139956069Y-55884307D01*
X139718243Y-55837000D01*
X139475757Y-55837000D01*
X139237931Y-55884307D01*
X139013903Y-55977102D01*
X138812283Y-56111820D01*
X138640820Y-56283283D01*
X138506102Y-56484903D01*
X138413307Y-56708931D01*
X138366000Y-56946757D01*
X138288000Y-56946757D01*
X138240693Y-56708931D01*
X138147898Y-56484903D01*
X138013180Y-56283283D01*
X137841717Y-56111820D01*
X137640097Y-55977102D01*
X137416069Y-55884307D01*
X137178243Y-55837000D01*
X136935757Y-55837000D01*
X136697931Y-55884307D01*
X136473903Y-55977102D01*
X136272283Y-56111820D01*
X136100820Y-56283283D01*
X135966102Y-56484903D01*
X135873307Y-56708931D01*
X135826000Y-56946757D01*
X135748000Y-56946757D01*
X135700693Y-56708931D01*
X135607898Y-56484903D01*
X135473180Y-56283283D01*
X135301717Y-56111820D01*
X135100097Y-55977102D01*
X134876069Y-55884307D01*
X134638243Y-55837000D01*
X134395757Y-55837000D01*
X134157931Y-55884307D01*
X133933903Y-55977102D01*
X133732283Y-56111820D01*
X133560820Y-56283283D01*
X133426102Y-56484903D01*
X133333307Y-56708931D01*
X133286000Y-56946757D01*
X133208000Y-56946757D01*
X133160693Y-56708931D01*
X133067898Y-56484903D01*
X132933180Y-56283283D01*
X132761717Y-56111820D01*
X132560097Y-55977102D01*
X132336069Y-55884307D01*
X132098243Y-55837000D01*
X131855757Y-55837000D01*
X131617931Y-55884307D01*
X131393903Y-55977102D01*
X131192283Y-56111820D01*
X131020820Y-56283283D01*
X130886102Y-56484903D01*
X130793307Y-56708931D01*
X130746000Y-56946757D01*
X130668000Y-56946757D01*
X130620693Y-56708931D01*
X130527898Y-56484903D01*
X130393180Y-56283283D01*
X130221717Y-56111820D01*
X130020097Y-55977102D01*
X129796069Y-55884307D01*
X129558243Y-55837000D01*
X129315757Y-55837000D01*
X129077931Y-55884307D01*
X128853903Y-55977102D01*
X128652283Y-56111820D01*
X128480820Y-56283283D01*
X128346102Y-56484903D01*
X128253307Y-56708931D01*
X128206000Y-56946757D01*
X128128000Y-56946757D01*
X128080693Y-56708931D01*
X127987898Y-56484903D01*
X127853180Y-56283283D01*
X127681717Y-56111820D01*
X127480097Y-55977102D01*
X127256069Y-55884307D01*
X127018243Y-55837000D01*
X126775757Y-55837000D01*
X126537931Y-55884307D01*
X126313903Y-55977102D01*
X126112283Y-56111820D01*
X125940820Y-56283283D01*
X125806102Y-56484903D01*
X125713307Y-56708931D01*
X125666000Y-56946757D01*
X125588000Y-56946757D01*
X125540693Y-56708931D01*
X125447898Y-56484903D01*
X125313180Y-56283283D01*
X125141717Y-56111820D01*
X124940097Y-55977102D01*
X124716069Y-55884307D01*
X124478243Y-55837000D01*
X124235757Y-55837000D01*
X123997931Y-55884307D01*
X123773903Y-55977102D01*
X123572283Y-56111820D01*
X123400820Y-56283283D01*
X123266102Y-56484903D01*
X123173307Y-56708931D01*
X123126000Y-56946757D01*
X123048000Y-56946757D01*
X123000693Y-56708931D01*
X122907898Y-56484903D01*
X122773180Y-56283283D01*
X122601717Y-56111820D01*
X122400097Y-55977102D01*
X122176069Y-55884307D01*
X121938243Y-55837000D01*
X121695757Y-55837000D01*
X121457931Y-55884307D01*
X121233903Y-55977102D01*
X121032283Y-56111820D01*
X120860820Y-56283283D01*
X120726102Y-56484903D01*
X120633307Y-56708931D01*
X120586000Y-56946757D01*
X120508000Y-56946757D01*
X120460693Y-56708931D01*
X120367898Y-56484903D01*
X120233180Y-56283283D01*
X120061717Y-56111820D01*
X119860097Y-55977102D01*
X119636069Y-55884307D01*
X119398243Y-55837000D01*
X119155757Y-55837000D01*
X118917931Y-55884307D01*
X118693903Y-55977102D01*
X118492283Y-56111820D01*
X118320820Y-56283283D01*
X118223927Y-56428294D01*
X118225072Y-56218000D01*
X118212812Y-56093518D01*
X118176502Y-55973820D01*
X118117537Y-55863506D01*
X118038185Y-55766815D01*
X117941494Y-55687463D01*
X117831180Y-55628498D01*
X117711482Y-55592188D01*
X117587000Y-55579928D01*
X117376706Y-55581073D01*
X117521717Y-55484180D01*
X117693180Y-55312717D01*
X117827898Y-55111097D01*
X117920693Y-54887069D01*
X117968000Y-54649243D01*
X117968000Y-54406757D01*
X118046000Y-54406757D01*
X118046000Y-54649243D01*
X118093307Y-54887069D01*
X118186102Y-55111097D01*
X118320820Y-55312717D01*
X118492283Y-55484180D01*
X118693903Y-55618898D01*
X118917931Y-55711693D01*
X119155757Y-55759000D01*
X119398243Y-55759000D01*
X119636069Y-55711693D01*
X119860097Y-55618898D01*
X120061717Y-55484180D01*
X120233180Y-55312717D01*
X120367898Y-55111097D01*
X120460693Y-54887069D01*
X120508000Y-54649243D01*
X120508000Y-54406757D01*
X120586000Y-54406757D01*
X120586000Y-54649243D01*
X120633307Y-54887069D01*
X120726102Y-55111097D01*
X120860820Y-55312717D01*
X121032283Y-55484180D01*
X121233903Y-55618898D01*
X121457931Y-55711693D01*
X121695757Y-55759000D01*
X121938243Y-55759000D01*
X122176069Y-55711693D01*
X122400097Y-55618898D01*
X122601717Y-55484180D01*
X122773180Y-55312717D01*
X122907898Y-55111097D01*
X123000693Y-54887069D01*
X123048000Y-54649243D01*
X123048000Y-54406757D01*
X123126000Y-54406757D01*
X123126000Y-54649243D01*
X123173307Y-54887069D01*
X123266102Y-55111097D01*
X123400820Y-55312717D01*
X123572283Y-55484180D01*
X123773903Y-55618898D01*
X123997931Y-55711693D01*
X124235757Y-55759000D01*
X124478243Y-55759000D01*
X124716069Y-55711693D01*
X124940097Y-55618898D01*
X125141717Y-55484180D01*
X125313180Y-55312717D01*
X125447898Y-55111097D01*
X125540693Y-54887069D01*
X125588000Y-54649243D01*
X125588000Y-54406757D01*
X125666000Y-54406757D01*
X125666000Y-54649243D01*
X125713307Y-54887069D01*
X125806102Y-55111097D01*
X125940820Y-55312717D01*
X126112283Y-55484180D01*
X126313903Y-55618898D01*
X126537931Y-55711693D01*
X126775757Y-55759000D01*
X127018243Y-55759000D01*
X127256069Y-55711693D01*
X127480097Y-55618898D01*
X127681717Y-55484180D01*
X127853180Y-55312717D01*
X127987898Y-55111097D01*
X128080693Y-54887069D01*
X128128000Y-54649243D01*
X128128000Y-54406757D01*
X128206000Y-54406757D01*
X128206000Y-54649243D01*
X128253307Y-54887069D01*
X128346102Y-55111097D01*
X128480820Y-55312717D01*
X128652283Y-55484180D01*
X128853903Y-55618898D01*
X129077931Y-55711693D01*
X129315757Y-55759000D01*
X129558243Y-55759000D01*
X129796069Y-55711693D01*
X130020097Y-55618898D01*
X130221717Y-55484180D01*
X130393180Y-55312717D01*
X130527898Y-55111097D01*
X130620693Y-54887069D01*
X130668000Y-54649243D01*
X130668000Y-54406757D01*
X130746000Y-54406757D01*
X130746000Y-54649243D01*
X130793307Y-54887069D01*
X130886102Y-55111097D01*
X131020820Y-55312717D01*
X131192283Y-55484180D01*
X131393903Y-55618898D01*
X131617931Y-55711693D01*
X131855757Y-55759000D01*
X132098243Y-55759000D01*
X132336069Y-55711693D01*
X132560097Y-55618898D01*
X132761717Y-55484180D01*
X132933180Y-55312717D01*
X133067898Y-55111097D01*
X133160693Y-54887069D01*
X133208000Y-54649243D01*
X133208000Y-54406757D01*
X133286000Y-54406757D01*
X133286000Y-54649243D01*
X133333307Y-54887069D01*
X133426102Y-55111097D01*
X133560820Y-55312717D01*
X133732283Y-55484180D01*
X133933903Y-55618898D01*
X134157931Y-55711693D01*
X134395757Y-55759000D01*
X134638243Y-55759000D01*
X134876069Y-55711693D01*
X135100097Y-55618898D01*
X135301717Y-55484180D01*
X135473180Y-55312717D01*
X135607898Y-55111097D01*
X135700693Y-54887069D01*
X135748000Y-54649243D01*
X135748000Y-54406757D01*
X135826000Y-54406757D01*
X135826000Y-54649243D01*
X135873307Y-54887069D01*
X135966102Y-55111097D01*
X136100820Y-55312717D01*
X136272283Y-55484180D01*
X136473903Y-55618898D01*
X136697931Y-55711693D01*
X136935757Y-55759000D01*
X137178243Y-55759000D01*
X137416069Y-55711693D01*
X137640097Y-55618898D01*
X137841717Y-55484180D01*
X138013180Y-55312717D01*
X138147898Y-55111097D01*
X138240693Y-54887069D01*
X138288000Y-54649243D01*
X138288000Y-54406757D01*
X138366000Y-54406757D01*
X138366000Y-54649243D01*
X138413307Y-54887069D01*
X138506102Y-55111097D01*
X138640820Y-55312717D01*
X138812283Y-55484180D01*
X139013903Y-55618898D01*
X139237931Y-55711693D01*
X139475757Y-55759000D01*
X139718243Y-55759000D01*
X139956069Y-55711693D01*
X140180097Y-55618898D01*
X140381717Y-55484180D01*
X140553180Y-55312717D01*
X140687898Y-55111097D01*
X140780693Y-54887069D01*
X140828000Y-54649243D01*
X140828000Y-54406757D01*
X140906000Y-54406757D01*
X140906000Y-54649243D01*
X140953307Y-54887069D01*
X141046102Y-55111097D01*
X141180820Y-55312717D01*
X141352283Y-55484180D01*
X141553903Y-55618898D01*
X141777931Y-55711693D01*
X142015757Y-55759000D01*
X142258243Y-55759000D01*
X142496069Y-55711693D01*
X142720097Y-55618898D01*
X142921717Y-55484180D01*
X143093180Y-55312717D01*
X143227898Y-55111097D01*
X143320693Y-54887069D01*
X143368000Y-54649243D01*
X143368000Y-54406757D01*
X143446000Y-54406757D01*
X143446000Y-54649243D01*
X143493307Y-54887069D01*
X143586102Y-55111097D01*
X143720820Y-55312717D01*
X143892283Y-55484180D01*
X144093903Y-55618898D01*
X144317931Y-55711693D01*
X144555757Y-55759000D01*
X144798243Y-55759000D01*
X145036069Y-55711693D01*
X145260097Y-55618898D01*
X145461717Y-55484180D01*
X145633180Y-55312717D01*
X145767898Y-55111097D01*
X145860693Y-54887069D01*
X145908000Y-54649243D01*
X145908000Y-54406757D01*
X145986000Y-54406757D01*
X145986000Y-54649243D01*
X146033307Y-54887069D01*
X146126102Y-55111097D01*
X146260820Y-55312717D01*
X146432283Y-55484180D01*
X146633903Y-55618898D01*
X146857931Y-55711693D01*
X147095757Y-55759000D01*
X147338243Y-55759000D01*
X147576069Y-55711693D01*
X147800097Y-55618898D01*
X148001717Y-55484180D01*
X148173180Y-55312717D01*
X148307898Y-55111097D01*
X148400693Y-54887069D01*
X148448000Y-54649243D01*
X148448000Y-54406757D01*
X148526000Y-54406757D01*
X148526000Y-54649243D01*
X148573307Y-54887069D01*
X148666102Y-55111097D01*
X148800820Y-55312717D01*
X148972283Y-55484180D01*
X149173903Y-55618898D01*
X149397931Y-55711693D01*
X149635757Y-55759000D01*
X149878243Y-55759000D01*
X150116069Y-55711693D01*
X150340097Y-55618898D01*
X150541717Y-55484180D01*
X150713180Y-55312717D01*
X150847898Y-55111097D01*
X150940693Y-54887069D01*
X150988000Y-54649243D01*
X150988000Y-54406757D01*
X151066000Y-54406757D01*
X151066000Y-54649243D01*
X151113307Y-54887069D01*
X151206102Y-55111097D01*
X151340820Y-55312717D01*
X151512283Y-55484180D01*
X151713903Y-55618898D01*
X151937931Y-55711693D01*
X152175757Y-55759000D01*
X152418243Y-55759000D01*
X152656069Y-55711693D01*
X152880097Y-55618898D01*
X153081717Y-55484180D01*
X153253180Y-55312717D01*
X153387898Y-55111097D01*
X153480693Y-54887069D01*
X153528000Y-54649243D01*
X153528000Y-54406757D01*
X153606000Y-54406757D01*
X153606000Y-54649243D01*
X153653307Y-54887069D01*
X153746102Y-55111097D01*
X153880820Y-55312717D01*
X154052283Y-55484180D01*
X154253903Y-55618898D01*
X154477931Y-55711693D01*
X154715757Y-55759000D01*
X154958243Y-55759000D01*
X155196069Y-55711693D01*
X155420097Y-55618898D01*
X155621717Y-55484180D01*
X155793180Y-55312717D01*
X155927898Y-55111097D01*
X156020693Y-54887069D01*
X156068000Y-54649243D01*
X156068000Y-54406757D01*
X156146000Y-54406757D01*
X156146000Y-54649243D01*
X156193307Y-54887069D01*
X156286102Y-55111097D01*
X156420820Y-55312717D01*
X156592283Y-55484180D01*
X156793903Y-55618898D01*
X157017931Y-55711693D01*
X157255757Y-55759000D01*
X157498243Y-55759000D01*
X157736069Y-55711693D01*
X157960097Y-55618898D01*
X158161717Y-55484180D01*
X158333180Y-55312717D01*
X158467898Y-55111097D01*
X158560693Y-54887069D01*
X158608000Y-54649243D01*
X158608000Y-54406757D01*
X158686000Y-54406757D01*
X158686000Y-54649243D01*
X158733307Y-54887069D01*
X158826102Y-55111097D01*
X158960820Y-55312717D01*
X159132283Y-55484180D01*
X159333903Y-55618898D01*
X159557931Y-55711693D01*
X159795757Y-55759000D01*
X160038243Y-55759000D01*
X160276069Y-55711693D01*
X160500097Y-55618898D01*
X160701717Y-55484180D01*
X160873180Y-55312717D01*
X161007898Y-55111097D01*
X161100693Y-54887069D01*
X161148000Y-54649243D01*
X161148000Y-54406757D01*
X161226000Y-54406757D01*
X161226000Y-54649243D01*
X161273307Y-54887069D01*
X161366102Y-55111097D01*
X161500820Y-55312717D01*
X161672283Y-55484180D01*
X161873903Y-55618898D01*
X162097931Y-55711693D01*
X162335757Y-55759000D01*
X162578243Y-55759000D01*
X162816069Y-55711693D01*
X163040097Y-55618898D01*
X163241717Y-55484180D01*
X163413180Y-55312717D01*
X163547898Y-55111097D01*
X163640693Y-54887069D01*
X163688000Y-54649243D01*
X163688000Y-54406757D01*
X163766000Y-54406757D01*
X163766000Y-54649243D01*
X163813307Y-54887069D01*
X163906102Y-55111097D01*
X164040820Y-55312717D01*
X164212283Y-55484180D01*
X164413903Y-55618898D01*
X164637931Y-55711693D01*
X164875757Y-55759000D01*
X165118243Y-55759000D01*
X165356069Y-55711693D01*
X165580097Y-55618898D01*
X165781717Y-55484180D01*
X165953180Y-55312717D01*
X166087898Y-55111097D01*
X166180693Y-54887069D01*
X166228000Y-54649243D01*
X166228000Y-54406757D01*
X166180693Y-54168931D01*
X166087898Y-53944903D01*
X165953180Y-53743283D01*
X165781717Y-53571820D01*
X165580097Y-53437102D01*
X165356069Y-53344307D01*
X165118243Y-53297000D01*
X164875757Y-53297000D01*
X164637931Y-53344307D01*
X164413903Y-53437102D01*
X164212283Y-53571820D01*
X164040820Y-53743283D01*
X163906102Y-53944903D01*
X163813307Y-54168931D01*
X163766000Y-54406757D01*
X163688000Y-54406757D01*
X163640693Y-54168931D01*
X163547898Y-53944903D01*
X163413180Y-53743283D01*
X163241717Y-53571820D01*
X163040097Y-53437102D01*
X162816069Y-53344307D01*
X162578243Y-53297000D01*
X162335757Y-53297000D01*
X162097931Y-53344307D01*
X161873903Y-53437102D01*
X161672283Y-53571820D01*
X161500820Y-53743283D01*
X161366102Y-53944903D01*
X161273307Y-54168931D01*
X161226000Y-54406757D01*
X161148000Y-54406757D01*
X161100693Y-54168931D01*
X161007898Y-53944903D01*
X160873180Y-53743283D01*
X160701717Y-53571820D01*
X160500097Y-53437102D01*
X160276069Y-53344307D01*
X160038243Y-53297000D01*
X159795757Y-53297000D01*
X159557931Y-53344307D01*
X159333903Y-53437102D01*
X159132283Y-53571820D01*
X158960820Y-53743283D01*
X158826102Y-53944903D01*
X158733307Y-54168931D01*
X158686000Y-54406757D01*
X158608000Y-54406757D01*
X158560693Y-54168931D01*
X158467898Y-53944903D01*
X158333180Y-53743283D01*
X158161717Y-53571820D01*
X157960097Y-53437102D01*
X157736069Y-53344307D01*
X157498243Y-53297000D01*
X157255757Y-53297000D01*
X157017931Y-53344307D01*
X156793903Y-53437102D01*
X156592283Y-53571820D01*
X156420820Y-53743283D01*
X156286102Y-53944903D01*
X156193307Y-54168931D01*
X156146000Y-54406757D01*
X156068000Y-54406757D01*
X156020693Y-54168931D01*
X155927898Y-53944903D01*
X155793180Y-53743283D01*
X155621717Y-53571820D01*
X155420097Y-53437102D01*
X155196069Y-53344307D01*
X154958243Y-53297000D01*
X154715757Y-53297000D01*
X154477931Y-53344307D01*
X154253903Y-53437102D01*
X154052283Y-53571820D01*
X153880820Y-53743283D01*
X153746102Y-53944903D01*
X153653307Y-54168931D01*
X153606000Y-54406757D01*
X153528000Y-54406757D01*
X153480693Y-54168931D01*
X153387898Y-53944903D01*
X153253180Y-53743283D01*
X153081717Y-53571820D01*
X152880097Y-53437102D01*
X152656069Y-53344307D01*
X152418243Y-53297000D01*
X152175757Y-53297000D01*
X151937931Y-53344307D01*
X151713903Y-53437102D01*
X151512283Y-53571820D01*
X151340820Y-53743283D01*
X151206102Y-53944903D01*
X151113307Y-54168931D01*
X151066000Y-54406757D01*
X150988000Y-54406757D01*
X150940693Y-54168931D01*
X150847898Y-53944903D01*
X150713180Y-53743283D01*
X150541717Y-53571820D01*
X150340097Y-53437102D01*
X150116069Y-53344307D01*
X149878243Y-53297000D01*
X149635757Y-53297000D01*
X149397931Y-53344307D01*
X149173903Y-53437102D01*
X148972283Y-53571820D01*
X148800820Y-53743283D01*
X148666102Y-53944903D01*
X148573307Y-54168931D01*
X148526000Y-54406757D01*
X148448000Y-54406757D01*
X148400693Y-54168931D01*
X148307898Y-53944903D01*
X148173180Y-53743283D01*
X148001717Y-53571820D01*
X147800097Y-53437102D01*
X147576069Y-53344307D01*
X147338243Y-53297000D01*
X147095757Y-53297000D01*
X146857931Y-53344307D01*
X146633903Y-53437102D01*
X146432283Y-53571820D01*
X146260820Y-53743283D01*
X146126102Y-53944903D01*
X146033307Y-54168931D01*
X145986000Y-54406757D01*
X145908000Y-54406757D01*
X145860693Y-54168931D01*
X145767898Y-53944903D01*
X145633180Y-53743283D01*
X145461717Y-53571820D01*
X145260097Y-53437102D01*
X145036069Y-53344307D01*
X144798243Y-53297000D01*
X144555757Y-53297000D01*
X144317931Y-53344307D01*
X144093903Y-53437102D01*
X143892283Y-53571820D01*
X143720820Y-53743283D01*
X143586102Y-53944903D01*
X143493307Y-54168931D01*
X143446000Y-54406757D01*
X143368000Y-54406757D01*
X143320693Y-54168931D01*
X143227898Y-53944903D01*
X143093180Y-53743283D01*
X142921717Y-53571820D01*
X142720097Y-53437102D01*
X142496069Y-53344307D01*
X142258243Y-53297000D01*
X142015757Y-53297000D01*
X141777931Y-53344307D01*
X141553903Y-53437102D01*
X141352283Y-53571820D01*
X141180820Y-53743283D01*
X141046102Y-53944903D01*
X140953307Y-54168931D01*
X140906000Y-54406757D01*
X140828000Y-54406757D01*
X140780693Y-54168931D01*
X140687898Y-53944903D01*
X140553180Y-53743283D01*
X140381717Y-53571820D01*
X140180097Y-53437102D01*
X139956069Y-53344307D01*
X139718243Y-53297000D01*
X139475757Y-53297000D01*
X139237931Y-53344307D01*
X139013903Y-53437102D01*
X138812283Y-53571820D01*
X138640820Y-53743283D01*
X138506102Y-53944903D01*
X138413307Y-54168931D01*
X138366000Y-54406757D01*
X138288000Y-54406757D01*
X138240693Y-54168931D01*
X138147898Y-53944903D01*
X138013180Y-53743283D01*
X137841717Y-53571820D01*
X137640097Y-53437102D01*
X137416069Y-53344307D01*
X137178243Y-53297000D01*
X136935757Y-53297000D01*
X136697931Y-53344307D01*
X136473903Y-53437102D01*
X136272283Y-53571820D01*
X136100820Y-53743283D01*
X135966102Y-53944903D01*
X135873307Y-54168931D01*
X135826000Y-54406757D01*
X135748000Y-54406757D01*
X135700693Y-54168931D01*
X135607898Y-53944903D01*
X135473180Y-53743283D01*
X135301717Y-53571820D01*
X135100097Y-53437102D01*
X134876069Y-53344307D01*
X134638243Y-53297000D01*
X134395757Y-53297000D01*
X134157931Y-53344307D01*
X133933903Y-53437102D01*
X133732283Y-53571820D01*
X133560820Y-53743283D01*
X133426102Y-53944903D01*
X133333307Y-54168931D01*
X133286000Y-54406757D01*
X133208000Y-54406757D01*
X133160693Y-54168931D01*
X133067898Y-53944903D01*
X132933180Y-53743283D01*
X132761717Y-53571820D01*
X132560097Y-53437102D01*
X132336069Y-53344307D01*
X132098243Y-53297000D01*
X131855757Y-53297000D01*
X131617931Y-53344307D01*
X131393903Y-53437102D01*
X131192283Y-53571820D01*
X131020820Y-53743283D01*
X130886102Y-53944903D01*
X130793307Y-54168931D01*
X130746000Y-54406757D01*
X130668000Y-54406757D01*
X130620693Y-54168931D01*
X130527898Y-53944903D01*
X130393180Y-53743283D01*
X130221717Y-53571820D01*
X130020097Y-53437102D01*
X129796069Y-53344307D01*
X129558243Y-53297000D01*
X129315757Y-53297000D01*
X129077931Y-53344307D01*
X128853903Y-53437102D01*
X128652283Y-53571820D01*
X128480820Y-53743283D01*
X128346102Y-53944903D01*
X128253307Y-54168931D01*
X128206000Y-54406757D01*
X128128000Y-54406757D01*
X128080693Y-54168931D01*
X127987898Y-53944903D01*
X127853180Y-53743283D01*
X127681717Y-53571820D01*
X127480097Y-53437102D01*
X127256069Y-53344307D01*
X127018243Y-53297000D01*
X126775757Y-53297000D01*
X126537931Y-53344307D01*
X126313903Y-53437102D01*
X126112283Y-53571820D01*
X125940820Y-53743283D01*
X125806102Y-53944903D01*
X125713307Y-54168931D01*
X125666000Y-54406757D01*
X125588000Y-54406757D01*
X125540693Y-54168931D01*
X125447898Y-53944903D01*
X125313180Y-53743283D01*
X125141717Y-53571820D01*
X124940097Y-53437102D01*
X124716069Y-53344307D01*
X124478243Y-53297000D01*
X124235757Y-53297000D01*
X123997931Y-53344307D01*
X123773903Y-53437102D01*
X123572283Y-53571820D01*
X123400820Y-53743283D01*
X123266102Y-53944903D01*
X123173307Y-54168931D01*
X123126000Y-54406757D01*
X123048000Y-54406757D01*
X123000693Y-54168931D01*
X122907898Y-53944903D01*
X122773180Y-53743283D01*
X122601717Y-53571820D01*
X122400097Y-53437102D01*
X122176069Y-53344307D01*
X121938243Y-53297000D01*
X121695757Y-53297000D01*
X121457931Y-53344307D01*
X121233903Y-53437102D01*
X121032283Y-53571820D01*
X120860820Y-53743283D01*
X120726102Y-53944903D01*
X120633307Y-54168931D01*
X120586000Y-54406757D01*
X120508000Y-54406757D01*
X120460693Y-54168931D01*
X120367898Y-53944903D01*
X120233180Y-53743283D01*
X120061717Y-53571820D01*
X119860097Y-53437102D01*
X119636069Y-53344307D01*
X119398243Y-53297000D01*
X119155757Y-53297000D01*
X118917931Y-53344307D01*
X118693903Y-53437102D01*
X118492283Y-53571820D01*
X118320820Y-53743283D01*
X118186102Y-53944903D01*
X118093307Y-54168931D01*
X118046000Y-54406757D01*
X117968000Y-54406757D01*
X117920693Y-54168931D01*
X117827898Y-53944903D01*
X117693180Y-53743283D01*
X117521717Y-53571820D01*
X117320097Y-53437102D01*
X117096069Y-53344307D01*
X116858243Y-53297000D01*
X116615757Y-53297000D01*
X116377931Y-53344307D01*
X116153903Y-53437102D01*
X115952283Y-53571820D01*
X115780820Y-53743283D01*
X115646102Y-53944903D01*
X115553307Y-54168931D01*
X115506000Y-54406757D01*
X115506000Y-54649243D01*
X115553307Y-54887069D01*
X115646102Y-55111097D01*
X115780820Y-55312717D01*
X115952283Y-55484180D01*
X116097294Y-55581073D01*
X115887000Y-55579928D01*
X115762518Y-55592188D01*
X115642820Y-55628498D01*
X115532506Y-55687463D01*
X115435815Y-55766815D01*
X115431000Y-55772682D01*
X115431000Y-55447302D01*
X115293384Y-54755461D01*
X115023441Y-54103760D01*
X114631544Y-53517246D01*
X114132754Y-53018456D01*
X113739962Y-52756000D01*
X167960038Y-52756000D01*
X167567246Y-53018456D01*
G37*
G04 #@! TD.AperFunction*
M02*
