M48
; DRILL file {KiCad 5.1.10-88a1d61d58~90~ubuntu21.04.1} date Thu Oct 28 10:16:27 2021
; FORMAT={-:-/ absolute / metric / decimal}
; #@! TF.CreationDate,2021-10-28T10:16:27+02:00
; #@! TF.GenerationSoftware,Kicad,Pcbnew,5.1.10-88a1d61d58~90~ubuntu21.04.1
; #@! TF.FileFunction,Plated,1,4,PTH
FMAT,2
METRIC
T1C0.300
T2C0.400
T3C0.600
T4C1.000
T5C2.100
T6C3.200
T7C3.200
%
G90
G05
T1
X110.426Y-71.803
X111.197Y-75.16
X111.202Y-77.06
X111.95Y-65.897
X112.014Y-63.294
X113.383Y-74.815
X113.401Y-77.02
X115.987Y-76.085
X115.987Y-77.355
X116.876Y-77.355
X117.003Y-76.085
X117.956Y-76.085
X118.019Y-77.355
X120.749Y-77.355
X121.539Y-84.757
X121.793Y-59.484
X123.634Y-74.978
X125.222Y-79.359
X126.841Y-87.237
X127.508Y-84.82
X128.197Y-60.379
X128.27Y-71.105
X128.333Y-63.357
X129.218Y-87.99
X132.905Y-64.691
X133.794Y-73.073
X135.128Y-63.167
X140.462Y-61.389
X142.189Y-80.315
X142.621Y-61.135
X143.104Y-78.74
X146.177Y-77.66
X146.878Y-82.362
X148.53Y-80.107
X148.778Y-82.283
X149.479Y-65.199
X149.48Y-66.978
X150.241Y-78.295
X159.893Y-65.326
X160.528Y-70.914
X161.798Y-66.85
X162.814Y-73.708
X163.322Y-65.961
X163.499Y-85.433
X164.185Y-84.147
X164.338Y-78.724
X164.592Y-70.914
X165.1Y-72.057
X165.289Y-64.629
X165.989Y-92.504
X166.433Y-61.706
X166.885Y-81.544
X169.355Y-84.185
X170.434Y-72.438
X170.498Y-69.898
X170.688Y-64.437
X170.815Y-62.405
X173.114Y-72.425
X173.304Y-71.155
X173.736Y-64.564
X174.314Y-84.401
X174.32Y-72.425
X174.384Y-71.155
X174.625Y-66.088
X175.266Y-78.369
X175.337Y-72.425
X175.463Y-71.155
X176.276Y-60.881
X177.372Y-77.366
X177.581Y-65.418
X178.235Y-72.13
X178.378Y-76.049
X178.44Y-87.451
X178.599Y-84.308
X179.542Y-83.111
X180.721Y-97.457
X180.95Y-102.988
X180.97Y-72.13
X181.102Y-91.361
X181.864Y-93.774
X182.372Y-94.917
X182.499Y-92.25
X183.706Y-63.23
X183.706Y-65.453
X185.674Y-93.647
X186.18Y-86.691
X187.579Y-76.248
X187.644Y-77.518
X187.96Y-86.408
X189.103Y-78.788
X189.743Y-88.841
X191.135Y-105.077
X192.151Y-76.121
X192.151Y-89.075
X192.175Y-85.138
X192.659Y-80.058
T2
X117.282Y-88.44
X119.316Y-89.583
X121.539Y-89.519
X121.602Y-91.551
X122.174Y-87.233
X123.253Y-87.297
X124.206Y-87.424
X124.587Y-77.073
X124.65Y-74.787
X124.714Y-72.755
X125.793Y-87.297
X126.555Y-72.882
X126.555Y-74.851
X130.429Y-73.454
X132.905Y-70.533
T3
X187.452Y-59.611
T4
X116.737Y-54.528
X116.737Y-57.068
X119.277Y-54.528
X119.277Y-57.068
X121.817Y-54.528
X121.817Y-57.068
X122.76Y-95.89
X124.357Y-54.528
X124.357Y-57.068
X125.3Y-95.89
X126.897Y-54.528
X126.897Y-57.068
X129.437Y-54.528
X129.437Y-57.068
X131.977Y-54.528
X131.977Y-57.068
X134.517Y-54.528
X134.517Y-57.068
X137.057Y-54.528
X137.057Y-57.068
X138.938Y-63.04
X138.95Y-87.21
X139.597Y-54.528
X139.597Y-57.068
X141.478Y-63.04
X141.48Y-87.2
X142.137Y-54.528
X142.137Y-57.068
X144.018Y-63.04
X144.02Y-87.2
X144.677Y-54.528
X144.677Y-57.068
X146.56Y-87.2
X147.217Y-54.528
X147.217Y-57.068
X149.1Y-87.2
X149.757Y-54.528
X149.757Y-57.068
X151.64Y-87.21
X152.297Y-54.528
X152.297Y-57.068
X154.837Y-54.528
X154.837Y-57.068
X157.377Y-54.528
X157.377Y-57.068
X159.917Y-54.528
X159.917Y-57.068
X162.457Y-54.528
X162.457Y-57.068
X164.997Y-54.528
X164.997Y-57.068
X168.84Y-95.83
X171.38Y-95.83
X183.642Y-55.547
X186.182Y-55.547
X188.722Y-55.547
X191.262Y-55.547
T5
X117.68Y-100.97
X127.84Y-100.97
X163.76Y-100.91
X173.92Y-100.91
T6
X111.85Y-55.8
X111.85Y-104.8
X169.85Y-104.8
T7
X169.85Y-55.8
T0
M30
