G04 #@! TF.GenerationSoftware,KiCad,Pcbnew,5.1.10-88a1d61d58~90~ubuntu21.04.1*
G04 #@! TF.CreationDate,2021-10-28T10:16:53+02:00*
G04 #@! TF.ProjectId,dwc-hat,6477632d-6861-4742-9e6b-696361645f70,rev?*
G04 #@! TF.SameCoordinates,Original*
G04 #@! TF.FileFunction,Soldermask,Bot*
G04 #@! TF.FilePolarity,Negative*
%FSLAX46Y46*%
G04 Gerber Fmt 4.6, Leading zero omitted, Abs format (unit mm)*
G04 Created by KiCad (PCBNEW 5.1.10-88a1d61d58~90~ubuntu21.04.1) date 2021-10-28 10:16:53*
%MOMM*%
%LPD*%
G01*
G04 APERTURE LIST*
%ADD10C,2.000000*%
%ADD11C,3.886200*%
%ADD12O,1.700000X1.700000*%
%ADD13R,1.700000X1.700000*%
%ADD14C,1.500000*%
%ADD15C,3.000000*%
%ADD16C,6.400000*%
G04 APERTURE END LIST*
D10*
X138950000Y-87210000D03*
X151640000Y-87210000D03*
D11*
X156847000Y-99440000D03*
X133733000Y-99440000D03*
D10*
X149100000Y-87200000D03*
X146560000Y-87200000D03*
X144020000Y-87200000D03*
X141480000Y-87200000D03*
D12*
X191262000Y-55547000D03*
X188722000Y-55547000D03*
X186182000Y-55547000D03*
D13*
X183642000Y-55547000D03*
D12*
X144018000Y-63040000D03*
X141478000Y-63040000D03*
D13*
X138938000Y-63040000D03*
D12*
X164997000Y-54528000D03*
X164997000Y-57068000D03*
X162457000Y-54528000D03*
X162457000Y-57068000D03*
X159917000Y-54528000D03*
X159917000Y-57068000D03*
X157377000Y-54528000D03*
X157377000Y-57068000D03*
X154837000Y-54528000D03*
X154837000Y-57068000D03*
X152297000Y-54528000D03*
X152297000Y-57068000D03*
X149757000Y-54528000D03*
X149757000Y-57068000D03*
X147217000Y-54528000D03*
X147217000Y-57068000D03*
X144677000Y-54528000D03*
X144677000Y-57068000D03*
X142137000Y-54528000D03*
X142137000Y-57068000D03*
X139597000Y-54528000D03*
X139597000Y-57068000D03*
X137057000Y-54528000D03*
X137057000Y-57068000D03*
X134517000Y-54528000D03*
X134517000Y-57068000D03*
X131977000Y-54528000D03*
X131977000Y-57068000D03*
X129437000Y-54528000D03*
X129437000Y-57068000D03*
X126897000Y-54528000D03*
X126897000Y-57068000D03*
X124357000Y-54528000D03*
X124357000Y-57068000D03*
X121817000Y-54528000D03*
X121817000Y-57068000D03*
X119277000Y-54528000D03*
X119277000Y-57068000D03*
X116737000Y-54528000D03*
D13*
X116737000Y-57068000D03*
D14*
X125300000Y-95890000D03*
X122760000Y-95890000D03*
D15*
X117680000Y-100970000D03*
X127840000Y-100970000D03*
D14*
X171380000Y-95830000D03*
X168840000Y-95830000D03*
D15*
X163760000Y-100910000D03*
X173920000Y-100910000D03*
D16*
X169850000Y-104800000D03*
X111850000Y-104800000D03*
X169850000Y-55800000D03*
X111850000Y-55800000D03*
M02*
