G04 #@! TF.GenerationSoftware,KiCad,Pcbnew,5.1.10-88a1d61d58~90~ubuntu21.04.1*
G04 #@! TF.CreationDate,2021-10-28T10:16:53+02:00*
G04 #@! TF.ProjectId,dwc-hat,6477632d-6861-4742-9e6b-696361645f70,rev?*
G04 #@! TF.SameCoordinates,Original*
G04 #@! TF.FileFunction,Copper,L1,Top*
G04 #@! TF.FilePolarity,Positive*
%FSLAX46Y46*%
G04 Gerber Fmt 4.6, Leading zero omitted, Abs format (unit mm)*
G04 Created by KiCad (PCBNEW 5.1.10-88a1d61d58~90~ubuntu21.04.1) date 2021-10-28 10:16:53*
%MOMM*%
%LPD*%
G01*
G04 APERTURE LIST*
G04 #@! TA.AperFunction,EtchedComponent*
%ADD10C,0.100000*%
G04 #@! TD*
G04 #@! TA.AperFunction,ComponentPad*
%ADD11C,2.000000*%
G04 #@! TD*
G04 #@! TA.AperFunction,SMDPad,CuDef*
%ADD12R,0.800000X0.900000*%
G04 #@! TD*
G04 #@! TA.AperFunction,SMDPad,CuDef*
%ADD13R,1.500000X1.500000*%
G04 #@! TD*
G04 #@! TA.AperFunction,SMDPad,CuDef*
%ADD14R,0.900000X1.000000*%
G04 #@! TD*
G04 #@! TA.AperFunction,ComponentPad*
%ADD15O,1.700000X1.700000*%
G04 #@! TD*
G04 #@! TA.AperFunction,ComponentPad*
%ADD16R,1.700000X1.700000*%
G04 #@! TD*
G04 #@! TA.AperFunction,SMDPad,CuDef*
%ADD17R,0.650000X1.060000*%
G04 #@! TD*
G04 #@! TA.AperFunction,SMDPad,CuDef*
%ADD18R,1.000000X1.500000*%
G04 #@! TD*
G04 #@! TA.AperFunction,SMDPad,CuDef*
%ADD19C,0.100000*%
G04 #@! TD*
G04 #@! TA.AperFunction,SMDPad,CuDef*
%ADD20R,2.300000X1.000000*%
G04 #@! TD*
G04 #@! TA.AperFunction,SMDPad,CuDef*
%ADD21C,0.500000*%
G04 #@! TD*
G04 #@! TA.AperFunction,SMDPad,CuDef*
%ADD22R,0.650000X2.760000*%
G04 #@! TD*
G04 #@! TA.AperFunction,ComponentPad*
%ADD23C,1.500000*%
G04 #@! TD*
G04 #@! TA.AperFunction,ComponentPad*
%ADD24C,3.000000*%
G04 #@! TD*
G04 #@! TA.AperFunction,SMDPad,CuDef*
%ADD25R,1.220000X0.910000*%
G04 #@! TD*
G04 #@! TA.AperFunction,ComponentPad*
%ADD26C,6.400000*%
G04 #@! TD*
G04 #@! TA.AperFunction,ViaPad*
%ADD27C,0.600000*%
G04 #@! TD*
G04 #@! TA.AperFunction,ViaPad*
%ADD28C,1.000000*%
G04 #@! TD*
G04 #@! TA.AperFunction,Conductor*
%ADD29C,0.600000*%
G04 #@! TD*
G04 #@! TA.AperFunction,Conductor*
%ADD30C,0.950000*%
G04 #@! TD*
G04 #@! TA.AperFunction,Conductor*
%ADD31C,0.800000*%
G04 #@! TD*
G04 #@! TA.AperFunction,Conductor*
%ADD32C,0.400000*%
G04 #@! TD*
G04 #@! TA.AperFunction,Conductor*
%ADD33C,0.406400*%
G04 #@! TD*
G04 #@! TA.AperFunction,Conductor*
%ADD34C,0.500000*%
G04 #@! TD*
G04 #@! TA.AperFunction,Conductor*
%ADD35C,0.300000*%
G04 #@! TD*
G04 #@! TA.AperFunction,Conductor*
%ADD36C,0.508000*%
G04 #@! TD*
G04 APERTURE END LIST*
D10*
G36*
X180852000Y-94782000D02*
G01*
X180852000Y-93782000D01*
X181352000Y-93782000D01*
X181352000Y-94782000D01*
X180852000Y-94782000D01*
G37*
G36*
X184789000Y-94655000D02*
G01*
X184789000Y-93655000D01*
X185289000Y-93655000D01*
X185289000Y-94655000D01*
X184789000Y-94655000D01*
G37*
D11*
X138950000Y-87210000D03*
X151640000Y-87210000D03*
X149100000Y-87200000D03*
X146560000Y-87200000D03*
X144020000Y-87200000D03*
X141480000Y-87200000D03*
D12*
X143131500Y-77565500D03*
X144081500Y-79565500D03*
X142181500Y-79565500D03*
G04 #@! TA.AperFunction,SMDPad,CuDef*
G36*
G01*
X146271000Y-78102000D02*
X145321000Y-78102000D01*
G75*
G02*
X145071000Y-77852000I0J250000D01*
G01*
X145071000Y-77352000D01*
G75*
G02*
X145321000Y-77102000I250000J0D01*
G01*
X146271000Y-77102000D01*
G75*
G02*
X146521000Y-77352000I0J-250000D01*
G01*
X146521000Y-77852000D01*
G75*
G02*
X146271000Y-78102000I-250000J0D01*
G01*
G37*
G04 #@! TD.AperFunction*
G04 #@! TA.AperFunction,SMDPad,CuDef*
G36*
G01*
X146271000Y-80002000D02*
X145321000Y-80002000D01*
G75*
G02*
X145071000Y-79752000I0J250000D01*
G01*
X145071000Y-79252000D01*
G75*
G02*
X145321000Y-79002000I250000J0D01*
G01*
X146271000Y-79002000D01*
G75*
G02*
X146521000Y-79252000I0J-250000D01*
G01*
X146521000Y-79752000D01*
G75*
G02*
X146271000Y-80002000I-250000J0D01*
G01*
G37*
G04 #@! TD.AperFunction*
G04 #@! TA.AperFunction,SMDPad,CuDef*
G36*
G01*
X150743499Y-82799500D02*
X151643501Y-82799500D01*
G75*
G02*
X151893500Y-83049499I0J-249999D01*
G01*
X151893500Y-83574501D01*
G75*
G02*
X151643501Y-83824500I-249999J0D01*
G01*
X150743499Y-83824500D01*
G75*
G02*
X150493500Y-83574501I0J249999D01*
G01*
X150493500Y-83049499D01*
G75*
G02*
X150743499Y-82799500I249999J0D01*
G01*
G37*
G04 #@! TD.AperFunction*
G04 #@! TA.AperFunction,SMDPad,CuDef*
G36*
G01*
X150743499Y-80974500D02*
X151643501Y-80974500D01*
G75*
G02*
X151893500Y-81224499I0J-249999D01*
G01*
X151893500Y-81749501D01*
G75*
G02*
X151643501Y-81999500I-249999J0D01*
G01*
X150743499Y-81999500D01*
G75*
G02*
X150493500Y-81749501I0J249999D01*
G01*
X150493500Y-81224499D01*
G75*
G02*
X150743499Y-80974500I249999J0D01*
G01*
G37*
G04 #@! TD.AperFunction*
G04 #@! TA.AperFunction,SMDPad,CuDef*
G36*
G01*
X151668500Y-78610000D02*
X150718500Y-78610000D01*
G75*
G02*
X150468500Y-78360000I0J250000D01*
G01*
X150468500Y-77860000D01*
G75*
G02*
X150718500Y-77610000I250000J0D01*
G01*
X151668500Y-77610000D01*
G75*
G02*
X151918500Y-77860000I0J-250000D01*
G01*
X151918500Y-78360000D01*
G75*
G02*
X151668500Y-78610000I-250000J0D01*
G01*
G37*
G04 #@! TD.AperFunction*
G04 #@! TA.AperFunction,SMDPad,CuDef*
G36*
G01*
X151668500Y-80510000D02*
X150718500Y-80510000D01*
G75*
G02*
X150468500Y-80260000I0J250000D01*
G01*
X150468500Y-79760000D01*
G75*
G02*
X150718500Y-79510000I250000J0D01*
G01*
X151668500Y-79510000D01*
G75*
G02*
X151918500Y-79760000I0J-250000D01*
G01*
X151918500Y-80260000D01*
G75*
G02*
X151668500Y-80510000I-250000J0D01*
G01*
G37*
G04 #@! TD.AperFunction*
D13*
X172974000Y-84058500D03*
X165100000Y-89710000D03*
X169418000Y-91615000D03*
X173355000Y-86916000D03*
D14*
X190347000Y-88050000D03*
X190347000Y-85900000D03*
X191897000Y-85900000D03*
X191897000Y-88050000D03*
G04 #@! TA.AperFunction,SMDPad,CuDef*
G36*
G01*
X191143000Y-90439000D02*
X191143000Y-89489000D01*
G75*
G02*
X191393000Y-89239000I250000J0D01*
G01*
X191893000Y-89239000D01*
G75*
G02*
X192143000Y-89489000I0J-250000D01*
G01*
X192143000Y-90439000D01*
G75*
G02*
X191893000Y-90689000I-250000J0D01*
G01*
X191393000Y-90689000D01*
G75*
G02*
X191143000Y-90439000I0J250000D01*
G01*
G37*
G04 #@! TD.AperFunction*
G04 #@! TA.AperFunction,SMDPad,CuDef*
G36*
G01*
X189243000Y-90439000D02*
X189243000Y-89489000D01*
G75*
G02*
X189493000Y-89239000I250000J0D01*
G01*
X189993000Y-89239000D01*
G75*
G02*
X190243000Y-89489000I0J-250000D01*
G01*
X190243000Y-90439000D01*
G75*
G02*
X189993000Y-90689000I-250000J0D01*
G01*
X189493000Y-90689000D01*
G75*
G02*
X189243000Y-90439000I0J250000D01*
G01*
G37*
G04 #@! TD.AperFunction*
D15*
X191262000Y-55547000D03*
X188722000Y-55547000D03*
X186182000Y-55547000D03*
D16*
X183642000Y-55547000D03*
D15*
X144018000Y-63040000D03*
X141478000Y-63040000D03*
D16*
X138938000Y-63040000D03*
G04 #@! TA.AperFunction,SMDPad,CuDef*
G36*
G01*
X150746000Y-84615000D02*
X150746000Y-85565000D01*
G75*
G02*
X150496000Y-85815000I-250000J0D01*
G01*
X149996000Y-85815000D01*
G75*
G02*
X149746000Y-85565000I0J250000D01*
G01*
X149746000Y-84615000D01*
G75*
G02*
X149996000Y-84365000I250000J0D01*
G01*
X150496000Y-84365000D01*
G75*
G02*
X150746000Y-84615000I0J-250000D01*
G01*
G37*
G04 #@! TD.AperFunction*
G04 #@! TA.AperFunction,SMDPad,CuDef*
G36*
G01*
X152646000Y-84615000D02*
X152646000Y-85565000D01*
G75*
G02*
X152396000Y-85815000I-250000J0D01*
G01*
X151896000Y-85815000D01*
G75*
G02*
X151646000Y-85565000I0J250000D01*
G01*
X151646000Y-84615000D01*
G75*
G02*
X151896000Y-84365000I250000J0D01*
G01*
X152396000Y-84365000D01*
G75*
G02*
X152646000Y-84615000I0J-250000D01*
G01*
G37*
G04 #@! TD.AperFunction*
G04 #@! TA.AperFunction,SMDPad,CuDef*
G36*
G01*
X148217000Y-85565000D02*
X148217000Y-84615000D01*
G75*
G02*
X148467000Y-84365000I250000J0D01*
G01*
X148967000Y-84365000D01*
G75*
G02*
X149217000Y-84615000I0J-250000D01*
G01*
X149217000Y-85565000D01*
G75*
G02*
X148967000Y-85815000I-250000J0D01*
G01*
X148467000Y-85815000D01*
G75*
G02*
X148217000Y-85565000I0J250000D01*
G01*
G37*
G04 #@! TD.AperFunction*
G04 #@! TA.AperFunction,SMDPad,CuDef*
G36*
G01*
X146317000Y-85565000D02*
X146317000Y-84615000D01*
G75*
G02*
X146567000Y-84365000I250000J0D01*
G01*
X147067000Y-84365000D01*
G75*
G02*
X147317000Y-84615000I0J-250000D01*
G01*
X147317000Y-85565000D01*
G75*
G02*
X147067000Y-85815000I-250000J0D01*
G01*
X146567000Y-85815000D01*
G75*
G02*
X146317000Y-85565000I0J250000D01*
G01*
G37*
G04 #@! TD.AperFunction*
G04 #@! TA.AperFunction,SMDPad,CuDef*
G36*
G01*
X148278000Y-83660000D02*
X148278000Y-82710000D01*
G75*
G02*
X148528000Y-82460000I250000J0D01*
G01*
X149028000Y-82460000D01*
G75*
G02*
X149278000Y-82710000I0J-250000D01*
G01*
X149278000Y-83660000D01*
G75*
G02*
X149028000Y-83910000I-250000J0D01*
G01*
X148528000Y-83910000D01*
G75*
G02*
X148278000Y-83660000I0J250000D01*
G01*
G37*
G04 #@! TD.AperFunction*
G04 #@! TA.AperFunction,SMDPad,CuDef*
G36*
G01*
X146378000Y-83660000D02*
X146378000Y-82710000D01*
G75*
G02*
X146628000Y-82460000I250000J0D01*
G01*
X147128000Y-82460000D01*
G75*
G02*
X147378000Y-82710000I0J-250000D01*
G01*
X147378000Y-83660000D01*
G75*
G02*
X147128000Y-83910000I-250000J0D01*
G01*
X146628000Y-83910000D01*
G75*
G02*
X146378000Y-83660000I0J250000D01*
G01*
G37*
G04 #@! TD.AperFunction*
G04 #@! TA.AperFunction,SMDPad,CuDef*
G36*
G01*
X175749000Y-90910998D02*
X175749000Y-91811002D01*
G75*
G02*
X175499002Y-92061000I-249998J0D01*
G01*
X174973998Y-92061000D01*
G75*
G02*
X174724000Y-91811002I0J249998D01*
G01*
X174724000Y-90910998D01*
G75*
G02*
X174973998Y-90661000I249998J0D01*
G01*
X175499002Y-90661000D01*
G75*
G02*
X175749000Y-90910998I0J-249998D01*
G01*
G37*
G04 #@! TD.AperFunction*
G04 #@! TA.AperFunction,SMDPad,CuDef*
G36*
G01*
X177574000Y-90910998D02*
X177574000Y-91811002D01*
G75*
G02*
X177324002Y-92061000I-249998J0D01*
G01*
X176798998Y-92061000D01*
G75*
G02*
X176549000Y-91811002I0J249998D01*
G01*
X176549000Y-90910998D01*
G75*
G02*
X176798998Y-90661000I249998J0D01*
G01*
X177324002Y-90661000D01*
G75*
G02*
X177574000Y-90910998I0J-249998D01*
G01*
G37*
G04 #@! TD.AperFunction*
G04 #@! TA.AperFunction,SMDPad,CuDef*
G36*
G01*
X142182000Y-60721000D02*
X142182000Y-59771000D01*
G75*
G02*
X142432000Y-59521000I250000J0D01*
G01*
X142932000Y-59521000D01*
G75*
G02*
X143182000Y-59771000I0J-250000D01*
G01*
X143182000Y-60721000D01*
G75*
G02*
X142932000Y-60971000I-250000J0D01*
G01*
X142432000Y-60971000D01*
G75*
G02*
X142182000Y-60721000I0J250000D01*
G01*
G37*
G04 #@! TD.AperFunction*
G04 #@! TA.AperFunction,SMDPad,CuDef*
G36*
G01*
X140282000Y-60721000D02*
X140282000Y-59771000D01*
G75*
G02*
X140532000Y-59521000I250000J0D01*
G01*
X141032000Y-59521000D01*
G75*
G02*
X141282000Y-59771000I0J-250000D01*
G01*
X141282000Y-60721000D01*
G75*
G02*
X141032000Y-60971000I-250000J0D01*
G01*
X140532000Y-60971000D01*
G75*
G02*
X140282000Y-60721000I0J250000D01*
G01*
G37*
G04 #@! TD.AperFunction*
G04 #@! TA.AperFunction,SMDPad,CuDef*
G36*
G01*
X126623500Y-59033998D02*
X126623500Y-59934002D01*
G75*
G02*
X126373502Y-60184000I-249998J0D01*
G01*
X125848498Y-60184000D01*
G75*
G02*
X125598500Y-59934002I0J249998D01*
G01*
X125598500Y-59033998D01*
G75*
G02*
X125848498Y-58784000I249998J0D01*
G01*
X126373502Y-58784000D01*
G75*
G02*
X126623500Y-59033998I0J-249998D01*
G01*
G37*
G04 #@! TD.AperFunction*
G04 #@! TA.AperFunction,SMDPad,CuDef*
G36*
G01*
X128448500Y-59033998D02*
X128448500Y-59934002D01*
G75*
G02*
X128198502Y-60184000I-249998J0D01*
G01*
X127673498Y-60184000D01*
G75*
G02*
X127423500Y-59934002I0J249998D01*
G01*
X127423500Y-59033998D01*
G75*
G02*
X127673498Y-58784000I249998J0D01*
G01*
X128198502Y-58784000D01*
G75*
G02*
X128448500Y-59033998I0J-249998D01*
G01*
G37*
G04 #@! TD.AperFunction*
G04 #@! TA.AperFunction,SMDPad,CuDef*
G36*
G01*
X176706000Y-61031000D02*
X176706000Y-60731000D01*
G75*
G02*
X176856000Y-60581000I150000J0D01*
G01*
X178306000Y-60581000D01*
G75*
G02*
X178456000Y-60731000I0J-150000D01*
G01*
X178456000Y-61031000D01*
G75*
G02*
X178306000Y-61181000I-150000J0D01*
G01*
X176856000Y-61181000D01*
G75*
G02*
X176706000Y-61031000I0J150000D01*
G01*
G37*
G04 #@! TD.AperFunction*
G04 #@! TA.AperFunction,SMDPad,CuDef*
G36*
G01*
X176706000Y-62301000D02*
X176706000Y-62001000D01*
G75*
G02*
X176856000Y-61851000I150000J0D01*
G01*
X178306000Y-61851000D01*
G75*
G02*
X178456000Y-62001000I0J-150000D01*
G01*
X178456000Y-62301000D01*
G75*
G02*
X178306000Y-62451000I-150000J0D01*
G01*
X176856000Y-62451000D01*
G75*
G02*
X176706000Y-62301000I0J150000D01*
G01*
G37*
G04 #@! TD.AperFunction*
G04 #@! TA.AperFunction,SMDPad,CuDef*
G36*
G01*
X176706000Y-63571000D02*
X176706000Y-63271000D01*
G75*
G02*
X176856000Y-63121000I150000J0D01*
G01*
X178306000Y-63121000D01*
G75*
G02*
X178456000Y-63271000I0J-150000D01*
G01*
X178456000Y-63571000D01*
G75*
G02*
X178306000Y-63721000I-150000J0D01*
G01*
X176856000Y-63721000D01*
G75*
G02*
X176706000Y-63571000I0J150000D01*
G01*
G37*
G04 #@! TD.AperFunction*
G04 #@! TA.AperFunction,SMDPad,CuDef*
G36*
G01*
X176706000Y-64841000D02*
X176706000Y-64541000D01*
G75*
G02*
X176856000Y-64391000I150000J0D01*
G01*
X178306000Y-64391000D01*
G75*
G02*
X178456000Y-64541000I0J-150000D01*
G01*
X178456000Y-64841000D01*
G75*
G02*
X178306000Y-64991000I-150000J0D01*
G01*
X176856000Y-64991000D01*
G75*
G02*
X176706000Y-64841000I0J150000D01*
G01*
G37*
G04 #@! TD.AperFunction*
G04 #@! TA.AperFunction,SMDPad,CuDef*
G36*
G01*
X171556000Y-64841000D02*
X171556000Y-64541000D01*
G75*
G02*
X171706000Y-64391000I150000J0D01*
G01*
X173156000Y-64391000D01*
G75*
G02*
X173306000Y-64541000I0J-150000D01*
G01*
X173306000Y-64841000D01*
G75*
G02*
X173156000Y-64991000I-150000J0D01*
G01*
X171706000Y-64991000D01*
G75*
G02*
X171556000Y-64841000I0J150000D01*
G01*
G37*
G04 #@! TD.AperFunction*
G04 #@! TA.AperFunction,SMDPad,CuDef*
G36*
G01*
X171556000Y-63571000D02*
X171556000Y-63271000D01*
G75*
G02*
X171706000Y-63121000I150000J0D01*
G01*
X173156000Y-63121000D01*
G75*
G02*
X173306000Y-63271000I0J-150000D01*
G01*
X173306000Y-63571000D01*
G75*
G02*
X173156000Y-63721000I-150000J0D01*
G01*
X171706000Y-63721000D01*
G75*
G02*
X171556000Y-63571000I0J150000D01*
G01*
G37*
G04 #@! TD.AperFunction*
G04 #@! TA.AperFunction,SMDPad,CuDef*
G36*
G01*
X171556000Y-62301000D02*
X171556000Y-62001000D01*
G75*
G02*
X171706000Y-61851000I150000J0D01*
G01*
X173156000Y-61851000D01*
G75*
G02*
X173306000Y-62001000I0J-150000D01*
G01*
X173306000Y-62301000D01*
G75*
G02*
X173156000Y-62451000I-150000J0D01*
G01*
X171706000Y-62451000D01*
G75*
G02*
X171556000Y-62301000I0J150000D01*
G01*
G37*
G04 #@! TD.AperFunction*
G04 #@! TA.AperFunction,SMDPad,CuDef*
G36*
G01*
X171556000Y-61031000D02*
X171556000Y-60731000D01*
G75*
G02*
X171706000Y-60581000I150000J0D01*
G01*
X173156000Y-60581000D01*
G75*
G02*
X173306000Y-60731000I0J-150000D01*
G01*
X173306000Y-61031000D01*
G75*
G02*
X173156000Y-61181000I-150000J0D01*
G01*
X171706000Y-61181000D01*
G75*
G02*
X171556000Y-61031000I0J150000D01*
G01*
G37*
G04 #@! TD.AperFunction*
G04 #@! TA.AperFunction,SMDPad,CuDef*
G36*
G01*
X186632002Y-58218500D02*
X185731998Y-58218500D01*
G75*
G02*
X185482000Y-57968502I0J249998D01*
G01*
X185482000Y-57443498D01*
G75*
G02*
X185731998Y-57193500I249998J0D01*
G01*
X186632002Y-57193500D01*
G75*
G02*
X186882000Y-57443498I0J-249998D01*
G01*
X186882000Y-57968502D01*
G75*
G02*
X186632002Y-58218500I-249998J0D01*
G01*
G37*
G04 #@! TD.AperFunction*
G04 #@! TA.AperFunction,SMDPad,CuDef*
G36*
G01*
X186632002Y-60043500D02*
X185731998Y-60043500D01*
G75*
G02*
X185482000Y-59793502I0J249998D01*
G01*
X185482000Y-59268498D01*
G75*
G02*
X185731998Y-59018500I249998J0D01*
G01*
X186632002Y-59018500D01*
G75*
G02*
X186882000Y-59268498I0J-249998D01*
G01*
X186882000Y-59793502D01*
G75*
G02*
X186632002Y-60043500I-249998J0D01*
G01*
G37*
G04 #@! TD.AperFunction*
G04 #@! TA.AperFunction,SMDPad,CuDef*
G36*
G01*
X189172002Y-58298500D02*
X188271998Y-58298500D01*
G75*
G02*
X188022000Y-58048502I0J249998D01*
G01*
X188022000Y-57523498D01*
G75*
G02*
X188271998Y-57273500I249998J0D01*
G01*
X189172002Y-57273500D01*
G75*
G02*
X189422000Y-57523498I0J-249998D01*
G01*
X189422000Y-58048502D01*
G75*
G02*
X189172002Y-58298500I-249998J0D01*
G01*
G37*
G04 #@! TD.AperFunction*
G04 #@! TA.AperFunction,SMDPad,CuDef*
G36*
G01*
X189172002Y-60123500D02*
X188271998Y-60123500D01*
G75*
G02*
X188022000Y-59873502I0J249998D01*
G01*
X188022000Y-59348498D01*
G75*
G02*
X188271998Y-59098500I249998J0D01*
G01*
X189172002Y-59098500D01*
G75*
G02*
X189422000Y-59348498I0J-249998D01*
G01*
X189422000Y-59873502D01*
G75*
G02*
X189172002Y-60123500I-249998J0D01*
G01*
G37*
G04 #@! TD.AperFunction*
G04 #@! TA.AperFunction,SMDPad,CuDef*
G36*
G01*
X176207000Y-66121000D02*
X176207000Y-67071000D01*
G75*
G02*
X175957000Y-67321000I-250000J0D01*
G01*
X175457000Y-67321000D01*
G75*
G02*
X175207000Y-67071000I0J250000D01*
G01*
X175207000Y-66121000D01*
G75*
G02*
X175457000Y-65871000I250000J0D01*
G01*
X175957000Y-65871000D01*
G75*
G02*
X176207000Y-66121000I0J-250000D01*
G01*
G37*
G04 #@! TD.AperFunction*
G04 #@! TA.AperFunction,SMDPad,CuDef*
G36*
G01*
X178107000Y-66121000D02*
X178107000Y-67071000D01*
G75*
G02*
X177857000Y-67321000I-250000J0D01*
G01*
X177357000Y-67321000D01*
G75*
G02*
X177107000Y-67071000I0J250000D01*
G01*
X177107000Y-66121000D01*
G75*
G02*
X177357000Y-65871000I250000J0D01*
G01*
X177857000Y-65871000D01*
G75*
G02*
X178107000Y-66121000I0J-250000D01*
G01*
G37*
G04 #@! TD.AperFunction*
D17*
X147580000Y-77107000D03*
X149480000Y-77107000D03*
X149480000Y-79307000D03*
X148530000Y-79307000D03*
X147580000Y-79307000D03*
G04 #@! TA.AperFunction,SMDPad,CuDef*
G36*
G01*
X143568800Y-81805800D02*
X143568800Y-80855800D01*
G75*
G02*
X143818800Y-80605800I250000J0D01*
G01*
X144318800Y-80605800D01*
G75*
G02*
X144568800Y-80855800I0J-250000D01*
G01*
X144568800Y-81805800D01*
G75*
G02*
X144318800Y-82055800I-250000J0D01*
G01*
X143818800Y-82055800D01*
G75*
G02*
X143568800Y-81805800I0J250000D01*
G01*
G37*
G04 #@! TD.AperFunction*
G04 #@! TA.AperFunction,SMDPad,CuDef*
G36*
G01*
X141668800Y-81805800D02*
X141668800Y-80855800D01*
G75*
G02*
X141918800Y-80605800I250000J0D01*
G01*
X142418800Y-80605800D01*
G75*
G02*
X142668800Y-80855800I0J-250000D01*
G01*
X142668800Y-81805800D01*
G75*
G02*
X142418800Y-82055800I-250000J0D01*
G01*
X141918800Y-82055800D01*
G75*
G02*
X141668800Y-81805800I0J250000D01*
G01*
G37*
G04 #@! TD.AperFunction*
G04 #@! TA.AperFunction,SMDPad,CuDef*
G36*
G01*
X148319800Y-81980801D02*
X148319800Y-80680799D01*
G75*
G02*
X148569799Y-80430800I249999J0D01*
G01*
X149219801Y-80430800D01*
G75*
G02*
X149469800Y-80680799I0J-249999D01*
G01*
X149469800Y-81980801D01*
G75*
G02*
X149219801Y-82230800I-249999J0D01*
G01*
X148569799Y-82230800D01*
G75*
G02*
X148319800Y-81980801I0J249999D01*
G01*
G37*
G04 #@! TD.AperFunction*
G04 #@! TA.AperFunction,SMDPad,CuDef*
G36*
G01*
X145369800Y-81980801D02*
X145369800Y-80680799D01*
G75*
G02*
X145619799Y-80430800I249999J0D01*
G01*
X146269801Y-80430800D01*
G75*
G02*
X146519800Y-80680799I0J-249999D01*
G01*
X146519800Y-81980801D01*
G75*
G02*
X146269801Y-82230800I-249999J0D01*
G01*
X145619799Y-82230800D01*
G75*
G02*
X145369800Y-81980801I0J249999D01*
G01*
G37*
G04 #@! TD.AperFunction*
G04 #@! TA.AperFunction,SMDPad,CuDef*
G36*
G01*
X181669000Y-95743498D02*
X181669000Y-96643502D01*
G75*
G02*
X181419002Y-96893500I-249998J0D01*
G01*
X180893998Y-96893500D01*
G75*
G02*
X180644000Y-96643502I0J249998D01*
G01*
X180644000Y-95743498D01*
G75*
G02*
X180893998Y-95493500I249998J0D01*
G01*
X181419002Y-95493500D01*
G75*
G02*
X181669000Y-95743498I0J-249998D01*
G01*
G37*
G04 #@! TD.AperFunction*
G04 #@! TA.AperFunction,SMDPad,CuDef*
G36*
G01*
X183494000Y-95743498D02*
X183494000Y-96643502D01*
G75*
G02*
X183244002Y-96893500I-249998J0D01*
G01*
X182718998Y-96893500D01*
G75*
G02*
X182469000Y-96643502I0J249998D01*
G01*
X182469000Y-95743498D01*
G75*
G02*
X182718998Y-95493500I249998J0D01*
G01*
X183244002Y-95493500D01*
G75*
G02*
X183494000Y-95743498I0J-249998D01*
G01*
G37*
G04 #@! TD.AperFunction*
G04 #@! TA.AperFunction,SMDPad,CuDef*
G36*
G01*
X185629500Y-95743498D02*
X185629500Y-96643502D01*
G75*
G02*
X185379502Y-96893500I-249998J0D01*
G01*
X184854498Y-96893500D01*
G75*
G02*
X184604500Y-96643502I0J249998D01*
G01*
X184604500Y-95743498D01*
G75*
G02*
X184854498Y-95493500I249998J0D01*
G01*
X185379502Y-95493500D01*
G75*
G02*
X185629500Y-95743498I0J-249998D01*
G01*
G37*
G04 #@! TD.AperFunction*
G04 #@! TA.AperFunction,SMDPad,CuDef*
G36*
G01*
X187454500Y-95743498D02*
X187454500Y-96643502D01*
G75*
G02*
X187204502Y-96893500I-249998J0D01*
G01*
X186679498Y-96893500D01*
G75*
G02*
X186429500Y-96643502I0J249998D01*
G01*
X186429500Y-95743498D01*
G75*
G02*
X186679498Y-95493500I249998J0D01*
G01*
X187204502Y-95493500D01*
G75*
G02*
X187454500Y-95743498I0J-249998D01*
G01*
G37*
G04 #@! TD.AperFunction*
G04 #@! TA.AperFunction,SMDPad,CuDef*
G36*
G01*
X186834500Y-83629000D02*
X186834500Y-83929000D01*
G75*
G02*
X186684500Y-84079000I-150000J0D01*
G01*
X185034500Y-84079000D01*
G75*
G02*
X184884500Y-83929000I0J150000D01*
G01*
X184884500Y-83629000D01*
G75*
G02*
X185034500Y-83479000I150000J0D01*
G01*
X186684500Y-83479000D01*
G75*
G02*
X186834500Y-83629000I0J-150000D01*
G01*
G37*
G04 #@! TD.AperFunction*
G04 #@! TA.AperFunction,SMDPad,CuDef*
G36*
G01*
X186834500Y-82359000D02*
X186834500Y-82659000D01*
G75*
G02*
X186684500Y-82809000I-150000J0D01*
G01*
X185034500Y-82809000D01*
G75*
G02*
X184884500Y-82659000I0J150000D01*
G01*
X184884500Y-82359000D01*
G75*
G02*
X185034500Y-82209000I150000J0D01*
G01*
X186684500Y-82209000D01*
G75*
G02*
X186834500Y-82359000I0J-150000D01*
G01*
G37*
G04 #@! TD.AperFunction*
G04 #@! TA.AperFunction,SMDPad,CuDef*
G36*
G01*
X186834500Y-81089000D02*
X186834500Y-81389000D01*
G75*
G02*
X186684500Y-81539000I-150000J0D01*
G01*
X185034500Y-81539000D01*
G75*
G02*
X184884500Y-81389000I0J150000D01*
G01*
X184884500Y-81089000D01*
G75*
G02*
X185034500Y-80939000I150000J0D01*
G01*
X186684500Y-80939000D01*
G75*
G02*
X186834500Y-81089000I0J-150000D01*
G01*
G37*
G04 #@! TD.AperFunction*
G04 #@! TA.AperFunction,SMDPad,CuDef*
G36*
G01*
X186834500Y-79819000D02*
X186834500Y-80119000D01*
G75*
G02*
X186684500Y-80269000I-150000J0D01*
G01*
X185034500Y-80269000D01*
G75*
G02*
X184884500Y-80119000I0J150000D01*
G01*
X184884500Y-79819000D01*
G75*
G02*
X185034500Y-79669000I150000J0D01*
G01*
X186684500Y-79669000D01*
G75*
G02*
X186834500Y-79819000I0J-150000D01*
G01*
G37*
G04 #@! TD.AperFunction*
G04 #@! TA.AperFunction,SMDPad,CuDef*
G36*
G01*
X186834500Y-78549000D02*
X186834500Y-78849000D01*
G75*
G02*
X186684500Y-78999000I-150000J0D01*
G01*
X185034500Y-78999000D01*
G75*
G02*
X184884500Y-78849000I0J150000D01*
G01*
X184884500Y-78549000D01*
G75*
G02*
X185034500Y-78399000I150000J0D01*
G01*
X186684500Y-78399000D01*
G75*
G02*
X186834500Y-78549000I0J-150000D01*
G01*
G37*
G04 #@! TD.AperFunction*
G04 #@! TA.AperFunction,SMDPad,CuDef*
G36*
G01*
X186834500Y-77279000D02*
X186834500Y-77579000D01*
G75*
G02*
X186684500Y-77729000I-150000J0D01*
G01*
X185034500Y-77729000D01*
G75*
G02*
X184884500Y-77579000I0J150000D01*
G01*
X184884500Y-77279000D01*
G75*
G02*
X185034500Y-77129000I150000J0D01*
G01*
X186684500Y-77129000D01*
G75*
G02*
X186834500Y-77279000I0J-150000D01*
G01*
G37*
G04 #@! TD.AperFunction*
G04 #@! TA.AperFunction,SMDPad,CuDef*
G36*
G01*
X186834500Y-76009000D02*
X186834500Y-76309000D01*
G75*
G02*
X186684500Y-76459000I-150000J0D01*
G01*
X185034500Y-76459000D01*
G75*
G02*
X184884500Y-76309000I0J150000D01*
G01*
X184884500Y-76009000D01*
G75*
G02*
X185034500Y-75859000I150000J0D01*
G01*
X186684500Y-75859000D01*
G75*
G02*
X186834500Y-76009000I0J-150000D01*
G01*
G37*
G04 #@! TD.AperFunction*
G04 #@! TA.AperFunction,SMDPad,CuDef*
G36*
G01*
X191784500Y-76009000D02*
X191784500Y-76309000D01*
G75*
G02*
X191634500Y-76459000I-150000J0D01*
G01*
X189984500Y-76459000D01*
G75*
G02*
X189834500Y-76309000I0J150000D01*
G01*
X189834500Y-76009000D01*
G75*
G02*
X189984500Y-75859000I150000J0D01*
G01*
X191634500Y-75859000D01*
G75*
G02*
X191784500Y-76009000I0J-150000D01*
G01*
G37*
G04 #@! TD.AperFunction*
G04 #@! TA.AperFunction,SMDPad,CuDef*
G36*
G01*
X191784500Y-77279000D02*
X191784500Y-77579000D01*
G75*
G02*
X191634500Y-77729000I-150000J0D01*
G01*
X189984500Y-77729000D01*
G75*
G02*
X189834500Y-77579000I0J150000D01*
G01*
X189834500Y-77279000D01*
G75*
G02*
X189984500Y-77129000I150000J0D01*
G01*
X191634500Y-77129000D01*
G75*
G02*
X191784500Y-77279000I0J-150000D01*
G01*
G37*
G04 #@! TD.AperFunction*
G04 #@! TA.AperFunction,SMDPad,CuDef*
G36*
G01*
X191784500Y-78549000D02*
X191784500Y-78849000D01*
G75*
G02*
X191634500Y-78999000I-150000J0D01*
G01*
X189984500Y-78999000D01*
G75*
G02*
X189834500Y-78849000I0J150000D01*
G01*
X189834500Y-78549000D01*
G75*
G02*
X189984500Y-78399000I150000J0D01*
G01*
X191634500Y-78399000D01*
G75*
G02*
X191784500Y-78549000I0J-150000D01*
G01*
G37*
G04 #@! TD.AperFunction*
G04 #@! TA.AperFunction,SMDPad,CuDef*
G36*
G01*
X191784500Y-79819000D02*
X191784500Y-80119000D01*
G75*
G02*
X191634500Y-80269000I-150000J0D01*
G01*
X189984500Y-80269000D01*
G75*
G02*
X189834500Y-80119000I0J150000D01*
G01*
X189834500Y-79819000D01*
G75*
G02*
X189984500Y-79669000I150000J0D01*
G01*
X191634500Y-79669000D01*
G75*
G02*
X191784500Y-79819000I0J-150000D01*
G01*
G37*
G04 #@! TD.AperFunction*
G04 #@! TA.AperFunction,SMDPad,CuDef*
G36*
G01*
X191784500Y-81089000D02*
X191784500Y-81389000D01*
G75*
G02*
X191634500Y-81539000I-150000J0D01*
G01*
X189984500Y-81539000D01*
G75*
G02*
X189834500Y-81389000I0J150000D01*
G01*
X189834500Y-81089000D01*
G75*
G02*
X189984500Y-80939000I150000J0D01*
G01*
X191634500Y-80939000D01*
G75*
G02*
X191784500Y-81089000I0J-150000D01*
G01*
G37*
G04 #@! TD.AperFunction*
G04 #@! TA.AperFunction,SMDPad,CuDef*
G36*
G01*
X191784500Y-82359000D02*
X191784500Y-82659000D01*
G75*
G02*
X191634500Y-82809000I-150000J0D01*
G01*
X189984500Y-82809000D01*
G75*
G02*
X189834500Y-82659000I0J150000D01*
G01*
X189834500Y-82359000D01*
G75*
G02*
X189984500Y-82209000I150000J0D01*
G01*
X191634500Y-82209000D01*
G75*
G02*
X191784500Y-82359000I0J-150000D01*
G01*
G37*
G04 #@! TD.AperFunction*
G04 #@! TA.AperFunction,SMDPad,CuDef*
G36*
G01*
X191784500Y-83629000D02*
X191784500Y-83929000D01*
G75*
G02*
X191634500Y-84079000I-150000J0D01*
G01*
X189984500Y-84079000D01*
G75*
G02*
X189834500Y-83929000I0J150000D01*
G01*
X189834500Y-83629000D01*
G75*
G02*
X189984500Y-83479000I150000J0D01*
G01*
X191634500Y-83479000D01*
G75*
G02*
X191784500Y-83629000I0J-150000D01*
G01*
G37*
G04 #@! TD.AperFunction*
G04 #@! TA.AperFunction,SMDPad,CuDef*
G36*
G01*
X179986500Y-77918998D02*
X179986500Y-78819002D01*
G75*
G02*
X179736502Y-79069000I-249998J0D01*
G01*
X179211498Y-79069000D01*
G75*
G02*
X178961500Y-78819002I0J249998D01*
G01*
X178961500Y-77918998D01*
G75*
G02*
X179211498Y-77669000I249998J0D01*
G01*
X179736502Y-77669000D01*
G75*
G02*
X179986500Y-77918998I0J-249998D01*
G01*
G37*
G04 #@! TD.AperFunction*
G04 #@! TA.AperFunction,SMDPad,CuDef*
G36*
G01*
X181811500Y-77918998D02*
X181811500Y-78819002D01*
G75*
G02*
X181561502Y-79069000I-249998J0D01*
G01*
X181036498Y-79069000D01*
G75*
G02*
X180786500Y-78819002I0J249998D01*
G01*
X180786500Y-77918998D01*
G75*
G02*
X181036498Y-77669000I249998J0D01*
G01*
X181561502Y-77669000D01*
G75*
G02*
X181811500Y-77918998I0J-249998D01*
G01*
G37*
G04 #@! TD.AperFunction*
G04 #@! TA.AperFunction,SMDPad,CuDef*
G36*
G01*
X179986500Y-79950998D02*
X179986500Y-80851002D01*
G75*
G02*
X179736502Y-81101000I-249998J0D01*
G01*
X179211498Y-81101000D01*
G75*
G02*
X178961500Y-80851002I0J249998D01*
G01*
X178961500Y-79950998D01*
G75*
G02*
X179211498Y-79701000I249998J0D01*
G01*
X179736502Y-79701000D01*
G75*
G02*
X179986500Y-79950998I0J-249998D01*
G01*
G37*
G04 #@! TD.AperFunction*
G04 #@! TA.AperFunction,SMDPad,CuDef*
G36*
G01*
X181811500Y-79950998D02*
X181811500Y-80851002D01*
G75*
G02*
X181561502Y-81101000I-249998J0D01*
G01*
X181036498Y-81101000D01*
G75*
G02*
X180786500Y-80851002I0J249998D01*
G01*
X180786500Y-79950998D01*
G75*
G02*
X181036498Y-79701000I249998J0D01*
G01*
X181561502Y-79701000D01*
G75*
G02*
X181811500Y-79950998I0J-249998D01*
G01*
G37*
G04 #@! TD.AperFunction*
G04 #@! TA.AperFunction,SMDPad,CuDef*
G36*
G01*
X179833000Y-76052500D02*
X179833000Y-77002500D01*
G75*
G02*
X179583000Y-77252500I-250000J0D01*
G01*
X179083000Y-77252500D01*
G75*
G02*
X178833000Y-77002500I0J250000D01*
G01*
X178833000Y-76052500D01*
G75*
G02*
X179083000Y-75802500I250000J0D01*
G01*
X179583000Y-75802500D01*
G75*
G02*
X179833000Y-76052500I0J-250000D01*
G01*
G37*
G04 #@! TD.AperFunction*
G04 #@! TA.AperFunction,SMDPad,CuDef*
G36*
G01*
X181733000Y-76052500D02*
X181733000Y-77002500D01*
G75*
G02*
X181483000Y-77252500I-250000J0D01*
G01*
X180983000Y-77252500D01*
G75*
G02*
X180733000Y-77002500I0J250000D01*
G01*
X180733000Y-76052500D01*
G75*
G02*
X180983000Y-75802500I250000J0D01*
G01*
X181483000Y-75802500D01*
G75*
G02*
X181733000Y-76052500I0J-250000D01*
G01*
G37*
G04 #@! TD.AperFunction*
G04 #@! TA.AperFunction,SMDPad,CuDef*
G36*
G01*
X183482000Y-78912000D02*
X182532000Y-78912000D01*
G75*
G02*
X182282000Y-78662000I0J250000D01*
G01*
X182282000Y-78162000D01*
G75*
G02*
X182532000Y-77912000I250000J0D01*
G01*
X183482000Y-77912000D01*
G75*
G02*
X183732000Y-78162000I0J-250000D01*
G01*
X183732000Y-78662000D01*
G75*
G02*
X183482000Y-78912000I-250000J0D01*
G01*
G37*
G04 #@! TD.AperFunction*
G04 #@! TA.AperFunction,SMDPad,CuDef*
G36*
G01*
X183482000Y-80812000D02*
X182532000Y-80812000D01*
G75*
G02*
X182282000Y-80562000I0J250000D01*
G01*
X182282000Y-80062000D01*
G75*
G02*
X182532000Y-79812000I250000J0D01*
G01*
X183482000Y-79812000D01*
G75*
G02*
X183732000Y-80062000I0J-250000D01*
G01*
X183732000Y-80562000D01*
G75*
G02*
X183482000Y-80812000I-250000J0D01*
G01*
G37*
G04 #@! TD.AperFunction*
G04 #@! TA.AperFunction,SMDPad,CuDef*
G36*
G01*
X180860000Y-82717500D02*
X180860000Y-81767500D01*
G75*
G02*
X181110000Y-81517500I250000J0D01*
G01*
X181610000Y-81517500D01*
G75*
G02*
X181860000Y-81767500I0J-250000D01*
G01*
X181860000Y-82717500D01*
G75*
G02*
X181610000Y-82967500I-250000J0D01*
G01*
X181110000Y-82967500D01*
G75*
G02*
X180860000Y-82717500I0J250000D01*
G01*
G37*
G04 #@! TD.AperFunction*
G04 #@! TA.AperFunction,SMDPad,CuDef*
G36*
G01*
X178960000Y-82717500D02*
X178960000Y-81767500D01*
G75*
G02*
X179210000Y-81517500I250000J0D01*
G01*
X179710000Y-81517500D01*
G75*
G02*
X179960000Y-81767500I0J-250000D01*
G01*
X179960000Y-82717500D01*
G75*
G02*
X179710000Y-82967500I-250000J0D01*
G01*
X179210000Y-82967500D01*
G75*
G02*
X178960000Y-82717500I0J250000D01*
G01*
G37*
G04 #@! TD.AperFunction*
D18*
X175236500Y-77099000D03*
G04 #@! TA.AperFunction,SMDPad,CuDef*
D19*
G36*
X176536500Y-76349602D02*
G01*
X176561034Y-76349602D01*
X176609865Y-76354412D01*
X176657990Y-76363984D01*
X176704945Y-76378228D01*
X176750278Y-76397005D01*
X176793551Y-76420136D01*
X176834350Y-76447396D01*
X176872279Y-76478524D01*
X176906976Y-76513221D01*
X176938104Y-76551150D01*
X176965364Y-76591949D01*
X176988495Y-76635222D01*
X177007272Y-76680555D01*
X177021516Y-76727510D01*
X177031088Y-76775635D01*
X177035898Y-76824466D01*
X177035898Y-76849000D01*
X177036500Y-76849000D01*
X177036500Y-77349000D01*
X177035898Y-77349000D01*
X177035898Y-77373534D01*
X177031088Y-77422365D01*
X177021516Y-77470490D01*
X177007272Y-77517445D01*
X176988495Y-77562778D01*
X176965364Y-77606051D01*
X176938104Y-77646850D01*
X176906976Y-77684779D01*
X176872279Y-77719476D01*
X176834350Y-77750604D01*
X176793551Y-77777864D01*
X176750278Y-77800995D01*
X176704945Y-77819772D01*
X176657990Y-77834016D01*
X176609865Y-77843588D01*
X176561034Y-77848398D01*
X176536500Y-77848398D01*
X176536500Y-77849000D01*
X175986500Y-77849000D01*
X175986500Y-76349000D01*
X176536500Y-76349000D01*
X176536500Y-76349602D01*
G37*
G04 #@! TD.AperFunction*
G04 #@! TA.AperFunction,SMDPad,CuDef*
G36*
X174486500Y-77849000D02*
G01*
X173936500Y-77849000D01*
X173936500Y-77848398D01*
X173911966Y-77848398D01*
X173863135Y-77843588D01*
X173815010Y-77834016D01*
X173768055Y-77819772D01*
X173722722Y-77800995D01*
X173679449Y-77777864D01*
X173638650Y-77750604D01*
X173600721Y-77719476D01*
X173566024Y-77684779D01*
X173534896Y-77646850D01*
X173507636Y-77606051D01*
X173484505Y-77562778D01*
X173465728Y-77517445D01*
X173451484Y-77470490D01*
X173441912Y-77422365D01*
X173437102Y-77373534D01*
X173437102Y-77349000D01*
X173436500Y-77349000D01*
X173436500Y-76849000D01*
X173437102Y-76849000D01*
X173437102Y-76824466D01*
X173441912Y-76775635D01*
X173451484Y-76727510D01*
X173465728Y-76680555D01*
X173484505Y-76635222D01*
X173507636Y-76591949D01*
X173534896Y-76551150D01*
X173566024Y-76513221D01*
X173600721Y-76478524D01*
X173638650Y-76447396D01*
X173679449Y-76420136D01*
X173722722Y-76397005D01*
X173768055Y-76378228D01*
X173815010Y-76363984D01*
X173863135Y-76354412D01*
X173911966Y-76349602D01*
X173936500Y-76349602D01*
X173936500Y-76349000D01*
X174486500Y-76349000D01*
X174486500Y-77849000D01*
G37*
G04 #@! TD.AperFunction*
D20*
X119830000Y-70940000D03*
X119830000Y-63320000D03*
X110430000Y-70940000D03*
X110430000Y-65860000D03*
X110430000Y-63320000D03*
X191560000Y-70940000D03*
X191560000Y-63320000D03*
X182160000Y-70940000D03*
X182160000Y-65860000D03*
X182160000Y-63320000D03*
G04 #@! TA.AperFunction,SMDPad,CuDef*
G36*
G01*
X163708502Y-79427500D02*
X162808498Y-79427500D01*
G75*
G02*
X162558500Y-79177502I0J249998D01*
G01*
X162558500Y-78652498D01*
G75*
G02*
X162808498Y-78402500I249998J0D01*
G01*
X163708502Y-78402500D01*
G75*
G02*
X163958500Y-78652498I0J-249998D01*
G01*
X163958500Y-79177502D01*
G75*
G02*
X163708502Y-79427500I-249998J0D01*
G01*
G37*
G04 #@! TD.AperFunction*
G04 #@! TA.AperFunction,SMDPad,CuDef*
G36*
G01*
X163708502Y-81252500D02*
X162808498Y-81252500D01*
G75*
G02*
X162558500Y-81002502I0J249998D01*
G01*
X162558500Y-80477498D01*
G75*
G02*
X162808498Y-80227500I249998J0D01*
G01*
X163708502Y-80227500D01*
G75*
G02*
X163958500Y-80477498I0J-249998D01*
G01*
X163958500Y-81002502D01*
G75*
G02*
X163708502Y-81252500I-249998J0D01*
G01*
G37*
G04 #@! TD.AperFunction*
G04 #@! TA.AperFunction,SMDPad,CuDef*
G36*
G01*
X163715002Y-82835000D02*
X162814998Y-82835000D01*
G75*
G02*
X162565000Y-82585002I0J249998D01*
G01*
X162565000Y-82059998D01*
G75*
G02*
X162814998Y-81810000I249998J0D01*
G01*
X163715002Y-81810000D01*
G75*
G02*
X163965000Y-82059998I0J-249998D01*
G01*
X163965000Y-82585002D01*
G75*
G02*
X163715002Y-82835000I-249998J0D01*
G01*
G37*
G04 #@! TD.AperFunction*
G04 #@! TA.AperFunction,SMDPad,CuDef*
G36*
G01*
X163715002Y-84660000D02*
X162814998Y-84660000D01*
G75*
G02*
X162565000Y-84410002I0J249998D01*
G01*
X162565000Y-83884998D01*
G75*
G02*
X162814998Y-83635000I249998J0D01*
G01*
X163715002Y-83635000D01*
G75*
G02*
X163965000Y-83884998I0J-249998D01*
G01*
X163965000Y-84410002D01*
G75*
G02*
X163715002Y-84660000I-249998J0D01*
G01*
G37*
G04 #@! TD.AperFunction*
G04 #@! TA.AperFunction,SMDPad,CuDef*
G36*
G01*
X118500000Y-74965000D02*
X118500000Y-74665000D01*
G75*
G02*
X118650000Y-74515000I150000J0D01*
G01*
X120300000Y-74515000D01*
G75*
G02*
X120450000Y-74665000I0J-150000D01*
G01*
X120450000Y-74965000D01*
G75*
G02*
X120300000Y-75115000I-150000J0D01*
G01*
X118650000Y-75115000D01*
G75*
G02*
X118500000Y-74965000I0J150000D01*
G01*
G37*
G04 #@! TD.AperFunction*
G04 #@! TA.AperFunction,SMDPad,CuDef*
G36*
G01*
X118500000Y-76235000D02*
X118500000Y-75935000D01*
G75*
G02*
X118650000Y-75785000I150000J0D01*
G01*
X120300000Y-75785000D01*
G75*
G02*
X120450000Y-75935000I0J-150000D01*
G01*
X120450000Y-76235000D01*
G75*
G02*
X120300000Y-76385000I-150000J0D01*
G01*
X118650000Y-76385000D01*
G75*
G02*
X118500000Y-76235000I0J150000D01*
G01*
G37*
G04 #@! TD.AperFunction*
G04 #@! TA.AperFunction,SMDPad,CuDef*
G36*
G01*
X118500000Y-77505000D02*
X118500000Y-77205000D01*
G75*
G02*
X118650000Y-77055000I150000J0D01*
G01*
X120300000Y-77055000D01*
G75*
G02*
X120450000Y-77205000I0J-150000D01*
G01*
X120450000Y-77505000D01*
G75*
G02*
X120300000Y-77655000I-150000J0D01*
G01*
X118650000Y-77655000D01*
G75*
G02*
X118500000Y-77505000I0J150000D01*
G01*
G37*
G04 #@! TD.AperFunction*
G04 #@! TA.AperFunction,SMDPad,CuDef*
G36*
G01*
X118500000Y-78775000D02*
X118500000Y-78475000D01*
G75*
G02*
X118650000Y-78325000I150000J0D01*
G01*
X120300000Y-78325000D01*
G75*
G02*
X120450000Y-78475000I0J-150000D01*
G01*
X120450000Y-78775000D01*
G75*
G02*
X120300000Y-78925000I-150000J0D01*
G01*
X118650000Y-78925000D01*
G75*
G02*
X118500000Y-78775000I0J150000D01*
G01*
G37*
G04 #@! TD.AperFunction*
G04 #@! TA.AperFunction,SMDPad,CuDef*
G36*
G01*
X113550000Y-78775000D02*
X113550000Y-78475000D01*
G75*
G02*
X113700000Y-78325000I150000J0D01*
G01*
X115350000Y-78325000D01*
G75*
G02*
X115500000Y-78475000I0J-150000D01*
G01*
X115500000Y-78775000D01*
G75*
G02*
X115350000Y-78925000I-150000J0D01*
G01*
X113700000Y-78925000D01*
G75*
G02*
X113550000Y-78775000I0J150000D01*
G01*
G37*
G04 #@! TD.AperFunction*
G04 #@! TA.AperFunction,SMDPad,CuDef*
G36*
G01*
X113550000Y-77505000D02*
X113550000Y-77205000D01*
G75*
G02*
X113700000Y-77055000I150000J0D01*
G01*
X115350000Y-77055000D01*
G75*
G02*
X115500000Y-77205000I0J-150000D01*
G01*
X115500000Y-77505000D01*
G75*
G02*
X115350000Y-77655000I-150000J0D01*
G01*
X113700000Y-77655000D01*
G75*
G02*
X113550000Y-77505000I0J150000D01*
G01*
G37*
G04 #@! TD.AperFunction*
G04 #@! TA.AperFunction,SMDPad,CuDef*
G36*
G01*
X113550000Y-76235000D02*
X113550000Y-75935000D01*
G75*
G02*
X113700000Y-75785000I150000J0D01*
G01*
X115350000Y-75785000D01*
G75*
G02*
X115500000Y-75935000I0J-150000D01*
G01*
X115500000Y-76235000D01*
G75*
G02*
X115350000Y-76385000I-150000J0D01*
G01*
X113700000Y-76385000D01*
G75*
G02*
X113550000Y-76235000I0J150000D01*
G01*
G37*
G04 #@! TD.AperFunction*
G04 #@! TA.AperFunction,SMDPad,CuDef*
G36*
G01*
X113550000Y-74965000D02*
X113550000Y-74665000D01*
G75*
G02*
X113700000Y-74515000I150000J0D01*
G01*
X115350000Y-74515000D01*
G75*
G02*
X115500000Y-74665000I0J-150000D01*
G01*
X115500000Y-74965000D01*
G75*
G02*
X115350000Y-75115000I-150000J0D01*
G01*
X113700000Y-75115000D01*
G75*
G02*
X113550000Y-74965000I0J150000D01*
G01*
G37*
G04 #@! TD.AperFunction*
G04 #@! TA.AperFunction,SMDPad,CuDef*
G36*
G01*
X175940000Y-70035000D02*
X175940000Y-69735000D01*
G75*
G02*
X176090000Y-69585000I150000J0D01*
G01*
X177740000Y-69585000D01*
G75*
G02*
X177890000Y-69735000I0J-150000D01*
G01*
X177890000Y-70035000D01*
G75*
G02*
X177740000Y-70185000I-150000J0D01*
G01*
X176090000Y-70185000D01*
G75*
G02*
X175940000Y-70035000I0J150000D01*
G01*
G37*
G04 #@! TD.AperFunction*
G04 #@! TA.AperFunction,SMDPad,CuDef*
G36*
G01*
X175940000Y-71305000D02*
X175940000Y-71005000D01*
G75*
G02*
X176090000Y-70855000I150000J0D01*
G01*
X177740000Y-70855000D01*
G75*
G02*
X177890000Y-71005000I0J-150000D01*
G01*
X177890000Y-71305000D01*
G75*
G02*
X177740000Y-71455000I-150000J0D01*
G01*
X176090000Y-71455000D01*
G75*
G02*
X175940000Y-71305000I0J150000D01*
G01*
G37*
G04 #@! TD.AperFunction*
G04 #@! TA.AperFunction,SMDPad,CuDef*
G36*
G01*
X175940000Y-72575000D02*
X175940000Y-72275000D01*
G75*
G02*
X176090000Y-72125000I150000J0D01*
G01*
X177740000Y-72125000D01*
G75*
G02*
X177890000Y-72275000I0J-150000D01*
G01*
X177890000Y-72575000D01*
G75*
G02*
X177740000Y-72725000I-150000J0D01*
G01*
X176090000Y-72725000D01*
G75*
G02*
X175940000Y-72575000I0J150000D01*
G01*
G37*
G04 #@! TD.AperFunction*
G04 #@! TA.AperFunction,SMDPad,CuDef*
G36*
G01*
X175940000Y-73845000D02*
X175940000Y-73545000D01*
G75*
G02*
X176090000Y-73395000I150000J0D01*
G01*
X177740000Y-73395000D01*
G75*
G02*
X177890000Y-73545000I0J-150000D01*
G01*
X177890000Y-73845000D01*
G75*
G02*
X177740000Y-73995000I-150000J0D01*
G01*
X176090000Y-73995000D01*
G75*
G02*
X175940000Y-73845000I0J150000D01*
G01*
G37*
G04 #@! TD.AperFunction*
G04 #@! TA.AperFunction,SMDPad,CuDef*
G36*
G01*
X170990000Y-73845000D02*
X170990000Y-73545000D01*
G75*
G02*
X171140000Y-73395000I150000J0D01*
G01*
X172790000Y-73395000D01*
G75*
G02*
X172940000Y-73545000I0J-150000D01*
G01*
X172940000Y-73845000D01*
G75*
G02*
X172790000Y-73995000I-150000J0D01*
G01*
X171140000Y-73995000D01*
G75*
G02*
X170990000Y-73845000I0J150000D01*
G01*
G37*
G04 #@! TD.AperFunction*
G04 #@! TA.AperFunction,SMDPad,CuDef*
G36*
G01*
X170990000Y-72575000D02*
X170990000Y-72275000D01*
G75*
G02*
X171140000Y-72125000I150000J0D01*
G01*
X172790000Y-72125000D01*
G75*
G02*
X172940000Y-72275000I0J-150000D01*
G01*
X172940000Y-72575000D01*
G75*
G02*
X172790000Y-72725000I-150000J0D01*
G01*
X171140000Y-72725000D01*
G75*
G02*
X170990000Y-72575000I0J150000D01*
G01*
G37*
G04 #@! TD.AperFunction*
G04 #@! TA.AperFunction,SMDPad,CuDef*
G36*
G01*
X170990000Y-71305000D02*
X170990000Y-71005000D01*
G75*
G02*
X171140000Y-70855000I150000J0D01*
G01*
X172790000Y-70855000D01*
G75*
G02*
X172940000Y-71005000I0J-150000D01*
G01*
X172940000Y-71305000D01*
G75*
G02*
X172790000Y-71455000I-150000J0D01*
G01*
X171140000Y-71455000D01*
G75*
G02*
X170990000Y-71305000I0J150000D01*
G01*
G37*
G04 #@! TD.AperFunction*
G04 #@! TA.AperFunction,SMDPad,CuDef*
G36*
G01*
X170990000Y-70035000D02*
X170990000Y-69735000D01*
G75*
G02*
X171140000Y-69585000I150000J0D01*
G01*
X172790000Y-69585000D01*
G75*
G02*
X172940000Y-69735000I0J-150000D01*
G01*
X172940000Y-70035000D01*
G75*
G02*
X172790000Y-70185000I-150000J0D01*
G01*
X171140000Y-70185000D01*
G75*
G02*
X170990000Y-70035000I0J150000D01*
G01*
G37*
G04 #@! TD.AperFunction*
G04 #@! TA.AperFunction,SMDPad,CuDef*
G36*
G01*
X125025998Y-83466000D02*
X125926002Y-83466000D01*
G75*
G02*
X126176000Y-83715998I0J-249998D01*
G01*
X126176000Y-84241002D01*
G75*
G02*
X125926002Y-84491000I-249998J0D01*
G01*
X125025998Y-84491000D01*
G75*
G02*
X124776000Y-84241002I0J249998D01*
G01*
X124776000Y-83715998D01*
G75*
G02*
X125025998Y-83466000I249998J0D01*
G01*
G37*
G04 #@! TD.AperFunction*
G04 #@! TA.AperFunction,SMDPad,CuDef*
G36*
G01*
X125025998Y-81641000D02*
X125926002Y-81641000D01*
G75*
G02*
X126176000Y-81890998I0J-249998D01*
G01*
X126176000Y-82416002D01*
G75*
G02*
X125926002Y-82666000I-249998J0D01*
G01*
X125025998Y-82666000D01*
G75*
G02*
X124776000Y-82416002I0J249998D01*
G01*
X124776000Y-81890998D01*
G75*
G02*
X125025998Y-81641000I249998J0D01*
G01*
G37*
G04 #@! TD.AperFunction*
G04 #@! TA.AperFunction,SMDPad,CuDef*
G36*
G01*
X123120998Y-83466000D02*
X124021002Y-83466000D01*
G75*
G02*
X124271000Y-83715998I0J-249998D01*
G01*
X124271000Y-84241002D01*
G75*
G02*
X124021002Y-84491000I-249998J0D01*
G01*
X123120998Y-84491000D01*
G75*
G02*
X122871000Y-84241002I0J249998D01*
G01*
X122871000Y-83715998D01*
G75*
G02*
X123120998Y-83466000I249998J0D01*
G01*
G37*
G04 #@! TD.AperFunction*
G04 #@! TA.AperFunction,SMDPad,CuDef*
G36*
G01*
X123120998Y-81641000D02*
X124021002Y-81641000D01*
G75*
G02*
X124271000Y-81890998I0J-249998D01*
G01*
X124271000Y-82416002D01*
G75*
G02*
X124021002Y-82666000I-249998J0D01*
G01*
X123120998Y-82666000D01*
G75*
G02*
X122871000Y-82416002I0J249998D01*
G01*
X122871000Y-81890998D01*
G75*
G02*
X123120998Y-81641000I249998J0D01*
G01*
G37*
G04 #@! TD.AperFunction*
G04 #@! TA.AperFunction,SMDPad,CuDef*
G36*
G01*
X177621502Y-84930500D02*
X176721498Y-84930500D01*
G75*
G02*
X176471500Y-84680502I0J249998D01*
G01*
X176471500Y-84155498D01*
G75*
G02*
X176721498Y-83905500I249998J0D01*
G01*
X177621502Y-83905500D01*
G75*
G02*
X177871500Y-84155498I0J-249998D01*
G01*
X177871500Y-84680502D01*
G75*
G02*
X177621502Y-84930500I-249998J0D01*
G01*
G37*
G04 #@! TD.AperFunction*
G04 #@! TA.AperFunction,SMDPad,CuDef*
G36*
G01*
X177621502Y-86755500D02*
X176721498Y-86755500D01*
G75*
G02*
X176471500Y-86505502I0J249998D01*
G01*
X176471500Y-85980498D01*
G75*
G02*
X176721498Y-85730500I249998J0D01*
G01*
X177621502Y-85730500D01*
G75*
G02*
X177871500Y-85980498I0J-249998D01*
G01*
X177871500Y-86505502D01*
G75*
G02*
X177621502Y-86755500I-249998J0D01*
G01*
G37*
G04 #@! TD.AperFunction*
G04 #@! TA.AperFunction,SMDPad,CuDef*
G36*
G01*
X166845000Y-63095500D02*
X165895000Y-63095500D01*
G75*
G02*
X165645000Y-62845500I0J250000D01*
G01*
X165645000Y-62345500D01*
G75*
G02*
X165895000Y-62095500I250000J0D01*
G01*
X166845000Y-62095500D01*
G75*
G02*
X167095000Y-62345500I0J-250000D01*
G01*
X167095000Y-62845500D01*
G75*
G02*
X166845000Y-63095500I-250000J0D01*
G01*
G37*
G04 #@! TD.AperFunction*
G04 #@! TA.AperFunction,SMDPad,CuDef*
G36*
G01*
X166845000Y-64995500D02*
X165895000Y-64995500D01*
G75*
G02*
X165645000Y-64745500I0J250000D01*
G01*
X165645000Y-64245500D01*
G75*
G02*
X165895000Y-63995500I250000J0D01*
G01*
X166845000Y-63995500D01*
G75*
G02*
X167095000Y-64245500I0J-250000D01*
G01*
X167095000Y-64745500D01*
G75*
G02*
X166845000Y-64995500I-250000J0D01*
G01*
G37*
G04 #@! TD.AperFunction*
G04 #@! TA.AperFunction,SMDPad,CuDef*
G36*
G01*
X133383000Y-71742500D02*
X134333000Y-71742500D01*
G75*
G02*
X134583000Y-71992500I0J-250000D01*
G01*
X134583000Y-72492500D01*
G75*
G02*
X134333000Y-72742500I-250000J0D01*
G01*
X133383000Y-72742500D01*
G75*
G02*
X133133000Y-72492500I0J250000D01*
G01*
X133133000Y-71992500D01*
G75*
G02*
X133383000Y-71742500I250000J0D01*
G01*
G37*
G04 #@! TD.AperFunction*
G04 #@! TA.AperFunction,SMDPad,CuDef*
G36*
G01*
X133383000Y-69842500D02*
X134333000Y-69842500D01*
G75*
G02*
X134583000Y-70092500I0J-250000D01*
G01*
X134583000Y-70592500D01*
G75*
G02*
X134333000Y-70842500I-250000J0D01*
G01*
X133383000Y-70842500D01*
G75*
G02*
X133133000Y-70592500I0J250000D01*
G01*
X133133000Y-70092500D01*
G75*
G02*
X133383000Y-69842500I250000J0D01*
G01*
G37*
G04 #@! TD.AperFunction*
G04 #@! TA.AperFunction,SMDPad,CuDef*
G36*
G01*
X121425000Y-76440000D02*
X122375000Y-76440000D01*
G75*
G02*
X122625000Y-76690000I0J-250000D01*
G01*
X122625000Y-77190000D01*
G75*
G02*
X122375000Y-77440000I-250000J0D01*
G01*
X121425000Y-77440000D01*
G75*
G02*
X121175000Y-77190000I0J250000D01*
G01*
X121175000Y-76690000D01*
G75*
G02*
X121425000Y-76440000I250000J0D01*
G01*
G37*
G04 #@! TD.AperFunction*
G04 #@! TA.AperFunction,SMDPad,CuDef*
G36*
G01*
X121425000Y-74540000D02*
X122375000Y-74540000D01*
G75*
G02*
X122625000Y-74790000I0J-250000D01*
G01*
X122625000Y-75290000D01*
G75*
G02*
X122375000Y-75540000I-250000J0D01*
G01*
X121425000Y-75540000D01*
G75*
G02*
X121175000Y-75290000I0J250000D01*
G01*
X121175000Y-74790000D01*
G75*
G02*
X121425000Y-74540000I250000J0D01*
G01*
G37*
G04 #@! TD.AperFunction*
G04 #@! TA.AperFunction,SMDPad,CuDef*
G36*
G01*
X111745000Y-76520000D02*
X112695000Y-76520000D01*
G75*
G02*
X112945000Y-76770000I0J-250000D01*
G01*
X112945000Y-77270000D01*
G75*
G02*
X112695000Y-77520000I-250000J0D01*
G01*
X111745000Y-77520000D01*
G75*
G02*
X111495000Y-77270000I0J250000D01*
G01*
X111495000Y-76770000D01*
G75*
G02*
X111745000Y-76520000I250000J0D01*
G01*
G37*
G04 #@! TD.AperFunction*
G04 #@! TA.AperFunction,SMDPad,CuDef*
G36*
G01*
X111745000Y-74620000D02*
X112695000Y-74620000D01*
G75*
G02*
X112945000Y-74870000I0J-250000D01*
G01*
X112945000Y-75370000D01*
G75*
G02*
X112695000Y-75620000I-250000J0D01*
G01*
X111745000Y-75620000D01*
G75*
G02*
X111495000Y-75370000I0J250000D01*
G01*
X111495000Y-74870000D01*
G75*
G02*
X111745000Y-74620000I250000J0D01*
G01*
G37*
G04 #@! TD.AperFunction*
G04 #@! TA.AperFunction,SMDPad,CuDef*
G36*
G01*
X134460000Y-63227500D02*
X133510000Y-63227500D01*
G75*
G02*
X133260000Y-62977500I0J250000D01*
G01*
X133260000Y-62477500D01*
G75*
G02*
X133510000Y-62227500I250000J0D01*
G01*
X134460000Y-62227500D01*
G75*
G02*
X134710000Y-62477500I0J-250000D01*
G01*
X134710000Y-62977500D01*
G75*
G02*
X134460000Y-63227500I-250000J0D01*
G01*
G37*
G04 #@! TD.AperFunction*
G04 #@! TA.AperFunction,SMDPad,CuDef*
G36*
G01*
X134460000Y-65127500D02*
X133510000Y-65127500D01*
G75*
G02*
X133260000Y-64877500I0J250000D01*
G01*
X133260000Y-64377500D01*
G75*
G02*
X133510000Y-64127500I250000J0D01*
G01*
X134460000Y-64127500D01*
G75*
G02*
X134710000Y-64377500I0J-250000D01*
G01*
X134710000Y-64877500D01*
G75*
G02*
X134460000Y-65127500I-250000J0D01*
G01*
G37*
G04 #@! TD.AperFunction*
G04 #@! TA.AperFunction,SMDPad,CuDef*
G36*
G01*
X165641000Y-71171000D02*
X166591000Y-71171000D01*
G75*
G02*
X166841000Y-71421000I0J-250000D01*
G01*
X166841000Y-71921000D01*
G75*
G02*
X166591000Y-72171000I-250000J0D01*
G01*
X165641000Y-72171000D01*
G75*
G02*
X165391000Y-71921000I0J250000D01*
G01*
X165391000Y-71421000D01*
G75*
G02*
X165641000Y-71171000I250000J0D01*
G01*
G37*
G04 #@! TD.AperFunction*
G04 #@! TA.AperFunction,SMDPad,CuDef*
G36*
G01*
X165641000Y-69271000D02*
X166591000Y-69271000D01*
G75*
G02*
X166841000Y-69521000I0J-250000D01*
G01*
X166841000Y-70021000D01*
G75*
G02*
X166591000Y-70271000I-250000J0D01*
G01*
X165641000Y-70271000D01*
G75*
G02*
X165391000Y-70021000I0J250000D01*
G01*
X165391000Y-69521000D01*
G75*
G02*
X165641000Y-69271000I250000J0D01*
G01*
G37*
G04 #@! TD.AperFunction*
G04 #@! TA.AperFunction,SMDPad,CuDef*
G36*
G01*
X126906000Y-83556000D02*
X127856000Y-83556000D01*
G75*
G02*
X128106000Y-83806000I0J-250000D01*
G01*
X128106000Y-84306000D01*
G75*
G02*
X127856000Y-84556000I-250000J0D01*
G01*
X126906000Y-84556000D01*
G75*
G02*
X126656000Y-84306000I0J250000D01*
G01*
X126656000Y-83806000D01*
G75*
G02*
X126906000Y-83556000I250000J0D01*
G01*
G37*
G04 #@! TD.AperFunction*
G04 #@! TA.AperFunction,SMDPad,CuDef*
G36*
G01*
X126906000Y-81656000D02*
X127856000Y-81656000D01*
G75*
G02*
X128106000Y-81906000I0J-250000D01*
G01*
X128106000Y-82406000D01*
G75*
G02*
X127856000Y-82656000I-250000J0D01*
G01*
X126906000Y-82656000D01*
G75*
G02*
X126656000Y-82406000I0J250000D01*
G01*
X126656000Y-81906000D01*
G75*
G02*
X126906000Y-81656000I250000J0D01*
G01*
G37*
G04 #@! TD.AperFunction*
G04 #@! TA.AperFunction,SMDPad,CuDef*
G36*
G01*
X124912500Y-80850500D02*
X124912500Y-79900500D01*
G75*
G02*
X125162500Y-79650500I250000J0D01*
G01*
X125662500Y-79650500D01*
G75*
G02*
X125912500Y-79900500I0J-250000D01*
G01*
X125912500Y-80850500D01*
G75*
G02*
X125662500Y-81100500I-250000J0D01*
G01*
X125162500Y-81100500D01*
G75*
G02*
X124912500Y-80850500I0J250000D01*
G01*
G37*
G04 #@! TD.AperFunction*
G04 #@! TA.AperFunction,SMDPad,CuDef*
G36*
G01*
X123012500Y-80850500D02*
X123012500Y-79900500D01*
G75*
G02*
X123262500Y-79650500I250000J0D01*
G01*
X123762500Y-79650500D01*
G75*
G02*
X124012500Y-79900500I0J-250000D01*
G01*
X124012500Y-80850500D01*
G75*
G02*
X123762500Y-81100500I-250000J0D01*
G01*
X123262500Y-81100500D01*
G75*
G02*
X123012500Y-80850500I0J250000D01*
G01*
G37*
G04 #@! TD.AperFunction*
G04 #@! TA.AperFunction,SMDPad,CuDef*
G36*
G01*
X122141000Y-82656000D02*
X121191000Y-82656000D01*
G75*
G02*
X120941000Y-82406000I0J250000D01*
G01*
X120941000Y-81906000D01*
G75*
G02*
X121191000Y-81656000I250000J0D01*
G01*
X122141000Y-81656000D01*
G75*
G02*
X122391000Y-81906000I0J-250000D01*
G01*
X122391000Y-82406000D01*
G75*
G02*
X122141000Y-82656000I-250000J0D01*
G01*
G37*
G04 #@! TD.AperFunction*
G04 #@! TA.AperFunction,SMDPad,CuDef*
G36*
G01*
X122141000Y-84556000D02*
X121191000Y-84556000D01*
G75*
G02*
X120941000Y-84306000I0J250000D01*
G01*
X120941000Y-83806000D01*
G75*
G02*
X121191000Y-83556000I250000J0D01*
G01*
X122141000Y-83556000D01*
G75*
G02*
X122391000Y-83806000I0J-250000D01*
G01*
X122391000Y-84306000D01*
G75*
G02*
X122141000Y-84556000I-250000J0D01*
G01*
G37*
G04 #@! TD.AperFunction*
G04 #@! TA.AperFunction,SMDPad,CuDef*
G36*
G01*
X129763500Y-85590500D02*
X130713500Y-85590500D01*
G75*
G02*
X130963500Y-85840500I0J-250000D01*
G01*
X130963500Y-86340500D01*
G75*
G02*
X130713500Y-86590500I-250000J0D01*
G01*
X129763500Y-86590500D01*
G75*
G02*
X129513500Y-86340500I0J250000D01*
G01*
X129513500Y-85840500D01*
G75*
G02*
X129763500Y-85590500I250000J0D01*
G01*
G37*
G04 #@! TD.AperFunction*
G04 #@! TA.AperFunction,SMDPad,CuDef*
G36*
G01*
X129763500Y-87490500D02*
X130713500Y-87490500D01*
G75*
G02*
X130963500Y-87740500I0J-250000D01*
G01*
X130963500Y-88240500D01*
G75*
G02*
X130713500Y-88490500I-250000J0D01*
G01*
X129763500Y-88490500D01*
G75*
G02*
X129513500Y-88240500I0J250000D01*
G01*
X129513500Y-87740500D01*
G75*
G02*
X129763500Y-87490500I250000J0D01*
G01*
G37*
G04 #@! TD.AperFunction*
G04 #@! TA.AperFunction,SMDPad,CuDef*
D19*
G36*
X190149000Y-104581602D02*
G01*
X190173534Y-104581602D01*
X190222365Y-104586412D01*
X190270490Y-104595984D01*
X190317445Y-104610228D01*
X190362778Y-104629005D01*
X190406051Y-104652136D01*
X190446850Y-104679396D01*
X190484779Y-104710524D01*
X190519476Y-104745221D01*
X190550604Y-104783150D01*
X190577864Y-104823949D01*
X190600995Y-104867222D01*
X190619772Y-104912555D01*
X190634016Y-104959510D01*
X190643588Y-105007635D01*
X190648398Y-105056466D01*
X190648398Y-105081000D01*
X190649000Y-105081000D01*
X190649000Y-105581000D01*
X190648398Y-105581000D01*
X190648398Y-105605534D01*
X190643588Y-105654365D01*
X190634016Y-105702490D01*
X190619772Y-105749445D01*
X190600995Y-105794778D01*
X190577864Y-105838051D01*
X190550604Y-105878850D01*
X190519476Y-105916779D01*
X190484779Y-105951476D01*
X190446850Y-105982604D01*
X190406051Y-106009864D01*
X190362778Y-106032995D01*
X190317445Y-106051772D01*
X190270490Y-106066016D01*
X190222365Y-106075588D01*
X190173534Y-106080398D01*
X190149000Y-106080398D01*
X190149000Y-106081000D01*
X189649000Y-106081000D01*
X189649000Y-104581000D01*
X190149000Y-104581000D01*
X190149000Y-104581602D01*
G37*
G04 #@! TD.AperFunction*
G04 #@! TA.AperFunction,SMDPad,CuDef*
G36*
X189349000Y-106081000D02*
G01*
X188849000Y-106081000D01*
X188849000Y-106080398D01*
X188824466Y-106080398D01*
X188775635Y-106075588D01*
X188727510Y-106066016D01*
X188680555Y-106051772D01*
X188635222Y-106032995D01*
X188591949Y-106009864D01*
X188551150Y-105982604D01*
X188513221Y-105951476D01*
X188478524Y-105916779D01*
X188447396Y-105878850D01*
X188420136Y-105838051D01*
X188397005Y-105794778D01*
X188378228Y-105749445D01*
X188363984Y-105702490D01*
X188354412Y-105654365D01*
X188349602Y-105605534D01*
X188349602Y-105581000D01*
X188349000Y-105581000D01*
X188349000Y-105081000D01*
X188349602Y-105081000D01*
X188349602Y-105056466D01*
X188354412Y-105007635D01*
X188363984Y-104959510D01*
X188378228Y-104912555D01*
X188397005Y-104867222D01*
X188420136Y-104823949D01*
X188447396Y-104783150D01*
X188478524Y-104745221D01*
X188513221Y-104710524D01*
X188551150Y-104679396D01*
X188591949Y-104652136D01*
X188635222Y-104629005D01*
X188680555Y-104610228D01*
X188727510Y-104595984D01*
X188775635Y-104586412D01*
X188824466Y-104581602D01*
X188849000Y-104581602D01*
X188849000Y-104581000D01*
X189349000Y-104581000D01*
X189349000Y-106081000D01*
G37*
G04 #@! TD.AperFunction*
G04 #@! TA.AperFunction,SMDPad,CuDef*
G36*
G01*
X169654500Y-80503000D02*
X169654500Y-80203000D01*
G75*
G02*
X169804500Y-80053000I150000J0D01*
G01*
X171454500Y-80053000D01*
G75*
G02*
X171604500Y-80203000I0J-150000D01*
G01*
X171604500Y-80503000D01*
G75*
G02*
X171454500Y-80653000I-150000J0D01*
G01*
X169804500Y-80653000D01*
G75*
G02*
X169654500Y-80503000I0J150000D01*
G01*
G37*
G04 #@! TD.AperFunction*
G04 #@! TA.AperFunction,SMDPad,CuDef*
G36*
G01*
X169654500Y-81773000D02*
X169654500Y-81473000D01*
G75*
G02*
X169804500Y-81323000I150000J0D01*
G01*
X171454500Y-81323000D01*
G75*
G02*
X171604500Y-81473000I0J-150000D01*
G01*
X171604500Y-81773000D01*
G75*
G02*
X171454500Y-81923000I-150000J0D01*
G01*
X169804500Y-81923000D01*
G75*
G02*
X169654500Y-81773000I0J150000D01*
G01*
G37*
G04 #@! TD.AperFunction*
G04 #@! TA.AperFunction,SMDPad,CuDef*
G36*
G01*
X169654500Y-83043000D02*
X169654500Y-82743000D01*
G75*
G02*
X169804500Y-82593000I150000J0D01*
G01*
X171454500Y-82593000D01*
G75*
G02*
X171604500Y-82743000I0J-150000D01*
G01*
X171604500Y-83043000D01*
G75*
G02*
X171454500Y-83193000I-150000J0D01*
G01*
X169804500Y-83193000D01*
G75*
G02*
X169654500Y-83043000I0J150000D01*
G01*
G37*
G04 #@! TD.AperFunction*
G04 #@! TA.AperFunction,SMDPad,CuDef*
G36*
G01*
X169654500Y-84313000D02*
X169654500Y-84013000D01*
G75*
G02*
X169804500Y-83863000I150000J0D01*
G01*
X171454500Y-83863000D01*
G75*
G02*
X171604500Y-84013000I0J-150000D01*
G01*
X171604500Y-84313000D01*
G75*
G02*
X171454500Y-84463000I-150000J0D01*
G01*
X169804500Y-84463000D01*
G75*
G02*
X169654500Y-84313000I0J150000D01*
G01*
G37*
G04 #@! TD.AperFunction*
G04 #@! TA.AperFunction,SMDPad,CuDef*
G36*
G01*
X169654500Y-85583000D02*
X169654500Y-85283000D01*
G75*
G02*
X169804500Y-85133000I150000J0D01*
G01*
X171454500Y-85133000D01*
G75*
G02*
X171604500Y-85283000I0J-150000D01*
G01*
X171604500Y-85583000D01*
G75*
G02*
X171454500Y-85733000I-150000J0D01*
G01*
X169804500Y-85733000D01*
G75*
G02*
X169654500Y-85583000I0J150000D01*
G01*
G37*
G04 #@! TD.AperFunction*
G04 #@! TA.AperFunction,SMDPad,CuDef*
G36*
G01*
X169654500Y-86853000D02*
X169654500Y-86553000D01*
G75*
G02*
X169804500Y-86403000I150000J0D01*
G01*
X171454500Y-86403000D01*
G75*
G02*
X171604500Y-86553000I0J-150000D01*
G01*
X171604500Y-86853000D01*
G75*
G02*
X171454500Y-87003000I-150000J0D01*
G01*
X169804500Y-87003000D01*
G75*
G02*
X169654500Y-86853000I0J150000D01*
G01*
G37*
G04 #@! TD.AperFunction*
G04 #@! TA.AperFunction,SMDPad,CuDef*
G36*
G01*
X169654500Y-88123000D02*
X169654500Y-87823000D01*
G75*
G02*
X169804500Y-87673000I150000J0D01*
G01*
X171454500Y-87673000D01*
G75*
G02*
X171604500Y-87823000I0J-150000D01*
G01*
X171604500Y-88123000D01*
G75*
G02*
X171454500Y-88273000I-150000J0D01*
G01*
X169804500Y-88273000D01*
G75*
G02*
X169654500Y-88123000I0J150000D01*
G01*
G37*
G04 #@! TD.AperFunction*
G04 #@! TA.AperFunction,SMDPad,CuDef*
G36*
G01*
X164704500Y-88123000D02*
X164704500Y-87823000D01*
G75*
G02*
X164854500Y-87673000I150000J0D01*
G01*
X166504500Y-87673000D01*
G75*
G02*
X166654500Y-87823000I0J-150000D01*
G01*
X166654500Y-88123000D01*
G75*
G02*
X166504500Y-88273000I-150000J0D01*
G01*
X164854500Y-88273000D01*
G75*
G02*
X164704500Y-88123000I0J150000D01*
G01*
G37*
G04 #@! TD.AperFunction*
G04 #@! TA.AperFunction,SMDPad,CuDef*
G36*
G01*
X164704500Y-86853000D02*
X164704500Y-86553000D01*
G75*
G02*
X164854500Y-86403000I150000J0D01*
G01*
X166504500Y-86403000D01*
G75*
G02*
X166654500Y-86553000I0J-150000D01*
G01*
X166654500Y-86853000D01*
G75*
G02*
X166504500Y-87003000I-150000J0D01*
G01*
X164854500Y-87003000D01*
G75*
G02*
X164704500Y-86853000I0J150000D01*
G01*
G37*
G04 #@! TD.AperFunction*
G04 #@! TA.AperFunction,SMDPad,CuDef*
G36*
G01*
X164704500Y-85583000D02*
X164704500Y-85283000D01*
G75*
G02*
X164854500Y-85133000I150000J0D01*
G01*
X166504500Y-85133000D01*
G75*
G02*
X166654500Y-85283000I0J-150000D01*
G01*
X166654500Y-85583000D01*
G75*
G02*
X166504500Y-85733000I-150000J0D01*
G01*
X164854500Y-85733000D01*
G75*
G02*
X164704500Y-85583000I0J150000D01*
G01*
G37*
G04 #@! TD.AperFunction*
G04 #@! TA.AperFunction,SMDPad,CuDef*
G36*
G01*
X164704500Y-84313000D02*
X164704500Y-84013000D01*
G75*
G02*
X164854500Y-83863000I150000J0D01*
G01*
X166504500Y-83863000D01*
G75*
G02*
X166654500Y-84013000I0J-150000D01*
G01*
X166654500Y-84313000D01*
G75*
G02*
X166504500Y-84463000I-150000J0D01*
G01*
X164854500Y-84463000D01*
G75*
G02*
X164704500Y-84313000I0J150000D01*
G01*
G37*
G04 #@! TD.AperFunction*
G04 #@! TA.AperFunction,SMDPad,CuDef*
G36*
G01*
X164704500Y-83043000D02*
X164704500Y-82743000D01*
G75*
G02*
X164854500Y-82593000I150000J0D01*
G01*
X166504500Y-82593000D01*
G75*
G02*
X166654500Y-82743000I0J-150000D01*
G01*
X166654500Y-83043000D01*
G75*
G02*
X166504500Y-83193000I-150000J0D01*
G01*
X164854500Y-83193000D01*
G75*
G02*
X164704500Y-83043000I0J150000D01*
G01*
G37*
G04 #@! TD.AperFunction*
G04 #@! TA.AperFunction,SMDPad,CuDef*
G36*
G01*
X164704500Y-81773000D02*
X164704500Y-81473000D01*
G75*
G02*
X164854500Y-81323000I150000J0D01*
G01*
X166504500Y-81323000D01*
G75*
G02*
X166654500Y-81473000I0J-150000D01*
G01*
X166654500Y-81773000D01*
G75*
G02*
X166504500Y-81923000I-150000J0D01*
G01*
X164854500Y-81923000D01*
G75*
G02*
X164704500Y-81773000I0J150000D01*
G01*
G37*
G04 #@! TD.AperFunction*
G04 #@! TA.AperFunction,SMDPad,CuDef*
G36*
G01*
X164704500Y-80503000D02*
X164704500Y-80203000D01*
G75*
G02*
X164854500Y-80053000I150000J0D01*
G01*
X166504500Y-80053000D01*
G75*
G02*
X166654500Y-80203000I0J-150000D01*
G01*
X166654500Y-80503000D01*
G75*
G02*
X166504500Y-80653000I-150000J0D01*
G01*
X164854500Y-80653000D01*
G75*
G02*
X164704500Y-80503000I0J150000D01*
G01*
G37*
G04 #@! TD.AperFunction*
D15*
X164997000Y-54528000D03*
X164997000Y-57068000D03*
X162457000Y-54528000D03*
X162457000Y-57068000D03*
X159917000Y-54528000D03*
X159917000Y-57068000D03*
X157377000Y-54528000D03*
X157377000Y-57068000D03*
X154837000Y-54528000D03*
X154837000Y-57068000D03*
X152297000Y-54528000D03*
X152297000Y-57068000D03*
X149757000Y-54528000D03*
X149757000Y-57068000D03*
X147217000Y-54528000D03*
X147217000Y-57068000D03*
X144677000Y-54528000D03*
X144677000Y-57068000D03*
X142137000Y-54528000D03*
X142137000Y-57068000D03*
X139597000Y-54528000D03*
X139597000Y-57068000D03*
X137057000Y-54528000D03*
X137057000Y-57068000D03*
X134517000Y-54528000D03*
X134517000Y-57068000D03*
X131977000Y-54528000D03*
X131977000Y-57068000D03*
X129437000Y-54528000D03*
X129437000Y-57068000D03*
X126897000Y-54528000D03*
X126897000Y-57068000D03*
X124357000Y-54528000D03*
X124357000Y-57068000D03*
X121817000Y-54528000D03*
X121817000Y-57068000D03*
X119277000Y-54528000D03*
X119277000Y-57068000D03*
X116737000Y-54528000D03*
D16*
X116737000Y-57068000D03*
G04 #@! TA.AperFunction,SMDPad,CuDef*
G36*
G01*
X164315000Y-68604000D02*
X164615000Y-68604000D01*
G75*
G02*
X164765000Y-68754000I0J-150000D01*
G01*
X164765000Y-70404000D01*
G75*
G02*
X164615000Y-70554000I-150000J0D01*
G01*
X164315000Y-70554000D01*
G75*
G02*
X164165000Y-70404000I0J150000D01*
G01*
X164165000Y-68754000D01*
G75*
G02*
X164315000Y-68604000I150000J0D01*
G01*
G37*
G04 #@! TD.AperFunction*
G04 #@! TA.AperFunction,SMDPad,CuDef*
G36*
G01*
X163045000Y-68604000D02*
X163345000Y-68604000D01*
G75*
G02*
X163495000Y-68754000I0J-150000D01*
G01*
X163495000Y-70404000D01*
G75*
G02*
X163345000Y-70554000I-150000J0D01*
G01*
X163045000Y-70554000D01*
G75*
G02*
X162895000Y-70404000I0J150000D01*
G01*
X162895000Y-68754000D01*
G75*
G02*
X163045000Y-68604000I150000J0D01*
G01*
G37*
G04 #@! TD.AperFunction*
G04 #@! TA.AperFunction,SMDPad,CuDef*
G36*
G01*
X161775000Y-68604000D02*
X162075000Y-68604000D01*
G75*
G02*
X162225000Y-68754000I0J-150000D01*
G01*
X162225000Y-70404000D01*
G75*
G02*
X162075000Y-70554000I-150000J0D01*
G01*
X161775000Y-70554000D01*
G75*
G02*
X161625000Y-70404000I0J150000D01*
G01*
X161625000Y-68754000D01*
G75*
G02*
X161775000Y-68604000I150000J0D01*
G01*
G37*
G04 #@! TD.AperFunction*
G04 #@! TA.AperFunction,SMDPad,CuDef*
G36*
G01*
X160505000Y-68604000D02*
X160805000Y-68604000D01*
G75*
G02*
X160955000Y-68754000I0J-150000D01*
G01*
X160955000Y-70404000D01*
G75*
G02*
X160805000Y-70554000I-150000J0D01*
G01*
X160505000Y-70554000D01*
G75*
G02*
X160355000Y-70404000I0J150000D01*
G01*
X160355000Y-68754000D01*
G75*
G02*
X160505000Y-68604000I150000J0D01*
G01*
G37*
G04 #@! TD.AperFunction*
G04 #@! TA.AperFunction,SMDPad,CuDef*
G36*
G01*
X160505000Y-63654000D02*
X160805000Y-63654000D01*
G75*
G02*
X160955000Y-63804000I0J-150000D01*
G01*
X160955000Y-65454000D01*
G75*
G02*
X160805000Y-65604000I-150000J0D01*
G01*
X160505000Y-65604000D01*
G75*
G02*
X160355000Y-65454000I0J150000D01*
G01*
X160355000Y-63804000D01*
G75*
G02*
X160505000Y-63654000I150000J0D01*
G01*
G37*
G04 #@! TD.AperFunction*
G04 #@! TA.AperFunction,SMDPad,CuDef*
G36*
G01*
X161775000Y-63654000D02*
X162075000Y-63654000D01*
G75*
G02*
X162225000Y-63804000I0J-150000D01*
G01*
X162225000Y-65454000D01*
G75*
G02*
X162075000Y-65604000I-150000J0D01*
G01*
X161775000Y-65604000D01*
G75*
G02*
X161625000Y-65454000I0J150000D01*
G01*
X161625000Y-63804000D01*
G75*
G02*
X161775000Y-63654000I150000J0D01*
G01*
G37*
G04 #@! TD.AperFunction*
G04 #@! TA.AperFunction,SMDPad,CuDef*
G36*
G01*
X163045000Y-63654000D02*
X163345000Y-63654000D01*
G75*
G02*
X163495000Y-63804000I0J-150000D01*
G01*
X163495000Y-65454000D01*
G75*
G02*
X163345000Y-65604000I-150000J0D01*
G01*
X163045000Y-65604000D01*
G75*
G02*
X162895000Y-65454000I0J150000D01*
G01*
X162895000Y-63804000D01*
G75*
G02*
X163045000Y-63654000I150000J0D01*
G01*
G37*
G04 #@! TD.AperFunction*
G04 #@! TA.AperFunction,SMDPad,CuDef*
G36*
G01*
X164315000Y-63654000D02*
X164615000Y-63654000D01*
G75*
G02*
X164765000Y-63804000I0J-150000D01*
G01*
X164765000Y-65454000D01*
G75*
G02*
X164615000Y-65604000I-150000J0D01*
G01*
X164315000Y-65604000D01*
G75*
G02*
X164165000Y-65454000I0J150000D01*
G01*
X164165000Y-63804000D01*
G75*
G02*
X164315000Y-63654000I150000J0D01*
G01*
G37*
G04 #@! TD.AperFunction*
G04 #@! TA.AperFunction,SMDPad,CuDef*
G36*
G01*
X122285000Y-86823000D02*
X122085000Y-86823000D01*
G75*
G02*
X121985000Y-86723000I0J100000D01*
G01*
X121985000Y-85448000D01*
G75*
G02*
X122085000Y-85348000I100000J0D01*
G01*
X122285000Y-85348000D01*
G75*
G02*
X122385000Y-85448000I0J-100000D01*
G01*
X122385000Y-86723000D01*
G75*
G02*
X122285000Y-86823000I-100000J0D01*
G01*
G37*
G04 #@! TD.AperFunction*
G04 #@! TA.AperFunction,SMDPad,CuDef*
G36*
G01*
X122935000Y-86823000D02*
X122735000Y-86823000D01*
G75*
G02*
X122635000Y-86723000I0J100000D01*
G01*
X122635000Y-85448000D01*
G75*
G02*
X122735000Y-85348000I100000J0D01*
G01*
X122935000Y-85348000D01*
G75*
G02*
X123035000Y-85448000I0J-100000D01*
G01*
X123035000Y-86723000D01*
G75*
G02*
X122935000Y-86823000I-100000J0D01*
G01*
G37*
G04 #@! TD.AperFunction*
G04 #@! TA.AperFunction,SMDPad,CuDef*
G36*
G01*
X123585000Y-86823000D02*
X123385000Y-86823000D01*
G75*
G02*
X123285000Y-86723000I0J100000D01*
G01*
X123285000Y-85448000D01*
G75*
G02*
X123385000Y-85348000I100000J0D01*
G01*
X123585000Y-85348000D01*
G75*
G02*
X123685000Y-85448000I0J-100000D01*
G01*
X123685000Y-86723000D01*
G75*
G02*
X123585000Y-86823000I-100000J0D01*
G01*
G37*
G04 #@! TD.AperFunction*
G04 #@! TA.AperFunction,SMDPad,CuDef*
G36*
G01*
X124235000Y-86823000D02*
X124035000Y-86823000D01*
G75*
G02*
X123935000Y-86723000I0J100000D01*
G01*
X123935000Y-85448000D01*
G75*
G02*
X124035000Y-85348000I100000J0D01*
G01*
X124235000Y-85348000D01*
G75*
G02*
X124335000Y-85448000I0J-100000D01*
G01*
X124335000Y-86723000D01*
G75*
G02*
X124235000Y-86823000I-100000J0D01*
G01*
G37*
G04 #@! TD.AperFunction*
G04 #@! TA.AperFunction,SMDPad,CuDef*
G36*
G01*
X124885000Y-86823000D02*
X124685000Y-86823000D01*
G75*
G02*
X124585000Y-86723000I0J100000D01*
G01*
X124585000Y-85448000D01*
G75*
G02*
X124685000Y-85348000I100000J0D01*
G01*
X124885000Y-85348000D01*
G75*
G02*
X124985000Y-85448000I0J-100000D01*
G01*
X124985000Y-86723000D01*
G75*
G02*
X124885000Y-86823000I-100000J0D01*
G01*
G37*
G04 #@! TD.AperFunction*
G04 #@! TA.AperFunction,SMDPad,CuDef*
G36*
G01*
X125535000Y-86823000D02*
X125335000Y-86823000D01*
G75*
G02*
X125235000Y-86723000I0J100000D01*
G01*
X125235000Y-85448000D01*
G75*
G02*
X125335000Y-85348000I100000J0D01*
G01*
X125535000Y-85348000D01*
G75*
G02*
X125635000Y-85448000I0J-100000D01*
G01*
X125635000Y-86723000D01*
G75*
G02*
X125535000Y-86823000I-100000J0D01*
G01*
G37*
G04 #@! TD.AperFunction*
G04 #@! TA.AperFunction,SMDPad,CuDef*
G36*
G01*
X126185000Y-86823000D02*
X125985000Y-86823000D01*
G75*
G02*
X125885000Y-86723000I0J100000D01*
G01*
X125885000Y-85448000D01*
G75*
G02*
X125985000Y-85348000I100000J0D01*
G01*
X126185000Y-85348000D01*
G75*
G02*
X126285000Y-85448000I0J-100000D01*
G01*
X126285000Y-86723000D01*
G75*
G02*
X126185000Y-86823000I-100000J0D01*
G01*
G37*
G04 #@! TD.AperFunction*
G04 #@! TA.AperFunction,SMDPad,CuDef*
G36*
G01*
X126835000Y-86823000D02*
X126635000Y-86823000D01*
G75*
G02*
X126535000Y-86723000I0J100000D01*
G01*
X126535000Y-85448000D01*
G75*
G02*
X126635000Y-85348000I100000J0D01*
G01*
X126835000Y-85348000D01*
G75*
G02*
X126935000Y-85448000I0J-100000D01*
G01*
X126935000Y-86723000D01*
G75*
G02*
X126835000Y-86823000I-100000J0D01*
G01*
G37*
G04 #@! TD.AperFunction*
G04 #@! TA.AperFunction,SMDPad,CuDef*
G36*
G01*
X126835000Y-92548000D02*
X126635000Y-92548000D01*
G75*
G02*
X126535000Y-92448000I0J100000D01*
G01*
X126535000Y-91173000D01*
G75*
G02*
X126635000Y-91073000I100000J0D01*
G01*
X126835000Y-91073000D01*
G75*
G02*
X126935000Y-91173000I0J-100000D01*
G01*
X126935000Y-92448000D01*
G75*
G02*
X126835000Y-92548000I-100000J0D01*
G01*
G37*
G04 #@! TD.AperFunction*
G04 #@! TA.AperFunction,SMDPad,CuDef*
G36*
G01*
X126185000Y-92548000D02*
X125985000Y-92548000D01*
G75*
G02*
X125885000Y-92448000I0J100000D01*
G01*
X125885000Y-91173000D01*
G75*
G02*
X125985000Y-91073000I100000J0D01*
G01*
X126185000Y-91073000D01*
G75*
G02*
X126285000Y-91173000I0J-100000D01*
G01*
X126285000Y-92448000D01*
G75*
G02*
X126185000Y-92548000I-100000J0D01*
G01*
G37*
G04 #@! TD.AperFunction*
G04 #@! TA.AperFunction,SMDPad,CuDef*
G36*
G01*
X125535000Y-92548000D02*
X125335000Y-92548000D01*
G75*
G02*
X125235000Y-92448000I0J100000D01*
G01*
X125235000Y-91173000D01*
G75*
G02*
X125335000Y-91073000I100000J0D01*
G01*
X125535000Y-91073000D01*
G75*
G02*
X125635000Y-91173000I0J-100000D01*
G01*
X125635000Y-92448000D01*
G75*
G02*
X125535000Y-92548000I-100000J0D01*
G01*
G37*
G04 #@! TD.AperFunction*
G04 #@! TA.AperFunction,SMDPad,CuDef*
G36*
G01*
X124885000Y-92548000D02*
X124685000Y-92548000D01*
G75*
G02*
X124585000Y-92448000I0J100000D01*
G01*
X124585000Y-91173000D01*
G75*
G02*
X124685000Y-91073000I100000J0D01*
G01*
X124885000Y-91073000D01*
G75*
G02*
X124985000Y-91173000I0J-100000D01*
G01*
X124985000Y-92448000D01*
G75*
G02*
X124885000Y-92548000I-100000J0D01*
G01*
G37*
G04 #@! TD.AperFunction*
G04 #@! TA.AperFunction,SMDPad,CuDef*
G36*
G01*
X124235000Y-92548000D02*
X124035000Y-92548000D01*
G75*
G02*
X123935000Y-92448000I0J100000D01*
G01*
X123935000Y-91173000D01*
G75*
G02*
X124035000Y-91073000I100000J0D01*
G01*
X124235000Y-91073000D01*
G75*
G02*
X124335000Y-91173000I0J-100000D01*
G01*
X124335000Y-92448000D01*
G75*
G02*
X124235000Y-92548000I-100000J0D01*
G01*
G37*
G04 #@! TD.AperFunction*
G04 #@! TA.AperFunction,SMDPad,CuDef*
G36*
G01*
X123585000Y-92548000D02*
X123385000Y-92548000D01*
G75*
G02*
X123285000Y-92448000I0J100000D01*
G01*
X123285000Y-91173000D01*
G75*
G02*
X123385000Y-91073000I100000J0D01*
G01*
X123585000Y-91073000D01*
G75*
G02*
X123685000Y-91173000I0J-100000D01*
G01*
X123685000Y-92448000D01*
G75*
G02*
X123585000Y-92548000I-100000J0D01*
G01*
G37*
G04 #@! TD.AperFunction*
G04 #@! TA.AperFunction,SMDPad,CuDef*
G36*
G01*
X122935000Y-92548000D02*
X122735000Y-92548000D01*
G75*
G02*
X122635000Y-92448000I0J100000D01*
G01*
X122635000Y-91173000D01*
G75*
G02*
X122735000Y-91073000I100000J0D01*
G01*
X122935000Y-91073000D01*
G75*
G02*
X123035000Y-91173000I0J-100000D01*
G01*
X123035000Y-92448000D01*
G75*
G02*
X122935000Y-92548000I-100000J0D01*
G01*
G37*
G04 #@! TD.AperFunction*
G04 #@! TA.AperFunction,SMDPad,CuDef*
G36*
G01*
X122285000Y-92548000D02*
X122085000Y-92548000D01*
G75*
G02*
X121985000Y-92448000I0J100000D01*
G01*
X121985000Y-91173000D01*
G75*
G02*
X122085000Y-91073000I100000J0D01*
G01*
X122285000Y-91073000D01*
G75*
G02*
X122385000Y-91173000I0J-100000D01*
G01*
X122385000Y-92448000D01*
G75*
G02*
X122285000Y-92548000I-100000J0D01*
G01*
G37*
G04 #@! TD.AperFunction*
G04 #@! TA.AperFunction,SMDPad,CuDef*
G36*
G01*
X132057000Y-68604000D02*
X132357000Y-68604000D01*
G75*
G02*
X132507000Y-68754000I0J-150000D01*
G01*
X132507000Y-70404000D01*
G75*
G02*
X132357000Y-70554000I-150000J0D01*
G01*
X132057000Y-70554000D01*
G75*
G02*
X131907000Y-70404000I0J150000D01*
G01*
X131907000Y-68754000D01*
G75*
G02*
X132057000Y-68604000I150000J0D01*
G01*
G37*
G04 #@! TD.AperFunction*
G04 #@! TA.AperFunction,SMDPad,CuDef*
G36*
G01*
X130787000Y-68604000D02*
X131087000Y-68604000D01*
G75*
G02*
X131237000Y-68754000I0J-150000D01*
G01*
X131237000Y-70404000D01*
G75*
G02*
X131087000Y-70554000I-150000J0D01*
G01*
X130787000Y-70554000D01*
G75*
G02*
X130637000Y-70404000I0J150000D01*
G01*
X130637000Y-68754000D01*
G75*
G02*
X130787000Y-68604000I150000J0D01*
G01*
G37*
G04 #@! TD.AperFunction*
G04 #@! TA.AperFunction,SMDPad,CuDef*
G36*
G01*
X129517000Y-68604000D02*
X129817000Y-68604000D01*
G75*
G02*
X129967000Y-68754000I0J-150000D01*
G01*
X129967000Y-70404000D01*
G75*
G02*
X129817000Y-70554000I-150000J0D01*
G01*
X129517000Y-70554000D01*
G75*
G02*
X129367000Y-70404000I0J150000D01*
G01*
X129367000Y-68754000D01*
G75*
G02*
X129517000Y-68604000I150000J0D01*
G01*
G37*
G04 #@! TD.AperFunction*
G04 #@! TA.AperFunction,SMDPad,CuDef*
G36*
G01*
X128247000Y-68604000D02*
X128547000Y-68604000D01*
G75*
G02*
X128697000Y-68754000I0J-150000D01*
G01*
X128697000Y-70404000D01*
G75*
G02*
X128547000Y-70554000I-150000J0D01*
G01*
X128247000Y-70554000D01*
G75*
G02*
X128097000Y-70404000I0J150000D01*
G01*
X128097000Y-68754000D01*
G75*
G02*
X128247000Y-68604000I150000J0D01*
G01*
G37*
G04 #@! TD.AperFunction*
G04 #@! TA.AperFunction,SMDPad,CuDef*
G36*
G01*
X128247000Y-63654000D02*
X128547000Y-63654000D01*
G75*
G02*
X128697000Y-63804000I0J-150000D01*
G01*
X128697000Y-65454000D01*
G75*
G02*
X128547000Y-65604000I-150000J0D01*
G01*
X128247000Y-65604000D01*
G75*
G02*
X128097000Y-65454000I0J150000D01*
G01*
X128097000Y-63804000D01*
G75*
G02*
X128247000Y-63654000I150000J0D01*
G01*
G37*
G04 #@! TD.AperFunction*
G04 #@! TA.AperFunction,SMDPad,CuDef*
G36*
G01*
X129517000Y-63654000D02*
X129817000Y-63654000D01*
G75*
G02*
X129967000Y-63804000I0J-150000D01*
G01*
X129967000Y-65454000D01*
G75*
G02*
X129817000Y-65604000I-150000J0D01*
G01*
X129517000Y-65604000D01*
G75*
G02*
X129367000Y-65454000I0J150000D01*
G01*
X129367000Y-63804000D01*
G75*
G02*
X129517000Y-63654000I150000J0D01*
G01*
G37*
G04 #@! TD.AperFunction*
G04 #@! TA.AperFunction,SMDPad,CuDef*
G36*
G01*
X130787000Y-63654000D02*
X131087000Y-63654000D01*
G75*
G02*
X131237000Y-63804000I0J-150000D01*
G01*
X131237000Y-65454000D01*
G75*
G02*
X131087000Y-65604000I-150000J0D01*
G01*
X130787000Y-65604000D01*
G75*
G02*
X130637000Y-65454000I0J150000D01*
G01*
X130637000Y-63804000D01*
G75*
G02*
X130787000Y-63654000I150000J0D01*
G01*
G37*
G04 #@! TD.AperFunction*
G04 #@! TA.AperFunction,SMDPad,CuDef*
G36*
G01*
X132057000Y-63654000D02*
X132357000Y-63654000D01*
G75*
G02*
X132507000Y-63804000I0J-150000D01*
G01*
X132507000Y-65454000D01*
G75*
G02*
X132357000Y-65604000I-150000J0D01*
G01*
X132057000Y-65604000D01*
G75*
G02*
X131907000Y-65454000I0J150000D01*
G01*
X131907000Y-63804000D01*
G75*
G02*
X132057000Y-63654000I150000J0D01*
G01*
G37*
G04 #@! TD.AperFunction*
D17*
X124589500Y-75826000D03*
X123639500Y-75826000D03*
X125539500Y-75826000D03*
X125539500Y-78026000D03*
X124589500Y-78026000D03*
X123639500Y-78026000D03*
G04 #@! TA.AperFunction,SMDPad,CuDef*
G36*
G01*
X183965002Y-93143500D02*
X183064998Y-93143500D01*
G75*
G02*
X182815000Y-92893502I0J249998D01*
G01*
X182815000Y-92368498D01*
G75*
G02*
X183064998Y-92118500I249998J0D01*
G01*
X183965002Y-92118500D01*
G75*
G02*
X184215000Y-92368498I0J-249998D01*
G01*
X184215000Y-92893502D01*
G75*
G02*
X183965002Y-93143500I-249998J0D01*
G01*
G37*
G04 #@! TD.AperFunction*
G04 #@! TA.AperFunction,SMDPad,CuDef*
G36*
G01*
X183965002Y-94968500D02*
X183064998Y-94968500D01*
G75*
G02*
X182815000Y-94718502I0J249998D01*
G01*
X182815000Y-94193498D01*
G75*
G02*
X183064998Y-93943500I249998J0D01*
G01*
X183965002Y-93943500D01*
G75*
G02*
X184215000Y-94193498I0J-249998D01*
G01*
X184215000Y-94718502D01*
G75*
G02*
X183965002Y-94968500I-249998J0D01*
G01*
G37*
G04 #@! TD.AperFunction*
G04 #@! TA.AperFunction,SMDPad,CuDef*
G36*
G01*
X178256502Y-80715000D02*
X177356498Y-80715000D01*
G75*
G02*
X177106500Y-80465002I0J249998D01*
G01*
X177106500Y-79939998D01*
G75*
G02*
X177356498Y-79690000I249998J0D01*
G01*
X178256502Y-79690000D01*
G75*
G02*
X178506500Y-79939998I0J-249998D01*
G01*
X178506500Y-80465002D01*
G75*
G02*
X178256502Y-80715000I-249998J0D01*
G01*
G37*
G04 #@! TD.AperFunction*
G04 #@! TA.AperFunction,SMDPad,CuDef*
G36*
G01*
X178256502Y-82540000D02*
X177356498Y-82540000D01*
G75*
G02*
X177106500Y-82290002I0J249998D01*
G01*
X177106500Y-81764998D01*
G75*
G02*
X177356498Y-81515000I249998J0D01*
G01*
X178256502Y-81515000D01*
G75*
G02*
X178506500Y-81764998I0J-249998D01*
G01*
X178506500Y-82290002D01*
G75*
G02*
X178256502Y-82540000I-249998J0D01*
G01*
G37*
G04 #@! TD.AperFunction*
G04 #@! TA.AperFunction,SMDPad,CuDef*
G36*
G01*
X179081000Y-90872998D02*
X179081000Y-91773002D01*
G75*
G02*
X178831002Y-92023000I-249998J0D01*
G01*
X178305998Y-92023000D01*
G75*
G02*
X178056000Y-91773002I0J249998D01*
G01*
X178056000Y-90872998D01*
G75*
G02*
X178305998Y-90623000I249998J0D01*
G01*
X178831002Y-90623000D01*
G75*
G02*
X179081000Y-90872998I0J-249998D01*
G01*
G37*
G04 #@! TD.AperFunction*
G04 #@! TA.AperFunction,SMDPad,CuDef*
G36*
G01*
X180906000Y-90872998D02*
X180906000Y-91773002D01*
G75*
G02*
X180656002Y-92023000I-249998J0D01*
G01*
X180130998Y-92023000D01*
G75*
G02*
X179881000Y-91773002I0J249998D01*
G01*
X179881000Y-90872998D01*
G75*
G02*
X180130998Y-90623000I249998J0D01*
G01*
X180656002Y-90623000D01*
G75*
G02*
X180906000Y-90872998I0J-249998D01*
G01*
G37*
G04 #@! TD.AperFunction*
G04 #@! TA.AperFunction,SMDPad,CuDef*
G36*
G01*
X163778502Y-87724500D02*
X162878498Y-87724500D01*
G75*
G02*
X162628500Y-87474502I0J249998D01*
G01*
X162628500Y-86949498D01*
G75*
G02*
X162878498Y-86699500I249998J0D01*
G01*
X163778502Y-86699500D01*
G75*
G02*
X164028500Y-86949498I0J-249998D01*
G01*
X164028500Y-87474502D01*
G75*
G02*
X163778502Y-87724500I-249998J0D01*
G01*
G37*
G04 #@! TD.AperFunction*
G04 #@! TA.AperFunction,SMDPad,CuDef*
G36*
G01*
X163778502Y-89549500D02*
X162878498Y-89549500D01*
G75*
G02*
X162628500Y-89299502I0J249998D01*
G01*
X162628500Y-88774498D01*
G75*
G02*
X162878498Y-88524500I249998J0D01*
G01*
X163778502Y-88524500D01*
G75*
G02*
X164028500Y-88774498I0J-249998D01*
G01*
X164028500Y-89299502D01*
G75*
G02*
X163778502Y-89549500I-249998J0D01*
G01*
G37*
G04 #@! TD.AperFunction*
G04 #@! TA.AperFunction,SMDPad,CuDef*
G36*
G01*
X174816498Y-85730500D02*
X175716502Y-85730500D01*
G75*
G02*
X175966500Y-85980498I0J-249998D01*
G01*
X175966500Y-86505502D01*
G75*
G02*
X175716502Y-86755500I-249998J0D01*
G01*
X174816498Y-86755500D01*
G75*
G02*
X174566500Y-86505502I0J249998D01*
G01*
X174566500Y-85980498D01*
G75*
G02*
X174816498Y-85730500I249998J0D01*
G01*
G37*
G04 #@! TD.AperFunction*
G04 #@! TA.AperFunction,SMDPad,CuDef*
G36*
G01*
X174816498Y-83905500D02*
X175716502Y-83905500D01*
G75*
G02*
X175966500Y-84155498I0J-249998D01*
G01*
X175966500Y-84680502D01*
G75*
G02*
X175716502Y-84930500I-249998J0D01*
G01*
X174816498Y-84930500D01*
G75*
G02*
X174566500Y-84680502I0J249998D01*
G01*
X174566500Y-84155498D01*
G75*
G02*
X174816498Y-83905500I249998J0D01*
G01*
G37*
G04 #@! TD.AperFunction*
G04 #@! TA.AperFunction,SMDPad,CuDef*
G36*
G01*
X165677002Y-92000500D02*
X164776998Y-92000500D01*
G75*
G02*
X164527000Y-91750502I0J249998D01*
G01*
X164527000Y-91225498D01*
G75*
G02*
X164776998Y-90975500I249998J0D01*
G01*
X165677002Y-90975500D01*
G75*
G02*
X165927000Y-91225498I0J-249998D01*
G01*
X165927000Y-91750502D01*
G75*
G02*
X165677002Y-92000500I-249998J0D01*
G01*
G37*
G04 #@! TD.AperFunction*
G04 #@! TA.AperFunction,SMDPad,CuDef*
G36*
G01*
X165677002Y-93825500D02*
X164776998Y-93825500D01*
G75*
G02*
X164527000Y-93575502I0J249998D01*
G01*
X164527000Y-93050498D01*
G75*
G02*
X164776998Y-92800500I249998J0D01*
G01*
X165677002Y-92800500D01*
G75*
G02*
X165927000Y-93050498I0J-249998D01*
G01*
X165927000Y-93575502D01*
G75*
G02*
X165677002Y-93825500I-249998J0D01*
G01*
G37*
G04 #@! TD.AperFunction*
G04 #@! TA.AperFunction,SMDPad,CuDef*
G36*
G01*
X167836002Y-89921500D02*
X166935998Y-89921500D01*
G75*
G02*
X166686000Y-89671502I0J249998D01*
G01*
X166686000Y-89146498D01*
G75*
G02*
X166935998Y-88896500I249998J0D01*
G01*
X167836002Y-88896500D01*
G75*
G02*
X168086000Y-89146498I0J-249998D01*
G01*
X168086000Y-89671502D01*
G75*
G02*
X167836002Y-89921500I-249998J0D01*
G01*
G37*
G04 #@! TD.AperFunction*
G04 #@! TA.AperFunction,SMDPad,CuDef*
G36*
G01*
X167836002Y-91746500D02*
X166935998Y-91746500D01*
G75*
G02*
X166686000Y-91496502I0J249998D01*
G01*
X166686000Y-90971498D01*
G75*
G02*
X166935998Y-90721500I249998J0D01*
G01*
X167836002Y-90721500D01*
G75*
G02*
X168086000Y-90971498I0J-249998D01*
G01*
X168086000Y-91496502D01*
G75*
G02*
X167836002Y-91746500I-249998J0D01*
G01*
G37*
G04 #@! TD.AperFunction*
G04 #@! TA.AperFunction,SMDPad,CuDef*
G36*
G01*
X164153002Y-72442500D02*
X163252998Y-72442500D01*
G75*
G02*
X163003000Y-72192502I0J249998D01*
G01*
X163003000Y-71667498D01*
G75*
G02*
X163252998Y-71417500I249998J0D01*
G01*
X164153002Y-71417500D01*
G75*
G02*
X164403000Y-71667498I0J-249998D01*
G01*
X164403000Y-72192502D01*
G75*
G02*
X164153002Y-72442500I-249998J0D01*
G01*
G37*
G04 #@! TD.AperFunction*
G04 #@! TA.AperFunction,SMDPad,CuDef*
G36*
G01*
X164153002Y-74267500D02*
X163252998Y-74267500D01*
G75*
G02*
X163003000Y-74017502I0J249998D01*
G01*
X163003000Y-73492498D01*
G75*
G02*
X163252998Y-73242500I249998J0D01*
G01*
X164153002Y-73242500D01*
G75*
G02*
X164403000Y-73492498I0J-249998D01*
G01*
X164403000Y-74017502D01*
G75*
G02*
X164153002Y-74267500I-249998J0D01*
G01*
G37*
G04 #@! TD.AperFunction*
G04 #@! TA.AperFunction,SMDPad,CuDef*
G36*
G01*
X162375002Y-72442500D02*
X161474998Y-72442500D01*
G75*
G02*
X161225000Y-72192502I0J249998D01*
G01*
X161225000Y-71667498D01*
G75*
G02*
X161474998Y-71417500I249998J0D01*
G01*
X162375002Y-71417500D01*
G75*
G02*
X162625000Y-71667498I0J-249998D01*
G01*
X162625000Y-72192502D01*
G75*
G02*
X162375002Y-72442500I-249998J0D01*
G01*
G37*
G04 #@! TD.AperFunction*
G04 #@! TA.AperFunction,SMDPad,CuDef*
G36*
G01*
X162375002Y-74267500D02*
X161474998Y-74267500D01*
G75*
G02*
X161225000Y-74017502I0J249998D01*
G01*
X161225000Y-73492498D01*
G75*
G02*
X161474998Y-73242500I249998J0D01*
G01*
X162375002Y-73242500D01*
G75*
G02*
X162625000Y-73492498I0J-249998D01*
G01*
X162625000Y-74017502D01*
G75*
G02*
X162375002Y-74267500I-249998J0D01*
G01*
G37*
G04 #@! TD.AperFunction*
G04 #@! TA.AperFunction,SMDPad,CuDef*
G36*
G01*
X170476500Y-90033002D02*
X170476500Y-89132998D01*
G75*
G02*
X170726498Y-88883000I249998J0D01*
G01*
X171251502Y-88883000D01*
G75*
G02*
X171501500Y-89132998I0J-249998D01*
G01*
X171501500Y-90033002D01*
G75*
G02*
X171251502Y-90283000I-249998J0D01*
G01*
X170726498Y-90283000D01*
G75*
G02*
X170476500Y-90033002I0J249998D01*
G01*
G37*
G04 #@! TD.AperFunction*
G04 #@! TA.AperFunction,SMDPad,CuDef*
G36*
G01*
X168651500Y-90033002D02*
X168651500Y-89132998D01*
G75*
G02*
X168901498Y-88883000I249998J0D01*
G01*
X169426502Y-88883000D01*
G75*
G02*
X169676500Y-89132998I0J-249998D01*
G01*
X169676500Y-90033002D01*
G75*
G02*
X169426502Y-90283000I-249998J0D01*
G01*
X168901498Y-90283000D01*
G75*
G02*
X168651500Y-90033002I0J249998D01*
G01*
G37*
G04 #@! TD.AperFunction*
G04 #@! TA.AperFunction,SMDPad,CuDef*
G36*
G01*
X131768002Y-72141500D02*
X130867998Y-72141500D01*
G75*
G02*
X130618000Y-71891502I0J249998D01*
G01*
X130618000Y-71366498D01*
G75*
G02*
X130867998Y-71116500I249998J0D01*
G01*
X131768002Y-71116500D01*
G75*
G02*
X132018000Y-71366498I0J-249998D01*
G01*
X132018000Y-71891502D01*
G75*
G02*
X131768002Y-72141500I-249998J0D01*
G01*
G37*
G04 #@! TD.AperFunction*
G04 #@! TA.AperFunction,SMDPad,CuDef*
G36*
G01*
X131768002Y-73966500D02*
X130867998Y-73966500D01*
G75*
G02*
X130618000Y-73716502I0J249998D01*
G01*
X130618000Y-73191498D01*
G75*
G02*
X130867998Y-72941500I249998J0D01*
G01*
X131768002Y-72941500D01*
G75*
G02*
X132018000Y-73191498I0J-249998D01*
G01*
X132018000Y-73716502D01*
G75*
G02*
X131768002Y-73966500I-249998J0D01*
G01*
G37*
G04 #@! TD.AperFunction*
G04 #@! TA.AperFunction,SMDPad,CuDef*
G36*
G01*
X129990002Y-72188500D02*
X129089998Y-72188500D01*
G75*
G02*
X128840000Y-71938502I0J249998D01*
G01*
X128840000Y-71413498D01*
G75*
G02*
X129089998Y-71163500I249998J0D01*
G01*
X129990002Y-71163500D01*
G75*
G02*
X130240000Y-71413498I0J-249998D01*
G01*
X130240000Y-71938502D01*
G75*
G02*
X129990002Y-72188500I-249998J0D01*
G01*
G37*
G04 #@! TD.AperFunction*
G04 #@! TA.AperFunction,SMDPad,CuDef*
G36*
G01*
X129990002Y-74013500D02*
X129089998Y-74013500D01*
G75*
G02*
X128840000Y-73763502I0J249998D01*
G01*
X128840000Y-73238498D01*
G75*
G02*
X129089998Y-72988500I249998J0D01*
G01*
X129990002Y-72988500D01*
G75*
G02*
X130240000Y-73238498I0J-249998D01*
G01*
X130240000Y-73763502D01*
G75*
G02*
X129990002Y-74013500I-249998J0D01*
G01*
G37*
G04 #@! TD.AperFunction*
D21*
X181102000Y-93782000D03*
X181102000Y-94782000D03*
X185039000Y-93655000D03*
X185039000Y-94655000D03*
G04 #@! TA.AperFunction,SMDPad,CuDef*
G36*
G01*
X186560000Y-85044000D02*
X186560000Y-85994000D01*
G75*
G02*
X186310000Y-86244000I-250000J0D01*
G01*
X185810000Y-86244000D01*
G75*
G02*
X185560000Y-85994000I0J250000D01*
G01*
X185560000Y-85044000D01*
G75*
G02*
X185810000Y-84794000I250000J0D01*
G01*
X186310000Y-84794000D01*
G75*
G02*
X186560000Y-85044000I0J-250000D01*
G01*
G37*
G04 #@! TD.AperFunction*
G04 #@! TA.AperFunction,SMDPad,CuDef*
G36*
G01*
X188460000Y-85044000D02*
X188460000Y-85994000D01*
G75*
G02*
X188210000Y-86244000I-250000J0D01*
G01*
X187710000Y-86244000D01*
G75*
G02*
X187460000Y-85994000I0J250000D01*
G01*
X187460000Y-85044000D01*
G75*
G02*
X187710000Y-84794000I250000J0D01*
G01*
X188210000Y-84794000D01*
G75*
G02*
X188460000Y-85044000I0J-250000D01*
G01*
G37*
G04 #@! TD.AperFunction*
G04 #@! TA.AperFunction,SMDPad,CuDef*
G36*
G01*
X176170501Y-79960000D02*
X174870499Y-79960000D01*
G75*
G02*
X174620500Y-79710001I0J249999D01*
G01*
X174620500Y-79059999D01*
G75*
G02*
X174870499Y-78810000I249999J0D01*
G01*
X176170501Y-78810000D01*
G75*
G02*
X176420500Y-79059999I0J-249999D01*
G01*
X176420500Y-79710001D01*
G75*
G02*
X176170501Y-79960000I-249999J0D01*
G01*
G37*
G04 #@! TD.AperFunction*
G04 #@! TA.AperFunction,SMDPad,CuDef*
G36*
G01*
X176170501Y-82910000D02*
X174870499Y-82910000D01*
G75*
G02*
X174620500Y-82660001I0J249999D01*
G01*
X174620500Y-82009999D01*
G75*
G02*
X174870499Y-81760000I249999J0D01*
G01*
X176170501Y-81760000D01*
G75*
G02*
X176420500Y-82009999I0J-249999D01*
G01*
X176420500Y-82660001D01*
G75*
G02*
X176170501Y-82910000I-249999J0D01*
G01*
G37*
G04 #@! TD.AperFunction*
G04 #@! TA.AperFunction,SMDPad,CuDef*
G36*
G01*
X178745000Y-71630000D02*
X179695000Y-71630000D01*
G75*
G02*
X179945000Y-71880000I0J-250000D01*
G01*
X179945000Y-72380000D01*
G75*
G02*
X179695000Y-72630000I-250000J0D01*
G01*
X178745000Y-72630000D01*
G75*
G02*
X178495000Y-72380000I0J250000D01*
G01*
X178495000Y-71880000D01*
G75*
G02*
X178745000Y-71630000I250000J0D01*
G01*
G37*
G04 #@! TD.AperFunction*
G04 #@! TA.AperFunction,SMDPad,CuDef*
G36*
G01*
X178745000Y-69730000D02*
X179695000Y-69730000D01*
G75*
G02*
X179945000Y-69980000I0J-250000D01*
G01*
X179945000Y-70480000D01*
G75*
G02*
X179695000Y-70730000I-250000J0D01*
G01*
X178745000Y-70730000D01*
G75*
G02*
X178495000Y-70480000I0J250000D01*
G01*
X178495000Y-69980000D01*
G75*
G02*
X178745000Y-69730000I250000J0D01*
G01*
G37*
G04 #@! TD.AperFunction*
G04 #@! TA.AperFunction,SMDPad,CuDef*
G36*
G01*
X169165000Y-71480000D02*
X170115000Y-71480000D01*
G75*
G02*
X170365000Y-71730000I0J-250000D01*
G01*
X170365000Y-72230000D01*
G75*
G02*
X170115000Y-72480000I-250000J0D01*
G01*
X169165000Y-72480000D01*
G75*
G02*
X168915000Y-72230000I0J250000D01*
G01*
X168915000Y-71730000D01*
G75*
G02*
X169165000Y-71480000I250000J0D01*
G01*
G37*
G04 #@! TD.AperFunction*
G04 #@! TA.AperFunction,SMDPad,CuDef*
G36*
G01*
X169165000Y-69580000D02*
X170115000Y-69580000D01*
G75*
G02*
X170365000Y-69830000I0J-250000D01*
G01*
X170365000Y-70330000D01*
G75*
G02*
X170115000Y-70580000I-250000J0D01*
G01*
X169165000Y-70580000D01*
G75*
G02*
X168915000Y-70330000I0J250000D01*
G01*
X168915000Y-69830000D01*
G75*
G02*
X169165000Y-69580000I250000J0D01*
G01*
G37*
G04 #@! TD.AperFunction*
G04 #@! TA.AperFunction,SMDPad,CuDef*
G36*
G01*
X179551500Y-88267000D02*
X178601500Y-88267000D01*
G75*
G02*
X178351500Y-88017000I0J250000D01*
G01*
X178351500Y-87517000D01*
G75*
G02*
X178601500Y-87267000I250000J0D01*
G01*
X179551500Y-87267000D01*
G75*
G02*
X179801500Y-87517000I0J-250000D01*
G01*
X179801500Y-88017000D01*
G75*
G02*
X179551500Y-88267000I-250000J0D01*
G01*
G37*
G04 #@! TD.AperFunction*
G04 #@! TA.AperFunction,SMDPad,CuDef*
G36*
G01*
X179551500Y-90167000D02*
X178601500Y-90167000D01*
G75*
G02*
X178351500Y-89917000I0J250000D01*
G01*
X178351500Y-89417000D01*
G75*
G02*
X178601500Y-89167000I250000J0D01*
G01*
X179551500Y-89167000D01*
G75*
G02*
X179801500Y-89417000I0J-250000D01*
G01*
X179801500Y-89917000D01*
G75*
G02*
X179551500Y-90167000I-250000J0D01*
G01*
G37*
G04 #@! TD.AperFunction*
G04 #@! TA.AperFunction,SMDPad,CuDef*
G36*
G01*
X177519500Y-88267000D02*
X176569500Y-88267000D01*
G75*
G02*
X176319500Y-88017000I0J250000D01*
G01*
X176319500Y-87517000D01*
G75*
G02*
X176569500Y-87267000I250000J0D01*
G01*
X177519500Y-87267000D01*
G75*
G02*
X177769500Y-87517000I0J-250000D01*
G01*
X177769500Y-88017000D01*
G75*
G02*
X177519500Y-88267000I-250000J0D01*
G01*
G37*
G04 #@! TD.AperFunction*
G04 #@! TA.AperFunction,SMDPad,CuDef*
G36*
G01*
X177519500Y-90167000D02*
X176569500Y-90167000D01*
G75*
G02*
X176319500Y-89917000I0J250000D01*
G01*
X176319500Y-89417000D01*
G75*
G02*
X176569500Y-89167000I250000J0D01*
G01*
X177519500Y-89167000D01*
G75*
G02*
X177769500Y-89417000I0J-250000D01*
G01*
X177769500Y-89917000D01*
G75*
G02*
X177519500Y-90167000I-250000J0D01*
G01*
G37*
G04 #@! TD.AperFunction*
G04 #@! TA.AperFunction,SMDPad,CuDef*
G36*
G01*
X175741500Y-88267000D02*
X174791500Y-88267000D01*
G75*
G02*
X174541500Y-88017000I0J250000D01*
G01*
X174541500Y-87517000D01*
G75*
G02*
X174791500Y-87267000I250000J0D01*
G01*
X175741500Y-87267000D01*
G75*
G02*
X175991500Y-87517000I0J-250000D01*
G01*
X175991500Y-88017000D01*
G75*
G02*
X175741500Y-88267000I-250000J0D01*
G01*
G37*
G04 #@! TD.AperFunction*
G04 #@! TA.AperFunction,SMDPad,CuDef*
G36*
G01*
X175741500Y-90167000D02*
X174791500Y-90167000D01*
G75*
G02*
X174541500Y-89917000I0J250000D01*
G01*
X174541500Y-89417000D01*
G75*
G02*
X174791500Y-89167000I250000J0D01*
G01*
X175741500Y-89167000D01*
G75*
G02*
X175991500Y-89417000I0J-250000D01*
G01*
X175991500Y-89917000D01*
G75*
G02*
X175741500Y-90167000I-250000J0D01*
G01*
G37*
G04 #@! TD.AperFunction*
G04 #@! TA.AperFunction,SMDPad,CuDef*
G36*
G01*
X160942000Y-90400000D02*
X161892000Y-90400000D01*
G75*
G02*
X162142000Y-90650000I0J-250000D01*
G01*
X162142000Y-91150000D01*
G75*
G02*
X161892000Y-91400000I-250000J0D01*
G01*
X160942000Y-91400000D01*
G75*
G02*
X160692000Y-91150000I0J250000D01*
G01*
X160692000Y-90650000D01*
G75*
G02*
X160942000Y-90400000I250000J0D01*
G01*
G37*
G04 #@! TD.AperFunction*
G04 #@! TA.AperFunction,SMDPad,CuDef*
G36*
G01*
X160942000Y-88500000D02*
X161892000Y-88500000D01*
G75*
G02*
X162142000Y-88750000I0J-250000D01*
G01*
X162142000Y-89250000D01*
G75*
G02*
X161892000Y-89500000I-250000J0D01*
G01*
X160942000Y-89500000D01*
G75*
G02*
X160692000Y-89250000I0J250000D01*
G01*
X160692000Y-88750000D01*
G75*
G02*
X160942000Y-88500000I250000J0D01*
G01*
G37*
G04 #@! TD.AperFunction*
G04 #@! TA.AperFunction,SMDPad,CuDef*
G36*
G01*
X162853500Y-91961000D02*
X163803500Y-91961000D01*
G75*
G02*
X164053500Y-92211000I0J-250000D01*
G01*
X164053500Y-92711000D01*
G75*
G02*
X163803500Y-92961000I-250000J0D01*
G01*
X162853500Y-92961000D01*
G75*
G02*
X162603500Y-92711000I0J250000D01*
G01*
X162603500Y-92211000D01*
G75*
G02*
X162853500Y-91961000I250000J0D01*
G01*
G37*
G04 #@! TD.AperFunction*
G04 #@! TA.AperFunction,SMDPad,CuDef*
G36*
G01*
X162853500Y-90061000D02*
X163803500Y-90061000D01*
G75*
G02*
X164053500Y-90311000I0J-250000D01*
G01*
X164053500Y-90811000D01*
G75*
G02*
X163803500Y-91061000I-250000J0D01*
G01*
X162853500Y-91061000D01*
G75*
G02*
X162603500Y-90811000I0J250000D01*
G01*
X162603500Y-90311000D01*
G75*
G02*
X162853500Y-90061000I250000J0D01*
G01*
G37*
G04 #@! TD.AperFunction*
G04 #@! TA.AperFunction,SMDPad,CuDef*
G36*
G01*
X185712000Y-87027999D02*
X185712000Y-88328001D01*
G75*
G02*
X185462001Y-88578000I-249999J0D01*
G01*
X184811999Y-88578000D01*
G75*
G02*
X184562000Y-88328001I0J249999D01*
G01*
X184562000Y-87027999D01*
G75*
G02*
X184811999Y-86778000I249999J0D01*
G01*
X185462001Y-86778000D01*
G75*
G02*
X185712000Y-87027999I0J-249999D01*
G01*
G37*
G04 #@! TD.AperFunction*
G04 #@! TA.AperFunction,SMDPad,CuDef*
G36*
G01*
X188662000Y-87027999D02*
X188662000Y-88328001D01*
G75*
G02*
X188412001Y-88578000I-249999J0D01*
G01*
X187761999Y-88578000D01*
G75*
G02*
X187512000Y-88328001I0J249999D01*
G01*
X187512000Y-87027999D01*
G75*
G02*
X187761999Y-86778000I249999J0D01*
G01*
X188412001Y-86778000D01*
G75*
G02*
X188662000Y-87027999I0J-249999D01*
G01*
G37*
G04 #@! TD.AperFunction*
G04 #@! TA.AperFunction,SMDPad,CuDef*
G36*
G01*
X127858500Y-87493000D02*
X128808500Y-87493000D01*
G75*
G02*
X129058500Y-87743000I0J-250000D01*
G01*
X129058500Y-88243000D01*
G75*
G02*
X128808500Y-88493000I-250000J0D01*
G01*
X127858500Y-88493000D01*
G75*
G02*
X127608500Y-88243000I0J250000D01*
G01*
X127608500Y-87743000D01*
G75*
G02*
X127858500Y-87493000I250000J0D01*
G01*
G37*
G04 #@! TD.AperFunction*
G04 #@! TA.AperFunction,SMDPad,CuDef*
G36*
G01*
X127858500Y-85593000D02*
X128808500Y-85593000D01*
G75*
G02*
X129058500Y-85843000I0J-250000D01*
G01*
X129058500Y-86343000D01*
G75*
G02*
X128808500Y-86593000I-250000J0D01*
G01*
X127858500Y-86593000D01*
G75*
G02*
X127608500Y-86343000I0J250000D01*
G01*
X127608500Y-85843000D01*
G75*
G02*
X127858500Y-85593000I250000J0D01*
G01*
G37*
G04 #@! TD.AperFunction*
G04 #@! TA.AperFunction,SMDPad,CuDef*
G36*
G01*
X109725000Y-76560000D02*
X110675000Y-76560000D01*
G75*
G02*
X110925000Y-76810000I0J-250000D01*
G01*
X110925000Y-77310000D01*
G75*
G02*
X110675000Y-77560000I-250000J0D01*
G01*
X109725000Y-77560000D01*
G75*
G02*
X109475000Y-77310000I0J250000D01*
G01*
X109475000Y-76810000D01*
G75*
G02*
X109725000Y-76560000I250000J0D01*
G01*
G37*
G04 #@! TD.AperFunction*
G04 #@! TA.AperFunction,SMDPad,CuDef*
G36*
G01*
X109725000Y-74660000D02*
X110675000Y-74660000D01*
G75*
G02*
X110925000Y-74910000I0J-250000D01*
G01*
X110925000Y-75410000D01*
G75*
G02*
X110675000Y-75660000I-250000J0D01*
G01*
X109725000Y-75660000D01*
G75*
G02*
X109475000Y-75410000I0J250000D01*
G01*
X109475000Y-74910000D01*
G75*
G02*
X109725000Y-74660000I250000J0D01*
G01*
G37*
G04 #@! TD.AperFunction*
G04 #@! TA.AperFunction,SMDPad,CuDef*
G36*
G01*
X126055500Y-74437000D02*
X126055500Y-73487000D01*
G75*
G02*
X126305500Y-73237000I250000J0D01*
G01*
X126805500Y-73237000D01*
G75*
G02*
X127055500Y-73487000I0J-250000D01*
G01*
X127055500Y-74437000D01*
G75*
G02*
X126805500Y-74687000I-250000J0D01*
G01*
X126305500Y-74687000D01*
G75*
G02*
X126055500Y-74437000I0J250000D01*
G01*
G37*
G04 #@! TD.AperFunction*
G04 #@! TA.AperFunction,SMDPad,CuDef*
G36*
G01*
X124155500Y-74437000D02*
X124155500Y-73487000D01*
G75*
G02*
X124405500Y-73237000I250000J0D01*
G01*
X124905500Y-73237000D01*
G75*
G02*
X125155500Y-73487000I0J-250000D01*
G01*
X125155500Y-74437000D01*
G75*
G02*
X124905500Y-74687000I-250000J0D01*
G01*
X124405500Y-74687000D01*
G75*
G02*
X124155500Y-74437000I0J250000D01*
G01*
G37*
G04 #@! TD.AperFunction*
G04 #@! TA.AperFunction,SMDPad,CuDef*
G36*
G01*
X126488500Y-72580001D02*
X126488500Y-71279999D01*
G75*
G02*
X126738499Y-71030000I249999J0D01*
G01*
X127388501Y-71030000D01*
G75*
G02*
X127638500Y-71279999I0J-249999D01*
G01*
X127638500Y-72580001D01*
G75*
G02*
X127388501Y-72830000I-249999J0D01*
G01*
X126738499Y-72830000D01*
G75*
G02*
X126488500Y-72580001I0J249999D01*
G01*
G37*
G04 #@! TD.AperFunction*
G04 #@! TA.AperFunction,SMDPad,CuDef*
G36*
G01*
X123538500Y-72580001D02*
X123538500Y-71279999D01*
G75*
G02*
X123788499Y-71030000I249999J0D01*
G01*
X124438501Y-71030000D01*
G75*
G02*
X124688500Y-71279999I0J-249999D01*
G01*
X124688500Y-72580001D01*
G75*
G02*
X124438501Y-72830000I-249999J0D01*
G01*
X123788499Y-72830000D01*
G75*
G02*
X123538500Y-72580001I0J249999D01*
G01*
G37*
G04 #@! TD.AperFunction*
G04 #@! TA.AperFunction,SMDPad,CuDef*
G36*
G01*
X120871000Y-90022000D02*
X119921000Y-90022000D01*
G75*
G02*
X119671000Y-89772000I0J250000D01*
G01*
X119671000Y-89272000D01*
G75*
G02*
X119921000Y-89022000I250000J0D01*
G01*
X120871000Y-89022000D01*
G75*
G02*
X121121000Y-89272000I0J-250000D01*
G01*
X121121000Y-89772000D01*
G75*
G02*
X120871000Y-90022000I-250000J0D01*
G01*
G37*
G04 #@! TD.AperFunction*
G04 #@! TA.AperFunction,SMDPad,CuDef*
G36*
G01*
X120871000Y-91922000D02*
X119921000Y-91922000D01*
G75*
G02*
X119671000Y-91672000I0J250000D01*
G01*
X119671000Y-91172000D01*
G75*
G02*
X119921000Y-90922000I250000J0D01*
G01*
X120871000Y-90922000D01*
G75*
G02*
X121121000Y-91172000I0J-250000D01*
G01*
X121121000Y-91672000D01*
G75*
G02*
X120871000Y-91922000I-250000J0D01*
G01*
G37*
G04 #@! TD.AperFunction*
G04 #@! TA.AperFunction,SMDPad,CuDef*
G36*
G01*
X118839000Y-90022000D02*
X117889000Y-90022000D01*
G75*
G02*
X117639000Y-89772000I0J250000D01*
G01*
X117639000Y-89272000D01*
G75*
G02*
X117889000Y-89022000I250000J0D01*
G01*
X118839000Y-89022000D01*
G75*
G02*
X119089000Y-89272000I0J-250000D01*
G01*
X119089000Y-89772000D01*
G75*
G02*
X118839000Y-90022000I-250000J0D01*
G01*
G37*
G04 #@! TD.AperFunction*
G04 #@! TA.AperFunction,SMDPad,CuDef*
G36*
G01*
X118839000Y-91922000D02*
X117889000Y-91922000D01*
G75*
G02*
X117639000Y-91672000I0J250000D01*
G01*
X117639000Y-91172000D01*
G75*
G02*
X117889000Y-90922000I250000J0D01*
G01*
X118839000Y-90922000D01*
G75*
G02*
X119089000Y-91172000I0J-250000D01*
G01*
X119089000Y-91672000D01*
G75*
G02*
X118839000Y-91922000I-250000J0D01*
G01*
G37*
G04 #@! TD.AperFunction*
G04 #@! TA.AperFunction,SMDPad,CuDef*
G36*
G01*
X116728001Y-89015000D02*
X115427999Y-89015000D01*
G75*
G02*
X115178000Y-88765001I0J249999D01*
G01*
X115178000Y-88114999D01*
G75*
G02*
X115427999Y-87865000I249999J0D01*
G01*
X116728001Y-87865000D01*
G75*
G02*
X116978000Y-88114999I0J-249999D01*
G01*
X116978000Y-88765001D01*
G75*
G02*
X116728001Y-89015000I-249999J0D01*
G01*
G37*
G04 #@! TD.AperFunction*
G04 #@! TA.AperFunction,SMDPad,CuDef*
G36*
G01*
X116728001Y-91965000D02*
X115427999Y-91965000D01*
G75*
G02*
X115178000Y-91715001I0J249999D01*
G01*
X115178000Y-91064999D01*
G75*
G02*
X115427999Y-90815000I249999J0D01*
G01*
X116728001Y-90815000D01*
G75*
G02*
X116978000Y-91064999I0J-249999D01*
G01*
X116978000Y-91715001D01*
G75*
G02*
X116728001Y-91965000I-249999J0D01*
G01*
G37*
G04 #@! TD.AperFunction*
D22*
X181902000Y-102976000D03*
X181902000Y-98936000D03*
X183172000Y-102976000D03*
X183172000Y-98936000D03*
X184442000Y-102976000D03*
X184442000Y-98936000D03*
X185712000Y-102976000D03*
X185712000Y-98936000D03*
X186982000Y-102976000D03*
X186982000Y-98936000D03*
D23*
X125300000Y-95890000D03*
X122760000Y-95890000D03*
D24*
X117680000Y-100970000D03*
X127840000Y-100970000D03*
D25*
X173234500Y-82433000D03*
X173234500Y-79163000D03*
D23*
X171380000Y-95830000D03*
X168840000Y-95830000D03*
D24*
X163760000Y-100910000D03*
X173920000Y-100910000D03*
D26*
X169850000Y-104800000D03*
X111850000Y-104800000D03*
X169850000Y-55800000D03*
X111850000Y-55800000D03*
D27*
X111950500Y-65897500D03*
X183705500Y-65453000D03*
X146878000Y-82362004D03*
X142189200Y-80314800D03*
X166433500Y-61706500D03*
X128333500Y-63357500D03*
X112014000Y-63294000D03*
X183705500Y-63230500D03*
X148530000Y-80107000D03*
X174625000Y-66088000D03*
X173736000Y-64564000D03*
X135128000Y-63167000D03*
X159893000Y-65326000D03*
X142621000Y-61135000D03*
X146177000Y-77660500D03*
X150241000Y-78295500D03*
X143103600Y-78740000D03*
X148778000Y-82283000D03*
X181102000Y-91361000D03*
X189103000Y-78788000D03*
X182372000Y-94917000D03*
X192659000Y-80058000D03*
X187579000Y-76248000D03*
X180721000Y-97457000D03*
X192151000Y-76121000D03*
X185674000Y-93647000D03*
X181864000Y-93774000D03*
X187644010Y-77518000D03*
X170688000Y-64437000D03*
X170815000Y-62405000D03*
X121793000Y-59484000D03*
X161798000Y-66850000D03*
X163322000Y-65961000D03*
X149480000Y-66978000D03*
X149479000Y-65199000D03*
X165289000Y-64629000D03*
X132905500Y-64691000D03*
X176276000Y-60881000D03*
X177581000Y-65418000D03*
X140462000Y-61389000D03*
X128197460Y-60378951D03*
D28*
X187452000Y-59611000D03*
D27*
X124587000Y-77073500D03*
X122174000Y-87233500D03*
X121539000Y-89519500D03*
X117282000Y-88440000D03*
X119316500Y-89583000D03*
X126555500Y-72882500D03*
X126555500Y-74851000D03*
X128270000Y-71104500D03*
X133794500Y-73073000D03*
X121539000Y-84757000D03*
X127508000Y-84820500D03*
X129217500Y-87990500D03*
X110426500Y-71803000D03*
X111202000Y-77060000D03*
X115987000Y-76085000D03*
X117003000Y-76085000D03*
X117955500Y-76085000D03*
X115987000Y-77355000D03*
X116876000Y-77355000D03*
X118019000Y-77355000D03*
X120749500Y-77355000D03*
X113401000Y-77020000D03*
X124206002Y-87424000D03*
X125793500Y-87297000D03*
X123253500Y-87297000D03*
X121602500Y-91551500D03*
X124714000Y-72755500D03*
X124650500Y-74787500D03*
X130429000Y-73454000D03*
X132905500Y-70533000D03*
X111197000Y-75160000D03*
X113383500Y-74815000D03*
X126841162Y-87236777D03*
X125222000Y-79359500D03*
X123634500Y-74978000D03*
X160528000Y-70914000D03*
X174314000Y-84401500D03*
X165100000Y-72057000D03*
X180970000Y-72130000D03*
X170434000Y-72438000D03*
X173304500Y-71155000D03*
X174384000Y-71155000D03*
X175463500Y-71155000D03*
X173114000Y-72425000D03*
X174320500Y-72425000D03*
X175336500Y-72425000D03*
X178235000Y-72130000D03*
X180949500Y-102988000D03*
X179541995Y-83110505D03*
X177371828Y-77366058D03*
X178440245Y-87450755D03*
X164338000Y-78724500D03*
X178377998Y-76048989D03*
X186179513Y-86690523D03*
X192174978Y-85138000D03*
X192151000Y-89075000D03*
X169354500Y-84185500D03*
X164592000Y-70914000D03*
X170497500Y-69898000D03*
X178598995Y-84307505D03*
X164185500Y-84147500D03*
X162814000Y-73708000D03*
X191135000Y-105077000D03*
X182499000Y-92250000D03*
X187960000Y-86408000D03*
X189743000Y-88841164D03*
X166884500Y-81544000D03*
X163498536Y-85433000D03*
X165989000Y-92504000D03*
X175266500Y-78369000D03*
D29*
X111913000Y-65860000D02*
X111950500Y-65897500D01*
X110430000Y-65860000D02*
X111913000Y-65860000D01*
X183298500Y-65860000D02*
X183705500Y-65453000D01*
X182160000Y-65860000D02*
X183298500Y-65860000D01*
D30*
X146560000Y-87200000D02*
X146560000Y-86645000D01*
D31*
X146900000Y-82340004D02*
X146878000Y-82362004D01*
X146939000Y-83246000D02*
X146878000Y-83185000D01*
X146939000Y-84321000D02*
X146939000Y-83246000D01*
X146560000Y-84700000D02*
X146939000Y-84321000D01*
X146560000Y-87200000D02*
X146560000Y-84700000D01*
D32*
X142181500Y-81318100D02*
X142168800Y-81330800D01*
X142181500Y-80322500D02*
X142189200Y-80314800D01*
X142181500Y-79565500D02*
X142181500Y-80322500D01*
X142189200Y-80314800D02*
X142181500Y-81318100D01*
D29*
X146878000Y-82264000D02*
X145944800Y-81330800D01*
X146878000Y-82362004D02*
X146878000Y-82264000D01*
D32*
X166370000Y-61770000D02*
X166433500Y-61706500D01*
X166370000Y-62595500D02*
X166370000Y-61770000D01*
X128397000Y-63421000D02*
X128333500Y-63357500D01*
X128397000Y-64629000D02*
X128397000Y-63421000D01*
D29*
X111988000Y-63320000D02*
X112014000Y-63294000D01*
X110430000Y-63320000D02*
X111988000Y-63320000D01*
X183616000Y-63320000D02*
X183705500Y-63230500D01*
X182160000Y-63320000D02*
X183616000Y-63320000D01*
D32*
X148530000Y-79307000D02*
X148530000Y-80107000D01*
D33*
X175133000Y-66596000D02*
X174625000Y-66088000D01*
X175707000Y-66596000D02*
X175133000Y-66596000D01*
X173609000Y-64691000D02*
X173736000Y-64564000D01*
X172431000Y-64691000D02*
X173609000Y-64691000D01*
D32*
X133985000Y-62727500D02*
X134688500Y-62727500D01*
X134688500Y-62727500D02*
X135128000Y-63167000D01*
X160655000Y-64629000D02*
X159958000Y-65326000D01*
X159958000Y-65326000D02*
X159893000Y-65326000D01*
X142509000Y-60419000D02*
X142682000Y-60246000D01*
X142509000Y-61023000D02*
X142621000Y-61135000D01*
X142621000Y-61135000D02*
X142509000Y-60419000D01*
X142621000Y-61643000D02*
X144018000Y-63040000D01*
X142621000Y-61135000D02*
X142621000Y-61643000D01*
D34*
X148265001Y-78326999D02*
X146868999Y-78326999D01*
X148530000Y-78591998D02*
X148265001Y-78326999D01*
X148530000Y-79307000D02*
X148530000Y-78591998D01*
D31*
X149100000Y-85473000D02*
X148717000Y-85090000D01*
X149100000Y-87200000D02*
X149100000Y-85473000D01*
X148717000Y-83246000D02*
X148778000Y-83185000D01*
X148717000Y-85090000D02*
X148717000Y-83246000D01*
X150119000Y-85090000D02*
X149225000Y-85090000D01*
X149225000Y-85090000D02*
X148717000Y-85090000D01*
D32*
X151193500Y-78110000D02*
X150998000Y-78110000D01*
X150998000Y-78110000D02*
X150812500Y-78295500D01*
X148826498Y-78295500D02*
X148530000Y-78591998D01*
X146189750Y-77647750D02*
X146177000Y-77660500D01*
D34*
X146868999Y-78326999D02*
X146189750Y-77647750D01*
D32*
X150177500Y-78295500D02*
X150241000Y-78295500D01*
X150241000Y-78295500D02*
X148826498Y-78295500D01*
X150812500Y-78295500D02*
X150177500Y-78295500D01*
X145322500Y-77660500D02*
X145100000Y-77883000D01*
X146177000Y-77660500D02*
X145322500Y-77660500D01*
X143131500Y-80393500D02*
X144068800Y-81330800D01*
X145759500Y-77565500D02*
X145796000Y-77602000D01*
X143131500Y-77565500D02*
X145759500Y-77565500D01*
X143131500Y-78712100D02*
X143103600Y-78740000D01*
X143103600Y-78740000D02*
X143131500Y-80393500D01*
X143131500Y-77565500D02*
X143131500Y-78712100D01*
D29*
X148778000Y-81447600D02*
X148894800Y-81330800D01*
X148778000Y-83185000D02*
X148778000Y-82283000D01*
X148778000Y-82283000D02*
X148778000Y-81447600D01*
D32*
X124785000Y-93865000D02*
X122760000Y-95890000D01*
X124785000Y-91810500D02*
X124785000Y-93865000D01*
X126735000Y-94455000D02*
X125300000Y-95890000D01*
X126735000Y-91810500D02*
X126735000Y-94455000D01*
X164392500Y-87973000D02*
X163328500Y-89037000D01*
X165679500Y-87973000D02*
X164392500Y-87973000D01*
X163328500Y-89037000D02*
X163328500Y-90561000D01*
X169654500Y-82893000D02*
X170629500Y-82893000D01*
X167830500Y-84717000D02*
X169654500Y-82893000D01*
X167830500Y-86725500D02*
X167830500Y-84717000D01*
X166583000Y-87973000D02*
X167830500Y-86725500D01*
X165679500Y-87973000D02*
X166583000Y-87973000D01*
X165360500Y-89498000D02*
X165567500Y-89498000D01*
X165100000Y-89710000D02*
X165100000Y-89583000D01*
X164554000Y-89037000D02*
X163328500Y-89037000D01*
X165100000Y-89583000D02*
X164554000Y-89037000D01*
X164222500Y-92461000D02*
X165360500Y-91323000D01*
X163328500Y-92461000D02*
X164222500Y-92461000D01*
X165360500Y-91323000D02*
X167392500Y-91323000D01*
X167392500Y-91323000D02*
X167900500Y-91323000D01*
X162978000Y-92461000D02*
X161417000Y-90900000D01*
X163328500Y-92461000D02*
X162978000Y-92461000D01*
X163837500Y-86703000D02*
X163328500Y-87212000D01*
X165679500Y-86703000D02*
X163837500Y-86703000D01*
X165679500Y-86703000D02*
X166562496Y-86703000D01*
X163205000Y-87212000D02*
X161417000Y-89000000D01*
X163328500Y-87212000D02*
X163205000Y-87212000D01*
X175266500Y-91323000D02*
X175266500Y-89667000D01*
X175266500Y-89667000D02*
X177044500Y-89667000D01*
X174366490Y-85342990D02*
X175266500Y-86243000D01*
X170719510Y-85342990D02*
X174366490Y-85342990D01*
X170629500Y-85433000D02*
X170719510Y-85342990D01*
X175266500Y-86243000D02*
X175266500Y-87767000D01*
X177171500Y-86243000D02*
X175266500Y-86243000D01*
X173355000Y-86916000D02*
X173482000Y-86916000D01*
X174155000Y-86243000D02*
X175266500Y-86243000D01*
X173482000Y-86916000D02*
X174155000Y-86243000D01*
X177091500Y-91323000D02*
X178568500Y-91323000D01*
X178568500Y-90175000D02*
X179076500Y-89667000D01*
X178568500Y-91323000D02*
X178568500Y-90175000D01*
X172424500Y-81623000D02*
X173234500Y-82433000D01*
X170629500Y-81623000D02*
X172424500Y-81623000D01*
X175422500Y-82433000D02*
X175520500Y-82335000D01*
X173234500Y-82433000D02*
X175422500Y-82433000D01*
X177499000Y-82335000D02*
X177806500Y-82027500D01*
X175520500Y-82335000D02*
X177499000Y-82335000D01*
X177847500Y-82027500D02*
X179474000Y-80401000D01*
X177806500Y-82027500D02*
X177847500Y-82027500D01*
X172974000Y-82693500D02*
X173234500Y-82433000D01*
X172974000Y-84058500D02*
X172974000Y-82693500D01*
X172044500Y-80353000D02*
X173234500Y-79163000D01*
X170629500Y-80353000D02*
X172044500Y-80353000D01*
X190809500Y-78699000D02*
X191681000Y-78699000D01*
X181064000Y-91323000D02*
X181102000Y-91361000D01*
X180393500Y-91323000D02*
X181064000Y-91323000D01*
X190809500Y-78699000D02*
X189192000Y-78699000D01*
X189192000Y-78699000D02*
X189103000Y-78788000D01*
X171470500Y-86703000D02*
X170629500Y-86703000D01*
X168840000Y-94733000D02*
X168840000Y-95830000D01*
X170989000Y-92584000D02*
X168840000Y-94733000D01*
X170989000Y-89583000D02*
X170989000Y-92584000D01*
X171604500Y-86703000D02*
X170629500Y-86703000D01*
X172004510Y-87103010D02*
X171604500Y-86703000D01*
X172004510Y-88567490D02*
X172004510Y-87103010D01*
X170989000Y-89583000D02*
X172004510Y-88567490D01*
X167560000Y-89583000D02*
X167386000Y-89409000D01*
X168990000Y-89409000D02*
X169164000Y-89583000D01*
X167386000Y-89409000D02*
X168990000Y-89409000D01*
X169164000Y-88694000D02*
X169164000Y-89583000D01*
X169885000Y-87973000D02*
X169164000Y-88694000D01*
X170629500Y-87973000D02*
X169885000Y-87973000D01*
X169164000Y-91361000D02*
X169418000Y-91615000D01*
X169164000Y-89583000D02*
X169164000Y-91361000D01*
X191784500Y-82509000D02*
X190809500Y-82509000D01*
X191767990Y-84479010D02*
X191862324Y-84479010D01*
X191862324Y-84479010D02*
X192532000Y-83809334D01*
X190347000Y-85900000D02*
X191767990Y-84479010D01*
X192532000Y-83809334D02*
X192532000Y-83256500D01*
X192532000Y-83256500D02*
X191784500Y-82509000D01*
X184442000Y-98936000D02*
X184442000Y-97241000D01*
X184442000Y-97241000D02*
X184023000Y-96822000D01*
X184023000Y-94964000D02*
X183515000Y-94456000D01*
X184023000Y-96822000D02*
X184023000Y-94964000D01*
X190809500Y-79969000D02*
X191681000Y-79969000D01*
X182833000Y-94456000D02*
X182372000Y-94917000D01*
X183515000Y-94456000D02*
X182833000Y-94456000D01*
X191770000Y-80058000D02*
X191681000Y-79969000D01*
X192659000Y-80058000D02*
X191770000Y-80058000D01*
X185117000Y-94733000D02*
X185039000Y-94655000D01*
X185117000Y-96193500D02*
X185117000Y-94733000D01*
X186354980Y-76159000D02*
X185859500Y-76159000D01*
X181902000Y-100416000D02*
X181902000Y-98936000D01*
X185859500Y-76159000D02*
X187617000Y-76159000D01*
X187617000Y-76210000D02*
X187579000Y-76248000D01*
X187617000Y-76159000D02*
X187617000Y-76210000D01*
X181229000Y-97457000D02*
X180721000Y-97457000D01*
X181902000Y-98130000D02*
X181229000Y-97457000D01*
X181902000Y-98936000D02*
X181902000Y-98130000D01*
X181102000Y-96139000D02*
X181156500Y-96193500D01*
X181102000Y-94782000D02*
X181102000Y-96139000D01*
X186982000Y-102976000D02*
X186982000Y-104480000D01*
X187833000Y-105331000D02*
X188849000Y-105331000D01*
X186982000Y-104480000D02*
X187833000Y-105331000D01*
X163195000Y-71422000D02*
X163703000Y-71930000D01*
X163195000Y-69579000D02*
X163195000Y-71422000D01*
X189374500Y-74724000D02*
X190809500Y-76159000D01*
X166497000Y-74724000D02*
X189374500Y-74724000D01*
X163703000Y-71930000D02*
X166497000Y-74724000D01*
X192113000Y-76159000D02*
X192151000Y-76121000D01*
X190809500Y-76159000D02*
X192113000Y-76159000D01*
X185047000Y-93647000D02*
X185039000Y-93655000D01*
X185674000Y-93647000D02*
X185047000Y-93647000D01*
X161925000Y-69579000D02*
X161925000Y-71930000D01*
X185821500Y-77391000D02*
X185859500Y-77429000D01*
X184658000Y-77391000D02*
X185821500Y-77391000D01*
X161152979Y-75348979D02*
X182615979Y-75348979D01*
X182615979Y-75348979D02*
X184658000Y-77391000D01*
X160401000Y-74597000D02*
X161152979Y-75348979D01*
X160401000Y-73454000D02*
X160401000Y-74597000D01*
X161925000Y-71930000D02*
X160401000Y-73454000D01*
X181110000Y-93774000D02*
X181102000Y-93782000D01*
X181864000Y-93774000D02*
X181110000Y-93774000D01*
X185859500Y-77429000D02*
X187555010Y-77429000D01*
X187555010Y-77429000D02*
X187644010Y-77518000D01*
X161925000Y-65834000D02*
X161751790Y-66007210D01*
X161925000Y-64629000D02*
X161925000Y-65834000D01*
X147066000Y-66723000D02*
X147781790Y-66007210D01*
X130786000Y-66723000D02*
X147066000Y-66723000D01*
X129667000Y-65604000D02*
X130786000Y-66723000D01*
X129667000Y-64629000D02*
X129667000Y-65604000D01*
X171069000Y-62151000D02*
X172431000Y-62151000D01*
X170815000Y-62405000D02*
X171069000Y-62151000D01*
X162249950Y-66007210D02*
X163092740Y-66850000D01*
X161751790Y-66007210D02*
X162249950Y-66007210D01*
X168275000Y-66850000D02*
X170688000Y-64437000D01*
X163092740Y-66850000D02*
X168275000Y-66850000D01*
X161729798Y-66029202D02*
X161751790Y-66007210D01*
X147803782Y-66029202D02*
X161729798Y-66029202D01*
X147781790Y-66007210D02*
X147803782Y-66029202D01*
X128164000Y-62151000D02*
X124460000Y-62151000D01*
X129667000Y-63654000D02*
X128164000Y-62151000D01*
X124460000Y-62151000D02*
X121793000Y-59484000D01*
X129667000Y-64629000D02*
X129667000Y-63654000D01*
X147580000Y-66209000D02*
X147781790Y-66007210D01*
X147580000Y-77107000D02*
X147580000Y-66209000D01*
X163195000Y-65834000D02*
X163322000Y-65961000D01*
X163195000Y-64629000D02*
X163195000Y-65834000D01*
X163322000Y-65961000D02*
X163368210Y-66007210D01*
X158877000Y-66850000D02*
X161798000Y-66850000D01*
X170286000Y-63421000D02*
X172431000Y-63421000D01*
X167699790Y-66007210D02*
X170286000Y-63421000D01*
X163368210Y-66007210D02*
X167699790Y-66007210D01*
X131340210Y-66007210D02*
X146638790Y-66007210D01*
X146638790Y-66007210D02*
X147447000Y-65199000D01*
X130937000Y-65604000D02*
X131340210Y-66007210D01*
X130937000Y-64629000D02*
X130937000Y-65604000D01*
X149480000Y-66978000D02*
X149479000Y-66977000D01*
X147447000Y-65199000D02*
X149479000Y-65199000D01*
X163195000Y-63802000D02*
X163195000Y-64629000D01*
X162560000Y-63167000D02*
X163195000Y-63802000D01*
X160314010Y-63253990D02*
X160401000Y-63167000D01*
X159954990Y-63576176D02*
X160277176Y-63253990D01*
X159954990Y-63613010D02*
X159954990Y-63576176D01*
X160401000Y-63167000D02*
X162560000Y-63167000D01*
X158369000Y-65199000D02*
X159954990Y-63613010D01*
X160277176Y-63253990D02*
X160314010Y-63253990D01*
X149479000Y-65199000D02*
X158369000Y-65199000D01*
X122129001Y-58783999D02*
X120992999Y-58783999D01*
X124861002Y-61516000D02*
X122129001Y-58783999D01*
X128799000Y-61516000D02*
X124861002Y-61516000D01*
X130937000Y-63654000D02*
X128799000Y-61516000D01*
X130937000Y-64629000D02*
X130937000Y-63654000D01*
X120992999Y-58783999D02*
X119277000Y-57068000D01*
X149480000Y-77107000D02*
X149480000Y-66978000D01*
X132208500Y-64627500D02*
X132207000Y-64629000D01*
X165422500Y-64495500D02*
X165289000Y-64629000D01*
X166370000Y-64495500D02*
X165422500Y-64495500D01*
X164465000Y-64629000D02*
X165289000Y-64629000D01*
X132842000Y-64627500D02*
X132905500Y-64691000D01*
X132905500Y-64691000D02*
X132208500Y-64627500D01*
X133985000Y-64627500D02*
X132842000Y-64627500D01*
D33*
X177581000Y-66570000D02*
X177607000Y-66596000D01*
X177581000Y-60881000D02*
X176276000Y-60881000D01*
X177581000Y-64691000D02*
X177581000Y-65418000D01*
X177581000Y-65418000D02*
X177581000Y-66570000D01*
D32*
X140559000Y-60469000D02*
X140782000Y-60246000D01*
X140462000Y-61389000D02*
X140559000Y-60469000D01*
X140559000Y-61486000D02*
X140462000Y-61389000D01*
X140462000Y-61516000D02*
X138938000Y-63040000D01*
X140462000Y-61389000D02*
X140462000Y-61516000D01*
X186262000Y-59611000D02*
X186182000Y-59531000D01*
X188722000Y-59611000D02*
X187452000Y-59611000D01*
X187452000Y-59611000D02*
X186262000Y-59611000D01*
X128197460Y-59745460D02*
X127936000Y-59484000D01*
X128197460Y-60378951D02*
X128197460Y-59745460D01*
X129667000Y-71549000D02*
X129540000Y-71676000D01*
X129667000Y-69579000D02*
X129667000Y-71549000D01*
X128397000Y-74406500D02*
X128397000Y-72819000D01*
X128439990Y-74449490D02*
X128397000Y-74406500D01*
X128397000Y-72819000D02*
X129540000Y-71676000D01*
X128439990Y-75850510D02*
X128439990Y-74449490D01*
X126264500Y-78026000D02*
X128439990Y-75850510D01*
X125539500Y-78026000D02*
X126264500Y-78026000D01*
X125539500Y-74896000D02*
X125655490Y-74780010D01*
X125539500Y-75826000D02*
X125539500Y-74896000D01*
X130937000Y-71248000D02*
X131318000Y-71629000D01*
X130937000Y-69579000D02*
X130937000Y-71248000D01*
X130937000Y-68604000D02*
X130937000Y-69579000D01*
X125603000Y-74832500D02*
X125603000Y-70620166D01*
X125603000Y-70620166D02*
X127693790Y-68529376D01*
X127693790Y-68529376D02*
X127693790Y-68524852D01*
X128017852Y-68200790D02*
X128776148Y-68200790D01*
X130049348Y-68203990D02*
X130536990Y-68203990D01*
X127693790Y-68524852D02*
X128017852Y-68200790D01*
X128776148Y-68200790D02*
X128779348Y-68203990D01*
X130536990Y-68203990D02*
X130937000Y-68604000D01*
X128779348Y-68203990D02*
X129284652Y-68203990D01*
X129284652Y-68203990D02*
X129287852Y-68200790D01*
X129287852Y-68200790D02*
X130046148Y-68200790D01*
X125539500Y-74896000D02*
X125603000Y-74832500D01*
X130046148Y-68200790D02*
X130049348Y-68203990D01*
D29*
X124589500Y-77076000D02*
X124587000Y-77073500D01*
X124589500Y-78026000D02*
X124589500Y-77076000D01*
X126555500Y-72438000D02*
X127063500Y-71930000D01*
D32*
X122185000Y-87222500D02*
X122174000Y-87233500D01*
X122185000Y-86085500D02*
X122185000Y-87222500D01*
X122835000Y-86572500D02*
X122174000Y-87233500D01*
X122835000Y-86085500D02*
X122835000Y-86572500D01*
D31*
X117282000Y-88440000D02*
X118364000Y-89522000D01*
X116078000Y-88440000D02*
X117282000Y-88440000D01*
X121536500Y-89522000D02*
X121539000Y-89519500D01*
X120396000Y-89522000D02*
X121536500Y-89522000D01*
X119255500Y-89522000D02*
X119316500Y-89583000D01*
X119316500Y-89583000D02*
X120396000Y-89522000D01*
X118364000Y-89522000D02*
X119255500Y-89522000D01*
D29*
X126555500Y-73962000D02*
X126555500Y-72882500D01*
X126555500Y-72882500D02*
X126555500Y-72438000D01*
X126555500Y-73962000D02*
X126555500Y-74851000D01*
D32*
X128397000Y-70977500D02*
X128270000Y-71104500D01*
X128397000Y-69579000D02*
X128397000Y-70977500D01*
X133858000Y-73009500D02*
X133794500Y-73073000D01*
X133858000Y-72242500D02*
X133858000Y-73009500D01*
D35*
X121666000Y-84630000D02*
X121539000Y-84757000D01*
X121666000Y-84056000D02*
X121666000Y-84630000D01*
X127381000Y-84693500D02*
X127508000Y-84820500D01*
X127381000Y-84056000D02*
X127381000Y-84693500D01*
X129215000Y-87993000D02*
X129217500Y-87990500D01*
X128333500Y-87993000D02*
X129215000Y-87993000D01*
X130238500Y-87990500D02*
X129217500Y-87990500D01*
D31*
X112180000Y-77060000D02*
X112220000Y-77020000D01*
X110200000Y-77060000D02*
X111202000Y-77060000D01*
X114190000Y-77020000D02*
X114525000Y-77355000D01*
X112220000Y-77020000D02*
X113401000Y-77020000D01*
X119475000Y-77355000D02*
X118019000Y-77355000D01*
X119475000Y-76085000D02*
X117955500Y-76085000D01*
X114525000Y-76685000D02*
X114190000Y-77020000D01*
X114525000Y-76085000D02*
X114525000Y-76685000D01*
X121485000Y-77355000D02*
X121900000Y-76940000D01*
X119475000Y-77355000D02*
X120749500Y-77355000D01*
X110430000Y-71799500D02*
X110426500Y-71803000D01*
X110430000Y-70940000D02*
X110430000Y-71799500D01*
X111202000Y-77060000D02*
X112180000Y-77060000D01*
X115987000Y-76085000D02*
X114525000Y-76085000D01*
X117003000Y-76085000D02*
X115987000Y-76085000D01*
X117955500Y-76085000D02*
X117003000Y-76085000D01*
X115987000Y-77355000D02*
X114525000Y-77355000D01*
X116876000Y-77355000D02*
X115987000Y-77355000D01*
X118019000Y-77355000D02*
X116876000Y-77355000D01*
X120749500Y-77355000D02*
X121485000Y-77355000D01*
X113401000Y-77020000D02*
X114190000Y-77020000D01*
D29*
X124777500Y-76883000D02*
X124587000Y-77073500D01*
X126237502Y-76883000D02*
X124777500Y-76883000D01*
X126555500Y-76565002D02*
X126237502Y-76883000D01*
X126555500Y-74851000D02*
X126555500Y-76565002D01*
D32*
X124135000Y-87352998D02*
X124206002Y-87424000D01*
X124135000Y-86085500D02*
X124135000Y-87352998D01*
X126085000Y-87005500D02*
X125793500Y-87297000D01*
X126085000Y-86085500D02*
X126085000Y-87005500D01*
D29*
X124589500Y-74028000D02*
X124655500Y-73962000D01*
X124655500Y-72472000D02*
X124113500Y-71930000D01*
D32*
X121861500Y-91810500D02*
X121602500Y-91551500D01*
X122185000Y-91810500D02*
X121861500Y-91810500D01*
D31*
X120396000Y-91422000D02*
X118364000Y-91422000D01*
X116110000Y-91422000D02*
X116078000Y-91390000D01*
X118364000Y-91422000D02*
X116110000Y-91422000D01*
X121473000Y-91422000D02*
X121602500Y-91551500D01*
X120396000Y-91422000D02*
X121473000Y-91422000D01*
X124655500Y-72814000D02*
X124714000Y-72755500D01*
D29*
X124714000Y-72755500D02*
X124655500Y-72472000D01*
X124655500Y-73962000D02*
X124655500Y-72814000D01*
D31*
X124589500Y-74726500D02*
X124650500Y-74787500D01*
D29*
X124650500Y-74787500D02*
X124589500Y-74028000D01*
X124589500Y-75826000D02*
X124589500Y-74726500D01*
D31*
X131271000Y-73501000D02*
X131318000Y-73454000D01*
X130382000Y-73501000D02*
X130429000Y-73454000D01*
X129540000Y-73501000D02*
X130382000Y-73501000D01*
X130429000Y-73454000D02*
X131271000Y-73501000D01*
X132207000Y-69834500D02*
X132905500Y-70533000D01*
X132207000Y-69579000D02*
X132207000Y-69834500D01*
D32*
X133096000Y-70342500D02*
X132905500Y-70533000D01*
X133858000Y-70342500D02*
X133096000Y-70342500D01*
D35*
X128326000Y-86085500D02*
X128333500Y-86093000D01*
X126735000Y-86085500D02*
X128326000Y-86085500D01*
X130236000Y-86093000D02*
X130238500Y-86090500D01*
X128333500Y-86093000D02*
X130236000Y-86093000D01*
D31*
X112180000Y-75160000D02*
X112220000Y-75120000D01*
X110200000Y-75160000D02*
X111197000Y-75160000D01*
X112525000Y-74815000D02*
X112220000Y-75120000D01*
X114525000Y-74815000D02*
X113383500Y-74815000D01*
X111197000Y-75160000D02*
X112180000Y-75160000D01*
X113383500Y-74815000D02*
X112525000Y-74815000D01*
D32*
X123253500Y-87116150D02*
X123253500Y-87297000D01*
X123438210Y-86931440D02*
X123253500Y-87116150D01*
X123438210Y-86132290D02*
X123438210Y-86931440D01*
X123485000Y-86085500D02*
X123438210Y-86132290D01*
D35*
X126735000Y-87130615D02*
X126841162Y-87236777D01*
X126735000Y-86085500D02*
X126735000Y-87130615D01*
D32*
X123568500Y-82156000D02*
X123571000Y-82153500D01*
X121666000Y-82156000D02*
X123568500Y-82156000D01*
X123571000Y-80434000D02*
X123512500Y-80375500D01*
X123571000Y-82153500D02*
X123571000Y-80434000D01*
X123512500Y-78153000D02*
X123639500Y-78026000D01*
X123512500Y-80375500D02*
X123512500Y-78153000D01*
X125412500Y-79550000D02*
X125222000Y-79359500D01*
X125412500Y-80375500D02*
X125412500Y-79550000D01*
X123634500Y-75821000D02*
X123639500Y-75826000D01*
X123634500Y-74978000D02*
X123634500Y-75821000D01*
X125412500Y-82090000D02*
X125476000Y-82153500D01*
X125412500Y-80375500D02*
X125412500Y-82090000D01*
X127378500Y-82153500D02*
X127381000Y-82156000D01*
X125476000Y-82153500D02*
X127378500Y-82153500D01*
X160655000Y-70787000D02*
X160528000Y-70914000D01*
X160655000Y-69579000D02*
X160655000Y-70787000D01*
X175266500Y-84418000D02*
X174330500Y-84418000D01*
X174330500Y-84418000D02*
X174314000Y-84401500D01*
X165486000Y-71671000D02*
X165100000Y-72057000D01*
X166116000Y-71671000D02*
X165486000Y-71671000D01*
D31*
X180970000Y-72130000D02*
X179220000Y-72130000D01*
X182160000Y-70940000D02*
X180970000Y-72130000D01*
D29*
X177890000Y-72130000D02*
X176915000Y-71155000D01*
X179220000Y-72130000D02*
X178235000Y-72130000D01*
X177595000Y-72425000D02*
X177890000Y-72130000D01*
X176915000Y-72425000D02*
X177595000Y-72425000D01*
X171965000Y-72425000D02*
X173114000Y-72425000D01*
X176915000Y-71155000D02*
X175463500Y-71155000D01*
X170085000Y-72425000D02*
X169640000Y-71980000D01*
X170421000Y-72425000D02*
X170434000Y-72438000D01*
X170434000Y-72438000D02*
X170085000Y-72425000D01*
X171965000Y-72425000D02*
X170421000Y-72425000D01*
X173304500Y-71155000D02*
X171965000Y-71155000D01*
X174384000Y-71155000D02*
X173304500Y-71155000D01*
X175463500Y-71155000D02*
X174384000Y-71155000D01*
X173114000Y-72425000D02*
X174320500Y-72425000D01*
X174320500Y-72425000D02*
X175336500Y-72425000D01*
X175336500Y-72425000D02*
X176915000Y-72425000D01*
X178235000Y-72130000D02*
X177890000Y-72130000D01*
D31*
X185712000Y-102976000D02*
X184442000Y-102976000D01*
X184442000Y-102976000D02*
X183172000Y-102976000D01*
X183172000Y-102976000D02*
X181902000Y-102976000D01*
X180961500Y-102976000D02*
X180949500Y-102988000D01*
X181902000Y-102976000D02*
X180961500Y-102976000D01*
D32*
X179460000Y-82242500D02*
X179460000Y-83028510D01*
X179460000Y-83028510D02*
X179541995Y-83110505D01*
D29*
X176536500Y-77099000D02*
X177104770Y-77099000D01*
X177104770Y-77099000D02*
X177371828Y-77366058D01*
D32*
X178124000Y-87767000D02*
X178440245Y-87450755D01*
X177044500Y-87767000D02*
X178124000Y-87767000D01*
X179076500Y-87767000D02*
X178756490Y-87767000D01*
X178756490Y-87767000D02*
X178440245Y-87450755D01*
X164147500Y-78915000D02*
X164338000Y-78724500D01*
X163258500Y-78915000D02*
X164147500Y-78915000D01*
X178854489Y-76048989D02*
X178377998Y-76048989D01*
X179333000Y-76527500D02*
X178854489Y-76048989D01*
D36*
X185859500Y-85318500D02*
X186060000Y-85519000D01*
X185859500Y-83779000D02*
X185859500Y-85318500D01*
X186060000Y-86755000D02*
X186115036Y-86755000D01*
X186060000Y-85519000D02*
X186060000Y-86571010D01*
X186060000Y-86571010D02*
X186179513Y-86690523D01*
X186115036Y-86755000D02*
X186179513Y-86690523D01*
X185137000Y-87678000D02*
X186060000Y-86755000D01*
X191897000Y-85900000D02*
X191897000Y-85415978D01*
X191897000Y-85415978D02*
X192174978Y-85138000D01*
X191643000Y-89583000D02*
X192151000Y-89075000D01*
X191643000Y-89964000D02*
X191643000Y-89583000D01*
D32*
X170629500Y-84163000D02*
X169377000Y-84163000D01*
X169377000Y-84163000D02*
X169354500Y-84185500D01*
X164465000Y-70787000D02*
X164592000Y-70914000D01*
X164465000Y-69579000D02*
X164465000Y-70787000D01*
X164657000Y-69771000D02*
X164465000Y-69579000D01*
X166116000Y-69771000D02*
X164657000Y-69771000D01*
D29*
X169835000Y-69885000D02*
X169640000Y-70080000D01*
X171965000Y-69885000D02*
X170484500Y-69885000D01*
X170484500Y-69885000D02*
X170497500Y-69898000D01*
X170497500Y-69898000D02*
X169835000Y-69885000D01*
D32*
X177171500Y-84418000D02*
X178488500Y-84418000D01*
X178488500Y-84418000D02*
X178598995Y-84307505D01*
X164201000Y-84163000D02*
X164185500Y-84147500D01*
X165679500Y-84163000D02*
X164201000Y-84163000D01*
D29*
X164525010Y-84147500D02*
X164185500Y-84147500D01*
X163265000Y-84147500D02*
X164525010Y-84147500D01*
D32*
X162861000Y-73755000D02*
X162814000Y-73708000D01*
X163703000Y-73755000D02*
X162861000Y-73755000D01*
X161925000Y-73755000D02*
X162814000Y-73708000D01*
X190881000Y-105331000D02*
X191135000Y-105077000D01*
X190149000Y-105331000D02*
X190881000Y-105331000D01*
X183515000Y-92631000D02*
X182880000Y-92631000D01*
X182880000Y-92631000D02*
X182499000Y-92250000D01*
D36*
X189700000Y-83779000D02*
X187960000Y-85519000D01*
X190809500Y-83779000D02*
X189700000Y-83779000D01*
X187960000Y-87551000D02*
X188087000Y-87678000D01*
X187960000Y-86535000D02*
X187960000Y-86408000D01*
X187960000Y-86408000D02*
X187960000Y-87551000D01*
X187960000Y-85519000D02*
X187960000Y-86535000D01*
X191897000Y-88050000D02*
X190347000Y-88050000D01*
X189757008Y-88639992D02*
X190347000Y-88050000D01*
X189743000Y-89964000D02*
X189743000Y-88841164D01*
X189757008Y-88827156D02*
X189743000Y-88841164D01*
X189757008Y-88639992D02*
X189757008Y-88827156D01*
D31*
X121675000Y-74815000D02*
X121900000Y-75040000D01*
X119475000Y-74815000D02*
X121675000Y-74815000D01*
X119475000Y-71295000D02*
X119830000Y-70940000D01*
X119475000Y-74815000D02*
X119475000Y-71295000D01*
D29*
X178875000Y-69885000D02*
X179220000Y-70230000D01*
X176915000Y-69885000D02*
X178875000Y-69885000D01*
D31*
X179220000Y-70230000D02*
X180314000Y-69136000D01*
X189756000Y-69136000D02*
X191560000Y-70940000D01*
X180314000Y-69136000D02*
X189756000Y-69136000D01*
D32*
X165679500Y-81623000D02*
X165679500Y-80353000D01*
X166805500Y-81623000D02*
X166884500Y-81544000D01*
X165679500Y-81623000D02*
X166805500Y-81623000D01*
D29*
X171329500Y-77099000D02*
X166884500Y-81544000D01*
X173936500Y-77099000D02*
X171329500Y-77099000D01*
D34*
X165679500Y-85433000D02*
X163498536Y-85433000D01*
D32*
X179474000Y-78369000D02*
X177053990Y-75948990D01*
X173936500Y-76351408D02*
X173936500Y-77099000D01*
X174338918Y-75948990D02*
X173936500Y-76351408D01*
X177053990Y-75948990D02*
X174338918Y-75948990D01*
X165227000Y-93266000D02*
X165989000Y-92504000D01*
X165227000Y-93313000D02*
X165227000Y-93266000D01*
D35*
X124785000Y-85192500D02*
X123571000Y-83978500D01*
X124785000Y-86085500D02*
X124785000Y-85192500D01*
X125435000Y-84019500D02*
X125476000Y-83978500D01*
X125435000Y-86085500D02*
X125435000Y-84019500D01*
D32*
X163248500Y-82306000D02*
X163265000Y-82322500D01*
X163835500Y-82893000D02*
X165679500Y-82893000D01*
X163265000Y-82322500D02*
X163835500Y-82893000D01*
X163265000Y-80746500D02*
X163258500Y-80740000D01*
X163265000Y-82322500D02*
X163265000Y-80746500D01*
X175520500Y-78623000D02*
X175266500Y-78369000D01*
X175520500Y-79385000D02*
X175520500Y-78623000D01*
X176989000Y-79385000D02*
X177806500Y-80202500D01*
X175520500Y-79385000D02*
X176989000Y-79385000D01*
D29*
X175236500Y-78339000D02*
X175266500Y-78369000D01*
X175236500Y-77099000D02*
X175236500Y-78339000D01*
D32*
X181301500Y-80398500D02*
X181299000Y-80401000D01*
X183013500Y-80398500D02*
X181301500Y-80398500D01*
X181299000Y-82181500D02*
X181360000Y-82242500D01*
X181299000Y-80401000D02*
X181299000Y-82181500D01*
X185173309Y-79969000D02*
X185562002Y-79969000D01*
X183350000Y-79969000D02*
X183007000Y-80312000D01*
X185859500Y-79969000D02*
X183350000Y-79969000D01*
X181233000Y-78303000D02*
X181299000Y-78369000D01*
X181233000Y-76527500D02*
X181233000Y-78303000D01*
X181299000Y-78369000D02*
X182884000Y-78369000D01*
X183294000Y-78699000D02*
X183007000Y-78412000D01*
X185859500Y-78699000D02*
X183294000Y-78699000D01*
X183172000Y-96384000D02*
X182981500Y-96193500D01*
X183172000Y-98936000D02*
X183172000Y-96384000D01*
X186982000Y-96233500D02*
X186942000Y-96193500D01*
X186982000Y-98936000D02*
X186982000Y-96233500D01*
X141605000Y-62913000D02*
X141478000Y-63040000D01*
X141605000Y-61262000D02*
X141605000Y-62913000D01*
X141682010Y-61184990D02*
X141605000Y-61262000D01*
X141682010Y-59501754D02*
X141682010Y-61184990D01*
X140498257Y-58318001D02*
X141682010Y-59501754D01*
X125607001Y-58318001D02*
X140498257Y-58318001D01*
X124357000Y-57068000D02*
X125607001Y-58318001D01*
X126111000Y-58822000D02*
X125607001Y-58318001D01*
X126111000Y-59484000D02*
X126111000Y-58822000D01*
X152019000Y-86831000D02*
X151640000Y-87210000D01*
X152019000Y-85090000D02*
X152019000Y-86831000D01*
X152146000Y-84264500D02*
X151193500Y-83312000D01*
X152146000Y-85090000D02*
X152146000Y-84264500D01*
X179688998Y-63421000D02*
X181974998Y-61135000D01*
X177581000Y-63421000D02*
X179688998Y-63421000D01*
X181974998Y-61135000D02*
X189103000Y-61135000D01*
X189103000Y-61135000D02*
X190373000Y-59865000D01*
X190373000Y-59865000D02*
X190373000Y-58722000D01*
X189437000Y-57786000D02*
X188722000Y-57786000D01*
X190373000Y-58722000D02*
X189437000Y-57786000D01*
X188722000Y-55547000D02*
X188722000Y-57786000D01*
X182901000Y-57706000D02*
X186182000Y-57706000D01*
X178456000Y-62151000D02*
X182901000Y-57706000D01*
X177581000Y-62151000D02*
X178456000Y-62151000D01*
X186182000Y-55547000D02*
X186182000Y-57706000D01*
X151193500Y-81487000D02*
X151193500Y-80010000D01*
X150183000Y-80010000D02*
X149480000Y-79307000D01*
X151193500Y-80010000D02*
X150183000Y-80010000D01*
X146626000Y-79307000D02*
X146050000Y-79883000D01*
X147580000Y-79307000D02*
X146626000Y-79307000D01*
X145732500Y-79565500D02*
X145796000Y-79502000D01*
X144081500Y-79565500D02*
X145732500Y-79565500D01*
M02*
